%FSLAX45Y45*%
G04 Gerber Fmt 4.5, Leading zero omitted, Abs format (unit mm)*
G04 Created by KiCad (PCBNEW 5.1.5+dfsg1-2build2) date 2020-11-28 21:48:07*
%MOMM*%
%LPD*%
G04 APERTURE LIST*
%TA.AperFunction,Profile*%
%ADD10C,0.120000*%
%TD*%
%ADD11C,0.200000*%
%ADD12C,0.300000*%
G04 APERTURE END LIST*
D10*
X12514000Y-6774000D02*
G75*
G03X12514000Y-6774000I-150000J0D01*
G01*
X6114000Y-6774000D02*
G75*
G03X6114000Y-6774000I-150000J0D01*
G01*
X13014000Y-8674000D02*
X13014000Y-4974000D01*
X6114000Y-9374000D02*
X12314000Y-9374000D01*
X5414000Y-4974000D02*
X5414000Y-8670994D01*
X6114000Y-4274000D02*
X12314000Y-4274000D01*
X6114000Y-4274000D02*
G75*
G02X5414000Y-4974000I-700000J0D01*
G01*
X13014000Y-4974000D02*
G75*
G02X12314000Y-4274000I0J700000D01*
G01*
X5414000Y-8670994D02*
G75*
G02X6114000Y-9374000I0J-700006D01*
G01*
X12314000Y-9374000D02*
G75*
G02X13014000Y-8674000I697000J3000D01*
G01*
D11*
D12*
X5694428Y-9845714D02*
X5694428Y-9545714D01*
X5765857Y-9545714D01*
X5808714Y-9560000D01*
X5837286Y-9588572D01*
X5851571Y-9617143D01*
X5865857Y-9674286D01*
X5865857Y-9717143D01*
X5851571Y-9774286D01*
X5837286Y-9802857D01*
X5808714Y-9831429D01*
X5765857Y-9845714D01*
X5694428Y-9845714D01*
X5994428Y-9845714D02*
X5994428Y-9645714D01*
X5994428Y-9702857D02*
X6008714Y-9674286D01*
X6023000Y-9660000D01*
X6051571Y-9645714D01*
X6080143Y-9645714D01*
X6180143Y-9845714D02*
X6180143Y-9645714D01*
X6180143Y-9545714D02*
X6165857Y-9560000D01*
X6180143Y-9574286D01*
X6194428Y-9560000D01*
X6180143Y-9545714D01*
X6180143Y-9574286D01*
X6365857Y-9845714D02*
X6337286Y-9831429D01*
X6323000Y-9802857D01*
X6323000Y-9545714D01*
X6523000Y-9845714D02*
X6494428Y-9831429D01*
X6480143Y-9802857D01*
X6480143Y-9545714D01*
X6865857Y-9845714D02*
X6865857Y-9545714D01*
X6965857Y-9760000D01*
X7065857Y-9545714D01*
X7065857Y-9845714D01*
X7337286Y-9845714D02*
X7337286Y-9688572D01*
X7323000Y-9660000D01*
X7294428Y-9645714D01*
X7237286Y-9645714D01*
X7208714Y-9660000D01*
X7337286Y-9831429D02*
X7308714Y-9845714D01*
X7237286Y-9845714D01*
X7208714Y-9831429D01*
X7194428Y-9802857D01*
X7194428Y-9774286D01*
X7208714Y-9745714D01*
X7237286Y-9731429D01*
X7308714Y-9731429D01*
X7337286Y-9717143D01*
X7480143Y-9645714D02*
X7480143Y-9945714D01*
X7480143Y-9660000D02*
X7508714Y-9645714D01*
X7565857Y-9645714D01*
X7594428Y-9660000D01*
X7608714Y-9674286D01*
X7623000Y-9702857D01*
X7623000Y-9788572D01*
X7608714Y-9817143D01*
X7594428Y-9831429D01*
X7565857Y-9845714D01*
X7508714Y-9845714D01*
X7480143Y-9831429D01*
X7751571Y-9817143D02*
X7765857Y-9831429D01*
X7751571Y-9845714D01*
X7737286Y-9831429D01*
X7751571Y-9817143D01*
X7751571Y-9845714D01*
X7751571Y-9660000D02*
X7765857Y-9674286D01*
X7751571Y-9688572D01*
X7737286Y-9674286D01*
X7751571Y-9660000D01*
X7751571Y-9688572D01*
M02*
