G04 #@! TF.GenerationSoftware,KiCad,Pcbnew,5.1.5+dfsg1-2build2*
G04 #@! TF.CreationDate,2020-11-28T21:48:10+03:00*
G04 #@! TF.ProjectId,NRF_SENDER,4e52465f-5345-44e4-9445-522e6b696361,rev?*
G04 #@! TF.SameCoordinates,Original*
G04 #@! TF.FileFunction,Soldermask,Top*
G04 #@! TF.FilePolarity,Negative*
%FSLAX46Y46*%
G04 Gerber Fmt 4.6, Leading zero omitted, Abs format (unit mm)*
G04 Created by KiCad (PCBNEW 5.1.5+dfsg1-2build2) date 2020-11-28 21:48:10*
%MOMM*%
%LPD*%
G04 APERTURE LIST*
%ADD10C,0.100000*%
G04 APERTURE END LIST*
D10*
G36*
X74636000Y-90341000D02*
G01*
X73084000Y-90341000D01*
X73084000Y-89539000D01*
X74636000Y-89539000D01*
X74636000Y-90341000D01*
G37*
G36*
X79796000Y-90341000D02*
G01*
X78244000Y-90341000D01*
X78244000Y-89539000D01*
X79796000Y-89539000D01*
X79796000Y-90341000D01*
G37*
G36*
X90846000Y-90291000D02*
G01*
X89294000Y-90291000D01*
X89294000Y-89489000D01*
X90846000Y-89489000D01*
X90846000Y-90291000D01*
G37*
G36*
X85686000Y-90291000D02*
G01*
X84134000Y-90291000D01*
X84134000Y-89489000D01*
X85686000Y-89489000D01*
X85686000Y-90291000D01*
G37*
G36*
X74636000Y-88341000D02*
G01*
X73084000Y-88341000D01*
X73084000Y-87539000D01*
X74636000Y-87539000D01*
X74636000Y-88341000D01*
G37*
G36*
X79796000Y-88341000D02*
G01*
X78244000Y-88341000D01*
X78244000Y-87539000D01*
X79796000Y-87539000D01*
X79796000Y-88341000D01*
G37*
G36*
X90846000Y-88291000D02*
G01*
X89294000Y-88291000D01*
X89294000Y-87489000D01*
X90846000Y-87489000D01*
X90846000Y-88291000D01*
G37*
G36*
X85686000Y-88291000D02*
G01*
X84134000Y-88291000D01*
X84134000Y-87489000D01*
X85686000Y-87489000D01*
X85686000Y-88291000D01*
G37*
G36*
X71263512Y-84753927D02*
G01*
X71412812Y-84783624D01*
X71576784Y-84851544D01*
X71724354Y-84950147D01*
X71849853Y-85075646D01*
X71948456Y-85223216D01*
X72016376Y-85387188D01*
X72051000Y-85561259D01*
X72051000Y-85738741D01*
X72016376Y-85912812D01*
X71948456Y-86076784D01*
X71849853Y-86224354D01*
X71724354Y-86349853D01*
X71576784Y-86448456D01*
X71412812Y-86516376D01*
X71263512Y-86546073D01*
X71238742Y-86551000D01*
X71061258Y-86551000D01*
X71036488Y-86546073D01*
X70887188Y-86516376D01*
X70723216Y-86448456D01*
X70575646Y-86349853D01*
X70450147Y-86224354D01*
X70351544Y-86076784D01*
X70283624Y-85912812D01*
X70249000Y-85738741D01*
X70249000Y-85561259D01*
X70283624Y-85387188D01*
X70351544Y-85223216D01*
X70450147Y-85075646D01*
X70575646Y-84950147D01*
X70723216Y-84851544D01*
X70887188Y-84783624D01*
X71036488Y-84753927D01*
X71061258Y-84749000D01*
X71238742Y-84749000D01*
X71263512Y-84753927D01*
G37*
G36*
X76659499Y-85188445D02*
G01*
X76696995Y-85199820D01*
X76731554Y-85218292D01*
X76761847Y-85243153D01*
X76786708Y-85273446D01*
X76805180Y-85308005D01*
X76816555Y-85345501D01*
X76821000Y-85390638D01*
X76821000Y-86029362D01*
X76816555Y-86074499D01*
X76805180Y-86111995D01*
X76786708Y-86146554D01*
X76761847Y-86176847D01*
X76731554Y-86201708D01*
X76696995Y-86220180D01*
X76659499Y-86231555D01*
X76614362Y-86236000D01*
X75875638Y-86236000D01*
X75830501Y-86231555D01*
X75793005Y-86220180D01*
X75758446Y-86201708D01*
X75728153Y-86176847D01*
X75703292Y-86146554D01*
X75684820Y-86111995D01*
X75673445Y-86074499D01*
X75669000Y-86029362D01*
X75669000Y-85390638D01*
X75673445Y-85345501D01*
X75684820Y-85308005D01*
X75703292Y-85273446D01*
X75728153Y-85243153D01*
X75758446Y-85218292D01*
X75793005Y-85199820D01*
X75830501Y-85188445D01*
X75875638Y-85184000D01*
X76614362Y-85184000D01*
X76659499Y-85188445D01*
G37*
G36*
X78409499Y-85188445D02*
G01*
X78446995Y-85199820D01*
X78481554Y-85218292D01*
X78511847Y-85243153D01*
X78536708Y-85273446D01*
X78555180Y-85308005D01*
X78566555Y-85345501D01*
X78571000Y-85390638D01*
X78571000Y-86029362D01*
X78566555Y-86074499D01*
X78555180Y-86111995D01*
X78536708Y-86146554D01*
X78511847Y-86176847D01*
X78481554Y-86201708D01*
X78446995Y-86220180D01*
X78409499Y-86231555D01*
X78364362Y-86236000D01*
X77625638Y-86236000D01*
X77580501Y-86231555D01*
X77543005Y-86220180D01*
X77508446Y-86201708D01*
X77478153Y-86176847D01*
X77453292Y-86146554D01*
X77434820Y-86111995D01*
X77423445Y-86074499D01*
X77419000Y-86029362D01*
X77419000Y-85390638D01*
X77423445Y-85345501D01*
X77434820Y-85308005D01*
X77453292Y-85273446D01*
X77478153Y-85243153D01*
X77508446Y-85218292D01*
X77543005Y-85199820D01*
X77580501Y-85188445D01*
X77625638Y-85184000D01*
X78364362Y-85184000D01*
X78409499Y-85188445D01*
G37*
G36*
X71263512Y-82213927D02*
G01*
X71412812Y-82243624D01*
X71576784Y-82311544D01*
X71724354Y-82410147D01*
X71849853Y-82535646D01*
X71948456Y-82683216D01*
X72016376Y-82847188D01*
X72051000Y-83021259D01*
X72051000Y-83198741D01*
X72016376Y-83372812D01*
X71948456Y-83536784D01*
X71849853Y-83684354D01*
X71724354Y-83809853D01*
X71576784Y-83908456D01*
X71412812Y-83976376D01*
X71263512Y-84006073D01*
X71238742Y-84011000D01*
X71061258Y-84011000D01*
X71036488Y-84006073D01*
X70887188Y-83976376D01*
X70723216Y-83908456D01*
X70575646Y-83809853D01*
X70450147Y-83684354D01*
X70351544Y-83536784D01*
X70283624Y-83372812D01*
X70249000Y-83198741D01*
X70249000Y-83021259D01*
X70283624Y-82847188D01*
X70351544Y-82683216D01*
X70450147Y-82535646D01*
X70575646Y-82410147D01*
X70723216Y-82311544D01*
X70887188Y-82243624D01*
X71036488Y-82213927D01*
X71061258Y-82209000D01*
X71238742Y-82209000D01*
X71263512Y-82213927D01*
G37*
G36*
X80094499Y-82813445D02*
G01*
X80131995Y-82824820D01*
X80166554Y-82843292D01*
X80196847Y-82868153D01*
X80221708Y-82898446D01*
X80240180Y-82933005D01*
X80251555Y-82970501D01*
X80256000Y-83015638D01*
X80256000Y-83754362D01*
X80251555Y-83799499D01*
X80240180Y-83836995D01*
X80221708Y-83871554D01*
X80196847Y-83901847D01*
X80166554Y-83926708D01*
X80131995Y-83945180D01*
X80094499Y-83956555D01*
X80049362Y-83961000D01*
X79410638Y-83961000D01*
X79365501Y-83956555D01*
X79328005Y-83945180D01*
X79293446Y-83926708D01*
X79263153Y-83901847D01*
X79238292Y-83871554D01*
X79219820Y-83836995D01*
X79208445Y-83799499D01*
X79204000Y-83754362D01*
X79204000Y-83015638D01*
X79208445Y-82970501D01*
X79219820Y-82933005D01*
X79238292Y-82898446D01*
X79263153Y-82868153D01*
X79293446Y-82843292D01*
X79328005Y-82824820D01*
X79365501Y-82813445D01*
X79410638Y-82809000D01*
X80049362Y-82809000D01*
X80094499Y-82813445D01*
G37*
G36*
X85999499Y-81558445D02*
G01*
X86036995Y-81569820D01*
X86071554Y-81588292D01*
X86101847Y-81613153D01*
X86126708Y-81643446D01*
X86145180Y-81678005D01*
X86156555Y-81715501D01*
X86161000Y-81760638D01*
X86161000Y-82399362D01*
X86156555Y-82444499D01*
X86145180Y-82481995D01*
X86126708Y-82516554D01*
X86101847Y-82546847D01*
X86071554Y-82571708D01*
X86036995Y-82590180D01*
X85999499Y-82601555D01*
X85954362Y-82606000D01*
X85215638Y-82606000D01*
X85170501Y-82601555D01*
X85133005Y-82590180D01*
X85098446Y-82571708D01*
X85068153Y-82546847D01*
X85043292Y-82516554D01*
X85024820Y-82481995D01*
X85013445Y-82444499D01*
X85009000Y-82399362D01*
X85009000Y-81760638D01*
X85013445Y-81715501D01*
X85024820Y-81678005D01*
X85043292Y-81643446D01*
X85068153Y-81613153D01*
X85098446Y-81588292D01*
X85133005Y-81569820D01*
X85170501Y-81558445D01*
X85215638Y-81554000D01*
X85954362Y-81554000D01*
X85999499Y-81558445D01*
G37*
G36*
X87749499Y-81558445D02*
G01*
X87786995Y-81569820D01*
X87821554Y-81588292D01*
X87851847Y-81613153D01*
X87876708Y-81643446D01*
X87895180Y-81678005D01*
X87906555Y-81715501D01*
X87911000Y-81760638D01*
X87911000Y-82399362D01*
X87906555Y-82444499D01*
X87895180Y-82481995D01*
X87876708Y-82516554D01*
X87851847Y-82546847D01*
X87821554Y-82571708D01*
X87786995Y-82590180D01*
X87749499Y-82601555D01*
X87704362Y-82606000D01*
X86965638Y-82606000D01*
X86920501Y-82601555D01*
X86883005Y-82590180D01*
X86848446Y-82571708D01*
X86818153Y-82546847D01*
X86793292Y-82516554D01*
X86774820Y-82481995D01*
X86763445Y-82444499D01*
X86759000Y-82399362D01*
X86759000Y-81760638D01*
X86763445Y-81715501D01*
X86774820Y-81678005D01*
X86793292Y-81643446D01*
X86818153Y-81613153D01*
X86848446Y-81588292D01*
X86883005Y-81569820D01*
X86920501Y-81558445D01*
X86965638Y-81554000D01*
X87704362Y-81554000D01*
X87749499Y-81558445D01*
G37*
G36*
X82449499Y-81488445D02*
G01*
X82486995Y-81499820D01*
X82521554Y-81518292D01*
X82551847Y-81543153D01*
X82576708Y-81573446D01*
X82595180Y-81608005D01*
X82606555Y-81645501D01*
X82611000Y-81690638D01*
X82611000Y-82329362D01*
X82606555Y-82374499D01*
X82595180Y-82411995D01*
X82576708Y-82446554D01*
X82551847Y-82476847D01*
X82521554Y-82501708D01*
X82486995Y-82520180D01*
X82449499Y-82531555D01*
X82404362Y-82536000D01*
X81665638Y-82536000D01*
X81620501Y-82531555D01*
X81583005Y-82520180D01*
X81548446Y-82501708D01*
X81518153Y-82476847D01*
X81493292Y-82446554D01*
X81474820Y-82411995D01*
X81463445Y-82374499D01*
X81459000Y-82329362D01*
X81459000Y-81690638D01*
X81463445Y-81645501D01*
X81474820Y-81608005D01*
X81493292Y-81573446D01*
X81518153Y-81543153D01*
X81548446Y-81518292D01*
X81583005Y-81499820D01*
X81620501Y-81488445D01*
X81665638Y-81484000D01*
X82404362Y-81484000D01*
X82449499Y-81488445D01*
G37*
G36*
X84199499Y-81488445D02*
G01*
X84236995Y-81499820D01*
X84271554Y-81518292D01*
X84301847Y-81543153D01*
X84326708Y-81573446D01*
X84345180Y-81608005D01*
X84356555Y-81645501D01*
X84361000Y-81690638D01*
X84361000Y-82329362D01*
X84356555Y-82374499D01*
X84345180Y-82411995D01*
X84326708Y-82446554D01*
X84301847Y-82476847D01*
X84271554Y-82501708D01*
X84236995Y-82520180D01*
X84199499Y-82531555D01*
X84154362Y-82536000D01*
X83415638Y-82536000D01*
X83370501Y-82531555D01*
X83333005Y-82520180D01*
X83298446Y-82501708D01*
X83268153Y-82476847D01*
X83243292Y-82446554D01*
X83224820Y-82411995D01*
X83213445Y-82374499D01*
X83209000Y-82329362D01*
X83209000Y-81690638D01*
X83213445Y-81645501D01*
X83224820Y-81608005D01*
X83243292Y-81573446D01*
X83268153Y-81543153D01*
X83298446Y-81518292D01*
X83333005Y-81499820D01*
X83370501Y-81488445D01*
X83415638Y-81484000D01*
X84154362Y-81484000D01*
X84199499Y-81488445D01*
G37*
G36*
X76574499Y-81233445D02*
G01*
X76611995Y-81244820D01*
X76646554Y-81263292D01*
X76676847Y-81288153D01*
X76701708Y-81318446D01*
X76720180Y-81353005D01*
X76731555Y-81390501D01*
X76736000Y-81435638D01*
X76736000Y-82174362D01*
X76731555Y-82219499D01*
X76720180Y-82256995D01*
X76701708Y-82291554D01*
X76676847Y-82321847D01*
X76646554Y-82346708D01*
X76611995Y-82365180D01*
X76574499Y-82376555D01*
X76529362Y-82381000D01*
X75890638Y-82381000D01*
X75845501Y-82376555D01*
X75808005Y-82365180D01*
X75773446Y-82346708D01*
X75743153Y-82321847D01*
X75718292Y-82291554D01*
X75699820Y-82256995D01*
X75688445Y-82219499D01*
X75684000Y-82174362D01*
X75684000Y-81435638D01*
X75688445Y-81390501D01*
X75699820Y-81353005D01*
X75718292Y-81318446D01*
X75743153Y-81288153D01*
X75773446Y-81263292D01*
X75808005Y-81244820D01*
X75845501Y-81233445D01*
X75890638Y-81229000D01*
X76529362Y-81229000D01*
X76574499Y-81233445D01*
G37*
G36*
X78342499Y-81075445D02*
G01*
X78379995Y-81086820D01*
X78414554Y-81105292D01*
X78444847Y-81130153D01*
X78469708Y-81160446D01*
X78488180Y-81195005D01*
X78499555Y-81232501D01*
X78504000Y-81277638D01*
X78504000Y-82016362D01*
X78499555Y-82061499D01*
X78488180Y-82098995D01*
X78469708Y-82133554D01*
X78444847Y-82163847D01*
X78414554Y-82188708D01*
X78379995Y-82207180D01*
X78342499Y-82218555D01*
X78297362Y-82223000D01*
X77658638Y-82223000D01*
X77613501Y-82218555D01*
X77576005Y-82207180D01*
X77541446Y-82188708D01*
X77511153Y-82163847D01*
X77486292Y-82133554D01*
X77467820Y-82098995D01*
X77456445Y-82061499D01*
X77452000Y-82016362D01*
X77452000Y-81277638D01*
X77456445Y-81232501D01*
X77467820Y-81195005D01*
X77486292Y-81160446D01*
X77511153Y-81130153D01*
X77541446Y-81105292D01*
X77576005Y-81086820D01*
X77613501Y-81075445D01*
X77658638Y-81071000D01*
X78297362Y-81071000D01*
X78342499Y-81075445D01*
G37*
G36*
X80094499Y-81063445D02*
G01*
X80131995Y-81074820D01*
X80166554Y-81093292D01*
X80196847Y-81118153D01*
X80221708Y-81148446D01*
X80240180Y-81183005D01*
X80251555Y-81220501D01*
X80256000Y-81265638D01*
X80256000Y-82004362D01*
X80251555Y-82049499D01*
X80240180Y-82086995D01*
X80221708Y-82121554D01*
X80196847Y-82151847D01*
X80166554Y-82176708D01*
X80131995Y-82195180D01*
X80094499Y-82206555D01*
X80049362Y-82211000D01*
X79410638Y-82211000D01*
X79365501Y-82206555D01*
X79328005Y-82195180D01*
X79293446Y-82176708D01*
X79263153Y-82151847D01*
X79238292Y-82121554D01*
X79219820Y-82086995D01*
X79208445Y-82049499D01*
X79204000Y-82004362D01*
X79204000Y-81265638D01*
X79208445Y-81220501D01*
X79219820Y-81183005D01*
X79238292Y-81148446D01*
X79263153Y-81118153D01*
X79293446Y-81093292D01*
X79328005Y-81074820D01*
X79365501Y-81063445D01*
X79410638Y-81059000D01*
X80049362Y-81059000D01*
X80094499Y-81063445D01*
G37*
G36*
X71263512Y-79673927D02*
G01*
X71412812Y-79703624D01*
X71576784Y-79771544D01*
X71724354Y-79870147D01*
X71849853Y-79995646D01*
X71948456Y-80143216D01*
X72016376Y-80307188D01*
X72051000Y-80481259D01*
X72051000Y-80658741D01*
X72016376Y-80832812D01*
X71948456Y-80996784D01*
X71849853Y-81144354D01*
X71724354Y-81269853D01*
X71576784Y-81368456D01*
X71412812Y-81436376D01*
X71263512Y-81466073D01*
X71238742Y-81471000D01*
X71061258Y-81471000D01*
X71036488Y-81466073D01*
X70887188Y-81436376D01*
X70723216Y-81368456D01*
X70575646Y-81269853D01*
X70450147Y-81144354D01*
X70351544Y-80996784D01*
X70283624Y-80832812D01*
X70249000Y-80658741D01*
X70249000Y-80481259D01*
X70283624Y-80307188D01*
X70351544Y-80143216D01*
X70450147Y-79995646D01*
X70575646Y-79870147D01*
X70723216Y-79771544D01*
X70887188Y-79703624D01*
X71036488Y-79673927D01*
X71061258Y-79669000D01*
X71238742Y-79669000D01*
X71263512Y-79673927D01*
G37*
G36*
X76574499Y-79483445D02*
G01*
X76611995Y-79494820D01*
X76646554Y-79513292D01*
X76676847Y-79538153D01*
X76701708Y-79568446D01*
X76720180Y-79603005D01*
X76731555Y-79640501D01*
X76736000Y-79685638D01*
X76736000Y-80424362D01*
X76731555Y-80469499D01*
X76720180Y-80506995D01*
X76701708Y-80541554D01*
X76676847Y-80571847D01*
X76646554Y-80596708D01*
X76611995Y-80615180D01*
X76574499Y-80626555D01*
X76529362Y-80631000D01*
X75890638Y-80631000D01*
X75845501Y-80626555D01*
X75808005Y-80615180D01*
X75773446Y-80596708D01*
X75743153Y-80571847D01*
X75718292Y-80541554D01*
X75699820Y-80506995D01*
X75688445Y-80469499D01*
X75684000Y-80424362D01*
X75684000Y-79685638D01*
X75688445Y-79640501D01*
X75699820Y-79603005D01*
X75718292Y-79568446D01*
X75743153Y-79538153D01*
X75773446Y-79513292D01*
X75808005Y-79494820D01*
X75845501Y-79483445D01*
X75890638Y-79479000D01*
X76529362Y-79479000D01*
X76574499Y-79483445D01*
G37*
G36*
X78342499Y-79325445D02*
G01*
X78379995Y-79336820D01*
X78414554Y-79355292D01*
X78444847Y-79380153D01*
X78469708Y-79410446D01*
X78488180Y-79445005D01*
X78499555Y-79482501D01*
X78504000Y-79527638D01*
X78504000Y-80266362D01*
X78499555Y-80311499D01*
X78488180Y-80348995D01*
X78469708Y-80383554D01*
X78444847Y-80413847D01*
X78414554Y-80438708D01*
X78379995Y-80457180D01*
X78342499Y-80468555D01*
X78297362Y-80473000D01*
X77658638Y-80473000D01*
X77613501Y-80468555D01*
X77576005Y-80457180D01*
X77541446Y-80438708D01*
X77511153Y-80413847D01*
X77486292Y-80383554D01*
X77467820Y-80348995D01*
X77456445Y-80311499D01*
X77452000Y-80266362D01*
X77452000Y-79527638D01*
X77456445Y-79482501D01*
X77467820Y-79445005D01*
X77486292Y-79410446D01*
X77511153Y-79380153D01*
X77541446Y-79355292D01*
X77576005Y-79336820D01*
X77613501Y-79325445D01*
X77658638Y-79321000D01*
X78297362Y-79321000D01*
X78342499Y-79325445D01*
G37*
G36*
X87624499Y-78848445D02*
G01*
X87661995Y-78859820D01*
X87696554Y-78878292D01*
X87726847Y-78903153D01*
X87751708Y-78933446D01*
X87770180Y-78968005D01*
X87781555Y-79005501D01*
X87786000Y-79050638D01*
X87786000Y-79689362D01*
X87781555Y-79734499D01*
X87770180Y-79771995D01*
X87751708Y-79806554D01*
X87726847Y-79836847D01*
X87696554Y-79861708D01*
X87661995Y-79880180D01*
X87624499Y-79891555D01*
X87579362Y-79896000D01*
X86840638Y-79896000D01*
X86795501Y-79891555D01*
X86758005Y-79880180D01*
X86723446Y-79861708D01*
X86693153Y-79836847D01*
X86668292Y-79806554D01*
X86649820Y-79771995D01*
X86638445Y-79734499D01*
X86634000Y-79689362D01*
X86634000Y-79050638D01*
X86638445Y-79005501D01*
X86649820Y-78968005D01*
X86668292Y-78933446D01*
X86693153Y-78903153D01*
X86723446Y-78878292D01*
X86758005Y-78859820D01*
X86795501Y-78848445D01*
X86840638Y-78844000D01*
X87579362Y-78844000D01*
X87624499Y-78848445D01*
G37*
G36*
X85874499Y-78848445D02*
G01*
X85911995Y-78859820D01*
X85946554Y-78878292D01*
X85976847Y-78903153D01*
X86001708Y-78933446D01*
X86020180Y-78968005D01*
X86031555Y-79005501D01*
X86036000Y-79050638D01*
X86036000Y-79689362D01*
X86031555Y-79734499D01*
X86020180Y-79771995D01*
X86001708Y-79806554D01*
X85976847Y-79836847D01*
X85946554Y-79861708D01*
X85911995Y-79880180D01*
X85874499Y-79891555D01*
X85829362Y-79896000D01*
X85090638Y-79896000D01*
X85045501Y-79891555D01*
X85008005Y-79880180D01*
X84973446Y-79861708D01*
X84943153Y-79836847D01*
X84918292Y-79806554D01*
X84899820Y-79771995D01*
X84888445Y-79734499D01*
X84884000Y-79689362D01*
X84884000Y-79050638D01*
X84888445Y-79005501D01*
X84899820Y-78968005D01*
X84918292Y-78933446D01*
X84943153Y-78903153D01*
X84973446Y-78878292D01*
X85008005Y-78859820D01*
X85045501Y-78848445D01*
X85090638Y-78844000D01*
X85829362Y-78844000D01*
X85874499Y-78848445D01*
G37*
G36*
X97141000Y-79541000D02*
G01*
X94539000Y-79541000D01*
X94539000Y-76939000D01*
X97141000Y-76939000D01*
X97141000Y-79541000D01*
G37*
G36*
X124019487Y-76988996D02*
G01*
X124256253Y-77087068D01*
X124256255Y-77087069D01*
X124319009Y-77129000D01*
X124469339Y-77229447D01*
X124650553Y-77410661D01*
X124792932Y-77623747D01*
X124891004Y-77860513D01*
X124941000Y-78111861D01*
X124941000Y-78368139D01*
X124891004Y-78619487D01*
X124804446Y-78828456D01*
X124792931Y-78856255D01*
X124650553Y-79069339D01*
X124469339Y-79250553D01*
X124256255Y-79392931D01*
X124256254Y-79392932D01*
X124256253Y-79392932D01*
X124019487Y-79491004D01*
X123768139Y-79541000D01*
X123511861Y-79541000D01*
X123260513Y-79491004D01*
X123023747Y-79392932D01*
X123023746Y-79392932D01*
X123023745Y-79392931D01*
X122810661Y-79250553D01*
X122629447Y-79069339D01*
X122487069Y-78856255D01*
X122475554Y-78828456D01*
X122388996Y-78619487D01*
X122339000Y-78368139D01*
X122339000Y-78111861D01*
X122388996Y-77860513D01*
X122487068Y-77623747D01*
X122629447Y-77410661D01*
X122810661Y-77229447D01*
X122960991Y-77129000D01*
X123023745Y-77087069D01*
X123023747Y-77087068D01*
X123260513Y-76988996D01*
X123511861Y-76939000D01*
X123768139Y-76939000D01*
X124019487Y-76988996D01*
G37*
G36*
X71263512Y-77133927D02*
G01*
X71412812Y-77163624D01*
X71576784Y-77231544D01*
X71724354Y-77330147D01*
X71849853Y-77455646D01*
X71948456Y-77603216D01*
X72016376Y-77767188D01*
X72051000Y-77941259D01*
X72051000Y-78118741D01*
X72016376Y-78292812D01*
X71948456Y-78456784D01*
X71849853Y-78604354D01*
X71724354Y-78729853D01*
X71576784Y-78828456D01*
X71412812Y-78896376D01*
X71263512Y-78926073D01*
X71238742Y-78931000D01*
X71061258Y-78931000D01*
X71036488Y-78926073D01*
X70887188Y-78896376D01*
X70723216Y-78828456D01*
X70575646Y-78729853D01*
X70450147Y-78604354D01*
X70351544Y-78456784D01*
X70283624Y-78292812D01*
X70249000Y-78118741D01*
X70249000Y-77941259D01*
X70283624Y-77767188D01*
X70351544Y-77603216D01*
X70450147Y-77455646D01*
X70575646Y-77330147D01*
X70723216Y-77231544D01*
X70887188Y-77163624D01*
X71036488Y-77133927D01*
X71061258Y-77129000D01*
X71238742Y-77129000D01*
X71263512Y-77133927D01*
G37*
G36*
X82957000Y-78910000D02*
G01*
X76555000Y-78910000D01*
X76555000Y-77358000D01*
X82957000Y-77358000D01*
X82957000Y-78910000D01*
G37*
G36*
X71263512Y-74593927D02*
G01*
X71412812Y-74623624D01*
X71576784Y-74691544D01*
X71724354Y-74790147D01*
X71849853Y-74915646D01*
X71948456Y-75063216D01*
X72016376Y-75227188D01*
X72051000Y-75401259D01*
X72051000Y-75578741D01*
X72016376Y-75752812D01*
X71948456Y-75916784D01*
X71849853Y-76064354D01*
X71724354Y-76189853D01*
X71576784Y-76288456D01*
X71412812Y-76356376D01*
X71263512Y-76386073D01*
X71238742Y-76391000D01*
X71061258Y-76391000D01*
X71036488Y-76386073D01*
X70887188Y-76356376D01*
X70723216Y-76288456D01*
X70575646Y-76189853D01*
X70450147Y-76064354D01*
X70351544Y-75916784D01*
X70283624Y-75752812D01*
X70249000Y-75578741D01*
X70249000Y-75401259D01*
X70283624Y-75227188D01*
X70351544Y-75063216D01*
X70450147Y-74915646D01*
X70575646Y-74790147D01*
X70723216Y-74691544D01*
X70887188Y-74623624D01*
X71036488Y-74593927D01*
X71061258Y-74589000D01*
X71238742Y-74589000D01*
X71263512Y-74593927D01*
G37*
G36*
X72051000Y-73851000D02*
G01*
X70249000Y-73851000D01*
X70249000Y-72049000D01*
X72051000Y-72049000D01*
X72051000Y-73851000D01*
G37*
G36*
X82957000Y-73010000D02*
G01*
X76555000Y-73010000D01*
X76555000Y-71458000D01*
X82957000Y-71458000D01*
X82957000Y-73010000D01*
G37*
G36*
X80594499Y-69153445D02*
G01*
X80631995Y-69164820D01*
X80666554Y-69183292D01*
X80696847Y-69208153D01*
X80721708Y-69238446D01*
X80740180Y-69273005D01*
X80751555Y-69310501D01*
X80756000Y-69355638D01*
X80756000Y-70094362D01*
X80751555Y-70139499D01*
X80740180Y-70176995D01*
X80721708Y-70211554D01*
X80696847Y-70241847D01*
X80666554Y-70266708D01*
X80631995Y-70285180D01*
X80594499Y-70296555D01*
X80549362Y-70301000D01*
X79910638Y-70301000D01*
X79865501Y-70296555D01*
X79828005Y-70285180D01*
X79793446Y-70266708D01*
X79763153Y-70241847D01*
X79738292Y-70211554D01*
X79719820Y-70176995D01*
X79708445Y-70139499D01*
X79704000Y-70094362D01*
X79704000Y-69355638D01*
X79708445Y-69310501D01*
X79719820Y-69273005D01*
X79738292Y-69238446D01*
X79763153Y-69208153D01*
X79793446Y-69183292D01*
X79828005Y-69164820D01*
X79865501Y-69153445D01*
X79910638Y-69149000D01*
X80549362Y-69149000D01*
X80594499Y-69153445D01*
G37*
G36*
X80594499Y-67403445D02*
G01*
X80631995Y-67414820D01*
X80666554Y-67433292D01*
X80696847Y-67458153D01*
X80721708Y-67488446D01*
X80740180Y-67523005D01*
X80751555Y-67560501D01*
X80756000Y-67605638D01*
X80756000Y-68344362D01*
X80751555Y-68389499D01*
X80740180Y-68426995D01*
X80721708Y-68461554D01*
X80696847Y-68491847D01*
X80666554Y-68516708D01*
X80631995Y-68535180D01*
X80594499Y-68546555D01*
X80549362Y-68551000D01*
X79910638Y-68551000D01*
X79865501Y-68546555D01*
X79828005Y-68535180D01*
X79793446Y-68516708D01*
X79763153Y-68491847D01*
X79738292Y-68461554D01*
X79719820Y-68426995D01*
X79708445Y-68389499D01*
X79704000Y-68344362D01*
X79704000Y-67605638D01*
X79708445Y-67560501D01*
X79719820Y-67523005D01*
X79738292Y-67488446D01*
X79763153Y-67458153D01*
X79793446Y-67433292D01*
X79828005Y-67414820D01*
X79865501Y-67403445D01*
X79910638Y-67399000D01*
X80549362Y-67399000D01*
X80594499Y-67403445D01*
G37*
G36*
X91669499Y-67158445D02*
G01*
X91706995Y-67169820D01*
X91741554Y-67188292D01*
X91771847Y-67213153D01*
X91796708Y-67243446D01*
X91815180Y-67278005D01*
X91826555Y-67315501D01*
X91831000Y-67360638D01*
X91831000Y-67999362D01*
X91826555Y-68044499D01*
X91815180Y-68081995D01*
X91796708Y-68116554D01*
X91771847Y-68146847D01*
X91741554Y-68171708D01*
X91706995Y-68190180D01*
X91669499Y-68201555D01*
X91624362Y-68206000D01*
X90885638Y-68206000D01*
X90840501Y-68201555D01*
X90803005Y-68190180D01*
X90768446Y-68171708D01*
X90738153Y-68146847D01*
X90713292Y-68116554D01*
X90694820Y-68081995D01*
X90683445Y-68044499D01*
X90679000Y-67999362D01*
X90679000Y-67360638D01*
X90683445Y-67315501D01*
X90694820Y-67278005D01*
X90713292Y-67243446D01*
X90738153Y-67213153D01*
X90768446Y-67188292D01*
X90803005Y-67169820D01*
X90840501Y-67158445D01*
X90885638Y-67154000D01*
X91624362Y-67154000D01*
X91669499Y-67158445D01*
G37*
G36*
X93419499Y-67158445D02*
G01*
X93456995Y-67169820D01*
X93491554Y-67188292D01*
X93521847Y-67213153D01*
X93546708Y-67243446D01*
X93565180Y-67278005D01*
X93576555Y-67315501D01*
X93581000Y-67360638D01*
X93581000Y-67999362D01*
X93576555Y-68044499D01*
X93565180Y-68081995D01*
X93546708Y-68116554D01*
X93521847Y-68146847D01*
X93491554Y-68171708D01*
X93456995Y-68190180D01*
X93419499Y-68201555D01*
X93374362Y-68206000D01*
X92635638Y-68206000D01*
X92590501Y-68201555D01*
X92553005Y-68190180D01*
X92518446Y-68171708D01*
X92488153Y-68146847D01*
X92463292Y-68116554D01*
X92444820Y-68081995D01*
X92433445Y-68044499D01*
X92429000Y-67999362D01*
X92429000Y-67360638D01*
X92433445Y-67315501D01*
X92444820Y-67278005D01*
X92463292Y-67243446D01*
X92488153Y-67213153D01*
X92518446Y-67188292D01*
X92553005Y-67169820D01*
X92590501Y-67158445D01*
X92635638Y-67154000D01*
X93374362Y-67154000D01*
X93419499Y-67158445D01*
G37*
G36*
X111419591Y-65943085D02*
G01*
X111453569Y-65953393D01*
X111484890Y-65970134D01*
X111512339Y-65992661D01*
X111534866Y-66020110D01*
X111551607Y-66051431D01*
X111561915Y-66085409D01*
X111566000Y-66126890D01*
X111566000Y-66728110D01*
X111561915Y-66769591D01*
X111551607Y-66803569D01*
X111534866Y-66834890D01*
X111512339Y-66862339D01*
X111484890Y-66884866D01*
X111453569Y-66901607D01*
X111419591Y-66911915D01*
X111378110Y-66916000D01*
X110701890Y-66916000D01*
X110660409Y-66911915D01*
X110626431Y-66901607D01*
X110595110Y-66884866D01*
X110567661Y-66862339D01*
X110545134Y-66834890D01*
X110528393Y-66803569D01*
X110518085Y-66769591D01*
X110514000Y-66728110D01*
X110514000Y-66126890D01*
X110518085Y-66085409D01*
X110528393Y-66051431D01*
X110545134Y-66020110D01*
X110567661Y-65992661D01*
X110595110Y-65970134D01*
X110626431Y-65953393D01*
X110660409Y-65943085D01*
X110701890Y-65939000D01*
X111378110Y-65939000D01*
X111419591Y-65943085D01*
G37*
G36*
X108611000Y-66711000D02*
G01*
X100309000Y-66711000D01*
X100309000Y-64009000D01*
X108611000Y-64009000D01*
X108611000Y-66711000D01*
G37*
G36*
X93389499Y-65438445D02*
G01*
X93426995Y-65449820D01*
X93461554Y-65468292D01*
X93491847Y-65493153D01*
X93516708Y-65523446D01*
X93535180Y-65558005D01*
X93546555Y-65595501D01*
X93551000Y-65640638D01*
X93551000Y-66279362D01*
X93546555Y-66324499D01*
X93535180Y-66361995D01*
X93516708Y-66396554D01*
X93491847Y-66426847D01*
X93461554Y-66451708D01*
X93426995Y-66470180D01*
X93389499Y-66481555D01*
X93344362Y-66486000D01*
X92605638Y-66486000D01*
X92560501Y-66481555D01*
X92523005Y-66470180D01*
X92488446Y-66451708D01*
X92458153Y-66426847D01*
X92433292Y-66396554D01*
X92414820Y-66361995D01*
X92403445Y-66324499D01*
X92399000Y-66279362D01*
X92399000Y-65640638D01*
X92403445Y-65595501D01*
X92414820Y-65558005D01*
X92433292Y-65523446D01*
X92458153Y-65493153D01*
X92488446Y-65468292D01*
X92523005Y-65449820D01*
X92560501Y-65438445D01*
X92605638Y-65434000D01*
X93344362Y-65434000D01*
X93389499Y-65438445D01*
G37*
G36*
X91639499Y-65438445D02*
G01*
X91676995Y-65449820D01*
X91711554Y-65468292D01*
X91741847Y-65493153D01*
X91766708Y-65523446D01*
X91785180Y-65558005D01*
X91796555Y-65595501D01*
X91801000Y-65640638D01*
X91801000Y-66279362D01*
X91796555Y-66324499D01*
X91785180Y-66361995D01*
X91766708Y-66396554D01*
X91741847Y-66426847D01*
X91711554Y-66451708D01*
X91676995Y-66470180D01*
X91639499Y-66481555D01*
X91594362Y-66486000D01*
X90855638Y-66486000D01*
X90810501Y-66481555D01*
X90773005Y-66470180D01*
X90738446Y-66451708D01*
X90708153Y-66426847D01*
X90683292Y-66396554D01*
X90664820Y-66361995D01*
X90653445Y-66324499D01*
X90649000Y-66279362D01*
X90649000Y-65640638D01*
X90653445Y-65595501D01*
X90664820Y-65558005D01*
X90683292Y-65523446D01*
X90708153Y-65493153D01*
X90738446Y-65468292D01*
X90773005Y-65449820D01*
X90810501Y-65438445D01*
X90855638Y-65434000D01*
X91594362Y-65434000D01*
X91639499Y-65438445D01*
G37*
G36*
X111419591Y-64368085D02*
G01*
X111453569Y-64378393D01*
X111484890Y-64395134D01*
X111512339Y-64417661D01*
X111534866Y-64445110D01*
X111551607Y-64476431D01*
X111561915Y-64510409D01*
X111566000Y-64551890D01*
X111566000Y-65153110D01*
X111561915Y-65194591D01*
X111551607Y-65228569D01*
X111534866Y-65259890D01*
X111512339Y-65287339D01*
X111484890Y-65309866D01*
X111453569Y-65326607D01*
X111419591Y-65336915D01*
X111378110Y-65341000D01*
X110701890Y-65341000D01*
X110660409Y-65336915D01*
X110626431Y-65326607D01*
X110595110Y-65309866D01*
X110567661Y-65287339D01*
X110545134Y-65259890D01*
X110528393Y-65228569D01*
X110518085Y-65194591D01*
X110514000Y-65153110D01*
X110514000Y-64551890D01*
X110518085Y-64510409D01*
X110528393Y-64476431D01*
X110545134Y-64445110D01*
X110567661Y-64417661D01*
X110595110Y-64395134D01*
X110626431Y-64378393D01*
X110660409Y-64368085D01*
X110701890Y-64364000D01*
X111378110Y-64364000D01*
X111419591Y-64368085D01*
G37*
G36*
X91654499Y-63748445D02*
G01*
X91691995Y-63759820D01*
X91726554Y-63778292D01*
X91756847Y-63803153D01*
X91781708Y-63833446D01*
X91800180Y-63868005D01*
X91811555Y-63905501D01*
X91816000Y-63950638D01*
X91816000Y-64589362D01*
X91811555Y-64634499D01*
X91800180Y-64671995D01*
X91781708Y-64706554D01*
X91756847Y-64736847D01*
X91726554Y-64761708D01*
X91691995Y-64780180D01*
X91654499Y-64791555D01*
X91609362Y-64796000D01*
X90870638Y-64796000D01*
X90825501Y-64791555D01*
X90788005Y-64780180D01*
X90753446Y-64761708D01*
X90723153Y-64736847D01*
X90698292Y-64706554D01*
X90679820Y-64671995D01*
X90668445Y-64634499D01*
X90664000Y-64589362D01*
X90664000Y-63950638D01*
X90668445Y-63905501D01*
X90679820Y-63868005D01*
X90698292Y-63833446D01*
X90723153Y-63803153D01*
X90753446Y-63778292D01*
X90788005Y-63759820D01*
X90825501Y-63748445D01*
X90870638Y-63744000D01*
X91609362Y-63744000D01*
X91654499Y-63748445D01*
G37*
G36*
X93404499Y-63748445D02*
G01*
X93441995Y-63759820D01*
X93476554Y-63778292D01*
X93506847Y-63803153D01*
X93531708Y-63833446D01*
X93550180Y-63868005D01*
X93561555Y-63905501D01*
X93566000Y-63950638D01*
X93566000Y-64589362D01*
X93561555Y-64634499D01*
X93550180Y-64671995D01*
X93531708Y-64706554D01*
X93506847Y-64736847D01*
X93476554Y-64761708D01*
X93441995Y-64780180D01*
X93404499Y-64791555D01*
X93359362Y-64796000D01*
X92620638Y-64796000D01*
X92575501Y-64791555D01*
X92538005Y-64780180D01*
X92503446Y-64761708D01*
X92473153Y-64736847D01*
X92448292Y-64706554D01*
X92429820Y-64671995D01*
X92418445Y-64634499D01*
X92414000Y-64589362D01*
X92414000Y-63950638D01*
X92418445Y-63905501D01*
X92429820Y-63868005D01*
X92448292Y-63833446D01*
X92473153Y-63803153D01*
X92503446Y-63778292D01*
X92538005Y-63759820D01*
X92575501Y-63748445D01*
X92620638Y-63744000D01*
X93359362Y-63744000D01*
X93404499Y-63748445D01*
G37*
G36*
X82660499Y-62556445D02*
G01*
X82697995Y-62567820D01*
X82732554Y-62586292D01*
X82762847Y-62611153D01*
X82787708Y-62641446D01*
X82806180Y-62676005D01*
X82817555Y-62713501D01*
X82822000Y-62758638D01*
X82822000Y-63497362D01*
X82817555Y-63542499D01*
X82806180Y-63579995D01*
X82787708Y-63614554D01*
X82762847Y-63644847D01*
X82732554Y-63669708D01*
X82697995Y-63688180D01*
X82660499Y-63699555D01*
X82615362Y-63704000D01*
X81976638Y-63704000D01*
X81931501Y-63699555D01*
X81894005Y-63688180D01*
X81859446Y-63669708D01*
X81829153Y-63644847D01*
X81804292Y-63614554D01*
X81785820Y-63579995D01*
X81774445Y-63542499D01*
X81770000Y-63497362D01*
X81770000Y-62758638D01*
X81774445Y-62713501D01*
X81785820Y-62676005D01*
X81804292Y-62641446D01*
X81829153Y-62611153D01*
X81859446Y-62586292D01*
X81894005Y-62567820D01*
X81931501Y-62556445D01*
X81976638Y-62552000D01*
X82615362Y-62552000D01*
X82660499Y-62556445D01*
G37*
G36*
X91654499Y-62088445D02*
G01*
X91691995Y-62099820D01*
X91726554Y-62118292D01*
X91756847Y-62143153D01*
X91781708Y-62173446D01*
X91800180Y-62208005D01*
X91811555Y-62245501D01*
X91816000Y-62290638D01*
X91816000Y-62929362D01*
X91811555Y-62974499D01*
X91800180Y-63011995D01*
X91781708Y-63046554D01*
X91756847Y-63076847D01*
X91726554Y-63101708D01*
X91691995Y-63120180D01*
X91654499Y-63131555D01*
X91609362Y-63136000D01*
X90870638Y-63136000D01*
X90825501Y-63131555D01*
X90788005Y-63120180D01*
X90753446Y-63101708D01*
X90723153Y-63076847D01*
X90698292Y-63046554D01*
X90679820Y-63011995D01*
X90668445Y-62974499D01*
X90664000Y-62929362D01*
X90664000Y-62290638D01*
X90668445Y-62245501D01*
X90679820Y-62208005D01*
X90698292Y-62173446D01*
X90723153Y-62143153D01*
X90753446Y-62118292D01*
X90788005Y-62099820D01*
X90825501Y-62088445D01*
X90870638Y-62084000D01*
X91609362Y-62084000D01*
X91654499Y-62088445D01*
G37*
G36*
X93404499Y-62088445D02*
G01*
X93441995Y-62099820D01*
X93476554Y-62118292D01*
X93506847Y-62143153D01*
X93531708Y-62173446D01*
X93550180Y-62208005D01*
X93561555Y-62245501D01*
X93566000Y-62290638D01*
X93566000Y-62929362D01*
X93561555Y-62974499D01*
X93550180Y-63011995D01*
X93531708Y-63046554D01*
X93506847Y-63076847D01*
X93476554Y-63101708D01*
X93441995Y-63120180D01*
X93404499Y-63131555D01*
X93359362Y-63136000D01*
X92620638Y-63136000D01*
X92575501Y-63131555D01*
X92538005Y-63120180D01*
X92503446Y-63101708D01*
X92473153Y-63076847D01*
X92448292Y-63046554D01*
X92429820Y-63011995D01*
X92418445Y-62974499D01*
X92414000Y-62929362D01*
X92414000Y-62290638D01*
X92418445Y-62245501D01*
X92429820Y-62208005D01*
X92448292Y-62173446D01*
X92473153Y-62143153D01*
X92503446Y-62118292D01*
X92538005Y-62099820D01*
X92575501Y-62088445D01*
X92620638Y-62084000D01*
X93359362Y-62084000D01*
X93404499Y-62088445D01*
G37*
G36*
X74394499Y-61933445D02*
G01*
X74431995Y-61944820D01*
X74466554Y-61963292D01*
X74496847Y-61988153D01*
X74521708Y-62018446D01*
X74540180Y-62053005D01*
X74551555Y-62090501D01*
X74556000Y-62135638D01*
X74556000Y-62874362D01*
X74551555Y-62919499D01*
X74540180Y-62956995D01*
X74521708Y-62991554D01*
X74496847Y-63021847D01*
X74466554Y-63046708D01*
X74431995Y-63065180D01*
X74394499Y-63076555D01*
X74349362Y-63081000D01*
X73710638Y-63081000D01*
X73665501Y-63076555D01*
X73628005Y-63065180D01*
X73593446Y-63046708D01*
X73563153Y-63021847D01*
X73538292Y-62991554D01*
X73519820Y-62956995D01*
X73508445Y-62919499D01*
X73504000Y-62874362D01*
X73504000Y-62135638D01*
X73508445Y-62090501D01*
X73519820Y-62053005D01*
X73538292Y-62018446D01*
X73563153Y-61988153D01*
X73593446Y-61963292D01*
X73628005Y-61944820D01*
X73665501Y-61933445D01*
X73710638Y-61929000D01*
X74349362Y-61929000D01*
X74394499Y-61933445D01*
G37*
G36*
X113441000Y-62541000D02*
G01*
X112839000Y-62541000D01*
X112839000Y-61239000D01*
X113441000Y-61239000D01*
X113441000Y-62541000D01*
G37*
G36*
X111541000Y-62541000D02*
G01*
X110939000Y-62541000D01*
X110939000Y-61239000D01*
X111541000Y-61239000D01*
X111541000Y-62541000D01*
G37*
G36*
X112491000Y-62541000D02*
G01*
X111889000Y-62541000D01*
X111889000Y-61239000D01*
X112491000Y-61239000D01*
X112491000Y-62541000D01*
G37*
G36*
X79851938Y-61661716D02*
G01*
X79872557Y-61667971D01*
X79891553Y-61678124D01*
X79908208Y-61691792D01*
X79921876Y-61708447D01*
X79932029Y-61727443D01*
X79938284Y-61748062D01*
X79941000Y-61775640D01*
X79941000Y-62234360D01*
X79938284Y-62261938D01*
X79932029Y-62282557D01*
X79921876Y-62301553D01*
X79908208Y-62318208D01*
X79891553Y-62331876D01*
X79872557Y-62342029D01*
X79851938Y-62348284D01*
X79824360Y-62351000D01*
X79315640Y-62351000D01*
X79288062Y-62348284D01*
X79267443Y-62342029D01*
X79248447Y-62331876D01*
X79231792Y-62318208D01*
X79218124Y-62301553D01*
X79207971Y-62282557D01*
X79201716Y-62261938D01*
X79199000Y-62234360D01*
X79199000Y-61775640D01*
X79201716Y-61748062D01*
X79207971Y-61727443D01*
X79218124Y-61708447D01*
X79231792Y-61691792D01*
X79248447Y-61678124D01*
X79267443Y-61667971D01*
X79288062Y-61661716D01*
X79315640Y-61659000D01*
X79824360Y-61659000D01*
X79851938Y-61661716D01*
G37*
G36*
X82660499Y-60806445D02*
G01*
X82697995Y-60817820D01*
X82732554Y-60836292D01*
X82762847Y-60861153D01*
X82787708Y-60891446D01*
X82806180Y-60926005D01*
X82817555Y-60963501D01*
X82822000Y-61008638D01*
X82822000Y-61747362D01*
X82817555Y-61792499D01*
X82806180Y-61829995D01*
X82787708Y-61864554D01*
X82762847Y-61894847D01*
X82732554Y-61919708D01*
X82697995Y-61938180D01*
X82660499Y-61949555D01*
X82615362Y-61954000D01*
X81976638Y-61954000D01*
X81931501Y-61949555D01*
X81894005Y-61938180D01*
X81859446Y-61919708D01*
X81829153Y-61894847D01*
X81804292Y-61864554D01*
X81785820Y-61829995D01*
X81774445Y-61792499D01*
X81770000Y-61747362D01*
X81770000Y-61008638D01*
X81774445Y-60963501D01*
X81785820Y-60926005D01*
X81804292Y-60891446D01*
X81829153Y-60861153D01*
X81859446Y-60836292D01*
X81894005Y-60817820D01*
X81931501Y-60806445D01*
X81976638Y-60802000D01*
X82615362Y-60802000D01*
X82660499Y-60806445D01*
G37*
G36*
X91634499Y-60358445D02*
G01*
X91671995Y-60369820D01*
X91706554Y-60388292D01*
X91736847Y-60413153D01*
X91761708Y-60443446D01*
X91780180Y-60478005D01*
X91791555Y-60515501D01*
X91796000Y-60560638D01*
X91796000Y-61199362D01*
X91791555Y-61244499D01*
X91780180Y-61281995D01*
X91761708Y-61316554D01*
X91736847Y-61346847D01*
X91706554Y-61371708D01*
X91671995Y-61390180D01*
X91634499Y-61401555D01*
X91589362Y-61406000D01*
X90850638Y-61406000D01*
X90805501Y-61401555D01*
X90768005Y-61390180D01*
X90733446Y-61371708D01*
X90703153Y-61346847D01*
X90678292Y-61316554D01*
X90659820Y-61281995D01*
X90648445Y-61244499D01*
X90644000Y-61199362D01*
X90644000Y-60560638D01*
X90648445Y-60515501D01*
X90659820Y-60478005D01*
X90678292Y-60443446D01*
X90703153Y-60413153D01*
X90733446Y-60388292D01*
X90768005Y-60369820D01*
X90805501Y-60358445D01*
X90850638Y-60354000D01*
X91589362Y-60354000D01*
X91634499Y-60358445D01*
G37*
G36*
X93384499Y-60358445D02*
G01*
X93421995Y-60369820D01*
X93456554Y-60388292D01*
X93486847Y-60413153D01*
X93511708Y-60443446D01*
X93530180Y-60478005D01*
X93541555Y-60515501D01*
X93546000Y-60560638D01*
X93546000Y-61199362D01*
X93541555Y-61244499D01*
X93530180Y-61281995D01*
X93511708Y-61316554D01*
X93486847Y-61346847D01*
X93456554Y-61371708D01*
X93421995Y-61390180D01*
X93384499Y-61401555D01*
X93339362Y-61406000D01*
X92600638Y-61406000D01*
X92555501Y-61401555D01*
X92518005Y-61390180D01*
X92483446Y-61371708D01*
X92453153Y-61346847D01*
X92428292Y-61316554D01*
X92409820Y-61281995D01*
X92398445Y-61244499D01*
X92394000Y-61199362D01*
X92394000Y-60560638D01*
X92398445Y-60515501D01*
X92409820Y-60478005D01*
X92428292Y-60443446D01*
X92453153Y-60413153D01*
X92483446Y-60388292D01*
X92518005Y-60369820D01*
X92555501Y-60358445D01*
X92600638Y-60354000D01*
X93339362Y-60354000D01*
X93384499Y-60358445D01*
G37*
G36*
X79851938Y-60691716D02*
G01*
X79872557Y-60697971D01*
X79891553Y-60708124D01*
X79908208Y-60721792D01*
X79921876Y-60738447D01*
X79932029Y-60757443D01*
X79938284Y-60778062D01*
X79941000Y-60805640D01*
X79941000Y-61264360D01*
X79938284Y-61291938D01*
X79932029Y-61312557D01*
X79921876Y-61331553D01*
X79908208Y-61348208D01*
X79891553Y-61361876D01*
X79872557Y-61372029D01*
X79851938Y-61378284D01*
X79824360Y-61381000D01*
X79315640Y-61381000D01*
X79288062Y-61378284D01*
X79267443Y-61372029D01*
X79248447Y-61361876D01*
X79231792Y-61348208D01*
X79218124Y-61331553D01*
X79207971Y-61312557D01*
X79201716Y-61291938D01*
X79199000Y-61264360D01*
X79199000Y-60805640D01*
X79201716Y-60778062D01*
X79207971Y-60757443D01*
X79218124Y-60738447D01*
X79231792Y-60721792D01*
X79248447Y-60708124D01*
X79267443Y-60697971D01*
X79288062Y-60691716D01*
X79315640Y-60689000D01*
X79824360Y-60689000D01*
X79851938Y-60691716D01*
G37*
G36*
X74394499Y-60183445D02*
G01*
X74431995Y-60194820D01*
X74466554Y-60213292D01*
X74496847Y-60238153D01*
X74521708Y-60268446D01*
X74540180Y-60303005D01*
X74551555Y-60340501D01*
X74556000Y-60385638D01*
X74556000Y-61124362D01*
X74551555Y-61169499D01*
X74540180Y-61206995D01*
X74521708Y-61241554D01*
X74496847Y-61271847D01*
X74466554Y-61296708D01*
X74431995Y-61315180D01*
X74394499Y-61326555D01*
X74349362Y-61331000D01*
X73710638Y-61331000D01*
X73665501Y-61326555D01*
X73628005Y-61315180D01*
X73593446Y-61296708D01*
X73563153Y-61271847D01*
X73538292Y-61241554D01*
X73519820Y-61206995D01*
X73508445Y-61169499D01*
X73504000Y-61124362D01*
X73504000Y-60385638D01*
X73508445Y-60340501D01*
X73519820Y-60303005D01*
X73538292Y-60268446D01*
X73563153Y-60238153D01*
X73593446Y-60213292D01*
X73628005Y-60194820D01*
X73665501Y-60183445D01*
X73710638Y-60179000D01*
X74349362Y-60179000D01*
X74394499Y-60183445D01*
G37*
G36*
X108611000Y-61111000D02*
G01*
X100309000Y-61111000D01*
X100309000Y-58409000D01*
X108611000Y-58409000D01*
X108611000Y-61111000D01*
G37*
G36*
X72821938Y-59681716D02*
G01*
X72842557Y-59687971D01*
X72861553Y-59698124D01*
X72878208Y-59711792D01*
X72891876Y-59728447D01*
X72902029Y-59747443D01*
X72908284Y-59768062D01*
X72911000Y-59795640D01*
X72911000Y-60254360D01*
X72908284Y-60281938D01*
X72902029Y-60302557D01*
X72891876Y-60321553D01*
X72878208Y-60338208D01*
X72861553Y-60351876D01*
X72842557Y-60362029D01*
X72821938Y-60368284D01*
X72794360Y-60371000D01*
X72285640Y-60371000D01*
X72258062Y-60368284D01*
X72237443Y-60362029D01*
X72218447Y-60351876D01*
X72201792Y-60338208D01*
X72188124Y-60321553D01*
X72177971Y-60302557D01*
X72171716Y-60281938D01*
X72169000Y-60254360D01*
X72169000Y-59795640D01*
X72171716Y-59768062D01*
X72177971Y-59747443D01*
X72188124Y-59728447D01*
X72201792Y-59711792D01*
X72218447Y-59698124D01*
X72237443Y-59687971D01*
X72258062Y-59681716D01*
X72285640Y-59679000D01*
X72794360Y-59679000D01*
X72821938Y-59681716D01*
G37*
G36*
X113441000Y-60191000D02*
G01*
X112839000Y-60191000D01*
X112839000Y-58889000D01*
X113441000Y-58889000D01*
X113441000Y-60191000D01*
G37*
G36*
X111541000Y-60191000D02*
G01*
X110939000Y-60191000D01*
X110939000Y-58889000D01*
X111541000Y-58889000D01*
X111541000Y-60191000D01*
G37*
G36*
X76725355Y-54330083D02*
G01*
X76730029Y-54331501D01*
X76734330Y-54333800D01*
X76740702Y-54339029D01*
X76761076Y-54352643D01*
X76783715Y-54362020D01*
X76807749Y-54366800D01*
X76832253Y-54366800D01*
X76856286Y-54362019D01*
X76878925Y-54352642D01*
X76899298Y-54339029D01*
X76905670Y-54333800D01*
X76909971Y-54331501D01*
X76914645Y-54330083D01*
X76925641Y-54329000D01*
X77214359Y-54329000D01*
X77225355Y-54330083D01*
X77230029Y-54331501D01*
X77234330Y-54333800D01*
X77240702Y-54339029D01*
X77261076Y-54352643D01*
X77283715Y-54362020D01*
X77307749Y-54366800D01*
X77332253Y-54366800D01*
X77356286Y-54362019D01*
X77378925Y-54352642D01*
X77399298Y-54339029D01*
X77405670Y-54333800D01*
X77409971Y-54331501D01*
X77414645Y-54330083D01*
X77425641Y-54329000D01*
X77714359Y-54329000D01*
X77725355Y-54330083D01*
X77730029Y-54331501D01*
X77734330Y-54333800D01*
X77740702Y-54339029D01*
X77761076Y-54352643D01*
X77783715Y-54362020D01*
X77807749Y-54366800D01*
X77832253Y-54366800D01*
X77856286Y-54362019D01*
X77878925Y-54352642D01*
X77899298Y-54339029D01*
X77905670Y-54333800D01*
X77909971Y-54331501D01*
X77914645Y-54330083D01*
X77925641Y-54329000D01*
X78214359Y-54329000D01*
X78225355Y-54330083D01*
X78230029Y-54331501D01*
X78234330Y-54333800D01*
X78240702Y-54339029D01*
X78261076Y-54352643D01*
X78283715Y-54362020D01*
X78307749Y-54366800D01*
X78332253Y-54366800D01*
X78356286Y-54362019D01*
X78378925Y-54352642D01*
X78399298Y-54339029D01*
X78405670Y-54333800D01*
X78409971Y-54331501D01*
X78414645Y-54330083D01*
X78425641Y-54329000D01*
X78714359Y-54329000D01*
X78725355Y-54330083D01*
X78730029Y-54331501D01*
X78734330Y-54333800D01*
X78740702Y-54339029D01*
X78761076Y-54352643D01*
X78783715Y-54362020D01*
X78807749Y-54366800D01*
X78832253Y-54366800D01*
X78856286Y-54362019D01*
X78878925Y-54352642D01*
X78899298Y-54339029D01*
X78905670Y-54333800D01*
X78909971Y-54331501D01*
X78914645Y-54330083D01*
X78925641Y-54329000D01*
X79214359Y-54329000D01*
X79225355Y-54330083D01*
X79230029Y-54331501D01*
X79234330Y-54333800D01*
X79240702Y-54339029D01*
X79261076Y-54352643D01*
X79283715Y-54362020D01*
X79307749Y-54366800D01*
X79332253Y-54366800D01*
X79356286Y-54362019D01*
X79378925Y-54352642D01*
X79399298Y-54339029D01*
X79405670Y-54333800D01*
X79409971Y-54331501D01*
X79414645Y-54330083D01*
X79425641Y-54329000D01*
X79714359Y-54329000D01*
X79725355Y-54330083D01*
X79730029Y-54331501D01*
X79734330Y-54333800D01*
X79740702Y-54339029D01*
X79761076Y-54352643D01*
X79783715Y-54362020D01*
X79807749Y-54366800D01*
X79832253Y-54366800D01*
X79856286Y-54362019D01*
X79878925Y-54352642D01*
X79899298Y-54339029D01*
X79905670Y-54333800D01*
X79909971Y-54331501D01*
X79914645Y-54330083D01*
X79925641Y-54329000D01*
X80214359Y-54329000D01*
X80225355Y-54330083D01*
X80230029Y-54331501D01*
X80234331Y-54333800D01*
X80238104Y-54336896D01*
X80241200Y-54340669D01*
X80243499Y-54344971D01*
X80244917Y-54349645D01*
X80246000Y-54360641D01*
X80246000Y-55179001D01*
X80248402Y-55203387D01*
X80255515Y-55226836D01*
X80267066Y-55248447D01*
X80282611Y-55267389D01*
X80301553Y-55282934D01*
X80323164Y-55294485D01*
X80346613Y-55301598D01*
X80370999Y-55304000D01*
X81189359Y-55304000D01*
X81200355Y-55305083D01*
X81205029Y-55306501D01*
X81209331Y-55308800D01*
X81213104Y-55311896D01*
X81216200Y-55315669D01*
X81218499Y-55319971D01*
X81219917Y-55324645D01*
X81221000Y-55335641D01*
X81221000Y-55624359D01*
X81219917Y-55635355D01*
X81218499Y-55640029D01*
X81216200Y-55644330D01*
X81210971Y-55650702D01*
X81197357Y-55671076D01*
X81187980Y-55693715D01*
X81183200Y-55717749D01*
X81183200Y-55742253D01*
X81187981Y-55766286D01*
X81197358Y-55788925D01*
X81210971Y-55809298D01*
X81216200Y-55815670D01*
X81218499Y-55819971D01*
X81219917Y-55824645D01*
X81221000Y-55835641D01*
X81221000Y-56124359D01*
X81219917Y-56135355D01*
X81218499Y-56140029D01*
X81216200Y-56144330D01*
X81210971Y-56150702D01*
X81197357Y-56171076D01*
X81187980Y-56193715D01*
X81183200Y-56217749D01*
X81183200Y-56242253D01*
X81187981Y-56266286D01*
X81197358Y-56288925D01*
X81210971Y-56309298D01*
X81216200Y-56315670D01*
X81218499Y-56319971D01*
X81219917Y-56324645D01*
X81221000Y-56335641D01*
X81221000Y-56624359D01*
X81219917Y-56635355D01*
X81218499Y-56640029D01*
X81216200Y-56644330D01*
X81210971Y-56650702D01*
X81197357Y-56671076D01*
X81187980Y-56693715D01*
X81183200Y-56717749D01*
X81183200Y-56742253D01*
X81187981Y-56766286D01*
X81197358Y-56788925D01*
X81210971Y-56809298D01*
X81216200Y-56815670D01*
X81218499Y-56819971D01*
X81219917Y-56824645D01*
X81221000Y-56835641D01*
X81221000Y-57124359D01*
X81219917Y-57135355D01*
X81218499Y-57140029D01*
X81216200Y-57144330D01*
X81210971Y-57150702D01*
X81197357Y-57171076D01*
X81187980Y-57193715D01*
X81183200Y-57217749D01*
X81183200Y-57242253D01*
X81187981Y-57266286D01*
X81197358Y-57288925D01*
X81210971Y-57309298D01*
X81216200Y-57315670D01*
X81218499Y-57319971D01*
X81219917Y-57324645D01*
X81221000Y-57335641D01*
X81221000Y-57624359D01*
X81219917Y-57635355D01*
X81218499Y-57640029D01*
X81216200Y-57644330D01*
X81210971Y-57650702D01*
X81197357Y-57671076D01*
X81187980Y-57693715D01*
X81183200Y-57717749D01*
X81183200Y-57742253D01*
X81187981Y-57766286D01*
X81197358Y-57788925D01*
X81210971Y-57809298D01*
X81216200Y-57815670D01*
X81218499Y-57819971D01*
X81219917Y-57824645D01*
X81221000Y-57835641D01*
X81221000Y-58124359D01*
X81219917Y-58135355D01*
X81218499Y-58140029D01*
X81216200Y-58144330D01*
X81210971Y-58150702D01*
X81197357Y-58171076D01*
X81187980Y-58193715D01*
X81183200Y-58217749D01*
X81183200Y-58242253D01*
X81187981Y-58266286D01*
X81197358Y-58288925D01*
X81210971Y-58309298D01*
X81216200Y-58315670D01*
X81218499Y-58319971D01*
X81219917Y-58324645D01*
X81221000Y-58335641D01*
X81221000Y-58624359D01*
X81219917Y-58635355D01*
X81218499Y-58640029D01*
X81216200Y-58644330D01*
X81210971Y-58650702D01*
X81197357Y-58671076D01*
X81187980Y-58693715D01*
X81183200Y-58717749D01*
X81183200Y-58742253D01*
X81187981Y-58766286D01*
X81197358Y-58788925D01*
X81210971Y-58809298D01*
X81216200Y-58815670D01*
X81218499Y-58819971D01*
X81219917Y-58824645D01*
X81221000Y-58835641D01*
X81221000Y-59124359D01*
X81219917Y-59135355D01*
X81218499Y-59140029D01*
X81216200Y-59144331D01*
X81213104Y-59148104D01*
X81209331Y-59151200D01*
X81205029Y-59153499D01*
X81200355Y-59154917D01*
X81189359Y-59156000D01*
X80370999Y-59156000D01*
X80346613Y-59158402D01*
X80323164Y-59165515D01*
X80301553Y-59177066D01*
X80282611Y-59192611D01*
X80267066Y-59211553D01*
X80255515Y-59233164D01*
X80248402Y-59256613D01*
X80246000Y-59280999D01*
X80246000Y-60099359D01*
X80244917Y-60110355D01*
X80243499Y-60115029D01*
X80241200Y-60119331D01*
X80238104Y-60123104D01*
X80234331Y-60126200D01*
X80230029Y-60128499D01*
X80225355Y-60129917D01*
X80214359Y-60131000D01*
X79925641Y-60131000D01*
X79914645Y-60129917D01*
X79909971Y-60128499D01*
X79905670Y-60126200D01*
X79899298Y-60120971D01*
X79878924Y-60107357D01*
X79856285Y-60097980D01*
X79832251Y-60093200D01*
X79807747Y-60093200D01*
X79783714Y-60097981D01*
X79761075Y-60107358D01*
X79740702Y-60120971D01*
X79734330Y-60126200D01*
X79730029Y-60128499D01*
X79725355Y-60129917D01*
X79714359Y-60131000D01*
X79425641Y-60131000D01*
X79414645Y-60129917D01*
X79409971Y-60128499D01*
X79405670Y-60126200D01*
X79399298Y-60120971D01*
X79378924Y-60107357D01*
X79356285Y-60097980D01*
X79332251Y-60093200D01*
X79307747Y-60093200D01*
X79283714Y-60097981D01*
X79261075Y-60107358D01*
X79240702Y-60120971D01*
X79234330Y-60126200D01*
X79230029Y-60128499D01*
X79225355Y-60129917D01*
X79214359Y-60131000D01*
X78925641Y-60131000D01*
X78914645Y-60129917D01*
X78909971Y-60128499D01*
X78905670Y-60126200D01*
X78899298Y-60120971D01*
X78878924Y-60107357D01*
X78856285Y-60097980D01*
X78832251Y-60093200D01*
X78807747Y-60093200D01*
X78783714Y-60097981D01*
X78761075Y-60107358D01*
X78740702Y-60120971D01*
X78734330Y-60126200D01*
X78730029Y-60128499D01*
X78725355Y-60129917D01*
X78714359Y-60131000D01*
X78425641Y-60131000D01*
X78414645Y-60129917D01*
X78409971Y-60128499D01*
X78405670Y-60126200D01*
X78399298Y-60120971D01*
X78378924Y-60107357D01*
X78356285Y-60097980D01*
X78332251Y-60093200D01*
X78307747Y-60093200D01*
X78283714Y-60097981D01*
X78261075Y-60107358D01*
X78240702Y-60120971D01*
X78234330Y-60126200D01*
X78230029Y-60128499D01*
X78225355Y-60129917D01*
X78214359Y-60131000D01*
X77925641Y-60131000D01*
X77914645Y-60129917D01*
X77909971Y-60128499D01*
X77905670Y-60126200D01*
X77899298Y-60120971D01*
X77878924Y-60107357D01*
X77856285Y-60097980D01*
X77832251Y-60093200D01*
X77807747Y-60093200D01*
X77783714Y-60097981D01*
X77761075Y-60107358D01*
X77740702Y-60120971D01*
X77734330Y-60126200D01*
X77730029Y-60128499D01*
X77725355Y-60129917D01*
X77714359Y-60131000D01*
X77425641Y-60131000D01*
X77414645Y-60129917D01*
X77409971Y-60128499D01*
X77405670Y-60126200D01*
X77399298Y-60120971D01*
X77378924Y-60107357D01*
X77356285Y-60097980D01*
X77332251Y-60093200D01*
X77307747Y-60093200D01*
X77283714Y-60097981D01*
X77261075Y-60107358D01*
X77240702Y-60120971D01*
X77234330Y-60126200D01*
X77230029Y-60128499D01*
X77225355Y-60129917D01*
X77214359Y-60131000D01*
X76925641Y-60131000D01*
X76914645Y-60129917D01*
X76909971Y-60128499D01*
X76905670Y-60126200D01*
X76899298Y-60120971D01*
X76878924Y-60107357D01*
X76856285Y-60097980D01*
X76832251Y-60093200D01*
X76807747Y-60093200D01*
X76783714Y-60097981D01*
X76761075Y-60107358D01*
X76740702Y-60120971D01*
X76734330Y-60126200D01*
X76730029Y-60128499D01*
X76725355Y-60129917D01*
X76714359Y-60131000D01*
X76425641Y-60131000D01*
X76414645Y-60129917D01*
X76409971Y-60128499D01*
X76405669Y-60126200D01*
X76401896Y-60123104D01*
X76398800Y-60119331D01*
X76396501Y-60115029D01*
X76395083Y-60110355D01*
X76394000Y-60099359D01*
X76394000Y-59280999D01*
X76391598Y-59256613D01*
X76384485Y-59233164D01*
X76372934Y-59211553D01*
X76357389Y-59192611D01*
X76338447Y-59177066D01*
X76316836Y-59165515D01*
X76293387Y-59158402D01*
X76269001Y-59156000D01*
X75450641Y-59156000D01*
X75439645Y-59154917D01*
X75434971Y-59153499D01*
X75430669Y-59151200D01*
X75426896Y-59148104D01*
X75423800Y-59144331D01*
X75421501Y-59140029D01*
X75420083Y-59135355D01*
X75419000Y-59124359D01*
X75419000Y-58835641D01*
X75420083Y-58824645D01*
X75421501Y-58819971D01*
X75423800Y-58815670D01*
X75429029Y-58809298D01*
X75442643Y-58788924D01*
X75452020Y-58766285D01*
X75456800Y-58742251D01*
X75456800Y-58717747D01*
X75452019Y-58693714D01*
X75442642Y-58671075D01*
X75429029Y-58650702D01*
X75423800Y-58644330D01*
X75421501Y-58640029D01*
X75420083Y-58635355D01*
X75419000Y-58624359D01*
X75419000Y-58335641D01*
X75420083Y-58324645D01*
X75421501Y-58319971D01*
X75423800Y-58315670D01*
X75429029Y-58309298D01*
X75442643Y-58288924D01*
X75452020Y-58266285D01*
X75456800Y-58242251D01*
X75456800Y-58217747D01*
X75452019Y-58193714D01*
X75442642Y-58171075D01*
X75429029Y-58150702D01*
X75423800Y-58144330D01*
X75421501Y-58140029D01*
X75420083Y-58135355D01*
X75419000Y-58124359D01*
X75419000Y-57835641D01*
X75420083Y-57824645D01*
X75421501Y-57819971D01*
X75423800Y-57815670D01*
X75429029Y-57809298D01*
X75442643Y-57788924D01*
X75452020Y-57766285D01*
X75456800Y-57742251D01*
X75456800Y-57717747D01*
X75452019Y-57693714D01*
X75442642Y-57671075D01*
X75429029Y-57650702D01*
X75423800Y-57644330D01*
X75421501Y-57640029D01*
X75420083Y-57635355D01*
X75419000Y-57624359D01*
X75419000Y-57335641D01*
X75420083Y-57324645D01*
X75421501Y-57319971D01*
X75423800Y-57315670D01*
X75429029Y-57309298D01*
X75442643Y-57288924D01*
X75452020Y-57266285D01*
X75456800Y-57242251D01*
X75456800Y-57217747D01*
X75452019Y-57193714D01*
X75442642Y-57171075D01*
X75429029Y-57150702D01*
X75423800Y-57144330D01*
X75421501Y-57140029D01*
X75420083Y-57135355D01*
X75419000Y-57124359D01*
X75419000Y-56835641D01*
X75420083Y-56824645D01*
X75421501Y-56819971D01*
X75423800Y-56815670D01*
X75429029Y-56809298D01*
X75442643Y-56788924D01*
X75452020Y-56766285D01*
X75456800Y-56742251D01*
X75456800Y-56717747D01*
X75452019Y-56693714D01*
X75442642Y-56671075D01*
X75429029Y-56650702D01*
X75423800Y-56644330D01*
X75421501Y-56640029D01*
X75420083Y-56635355D01*
X75419000Y-56624359D01*
X75419000Y-56335641D01*
X75420083Y-56324645D01*
X75421501Y-56319971D01*
X75423800Y-56315670D01*
X75429029Y-56309298D01*
X75442643Y-56288924D01*
X75452020Y-56266285D01*
X75456800Y-56242251D01*
X75456800Y-56217747D01*
X75452019Y-56193714D01*
X75442642Y-56171075D01*
X75429029Y-56150702D01*
X75423800Y-56144330D01*
X75421501Y-56140029D01*
X75420083Y-56135355D01*
X75419000Y-56124359D01*
X75419000Y-55835641D01*
X75420083Y-55824645D01*
X75421501Y-55819971D01*
X75423800Y-55815670D01*
X75429029Y-55809298D01*
X75442643Y-55788924D01*
X75452020Y-55766285D01*
X75456800Y-55742251D01*
X75456800Y-55717749D01*
X76283200Y-55717749D01*
X76283200Y-55742253D01*
X76287981Y-55766286D01*
X76297358Y-55788925D01*
X76310971Y-55809298D01*
X76316200Y-55815670D01*
X76318499Y-55819971D01*
X76319917Y-55824645D01*
X76321000Y-55835641D01*
X76321000Y-56124359D01*
X76319917Y-56135355D01*
X76318499Y-56140029D01*
X76316200Y-56144330D01*
X76310971Y-56150702D01*
X76297357Y-56171076D01*
X76287980Y-56193715D01*
X76283200Y-56217749D01*
X76283200Y-56242253D01*
X76287981Y-56266286D01*
X76297358Y-56288925D01*
X76310971Y-56309298D01*
X76316200Y-56315670D01*
X76318499Y-56319971D01*
X76319917Y-56324645D01*
X76321000Y-56335641D01*
X76321000Y-56624359D01*
X76319917Y-56635355D01*
X76318499Y-56640029D01*
X76316200Y-56644330D01*
X76310971Y-56650702D01*
X76297357Y-56671076D01*
X76287980Y-56693715D01*
X76283200Y-56717749D01*
X76283200Y-56742253D01*
X76287981Y-56766286D01*
X76297358Y-56788925D01*
X76310971Y-56809298D01*
X76316200Y-56815670D01*
X76318499Y-56819971D01*
X76319917Y-56824645D01*
X76321000Y-56835641D01*
X76321000Y-57124359D01*
X76319917Y-57135355D01*
X76318499Y-57140029D01*
X76316200Y-57144330D01*
X76310971Y-57150702D01*
X76297357Y-57171076D01*
X76287980Y-57193715D01*
X76283200Y-57217749D01*
X76283200Y-57242253D01*
X76287981Y-57266286D01*
X76297358Y-57288925D01*
X76310971Y-57309298D01*
X76316200Y-57315670D01*
X76318499Y-57319971D01*
X76319917Y-57324645D01*
X76321000Y-57335641D01*
X76321000Y-57624359D01*
X76319917Y-57635355D01*
X76318499Y-57640029D01*
X76316200Y-57644330D01*
X76310971Y-57650702D01*
X76297357Y-57671076D01*
X76287980Y-57693715D01*
X76283200Y-57717749D01*
X76283200Y-57742253D01*
X76287981Y-57766286D01*
X76297358Y-57788925D01*
X76310971Y-57809298D01*
X76316200Y-57815670D01*
X76318499Y-57819971D01*
X76319917Y-57824645D01*
X76321000Y-57835641D01*
X76321000Y-58124359D01*
X76319917Y-58135355D01*
X76318499Y-58140029D01*
X76316200Y-58144330D01*
X76310971Y-58150702D01*
X76297357Y-58171076D01*
X76287980Y-58193715D01*
X76283200Y-58217749D01*
X76283200Y-58242253D01*
X76287981Y-58266286D01*
X76297358Y-58288925D01*
X76310971Y-58309298D01*
X76316200Y-58315670D01*
X76318499Y-58319971D01*
X76319917Y-58324645D01*
X76321000Y-58335641D01*
X76321000Y-58624359D01*
X76319917Y-58635355D01*
X76318499Y-58640029D01*
X76316200Y-58644330D01*
X76310971Y-58650702D01*
X76297357Y-58671076D01*
X76287980Y-58693715D01*
X76283200Y-58717749D01*
X76283200Y-58742253D01*
X76287981Y-58766286D01*
X76297358Y-58788925D01*
X76310971Y-58809298D01*
X76316200Y-58815670D01*
X76318499Y-58819971D01*
X76319917Y-58824645D01*
X76321000Y-58835641D01*
X76321000Y-59104001D01*
X76323402Y-59128387D01*
X76330515Y-59151836D01*
X76342066Y-59173447D01*
X76357611Y-59192389D01*
X76376553Y-59207934D01*
X76398164Y-59219485D01*
X76421613Y-59226598D01*
X76445999Y-59229000D01*
X76714359Y-59229000D01*
X76725355Y-59230083D01*
X76730029Y-59231501D01*
X76734330Y-59233800D01*
X76740702Y-59239029D01*
X76761076Y-59252643D01*
X76783715Y-59262020D01*
X76807749Y-59266800D01*
X76832253Y-59266800D01*
X76856286Y-59262019D01*
X76878925Y-59252642D01*
X76899298Y-59239029D01*
X76905670Y-59233800D01*
X76909971Y-59231501D01*
X76914645Y-59230083D01*
X76925641Y-59229000D01*
X77214359Y-59229000D01*
X77225355Y-59230083D01*
X77230029Y-59231501D01*
X77234330Y-59233800D01*
X77240702Y-59239029D01*
X77261076Y-59252643D01*
X77283715Y-59262020D01*
X77307749Y-59266800D01*
X77332253Y-59266800D01*
X77356286Y-59262019D01*
X77378925Y-59252642D01*
X77399298Y-59239029D01*
X77405670Y-59233800D01*
X77409971Y-59231501D01*
X77414645Y-59230083D01*
X77425641Y-59229000D01*
X77714359Y-59229000D01*
X77725355Y-59230083D01*
X77730029Y-59231501D01*
X77734330Y-59233800D01*
X77740702Y-59239029D01*
X77761076Y-59252643D01*
X77783715Y-59262020D01*
X77807749Y-59266800D01*
X77832253Y-59266800D01*
X77856286Y-59262019D01*
X77878925Y-59252642D01*
X77899298Y-59239029D01*
X77905670Y-59233800D01*
X77909971Y-59231501D01*
X77914645Y-59230083D01*
X77925641Y-59229000D01*
X78214359Y-59229000D01*
X78225355Y-59230083D01*
X78230029Y-59231501D01*
X78234330Y-59233800D01*
X78240702Y-59239029D01*
X78261076Y-59252643D01*
X78283715Y-59262020D01*
X78307749Y-59266800D01*
X78332253Y-59266800D01*
X78356286Y-59262019D01*
X78378925Y-59252642D01*
X78399298Y-59239029D01*
X78405670Y-59233800D01*
X78409971Y-59231501D01*
X78414645Y-59230083D01*
X78425641Y-59229000D01*
X78714359Y-59229000D01*
X78725355Y-59230083D01*
X78730029Y-59231501D01*
X78734330Y-59233800D01*
X78740702Y-59239029D01*
X78761076Y-59252643D01*
X78783715Y-59262020D01*
X78807749Y-59266800D01*
X78832253Y-59266800D01*
X78856286Y-59262019D01*
X78878925Y-59252642D01*
X78899298Y-59239029D01*
X78905670Y-59233800D01*
X78909971Y-59231501D01*
X78914645Y-59230083D01*
X78925641Y-59229000D01*
X79214359Y-59229000D01*
X79225355Y-59230083D01*
X79230029Y-59231501D01*
X79234330Y-59233800D01*
X79240702Y-59239029D01*
X79261076Y-59252643D01*
X79283715Y-59262020D01*
X79307749Y-59266800D01*
X79332253Y-59266800D01*
X79356286Y-59262019D01*
X79378925Y-59252642D01*
X79399298Y-59239029D01*
X79405670Y-59233800D01*
X79409971Y-59231501D01*
X79414645Y-59230083D01*
X79425641Y-59229000D01*
X79714359Y-59229000D01*
X79725355Y-59230083D01*
X79730029Y-59231501D01*
X79734330Y-59233800D01*
X79740702Y-59239029D01*
X79761076Y-59252643D01*
X79783715Y-59262020D01*
X79807749Y-59266800D01*
X79832253Y-59266800D01*
X79856286Y-59262019D01*
X79878925Y-59252642D01*
X79899298Y-59239029D01*
X79905670Y-59233800D01*
X79909971Y-59231501D01*
X79914645Y-59230083D01*
X79925641Y-59229000D01*
X80194001Y-59229000D01*
X80218387Y-59226598D01*
X80241836Y-59219485D01*
X80263447Y-59207934D01*
X80282389Y-59192389D01*
X80297934Y-59173447D01*
X80309485Y-59151836D01*
X80316598Y-59128387D01*
X80319000Y-59104001D01*
X80319000Y-58835641D01*
X80320083Y-58824645D01*
X80321501Y-58819971D01*
X80323800Y-58815670D01*
X80329029Y-58809298D01*
X80342643Y-58788924D01*
X80352020Y-58766285D01*
X80356800Y-58742251D01*
X80356800Y-58717747D01*
X80352019Y-58693714D01*
X80342642Y-58671075D01*
X80329029Y-58650702D01*
X80323800Y-58644330D01*
X80321501Y-58640029D01*
X80320083Y-58635355D01*
X80319000Y-58624359D01*
X80319000Y-58335641D01*
X80320083Y-58324645D01*
X80321501Y-58319971D01*
X80323800Y-58315670D01*
X80329029Y-58309298D01*
X80342643Y-58288924D01*
X80352020Y-58266285D01*
X80356800Y-58242251D01*
X80356800Y-58217747D01*
X80352019Y-58193714D01*
X80342642Y-58171075D01*
X80329029Y-58150702D01*
X80323800Y-58144330D01*
X80321501Y-58140029D01*
X80320083Y-58135355D01*
X80319000Y-58124359D01*
X80319000Y-57835641D01*
X80320083Y-57824645D01*
X80321501Y-57819971D01*
X80323800Y-57815670D01*
X80329029Y-57809298D01*
X80342643Y-57788924D01*
X80352020Y-57766285D01*
X80356800Y-57742251D01*
X80356800Y-57717747D01*
X80352019Y-57693714D01*
X80342642Y-57671075D01*
X80329029Y-57650702D01*
X80323800Y-57644330D01*
X80321501Y-57640029D01*
X80320083Y-57635355D01*
X80319000Y-57624359D01*
X80319000Y-57335641D01*
X80320083Y-57324645D01*
X80321501Y-57319971D01*
X80323800Y-57315670D01*
X80329029Y-57309298D01*
X80342643Y-57288924D01*
X80352020Y-57266285D01*
X80356800Y-57242251D01*
X80356800Y-57217747D01*
X80352019Y-57193714D01*
X80342642Y-57171075D01*
X80329029Y-57150702D01*
X80323800Y-57144330D01*
X80321501Y-57140029D01*
X80320083Y-57135355D01*
X80319000Y-57124359D01*
X80319000Y-56835641D01*
X80320083Y-56824645D01*
X80321501Y-56819971D01*
X80323800Y-56815670D01*
X80329029Y-56809298D01*
X80342643Y-56788924D01*
X80352020Y-56766285D01*
X80356800Y-56742251D01*
X80356800Y-56717747D01*
X80352019Y-56693714D01*
X80342642Y-56671075D01*
X80329029Y-56650702D01*
X80323800Y-56644330D01*
X80321501Y-56640029D01*
X80320083Y-56635355D01*
X80319000Y-56624359D01*
X80319000Y-56335641D01*
X80320083Y-56324645D01*
X80321501Y-56319971D01*
X80323800Y-56315670D01*
X80329029Y-56309298D01*
X80342643Y-56288924D01*
X80352020Y-56266285D01*
X80356800Y-56242251D01*
X80356800Y-56217747D01*
X80352019Y-56193714D01*
X80342642Y-56171075D01*
X80329029Y-56150702D01*
X80323800Y-56144330D01*
X80321501Y-56140029D01*
X80320083Y-56135355D01*
X80319000Y-56124359D01*
X80319000Y-55835641D01*
X80320083Y-55824645D01*
X80321501Y-55819971D01*
X80323800Y-55815670D01*
X80329029Y-55809298D01*
X80342643Y-55788924D01*
X80352020Y-55766285D01*
X80356800Y-55742251D01*
X80356800Y-55717747D01*
X80352019Y-55693714D01*
X80342642Y-55671075D01*
X80329029Y-55650702D01*
X80323800Y-55644330D01*
X80321501Y-55640029D01*
X80320083Y-55635355D01*
X80319000Y-55624359D01*
X80319000Y-55355999D01*
X80316598Y-55331613D01*
X80309485Y-55308164D01*
X80297934Y-55286553D01*
X80282389Y-55267611D01*
X80263447Y-55252066D01*
X80241836Y-55240515D01*
X80218387Y-55233402D01*
X80194001Y-55231000D01*
X79925641Y-55231000D01*
X79914645Y-55229917D01*
X79909971Y-55228499D01*
X79905670Y-55226200D01*
X79899298Y-55220971D01*
X79878924Y-55207357D01*
X79856285Y-55197980D01*
X79832251Y-55193200D01*
X79807747Y-55193200D01*
X79783714Y-55197981D01*
X79761075Y-55207358D01*
X79740702Y-55220971D01*
X79734330Y-55226200D01*
X79730029Y-55228499D01*
X79725355Y-55229917D01*
X79714359Y-55231000D01*
X79425641Y-55231000D01*
X79414645Y-55229917D01*
X79409971Y-55228499D01*
X79405670Y-55226200D01*
X79399298Y-55220971D01*
X79378924Y-55207357D01*
X79356285Y-55197980D01*
X79332251Y-55193200D01*
X79307747Y-55193200D01*
X79283714Y-55197981D01*
X79261075Y-55207358D01*
X79240702Y-55220971D01*
X79234330Y-55226200D01*
X79230029Y-55228499D01*
X79225355Y-55229917D01*
X79214359Y-55231000D01*
X78925641Y-55231000D01*
X78914645Y-55229917D01*
X78909971Y-55228499D01*
X78905670Y-55226200D01*
X78899298Y-55220971D01*
X78878924Y-55207357D01*
X78856285Y-55197980D01*
X78832251Y-55193200D01*
X78807747Y-55193200D01*
X78783714Y-55197981D01*
X78761075Y-55207358D01*
X78740702Y-55220971D01*
X78734330Y-55226200D01*
X78730029Y-55228499D01*
X78725355Y-55229917D01*
X78714359Y-55231000D01*
X78425641Y-55231000D01*
X78414645Y-55229917D01*
X78409971Y-55228499D01*
X78405670Y-55226200D01*
X78399298Y-55220971D01*
X78378924Y-55207357D01*
X78356285Y-55197980D01*
X78332251Y-55193200D01*
X78307747Y-55193200D01*
X78283714Y-55197981D01*
X78261075Y-55207358D01*
X78240702Y-55220971D01*
X78234330Y-55226200D01*
X78230029Y-55228499D01*
X78225355Y-55229917D01*
X78214359Y-55231000D01*
X77925641Y-55231000D01*
X77914645Y-55229917D01*
X77909971Y-55228499D01*
X77905670Y-55226200D01*
X77899298Y-55220971D01*
X77878924Y-55207357D01*
X77856285Y-55197980D01*
X77832251Y-55193200D01*
X77807747Y-55193200D01*
X77783714Y-55197981D01*
X77761075Y-55207358D01*
X77740702Y-55220971D01*
X77734330Y-55226200D01*
X77730029Y-55228499D01*
X77725355Y-55229917D01*
X77714359Y-55231000D01*
X77425641Y-55231000D01*
X77414645Y-55229917D01*
X77409971Y-55228499D01*
X77405670Y-55226200D01*
X77399298Y-55220971D01*
X77378924Y-55207357D01*
X77356285Y-55197980D01*
X77332251Y-55193200D01*
X77307747Y-55193200D01*
X77283714Y-55197981D01*
X77261075Y-55207358D01*
X77240702Y-55220971D01*
X77234330Y-55226200D01*
X77230029Y-55228499D01*
X77225355Y-55229917D01*
X77214359Y-55231000D01*
X76925641Y-55231000D01*
X76914645Y-55229917D01*
X76909971Y-55228499D01*
X76905670Y-55226200D01*
X76899298Y-55220971D01*
X76878924Y-55207357D01*
X76856285Y-55197980D01*
X76832251Y-55193200D01*
X76807747Y-55193200D01*
X76783714Y-55197981D01*
X76761075Y-55207358D01*
X76740702Y-55220971D01*
X76734330Y-55226200D01*
X76730029Y-55228499D01*
X76725355Y-55229917D01*
X76714359Y-55231000D01*
X76445999Y-55231000D01*
X76421613Y-55233402D01*
X76398164Y-55240515D01*
X76376553Y-55252066D01*
X76357611Y-55267611D01*
X76342066Y-55286553D01*
X76330515Y-55308164D01*
X76323402Y-55331613D01*
X76321000Y-55355999D01*
X76321000Y-55624359D01*
X76319917Y-55635355D01*
X76318499Y-55640029D01*
X76316200Y-55644330D01*
X76310971Y-55650702D01*
X76297357Y-55671076D01*
X76287980Y-55693715D01*
X76283200Y-55717749D01*
X75456800Y-55717749D01*
X75456800Y-55717747D01*
X75452019Y-55693714D01*
X75442642Y-55671075D01*
X75429029Y-55650702D01*
X75423800Y-55644330D01*
X75421501Y-55640029D01*
X75420083Y-55635355D01*
X75419000Y-55624359D01*
X75419000Y-55335641D01*
X75420083Y-55324645D01*
X75421501Y-55319971D01*
X75423800Y-55315669D01*
X75426896Y-55311896D01*
X75430669Y-55308800D01*
X75434971Y-55306501D01*
X75439645Y-55305083D01*
X75450641Y-55304000D01*
X76269001Y-55304000D01*
X76293387Y-55301598D01*
X76316836Y-55294485D01*
X76338447Y-55282934D01*
X76357389Y-55267389D01*
X76372934Y-55248447D01*
X76384485Y-55226836D01*
X76391598Y-55203387D01*
X76394000Y-55179001D01*
X76394000Y-54360641D01*
X76395083Y-54349645D01*
X76396501Y-54344971D01*
X76398800Y-54340669D01*
X76401896Y-54336896D01*
X76405669Y-54333800D01*
X76409971Y-54331501D01*
X76414645Y-54330083D01*
X76425641Y-54329000D01*
X76714359Y-54329000D01*
X76725355Y-54330083D01*
G37*
G36*
X66761000Y-60021000D02*
G01*
X64459000Y-60021000D01*
X64459000Y-58869000D01*
X66761000Y-58869000D01*
X66761000Y-60021000D01*
G37*
G36*
X72821938Y-58711716D02*
G01*
X72842557Y-58717971D01*
X72861553Y-58728124D01*
X72878208Y-58741792D01*
X72891876Y-58758447D01*
X72902029Y-58777443D01*
X72908284Y-58798062D01*
X72911000Y-58825640D01*
X72911000Y-59284360D01*
X72908284Y-59311938D01*
X72902029Y-59332557D01*
X72891876Y-59351553D01*
X72878208Y-59368208D01*
X72861553Y-59381876D01*
X72842557Y-59392029D01*
X72821938Y-59398284D01*
X72794360Y-59401000D01*
X72285640Y-59401000D01*
X72258062Y-59398284D01*
X72237443Y-59392029D01*
X72218447Y-59381876D01*
X72201792Y-59368208D01*
X72188124Y-59351553D01*
X72177971Y-59332557D01*
X72171716Y-59311938D01*
X72169000Y-59284360D01*
X72169000Y-58825640D01*
X72171716Y-58798062D01*
X72177971Y-58777443D01*
X72188124Y-58758447D01*
X72201792Y-58741792D01*
X72218447Y-58728124D01*
X72237443Y-58717971D01*
X72258062Y-58711716D01*
X72285640Y-58709000D01*
X72794360Y-58709000D01*
X72821938Y-58711716D01*
G37*
G36*
X64661000Y-58521000D02*
G01*
X63559000Y-58521000D01*
X63559000Y-57419000D01*
X64661000Y-57419000D01*
X64661000Y-58521000D01*
G37*
G36*
X67661000Y-58521000D02*
G01*
X66559000Y-58521000D01*
X66559000Y-57419000D01*
X67661000Y-57419000D01*
X67661000Y-58521000D01*
G37*
G36*
X92234499Y-57258445D02*
G01*
X92271995Y-57269820D01*
X92306554Y-57288292D01*
X92336847Y-57313153D01*
X92361708Y-57343446D01*
X92380180Y-57378005D01*
X92391555Y-57415501D01*
X92396000Y-57460638D01*
X92396000Y-58199362D01*
X92391555Y-58244499D01*
X92380180Y-58281995D01*
X92361708Y-58316554D01*
X92336847Y-58346847D01*
X92306554Y-58371708D01*
X92271995Y-58390180D01*
X92234499Y-58401555D01*
X92189362Y-58406000D01*
X91550638Y-58406000D01*
X91505501Y-58401555D01*
X91468005Y-58390180D01*
X91433446Y-58371708D01*
X91403153Y-58346847D01*
X91378292Y-58316554D01*
X91359820Y-58281995D01*
X91348445Y-58244499D01*
X91344000Y-58199362D01*
X91344000Y-57460638D01*
X91348445Y-57415501D01*
X91359820Y-57378005D01*
X91378292Y-57343446D01*
X91403153Y-57313153D01*
X91433446Y-57288292D01*
X91468005Y-57269820D01*
X91505501Y-57258445D01*
X91550638Y-57254000D01*
X92189362Y-57254000D01*
X92234499Y-57258445D01*
G37*
G36*
X87414499Y-57253445D02*
G01*
X87451995Y-57264820D01*
X87486554Y-57283292D01*
X87516847Y-57308153D01*
X87541708Y-57338446D01*
X87560180Y-57373005D01*
X87571555Y-57410501D01*
X87576000Y-57455638D01*
X87576000Y-58194362D01*
X87571555Y-58239499D01*
X87560180Y-58276995D01*
X87541708Y-58311554D01*
X87516847Y-58341847D01*
X87486554Y-58366708D01*
X87451995Y-58385180D01*
X87414499Y-58396555D01*
X87369362Y-58401000D01*
X86730638Y-58401000D01*
X86685501Y-58396555D01*
X86648005Y-58385180D01*
X86613446Y-58366708D01*
X86583153Y-58341847D01*
X86558292Y-58311554D01*
X86539820Y-58276995D01*
X86528445Y-58239499D01*
X86524000Y-58194362D01*
X86524000Y-57455638D01*
X86528445Y-57410501D01*
X86539820Y-57373005D01*
X86558292Y-57338446D01*
X86583153Y-57308153D01*
X86613446Y-57283292D01*
X86648005Y-57264820D01*
X86685501Y-57253445D01*
X86730638Y-57249000D01*
X87369362Y-57249000D01*
X87414499Y-57253445D01*
G37*
G36*
X89014499Y-57253445D02*
G01*
X89051995Y-57264820D01*
X89086554Y-57283292D01*
X89116847Y-57308153D01*
X89141708Y-57338446D01*
X89160180Y-57373005D01*
X89171555Y-57410501D01*
X89176000Y-57455638D01*
X89176000Y-58194362D01*
X89171555Y-58239499D01*
X89160180Y-58276995D01*
X89141708Y-58311554D01*
X89116847Y-58341847D01*
X89086554Y-58366708D01*
X89051995Y-58385180D01*
X89014499Y-58396555D01*
X88969362Y-58401000D01*
X88330638Y-58401000D01*
X88285501Y-58396555D01*
X88248005Y-58385180D01*
X88213446Y-58366708D01*
X88183153Y-58341847D01*
X88158292Y-58311554D01*
X88139820Y-58276995D01*
X88128445Y-58239499D01*
X88124000Y-58194362D01*
X88124000Y-57455638D01*
X88128445Y-57410501D01*
X88139820Y-57373005D01*
X88158292Y-57338446D01*
X88183153Y-57308153D01*
X88213446Y-57283292D01*
X88248005Y-57264820D01*
X88285501Y-57253445D01*
X88330638Y-57249000D01*
X88969362Y-57249000D01*
X89014499Y-57253445D01*
G37*
G36*
X90604499Y-57253445D02*
G01*
X90641995Y-57264820D01*
X90676554Y-57283292D01*
X90706847Y-57308153D01*
X90731708Y-57338446D01*
X90750180Y-57373005D01*
X90761555Y-57410501D01*
X90766000Y-57455638D01*
X90766000Y-58194362D01*
X90761555Y-58239499D01*
X90750180Y-58276995D01*
X90731708Y-58311554D01*
X90706847Y-58341847D01*
X90676554Y-58366708D01*
X90641995Y-58385180D01*
X90604499Y-58396555D01*
X90559362Y-58401000D01*
X89920638Y-58401000D01*
X89875501Y-58396555D01*
X89838005Y-58385180D01*
X89803446Y-58366708D01*
X89773153Y-58341847D01*
X89748292Y-58311554D01*
X89729820Y-58276995D01*
X89718445Y-58239499D01*
X89714000Y-58194362D01*
X89714000Y-57455638D01*
X89718445Y-57410501D01*
X89729820Y-57373005D01*
X89748292Y-57338446D01*
X89773153Y-57308153D01*
X89803446Y-57283292D01*
X89838005Y-57264820D01*
X89875501Y-57253445D01*
X89920638Y-57249000D01*
X90559362Y-57249000D01*
X90604499Y-57253445D01*
G37*
G36*
X84711938Y-57061716D02*
G01*
X84732557Y-57067971D01*
X84751553Y-57078124D01*
X84768208Y-57091792D01*
X84781876Y-57108447D01*
X84792029Y-57127443D01*
X84798284Y-57148062D01*
X84801000Y-57175640D01*
X84801000Y-57302073D01*
X84803402Y-57326459D01*
X84810515Y-57349908D01*
X84822066Y-57371519D01*
X84837611Y-57390461D01*
X84856553Y-57406006D01*
X84878164Y-57417557D01*
X84901613Y-57424670D01*
X84925999Y-57427072D01*
X84950385Y-57424670D01*
X84973834Y-57417557D01*
X84995445Y-57406006D01*
X85014387Y-57390461D01*
X85029932Y-57371519D01*
X85036239Y-57360996D01*
X85048292Y-57338446D01*
X85073153Y-57308153D01*
X85103446Y-57283292D01*
X85138005Y-57264820D01*
X85175501Y-57253445D01*
X85220638Y-57249000D01*
X85859362Y-57249000D01*
X85904499Y-57253445D01*
X85941995Y-57264820D01*
X85976554Y-57283292D01*
X86006847Y-57308153D01*
X86031708Y-57338446D01*
X86050180Y-57373005D01*
X86061555Y-57410501D01*
X86066000Y-57455638D01*
X86066000Y-58194362D01*
X86061555Y-58239499D01*
X86050180Y-58276995D01*
X86031708Y-58311554D01*
X86006847Y-58341847D01*
X85976554Y-58366708D01*
X85941995Y-58385180D01*
X85904499Y-58396555D01*
X85859362Y-58401000D01*
X85220638Y-58401000D01*
X85175501Y-58396555D01*
X85138005Y-58385180D01*
X85103446Y-58366708D01*
X85073153Y-58341847D01*
X85048292Y-58311554D01*
X85029820Y-58276995D01*
X85018445Y-58239499D01*
X85014000Y-58194362D01*
X85014000Y-57766302D01*
X85011598Y-57741916D01*
X85004485Y-57718467D01*
X84992934Y-57696856D01*
X84977389Y-57677914D01*
X84958447Y-57662369D01*
X84936836Y-57650818D01*
X84913387Y-57643705D01*
X84889001Y-57641303D01*
X84864615Y-57643705D01*
X84841166Y-57650818D01*
X84819555Y-57662369D01*
X84800613Y-57677914D01*
X84789966Y-57692269D01*
X84789684Y-57692038D01*
X84768208Y-57718208D01*
X84751553Y-57731876D01*
X84732557Y-57742029D01*
X84711938Y-57748284D01*
X84684360Y-57751000D01*
X84175640Y-57751000D01*
X84148062Y-57748284D01*
X84127443Y-57742029D01*
X84108447Y-57731876D01*
X84091792Y-57718208D01*
X84078124Y-57701553D01*
X84067971Y-57682557D01*
X84061716Y-57661938D01*
X84059000Y-57634360D01*
X84059000Y-57175640D01*
X84061716Y-57148062D01*
X84067971Y-57127443D01*
X84078124Y-57108447D01*
X84091792Y-57091792D01*
X84108447Y-57078124D01*
X84127443Y-57067971D01*
X84148062Y-57061716D01*
X84175640Y-57059000D01*
X84684360Y-57059000D01*
X84711938Y-57061716D01*
G37*
G36*
X70416938Y-57571716D02*
G01*
X70437557Y-57577971D01*
X70456553Y-57588124D01*
X70473208Y-57601792D01*
X70486876Y-57618447D01*
X70497029Y-57637443D01*
X70503284Y-57658062D01*
X70506000Y-57685640D01*
X70506000Y-58194360D01*
X70503284Y-58221938D01*
X70497029Y-58242557D01*
X70486876Y-58261553D01*
X70473208Y-58278208D01*
X70456553Y-58291876D01*
X70437557Y-58302029D01*
X70416938Y-58308284D01*
X70389360Y-58311000D01*
X69930640Y-58311000D01*
X69903062Y-58308284D01*
X69882443Y-58302029D01*
X69863447Y-58291876D01*
X69846792Y-58278208D01*
X69833124Y-58261553D01*
X69822971Y-58242557D01*
X69816716Y-58221938D01*
X69814000Y-58194360D01*
X69814000Y-57685640D01*
X69816716Y-57658062D01*
X69822971Y-57637443D01*
X69833124Y-57618447D01*
X69846792Y-57601792D01*
X69863447Y-57588124D01*
X69882443Y-57577971D01*
X69903062Y-57571716D01*
X69930640Y-57569000D01*
X70389360Y-57569000D01*
X70416938Y-57571716D01*
G37*
G36*
X71811938Y-57571716D02*
G01*
X71832557Y-57577971D01*
X71851553Y-57588124D01*
X71868208Y-57601792D01*
X71881876Y-57618447D01*
X71892029Y-57637443D01*
X71898284Y-57658062D01*
X71901000Y-57685640D01*
X71901000Y-58194360D01*
X71898284Y-58221938D01*
X71892029Y-58242557D01*
X71881876Y-58261553D01*
X71868208Y-58278208D01*
X71851553Y-58291876D01*
X71832557Y-58302029D01*
X71811938Y-58308284D01*
X71784360Y-58311000D01*
X71325640Y-58311000D01*
X71298062Y-58308284D01*
X71277443Y-58302029D01*
X71258447Y-58291876D01*
X71241792Y-58278208D01*
X71228124Y-58261553D01*
X71217971Y-58242557D01*
X71211716Y-58221938D01*
X71209000Y-58194360D01*
X71209000Y-57685640D01*
X71211716Y-57658062D01*
X71217971Y-57637443D01*
X71228124Y-57618447D01*
X71241792Y-57601792D01*
X71258447Y-57588124D01*
X71277443Y-57577971D01*
X71298062Y-57571716D01*
X71325640Y-57569000D01*
X71784360Y-57569000D01*
X71811938Y-57571716D01*
G37*
G36*
X72781938Y-57571716D02*
G01*
X72802557Y-57577971D01*
X72821553Y-57588124D01*
X72838208Y-57601792D01*
X72851876Y-57618447D01*
X72862029Y-57637443D01*
X72868284Y-57658062D01*
X72871000Y-57685640D01*
X72871000Y-58194360D01*
X72868284Y-58221938D01*
X72862029Y-58242557D01*
X72851876Y-58261553D01*
X72838208Y-58278208D01*
X72821553Y-58291876D01*
X72802557Y-58302029D01*
X72781938Y-58308284D01*
X72754360Y-58311000D01*
X72295640Y-58311000D01*
X72268062Y-58308284D01*
X72247443Y-58302029D01*
X72228447Y-58291876D01*
X72211792Y-58278208D01*
X72198124Y-58261553D01*
X72187971Y-58242557D01*
X72181716Y-58221938D01*
X72179000Y-58194360D01*
X72179000Y-57685640D01*
X72181716Y-57658062D01*
X72187971Y-57637443D01*
X72198124Y-57618447D01*
X72211792Y-57601792D01*
X72228447Y-57588124D01*
X72247443Y-57577971D01*
X72268062Y-57571716D01*
X72295640Y-57569000D01*
X72754360Y-57569000D01*
X72781938Y-57571716D01*
G37*
G36*
X69446938Y-57571716D02*
G01*
X69467557Y-57577971D01*
X69486553Y-57588124D01*
X69503208Y-57601792D01*
X69516876Y-57618447D01*
X69527029Y-57637443D01*
X69533284Y-57658062D01*
X69536000Y-57685640D01*
X69536000Y-58194360D01*
X69533284Y-58221938D01*
X69527029Y-58242557D01*
X69516876Y-58261553D01*
X69503208Y-58278208D01*
X69486553Y-58291876D01*
X69467557Y-58302029D01*
X69446938Y-58308284D01*
X69419360Y-58311000D01*
X68960640Y-58311000D01*
X68933062Y-58308284D01*
X68912443Y-58302029D01*
X68893447Y-58291876D01*
X68876792Y-58278208D01*
X68863124Y-58261553D01*
X68852971Y-58242557D01*
X68846716Y-58221938D01*
X68844000Y-58194360D01*
X68844000Y-57685640D01*
X68846716Y-57658062D01*
X68852971Y-57637443D01*
X68863124Y-57618447D01*
X68876792Y-57601792D01*
X68893447Y-57588124D01*
X68912443Y-57577971D01*
X68933062Y-57571716D01*
X68960640Y-57569000D01*
X69419360Y-57569000D01*
X69446938Y-57571716D01*
G37*
G36*
X73861938Y-57596716D02*
G01*
X73882557Y-57602971D01*
X73901553Y-57613124D01*
X73918208Y-57626792D01*
X73931876Y-57643447D01*
X73942029Y-57662443D01*
X73948284Y-57683062D01*
X73951000Y-57710640D01*
X73951000Y-58169360D01*
X73948284Y-58196938D01*
X73942029Y-58217557D01*
X73931876Y-58236553D01*
X73918208Y-58253208D01*
X73901553Y-58266876D01*
X73882557Y-58277029D01*
X73861938Y-58283284D01*
X73834360Y-58286000D01*
X73325640Y-58286000D01*
X73298062Y-58283284D01*
X73277443Y-58277029D01*
X73258447Y-58266876D01*
X73241792Y-58253208D01*
X73228124Y-58236553D01*
X73217971Y-58217557D01*
X73211716Y-58196938D01*
X73209000Y-58169360D01*
X73209000Y-57710640D01*
X73211716Y-57683062D01*
X73217971Y-57662443D01*
X73228124Y-57643447D01*
X73241792Y-57626792D01*
X73258447Y-57613124D01*
X73277443Y-57602971D01*
X73298062Y-57596716D01*
X73325640Y-57594000D01*
X73834360Y-57594000D01*
X73861938Y-57596716D01*
G37*
G36*
X115019591Y-56768085D02*
G01*
X115053569Y-56778393D01*
X115084890Y-56795134D01*
X115112339Y-56817661D01*
X115134866Y-56845110D01*
X115151607Y-56876431D01*
X115161915Y-56910409D01*
X115166000Y-56951890D01*
X115166000Y-57628110D01*
X115161915Y-57669591D01*
X115151607Y-57703569D01*
X115134866Y-57734890D01*
X115112339Y-57762339D01*
X115084890Y-57784866D01*
X115053569Y-57801607D01*
X115019591Y-57811915D01*
X114978110Y-57816000D01*
X114376890Y-57816000D01*
X114335409Y-57811915D01*
X114301431Y-57801607D01*
X114270110Y-57784866D01*
X114242661Y-57762339D01*
X114220134Y-57734890D01*
X114203393Y-57703569D01*
X114193085Y-57669591D01*
X114189000Y-57628110D01*
X114189000Y-56951890D01*
X114193085Y-56910409D01*
X114203393Y-56876431D01*
X114220134Y-56845110D01*
X114242661Y-56817661D01*
X114270110Y-56795134D01*
X114301431Y-56778393D01*
X114335409Y-56768085D01*
X114376890Y-56764000D01*
X114978110Y-56764000D01*
X115019591Y-56768085D01*
G37*
G36*
X113444591Y-56768085D02*
G01*
X113478569Y-56778393D01*
X113509890Y-56795134D01*
X113537339Y-56817661D01*
X113559866Y-56845110D01*
X113576607Y-56876431D01*
X113586915Y-56910409D01*
X113591000Y-56951890D01*
X113591000Y-57628110D01*
X113586915Y-57669591D01*
X113576607Y-57703569D01*
X113559866Y-57734890D01*
X113537339Y-57762339D01*
X113509890Y-57784866D01*
X113478569Y-57801607D01*
X113444591Y-57811915D01*
X113403110Y-57816000D01*
X112801890Y-57816000D01*
X112760409Y-57811915D01*
X112726431Y-57801607D01*
X112695110Y-57784866D01*
X112667661Y-57762339D01*
X112645134Y-57734890D01*
X112628393Y-57703569D01*
X112618085Y-57669591D01*
X112614000Y-57628110D01*
X112614000Y-56951890D01*
X112618085Y-56910409D01*
X112628393Y-56876431D01*
X112645134Y-56845110D01*
X112667661Y-56817661D01*
X112695110Y-56795134D01*
X112726431Y-56778393D01*
X112760409Y-56768085D01*
X112801890Y-56764000D01*
X113403110Y-56764000D01*
X113444591Y-56768085D01*
G37*
G36*
X83661938Y-57061716D02*
G01*
X83682557Y-57067971D01*
X83701553Y-57078124D01*
X83718208Y-57091792D01*
X83731876Y-57108447D01*
X83742029Y-57127443D01*
X83748284Y-57148062D01*
X83751000Y-57175640D01*
X83751000Y-57634360D01*
X83748284Y-57661938D01*
X83742029Y-57682557D01*
X83731876Y-57701553D01*
X83718208Y-57718208D01*
X83701553Y-57731876D01*
X83682557Y-57742029D01*
X83661938Y-57748284D01*
X83634360Y-57751000D01*
X83125640Y-57751000D01*
X83098062Y-57748284D01*
X83077443Y-57742029D01*
X83058447Y-57731876D01*
X83041792Y-57718208D01*
X83028124Y-57701553D01*
X83017971Y-57682557D01*
X83011716Y-57661938D01*
X83009000Y-57634360D01*
X83009000Y-57175640D01*
X83011716Y-57148062D01*
X83017971Y-57127443D01*
X83028124Y-57108447D01*
X83041792Y-57091792D01*
X83058447Y-57078124D01*
X83077443Y-57067971D01*
X83098062Y-57061716D01*
X83125640Y-57059000D01*
X83634360Y-57059000D01*
X83661938Y-57061716D01*
G37*
G36*
X102199591Y-56575585D02*
G01*
X102233569Y-56585893D01*
X102264890Y-56602634D01*
X102292339Y-56625161D01*
X102314866Y-56652610D01*
X102331607Y-56683931D01*
X102341915Y-56717909D01*
X102346000Y-56759390D01*
X102346000Y-57360610D01*
X102341915Y-57402091D01*
X102331607Y-57436069D01*
X102314866Y-57467390D01*
X102292339Y-57494839D01*
X102264890Y-57517366D01*
X102233569Y-57534107D01*
X102199591Y-57544415D01*
X102158110Y-57548500D01*
X101481890Y-57548500D01*
X101440409Y-57544415D01*
X101406431Y-57534107D01*
X101375110Y-57517366D01*
X101347661Y-57494839D01*
X101325134Y-57467390D01*
X101308393Y-57436069D01*
X101298085Y-57402091D01*
X101294000Y-57360610D01*
X101294000Y-56759390D01*
X101298085Y-56717909D01*
X101308393Y-56683931D01*
X101325134Y-56652610D01*
X101347661Y-56625161D01*
X101375110Y-56602634D01*
X101406431Y-56585893D01*
X101440409Y-56575585D01*
X101481890Y-56571500D01*
X102158110Y-56571500D01*
X102199591Y-56575585D01*
G37*
G36*
X104841000Y-57321000D02*
G01*
X103639000Y-57321000D01*
X103639000Y-56119000D01*
X104841000Y-56119000D01*
X104841000Y-57321000D01*
G37*
G36*
X107641000Y-57321000D02*
G01*
X106439000Y-57321000D01*
X106439000Y-56119000D01*
X107641000Y-56119000D01*
X107641000Y-57321000D01*
G37*
G36*
X73861938Y-56626716D02*
G01*
X73882557Y-56632971D01*
X73901553Y-56643124D01*
X73918208Y-56656792D01*
X73931876Y-56673447D01*
X73942029Y-56692443D01*
X73948284Y-56713062D01*
X73951000Y-56740640D01*
X73951000Y-57199360D01*
X73948284Y-57226938D01*
X73942029Y-57247557D01*
X73931876Y-57266553D01*
X73918208Y-57283208D01*
X73901553Y-57296876D01*
X73882557Y-57307029D01*
X73861938Y-57313284D01*
X73834360Y-57316000D01*
X73325640Y-57316000D01*
X73298062Y-57313284D01*
X73277443Y-57307029D01*
X73258447Y-57296876D01*
X73241792Y-57283208D01*
X73228124Y-57266553D01*
X73217971Y-57247557D01*
X73211716Y-57226938D01*
X73209000Y-57199360D01*
X73209000Y-56740640D01*
X73211716Y-56713062D01*
X73217971Y-56692443D01*
X73228124Y-56673447D01*
X73241792Y-56656792D01*
X73258447Y-56643124D01*
X73277443Y-56632971D01*
X73298062Y-56626716D01*
X73325640Y-56624000D01*
X73834360Y-56624000D01*
X73861938Y-56626716D01*
G37*
G36*
X66761000Y-57071000D02*
G01*
X64459000Y-57071000D01*
X64459000Y-55919000D01*
X66761000Y-55919000D01*
X66761000Y-57071000D01*
G37*
G36*
X71521938Y-56196716D02*
G01*
X71542557Y-56202971D01*
X71561553Y-56213124D01*
X71578208Y-56226792D01*
X71591876Y-56243447D01*
X71602029Y-56262443D01*
X71608284Y-56283062D01*
X71611000Y-56310640D01*
X71611000Y-56769360D01*
X71608284Y-56796938D01*
X71602029Y-56817557D01*
X71591876Y-56836553D01*
X71578208Y-56853208D01*
X71561553Y-56866876D01*
X71542557Y-56877029D01*
X71521938Y-56883284D01*
X71494360Y-56886000D01*
X70985640Y-56886000D01*
X70958062Y-56883284D01*
X70937443Y-56877029D01*
X70918447Y-56866876D01*
X70901792Y-56853208D01*
X70888124Y-56836553D01*
X70877971Y-56817557D01*
X70871716Y-56796938D01*
X70869000Y-56769360D01*
X70869000Y-56310640D01*
X70871716Y-56283062D01*
X70877971Y-56262443D01*
X70888124Y-56243447D01*
X70901792Y-56226792D01*
X70918447Y-56213124D01*
X70937443Y-56202971D01*
X70958062Y-56196716D01*
X70985640Y-56194000D01*
X71494360Y-56194000D01*
X71521938Y-56196716D01*
G37*
G36*
X72621938Y-56181716D02*
G01*
X72642557Y-56187971D01*
X72661553Y-56198124D01*
X72678208Y-56211792D01*
X72691876Y-56228447D01*
X72702029Y-56247443D01*
X72708284Y-56268062D01*
X72711000Y-56295640D01*
X72711000Y-56754360D01*
X72708284Y-56781938D01*
X72702029Y-56802557D01*
X72691876Y-56821553D01*
X72678208Y-56838208D01*
X72661553Y-56851876D01*
X72642557Y-56862029D01*
X72621938Y-56868284D01*
X72594360Y-56871000D01*
X72085640Y-56871000D01*
X72058062Y-56868284D01*
X72037443Y-56862029D01*
X72018447Y-56851876D01*
X72001792Y-56838208D01*
X71988124Y-56821553D01*
X71977971Y-56802557D01*
X71971716Y-56781938D01*
X71969000Y-56754360D01*
X71969000Y-56295640D01*
X71971716Y-56268062D01*
X71977971Y-56247443D01*
X71988124Y-56228447D01*
X72001792Y-56211792D01*
X72018447Y-56198124D01*
X72037443Y-56187971D01*
X72058062Y-56181716D01*
X72085640Y-56179000D01*
X72594360Y-56179000D01*
X72621938Y-56181716D01*
G37*
G36*
X83661938Y-56091716D02*
G01*
X83682557Y-56097971D01*
X83701553Y-56108124D01*
X83718208Y-56121792D01*
X83731876Y-56138447D01*
X83742029Y-56157443D01*
X83748284Y-56178062D01*
X83751000Y-56205640D01*
X83751000Y-56664360D01*
X83748284Y-56691938D01*
X83742029Y-56712557D01*
X83731876Y-56731553D01*
X83718208Y-56748208D01*
X83701553Y-56761876D01*
X83682557Y-56772029D01*
X83661938Y-56778284D01*
X83634360Y-56781000D01*
X83125640Y-56781000D01*
X83098062Y-56778284D01*
X83077443Y-56772029D01*
X83058447Y-56761876D01*
X83041792Y-56748208D01*
X83028124Y-56731553D01*
X83017971Y-56712557D01*
X83011716Y-56691938D01*
X83009000Y-56664360D01*
X83009000Y-56205640D01*
X83011716Y-56178062D01*
X83017971Y-56157443D01*
X83028124Y-56138447D01*
X83041792Y-56121792D01*
X83058447Y-56108124D01*
X83077443Y-56097971D01*
X83098062Y-56091716D01*
X83125640Y-56089000D01*
X83634360Y-56089000D01*
X83661938Y-56091716D01*
G37*
G36*
X85904499Y-55503445D02*
G01*
X85941995Y-55514820D01*
X85976554Y-55533292D01*
X86006847Y-55558153D01*
X86031708Y-55588446D01*
X86050180Y-55623005D01*
X86061555Y-55660501D01*
X86066000Y-55705638D01*
X86066000Y-56444362D01*
X86061555Y-56489499D01*
X86050180Y-56526995D01*
X86031708Y-56561554D01*
X86006847Y-56591847D01*
X85976554Y-56616708D01*
X85941995Y-56635180D01*
X85904499Y-56646555D01*
X85859362Y-56651000D01*
X85220638Y-56651000D01*
X85175501Y-56646555D01*
X85138005Y-56635180D01*
X85103446Y-56616708D01*
X85073153Y-56591847D01*
X85048292Y-56561554D01*
X85036239Y-56539004D01*
X85022626Y-56518630D01*
X85005299Y-56501302D01*
X84984925Y-56487688D01*
X84962286Y-56478311D01*
X84938253Y-56473530D01*
X84913749Y-56473530D01*
X84889715Y-56478310D01*
X84867076Y-56487687D01*
X84846702Y-56501300D01*
X84829374Y-56518627D01*
X84815760Y-56539001D01*
X84806383Y-56561640D01*
X84801602Y-56585673D01*
X84801000Y-56597927D01*
X84801000Y-56664360D01*
X84798284Y-56691938D01*
X84792029Y-56712557D01*
X84781876Y-56731553D01*
X84768208Y-56748208D01*
X84751553Y-56761876D01*
X84732557Y-56772029D01*
X84711938Y-56778284D01*
X84684360Y-56781000D01*
X84175640Y-56781000D01*
X84148062Y-56778284D01*
X84127443Y-56772029D01*
X84108447Y-56761876D01*
X84091792Y-56748208D01*
X84078124Y-56731553D01*
X84067971Y-56712557D01*
X84061716Y-56691938D01*
X84059000Y-56664360D01*
X84059000Y-56205640D01*
X84061716Y-56178062D01*
X84067971Y-56157443D01*
X84078124Y-56138447D01*
X84091792Y-56121792D01*
X84108447Y-56108124D01*
X84127443Y-56097971D01*
X84148062Y-56091716D01*
X84175640Y-56089000D01*
X84684360Y-56089000D01*
X84711938Y-56091716D01*
X84732557Y-56097971D01*
X84751553Y-56108124D01*
X84768208Y-56121792D01*
X84786064Y-56143551D01*
X84792379Y-56153001D01*
X84809707Y-56170327D01*
X84830081Y-56183940D01*
X84852721Y-56193316D01*
X84876754Y-56198096D01*
X84901258Y-56198095D01*
X84925291Y-56193313D01*
X84947930Y-56183935D01*
X84968304Y-56170320D01*
X84985630Y-56152992D01*
X84999243Y-56132618D01*
X85008619Y-56109978D01*
X85014000Y-56073698D01*
X85014000Y-55705638D01*
X85018445Y-55660501D01*
X85029820Y-55623005D01*
X85048292Y-55588446D01*
X85073153Y-55558153D01*
X85103446Y-55533292D01*
X85138005Y-55514820D01*
X85175501Y-55503445D01*
X85220638Y-55499000D01*
X85859362Y-55499000D01*
X85904499Y-55503445D01*
G37*
G36*
X92234499Y-55508445D02*
G01*
X92271995Y-55519820D01*
X92306554Y-55538292D01*
X92336847Y-55563153D01*
X92361708Y-55593446D01*
X92380180Y-55628005D01*
X92391555Y-55665501D01*
X92396000Y-55710638D01*
X92396000Y-56449362D01*
X92391555Y-56494499D01*
X92380180Y-56531995D01*
X92361708Y-56566554D01*
X92336847Y-56596847D01*
X92306554Y-56621708D01*
X92271995Y-56640180D01*
X92234499Y-56651555D01*
X92189362Y-56656000D01*
X91550638Y-56656000D01*
X91505501Y-56651555D01*
X91468005Y-56640180D01*
X91433446Y-56621708D01*
X91403153Y-56596847D01*
X91378292Y-56566554D01*
X91359820Y-56531995D01*
X91348445Y-56494499D01*
X91344000Y-56449362D01*
X91344000Y-55710638D01*
X91348445Y-55665501D01*
X91359820Y-55628005D01*
X91378292Y-55593446D01*
X91403153Y-55563153D01*
X91433446Y-55538292D01*
X91468005Y-55519820D01*
X91505501Y-55508445D01*
X91550638Y-55504000D01*
X92189362Y-55504000D01*
X92234499Y-55508445D01*
G37*
G36*
X90604499Y-55503445D02*
G01*
X90641995Y-55514820D01*
X90676554Y-55533292D01*
X90706847Y-55558153D01*
X90731708Y-55588446D01*
X90750180Y-55623005D01*
X90761555Y-55660501D01*
X90766000Y-55705638D01*
X90766000Y-56444362D01*
X90761555Y-56489499D01*
X90750180Y-56526995D01*
X90731708Y-56561554D01*
X90706847Y-56591847D01*
X90676554Y-56616708D01*
X90641995Y-56635180D01*
X90604499Y-56646555D01*
X90559362Y-56651000D01*
X89920638Y-56651000D01*
X89875501Y-56646555D01*
X89838005Y-56635180D01*
X89803446Y-56616708D01*
X89773153Y-56591847D01*
X89748292Y-56561554D01*
X89729820Y-56526995D01*
X89718445Y-56489499D01*
X89714000Y-56444362D01*
X89714000Y-55705638D01*
X89718445Y-55660501D01*
X89729820Y-55623005D01*
X89748292Y-55588446D01*
X89773153Y-55558153D01*
X89803446Y-55533292D01*
X89838005Y-55514820D01*
X89875501Y-55503445D01*
X89920638Y-55499000D01*
X90559362Y-55499000D01*
X90604499Y-55503445D01*
G37*
G36*
X89014499Y-55503445D02*
G01*
X89051995Y-55514820D01*
X89086554Y-55533292D01*
X89116847Y-55558153D01*
X89141708Y-55588446D01*
X89160180Y-55623005D01*
X89171555Y-55660501D01*
X89176000Y-55705638D01*
X89176000Y-56444362D01*
X89171555Y-56489499D01*
X89160180Y-56526995D01*
X89141708Y-56561554D01*
X89116847Y-56591847D01*
X89086554Y-56616708D01*
X89051995Y-56635180D01*
X89014499Y-56646555D01*
X88969362Y-56651000D01*
X88330638Y-56651000D01*
X88285501Y-56646555D01*
X88248005Y-56635180D01*
X88213446Y-56616708D01*
X88183153Y-56591847D01*
X88158292Y-56561554D01*
X88139820Y-56526995D01*
X88128445Y-56489499D01*
X88124000Y-56444362D01*
X88124000Y-55705638D01*
X88128445Y-55660501D01*
X88139820Y-55623005D01*
X88158292Y-55588446D01*
X88183153Y-55558153D01*
X88213446Y-55533292D01*
X88248005Y-55514820D01*
X88285501Y-55503445D01*
X88330638Y-55499000D01*
X88969362Y-55499000D01*
X89014499Y-55503445D01*
G37*
G36*
X87414499Y-55503445D02*
G01*
X87451995Y-55514820D01*
X87486554Y-55533292D01*
X87516847Y-55558153D01*
X87541708Y-55588446D01*
X87560180Y-55623005D01*
X87571555Y-55660501D01*
X87576000Y-55705638D01*
X87576000Y-56444362D01*
X87571555Y-56489499D01*
X87560180Y-56526995D01*
X87541708Y-56561554D01*
X87516847Y-56591847D01*
X87486554Y-56616708D01*
X87451995Y-56635180D01*
X87414499Y-56646555D01*
X87369362Y-56651000D01*
X86730638Y-56651000D01*
X86685501Y-56646555D01*
X86648005Y-56635180D01*
X86613446Y-56616708D01*
X86583153Y-56591847D01*
X86558292Y-56561554D01*
X86539820Y-56526995D01*
X86528445Y-56489499D01*
X86524000Y-56444362D01*
X86524000Y-55705638D01*
X86528445Y-55660501D01*
X86539820Y-55623005D01*
X86558292Y-55588446D01*
X86583153Y-55558153D01*
X86613446Y-55533292D01*
X86648005Y-55514820D01*
X86685501Y-55503445D01*
X86730638Y-55499000D01*
X87369362Y-55499000D01*
X87414499Y-55503445D01*
G37*
G36*
X102199591Y-55000585D02*
G01*
X102233569Y-55010893D01*
X102264890Y-55027634D01*
X102292339Y-55050161D01*
X102314866Y-55077610D01*
X102331607Y-55108931D01*
X102341915Y-55142909D01*
X102346000Y-55184390D01*
X102346000Y-55785610D01*
X102341915Y-55827091D01*
X102331607Y-55861069D01*
X102314866Y-55892390D01*
X102292339Y-55919839D01*
X102264890Y-55942366D01*
X102233569Y-55959107D01*
X102199591Y-55969415D01*
X102158110Y-55973500D01*
X101481890Y-55973500D01*
X101440409Y-55969415D01*
X101406431Y-55959107D01*
X101375110Y-55942366D01*
X101347661Y-55919839D01*
X101325134Y-55892390D01*
X101308393Y-55861069D01*
X101298085Y-55827091D01*
X101294000Y-55785610D01*
X101294000Y-55184390D01*
X101298085Y-55142909D01*
X101308393Y-55108931D01*
X101325134Y-55077610D01*
X101347661Y-55050161D01*
X101375110Y-55027634D01*
X101406431Y-55010893D01*
X101440409Y-55000585D01*
X101481890Y-54996500D01*
X102158110Y-54996500D01*
X102199591Y-55000585D01*
G37*
G36*
X71521938Y-55226716D02*
G01*
X71542557Y-55232971D01*
X71561553Y-55243124D01*
X71578208Y-55256792D01*
X71591876Y-55273447D01*
X71602029Y-55292443D01*
X71608284Y-55313062D01*
X71611000Y-55340640D01*
X71611000Y-55799360D01*
X71608284Y-55826938D01*
X71602029Y-55847557D01*
X71591876Y-55866553D01*
X71578208Y-55883208D01*
X71561553Y-55896876D01*
X71542557Y-55907029D01*
X71521938Y-55913284D01*
X71494360Y-55916000D01*
X70985640Y-55916000D01*
X70958062Y-55913284D01*
X70937443Y-55907029D01*
X70918447Y-55896876D01*
X70901792Y-55883208D01*
X70888124Y-55866553D01*
X70877971Y-55847557D01*
X70871716Y-55826938D01*
X70869000Y-55799360D01*
X70869000Y-55340640D01*
X70871716Y-55313062D01*
X70877971Y-55292443D01*
X70888124Y-55273447D01*
X70901792Y-55256792D01*
X70918447Y-55243124D01*
X70937443Y-55232971D01*
X70958062Y-55226716D01*
X70985640Y-55224000D01*
X71494360Y-55224000D01*
X71521938Y-55226716D01*
G37*
G36*
X72621938Y-55211716D02*
G01*
X72642557Y-55217971D01*
X72661553Y-55228124D01*
X72678208Y-55241792D01*
X72691876Y-55258447D01*
X72702029Y-55277443D01*
X72708284Y-55298062D01*
X72711000Y-55325640D01*
X72711000Y-55784360D01*
X72708284Y-55811938D01*
X72702029Y-55832557D01*
X72691876Y-55851553D01*
X72678208Y-55868208D01*
X72661553Y-55881876D01*
X72642557Y-55892029D01*
X72621938Y-55898284D01*
X72594360Y-55901000D01*
X72085640Y-55901000D01*
X72058062Y-55898284D01*
X72037443Y-55892029D01*
X72018447Y-55881876D01*
X72001792Y-55868208D01*
X71988124Y-55851553D01*
X71977971Y-55832557D01*
X71971716Y-55811938D01*
X71969000Y-55784360D01*
X71969000Y-55325640D01*
X71971716Y-55298062D01*
X71977971Y-55277443D01*
X71988124Y-55258447D01*
X72001792Y-55241792D01*
X72018447Y-55228124D01*
X72037443Y-55217971D01*
X72058062Y-55211716D01*
X72085640Y-55209000D01*
X72594360Y-55209000D01*
X72621938Y-55211716D01*
G37*
G36*
X73721938Y-55181716D02*
G01*
X73742557Y-55187971D01*
X73761553Y-55198124D01*
X73778208Y-55211792D01*
X73791876Y-55228447D01*
X73802029Y-55247443D01*
X73808284Y-55268062D01*
X73811000Y-55295640D01*
X73811000Y-55754360D01*
X73808284Y-55781938D01*
X73802029Y-55802557D01*
X73791876Y-55821553D01*
X73778208Y-55838208D01*
X73761553Y-55851876D01*
X73742557Y-55862029D01*
X73721938Y-55868284D01*
X73694360Y-55871000D01*
X73185640Y-55871000D01*
X73158062Y-55868284D01*
X73137443Y-55862029D01*
X73118447Y-55851876D01*
X73101792Y-55838208D01*
X73088124Y-55821553D01*
X73077971Y-55802557D01*
X73071716Y-55781938D01*
X73069000Y-55754360D01*
X73069000Y-55295640D01*
X73071716Y-55268062D01*
X73077971Y-55247443D01*
X73088124Y-55228447D01*
X73101792Y-55211792D01*
X73118447Y-55198124D01*
X73137443Y-55187971D01*
X73158062Y-55181716D01*
X73185640Y-55179000D01*
X73694360Y-55179000D01*
X73721938Y-55181716D01*
G37*
G36*
X105271000Y-55151000D02*
G01*
X104269000Y-55151000D01*
X104269000Y-54249000D01*
X105271000Y-54249000D01*
X105271000Y-55151000D01*
G37*
G36*
X73721938Y-54211716D02*
G01*
X73742557Y-54217971D01*
X73761553Y-54228124D01*
X73778208Y-54241792D01*
X73791876Y-54258447D01*
X73802029Y-54277443D01*
X73808284Y-54298062D01*
X73811000Y-54325640D01*
X73811000Y-54784360D01*
X73808284Y-54811938D01*
X73802029Y-54832557D01*
X73791876Y-54851553D01*
X73778208Y-54868208D01*
X73761553Y-54881876D01*
X73742557Y-54892029D01*
X73721938Y-54898284D01*
X73694360Y-54901000D01*
X73185640Y-54901000D01*
X73158062Y-54898284D01*
X73137443Y-54892029D01*
X73118447Y-54881876D01*
X73101792Y-54868208D01*
X73088124Y-54851553D01*
X73077971Y-54832557D01*
X73071716Y-54811938D01*
X73069000Y-54784360D01*
X73069000Y-54325640D01*
X73071716Y-54298062D01*
X73077971Y-54277443D01*
X73088124Y-54258447D01*
X73101792Y-54241792D01*
X73118447Y-54228124D01*
X73137443Y-54217971D01*
X73158062Y-54211716D01*
X73185640Y-54209000D01*
X73694360Y-54209000D01*
X73721938Y-54211716D01*
G37*
G36*
X72621938Y-53981716D02*
G01*
X72642557Y-53987971D01*
X72661553Y-53998124D01*
X72678208Y-54011792D01*
X72691876Y-54028447D01*
X72702029Y-54047443D01*
X72708284Y-54068062D01*
X72711000Y-54095640D01*
X72711000Y-54554360D01*
X72708284Y-54581938D01*
X72702029Y-54602557D01*
X72691876Y-54621553D01*
X72678208Y-54638208D01*
X72661553Y-54651876D01*
X72642557Y-54662029D01*
X72621938Y-54668284D01*
X72594360Y-54671000D01*
X72085640Y-54671000D01*
X72058062Y-54668284D01*
X72037443Y-54662029D01*
X72018447Y-54651876D01*
X72001792Y-54638208D01*
X71988124Y-54621553D01*
X71977971Y-54602557D01*
X71971716Y-54581938D01*
X71969000Y-54554360D01*
X71969000Y-54095640D01*
X71971716Y-54068062D01*
X71977971Y-54047443D01*
X71988124Y-54028447D01*
X72001792Y-54011792D01*
X72018447Y-53998124D01*
X72037443Y-53987971D01*
X72058062Y-53981716D01*
X72085640Y-53979000D01*
X72594360Y-53979000D01*
X72621938Y-53981716D01*
G37*
G36*
X102244499Y-53163445D02*
G01*
X102281995Y-53174820D01*
X102316554Y-53193292D01*
X102346847Y-53218153D01*
X102371708Y-53248446D01*
X102390180Y-53283005D01*
X102401555Y-53320501D01*
X102406000Y-53365638D01*
X102406000Y-54104362D01*
X102401555Y-54149499D01*
X102390180Y-54186995D01*
X102371708Y-54221554D01*
X102346847Y-54251847D01*
X102316554Y-54276708D01*
X102281995Y-54295180D01*
X102244499Y-54306555D01*
X102199362Y-54311000D01*
X101560638Y-54311000D01*
X101515501Y-54306555D01*
X101478005Y-54295180D01*
X101443446Y-54276708D01*
X101413153Y-54251847D01*
X101388292Y-54221554D01*
X101369820Y-54186995D01*
X101358445Y-54149499D01*
X101354000Y-54104362D01*
X101354000Y-53365638D01*
X101358445Y-53320501D01*
X101369820Y-53283005D01*
X101388292Y-53248446D01*
X101413153Y-53218153D01*
X101443446Y-53193292D01*
X101478005Y-53174820D01*
X101515501Y-53163445D01*
X101560638Y-53159000D01*
X102199362Y-53159000D01*
X102244499Y-53163445D01*
G37*
G36*
X107271000Y-54201000D02*
G01*
X106269000Y-54201000D01*
X106269000Y-53299000D01*
X107271000Y-53299000D01*
X107271000Y-54201000D01*
G37*
G36*
X72621938Y-53011716D02*
G01*
X72642557Y-53017971D01*
X72661553Y-53028124D01*
X72678208Y-53041792D01*
X72691876Y-53058447D01*
X72702029Y-53077443D01*
X72708284Y-53098062D01*
X72711000Y-53125640D01*
X72711000Y-53584360D01*
X72708284Y-53611938D01*
X72702029Y-53632557D01*
X72691876Y-53651553D01*
X72678208Y-53668208D01*
X72661553Y-53681876D01*
X72642557Y-53692029D01*
X72621938Y-53698284D01*
X72594360Y-53701000D01*
X72085640Y-53701000D01*
X72058062Y-53698284D01*
X72037443Y-53692029D01*
X72018447Y-53681876D01*
X72001792Y-53668208D01*
X71988124Y-53651553D01*
X71977971Y-53632557D01*
X71971716Y-53611938D01*
X71969000Y-53584360D01*
X71969000Y-53125640D01*
X71971716Y-53098062D01*
X71977971Y-53077443D01*
X71988124Y-53058447D01*
X72001792Y-53041792D01*
X72018447Y-53028124D01*
X72037443Y-53017971D01*
X72058062Y-53011716D01*
X72085640Y-53009000D01*
X72594360Y-53009000D01*
X72621938Y-53011716D01*
G37*
G36*
X75711938Y-52571716D02*
G01*
X75732557Y-52577971D01*
X75751553Y-52588124D01*
X75768208Y-52601792D01*
X75781876Y-52618447D01*
X75792029Y-52637443D01*
X75798284Y-52658062D01*
X75801000Y-52685640D01*
X75801000Y-53194360D01*
X75798284Y-53221938D01*
X75792029Y-53242557D01*
X75781876Y-53261553D01*
X75768208Y-53278208D01*
X75751553Y-53291876D01*
X75732557Y-53302029D01*
X75711938Y-53308284D01*
X75684360Y-53311000D01*
X75225640Y-53311000D01*
X75198062Y-53308284D01*
X75177443Y-53302029D01*
X75158447Y-53291876D01*
X75141792Y-53278208D01*
X75128124Y-53261553D01*
X75117971Y-53242557D01*
X75111716Y-53221938D01*
X75109000Y-53194360D01*
X75109000Y-52685640D01*
X75111716Y-52658062D01*
X75117971Y-52637443D01*
X75128124Y-52618447D01*
X75141792Y-52601792D01*
X75158447Y-52588124D01*
X75177443Y-52577971D01*
X75198062Y-52571716D01*
X75225640Y-52569000D01*
X75684360Y-52569000D01*
X75711938Y-52571716D01*
G37*
G36*
X76681938Y-52571716D02*
G01*
X76702557Y-52577971D01*
X76721553Y-52588124D01*
X76738208Y-52601792D01*
X76751876Y-52618447D01*
X76762029Y-52637443D01*
X76768284Y-52658062D01*
X76771000Y-52685640D01*
X76771000Y-53194360D01*
X76768284Y-53221938D01*
X76762029Y-53242557D01*
X76751876Y-53261553D01*
X76738208Y-53278208D01*
X76721553Y-53291876D01*
X76702557Y-53302029D01*
X76681938Y-53308284D01*
X76654360Y-53311000D01*
X76195640Y-53311000D01*
X76168062Y-53308284D01*
X76147443Y-53302029D01*
X76128447Y-53291876D01*
X76111792Y-53278208D01*
X76098124Y-53261553D01*
X76087971Y-53242557D01*
X76081716Y-53221938D01*
X76079000Y-53194360D01*
X76079000Y-52685640D01*
X76081716Y-52658062D01*
X76087971Y-52637443D01*
X76098124Y-52618447D01*
X76111792Y-52601792D01*
X76128447Y-52588124D01*
X76147443Y-52577971D01*
X76168062Y-52571716D01*
X76195640Y-52569000D01*
X76654360Y-52569000D01*
X76681938Y-52571716D01*
G37*
G36*
X105271000Y-53251000D02*
G01*
X104269000Y-53251000D01*
X104269000Y-52349000D01*
X105271000Y-52349000D01*
X105271000Y-53251000D01*
G37*
G36*
X102244499Y-51413445D02*
G01*
X102281995Y-51424820D01*
X102316554Y-51443292D01*
X102346847Y-51468153D01*
X102371708Y-51498446D01*
X102390180Y-51533005D01*
X102401555Y-51570501D01*
X102406000Y-51615638D01*
X102406000Y-52354362D01*
X102401555Y-52399499D01*
X102390180Y-52436995D01*
X102371708Y-52471554D01*
X102346847Y-52501847D01*
X102316554Y-52526708D01*
X102281995Y-52545180D01*
X102244499Y-52556555D01*
X102199362Y-52561000D01*
X101560638Y-52561000D01*
X101515501Y-52556555D01*
X101478005Y-52545180D01*
X101443446Y-52526708D01*
X101413153Y-52501847D01*
X101388292Y-52471554D01*
X101369820Y-52436995D01*
X101358445Y-52399499D01*
X101354000Y-52354362D01*
X101354000Y-51615638D01*
X101358445Y-51570501D01*
X101369820Y-51533005D01*
X101388292Y-51498446D01*
X101413153Y-51468153D01*
X101443446Y-51443292D01*
X101478005Y-51424820D01*
X101515501Y-51413445D01*
X101560638Y-51409000D01*
X102199362Y-51409000D01*
X102244499Y-51413445D01*
G37*
G36*
X77881938Y-50271716D02*
G01*
X77902557Y-50277971D01*
X77921553Y-50288124D01*
X77938208Y-50301792D01*
X77951876Y-50318447D01*
X77962029Y-50337443D01*
X77968284Y-50358062D01*
X77971000Y-50385640D01*
X77971000Y-50894360D01*
X77968284Y-50921938D01*
X77962029Y-50942557D01*
X77951876Y-50961553D01*
X77938208Y-50978208D01*
X77921553Y-50991876D01*
X77902557Y-51002029D01*
X77881938Y-51008284D01*
X77854360Y-51011000D01*
X77395640Y-51011000D01*
X77368062Y-51008284D01*
X77347443Y-51002029D01*
X77328447Y-50991876D01*
X77311792Y-50978208D01*
X77298124Y-50961553D01*
X77287971Y-50942557D01*
X77281716Y-50921938D01*
X77279000Y-50894360D01*
X77279000Y-50385640D01*
X77281716Y-50358062D01*
X77287971Y-50337443D01*
X77298124Y-50318447D01*
X77311792Y-50301792D01*
X77328447Y-50288124D01*
X77347443Y-50277971D01*
X77368062Y-50271716D01*
X77395640Y-50269000D01*
X77854360Y-50269000D01*
X77881938Y-50271716D01*
G37*
G36*
X76911938Y-50271716D02*
G01*
X76932557Y-50277971D01*
X76951553Y-50288124D01*
X76968208Y-50301792D01*
X76981876Y-50318447D01*
X76992029Y-50337443D01*
X76998284Y-50358062D01*
X77001000Y-50385640D01*
X77001000Y-50894360D01*
X76998284Y-50921938D01*
X76992029Y-50942557D01*
X76981876Y-50961553D01*
X76968208Y-50978208D01*
X76951553Y-50991876D01*
X76932557Y-51002029D01*
X76911938Y-51008284D01*
X76884360Y-51011000D01*
X76425640Y-51011000D01*
X76398062Y-51008284D01*
X76377443Y-51002029D01*
X76358447Y-50991876D01*
X76341792Y-50978208D01*
X76328124Y-50961553D01*
X76317971Y-50942557D01*
X76311716Y-50921938D01*
X76309000Y-50894360D01*
X76309000Y-50385640D01*
X76311716Y-50358062D01*
X76317971Y-50337443D01*
X76328124Y-50318447D01*
X76341792Y-50301792D01*
X76358447Y-50288124D01*
X76377443Y-50277971D01*
X76398062Y-50271716D01*
X76425640Y-50269000D01*
X76884360Y-50269000D01*
X76911938Y-50271716D01*
G37*
G36*
X79051938Y-50251716D02*
G01*
X79072557Y-50257971D01*
X79091553Y-50268124D01*
X79108208Y-50281792D01*
X79121876Y-50298447D01*
X79132029Y-50317443D01*
X79138284Y-50338062D01*
X79141000Y-50365640D01*
X79141000Y-50874360D01*
X79138284Y-50901938D01*
X79132029Y-50922557D01*
X79121876Y-50941553D01*
X79108208Y-50958208D01*
X79091553Y-50971876D01*
X79072557Y-50982029D01*
X79051938Y-50988284D01*
X79024360Y-50991000D01*
X78565640Y-50991000D01*
X78538062Y-50988284D01*
X78517443Y-50982029D01*
X78498447Y-50971876D01*
X78481792Y-50958208D01*
X78468124Y-50941553D01*
X78457971Y-50922557D01*
X78451716Y-50901938D01*
X78449000Y-50874360D01*
X78449000Y-50365640D01*
X78451716Y-50338062D01*
X78457971Y-50317443D01*
X78468124Y-50298447D01*
X78481792Y-50281792D01*
X78498447Y-50268124D01*
X78517443Y-50257971D01*
X78538062Y-50251716D01*
X78565640Y-50249000D01*
X79024360Y-50249000D01*
X79051938Y-50251716D01*
G37*
G36*
X80021938Y-50251716D02*
G01*
X80042557Y-50257971D01*
X80061553Y-50268124D01*
X80078208Y-50281792D01*
X80091876Y-50298447D01*
X80102029Y-50317443D01*
X80108284Y-50338062D01*
X80111000Y-50365640D01*
X80111000Y-50874360D01*
X80108284Y-50901938D01*
X80102029Y-50922557D01*
X80091876Y-50941553D01*
X80078208Y-50958208D01*
X80061553Y-50971876D01*
X80042557Y-50982029D01*
X80021938Y-50988284D01*
X79994360Y-50991000D01*
X79535640Y-50991000D01*
X79508062Y-50988284D01*
X79487443Y-50982029D01*
X79468447Y-50971876D01*
X79451792Y-50958208D01*
X79438124Y-50941553D01*
X79427971Y-50922557D01*
X79421716Y-50901938D01*
X79419000Y-50874360D01*
X79419000Y-50365640D01*
X79421716Y-50338062D01*
X79427971Y-50317443D01*
X79438124Y-50298447D01*
X79451792Y-50281792D01*
X79468447Y-50268124D01*
X79487443Y-50257971D01*
X79508062Y-50251716D01*
X79535640Y-50249000D01*
X79994360Y-50249000D01*
X80021938Y-50251716D01*
G37*
G36*
X82606938Y-50241716D02*
G01*
X82627557Y-50247971D01*
X82646553Y-50258124D01*
X82663208Y-50271792D01*
X82676876Y-50288447D01*
X82687029Y-50307443D01*
X82693284Y-50328062D01*
X82696000Y-50355640D01*
X82696000Y-50864360D01*
X82693284Y-50891938D01*
X82687029Y-50912557D01*
X82676876Y-50931553D01*
X82663208Y-50948208D01*
X82646553Y-50961876D01*
X82627557Y-50972029D01*
X82606938Y-50978284D01*
X82579360Y-50981000D01*
X82120640Y-50981000D01*
X82093062Y-50978284D01*
X82072443Y-50972029D01*
X82053447Y-50961876D01*
X82036792Y-50948208D01*
X82023124Y-50931553D01*
X82012971Y-50912557D01*
X82006716Y-50891938D01*
X82004000Y-50864360D01*
X82004000Y-50355640D01*
X82006716Y-50328062D01*
X82012971Y-50307443D01*
X82023124Y-50288447D01*
X82036792Y-50271792D01*
X82053447Y-50258124D01*
X82072443Y-50247971D01*
X82093062Y-50241716D01*
X82120640Y-50239000D01*
X82579360Y-50239000D01*
X82606938Y-50241716D01*
G37*
G36*
X81636938Y-50241716D02*
G01*
X81657557Y-50247971D01*
X81676553Y-50258124D01*
X81693208Y-50271792D01*
X81706876Y-50288447D01*
X81717029Y-50307443D01*
X81723284Y-50328062D01*
X81726000Y-50355640D01*
X81726000Y-50864360D01*
X81723284Y-50891938D01*
X81717029Y-50912557D01*
X81706876Y-50931553D01*
X81693208Y-50948208D01*
X81676553Y-50961876D01*
X81657557Y-50972029D01*
X81636938Y-50978284D01*
X81609360Y-50981000D01*
X81150640Y-50981000D01*
X81123062Y-50978284D01*
X81102443Y-50972029D01*
X81083447Y-50961876D01*
X81066792Y-50948208D01*
X81053124Y-50931553D01*
X81042971Y-50912557D01*
X81036716Y-50891938D01*
X81034000Y-50864360D01*
X81034000Y-50355640D01*
X81036716Y-50328062D01*
X81042971Y-50307443D01*
X81053124Y-50288447D01*
X81066792Y-50271792D01*
X81083447Y-50258124D01*
X81102443Y-50247971D01*
X81123062Y-50241716D01*
X81150640Y-50239000D01*
X81609360Y-50239000D01*
X81636938Y-50241716D01*
G37*
G36*
X88541000Y-50486000D02*
G01*
X86139000Y-50486000D01*
X86139000Y-49884000D01*
X88541000Y-49884000D01*
X88541000Y-50486000D01*
G37*
G36*
X91467938Y-49440716D02*
G01*
X91488557Y-49446971D01*
X91507553Y-49457124D01*
X91524208Y-49470792D01*
X91537876Y-49487447D01*
X91548029Y-49506443D01*
X91554284Y-49527062D01*
X91557000Y-49554640D01*
X91557000Y-50013360D01*
X91554284Y-50040938D01*
X91548029Y-50061557D01*
X91537876Y-50080553D01*
X91524208Y-50097208D01*
X91507553Y-50110876D01*
X91488557Y-50121029D01*
X91467938Y-50127284D01*
X91440360Y-50130000D01*
X90931640Y-50130000D01*
X90904062Y-50127284D01*
X90883443Y-50121029D01*
X90864447Y-50110876D01*
X90847792Y-50097208D01*
X90834124Y-50080553D01*
X90823971Y-50061557D01*
X90817716Y-50040938D01*
X90815000Y-50013360D01*
X90815000Y-49554640D01*
X90817716Y-49527062D01*
X90823971Y-49506443D01*
X90834124Y-49487447D01*
X90847792Y-49470792D01*
X90864447Y-49457124D01*
X90883443Y-49446971D01*
X90904062Y-49440716D01*
X90931640Y-49438000D01*
X91440360Y-49438000D01*
X91467938Y-49440716D01*
G37*
G36*
X89943938Y-49394716D02*
G01*
X89964557Y-49400971D01*
X89983553Y-49411124D01*
X90000208Y-49424792D01*
X90013876Y-49441447D01*
X90024029Y-49460443D01*
X90030284Y-49481062D01*
X90033000Y-49508640D01*
X90033000Y-49967360D01*
X90030284Y-49994938D01*
X90024029Y-50015557D01*
X90013876Y-50034553D01*
X90000208Y-50051208D01*
X89983553Y-50064876D01*
X89964557Y-50075029D01*
X89943938Y-50081284D01*
X89916360Y-50084000D01*
X89407640Y-50084000D01*
X89380062Y-50081284D01*
X89359443Y-50075029D01*
X89340447Y-50064876D01*
X89323792Y-50051208D01*
X89310124Y-50034553D01*
X89299971Y-50015557D01*
X89293716Y-49994938D01*
X89291000Y-49967360D01*
X89291000Y-49508640D01*
X89293716Y-49481062D01*
X89299971Y-49460443D01*
X89310124Y-49441447D01*
X89323792Y-49424792D01*
X89340447Y-49411124D01*
X89359443Y-49400971D01*
X89380062Y-49394716D01*
X89407640Y-49392000D01*
X89916360Y-49392000D01*
X89943938Y-49394716D01*
G37*
G36*
X82271000Y-49401000D02*
G01*
X80469000Y-49401000D01*
X80469000Y-46899000D01*
X82271000Y-46899000D01*
X82271000Y-49401000D01*
G37*
G36*
X78571000Y-49401000D02*
G01*
X76769000Y-49401000D01*
X76769000Y-46899000D01*
X78571000Y-46899000D01*
X78571000Y-49401000D01*
G37*
G36*
X91467938Y-48470716D02*
G01*
X91488557Y-48476971D01*
X91507553Y-48487124D01*
X91524208Y-48500792D01*
X91537876Y-48517447D01*
X91548029Y-48536443D01*
X91554284Y-48557062D01*
X91557000Y-48584640D01*
X91557000Y-49043360D01*
X91554284Y-49070938D01*
X91548029Y-49091557D01*
X91537876Y-49110553D01*
X91524208Y-49127208D01*
X91507553Y-49140876D01*
X91488557Y-49151029D01*
X91467938Y-49157284D01*
X91440360Y-49160000D01*
X90931640Y-49160000D01*
X90904062Y-49157284D01*
X90883443Y-49151029D01*
X90864447Y-49140876D01*
X90847792Y-49127208D01*
X90834124Y-49110553D01*
X90823971Y-49091557D01*
X90817716Y-49070938D01*
X90815000Y-49043360D01*
X90815000Y-48584640D01*
X90817716Y-48557062D01*
X90823971Y-48536443D01*
X90834124Y-48517447D01*
X90847792Y-48500792D01*
X90864447Y-48487124D01*
X90883443Y-48476971D01*
X90904062Y-48470716D01*
X90931640Y-48468000D01*
X91440360Y-48468000D01*
X91467938Y-48470716D01*
G37*
G36*
X89943938Y-48424716D02*
G01*
X89964557Y-48430971D01*
X89983553Y-48441124D01*
X90000208Y-48454792D01*
X90013876Y-48471447D01*
X90024029Y-48490443D01*
X90030284Y-48511062D01*
X90033000Y-48538640D01*
X90033000Y-48997360D01*
X90030284Y-49024938D01*
X90024029Y-49045557D01*
X90013876Y-49064553D01*
X90000208Y-49081208D01*
X89983553Y-49094876D01*
X89964557Y-49105029D01*
X89943938Y-49111284D01*
X89916360Y-49114000D01*
X89407640Y-49114000D01*
X89380062Y-49111284D01*
X89359443Y-49105029D01*
X89340447Y-49094876D01*
X89323792Y-49081208D01*
X89310124Y-49064553D01*
X89299971Y-49045557D01*
X89293716Y-49024938D01*
X89291000Y-48997360D01*
X89291000Y-48538640D01*
X89293716Y-48511062D01*
X89299971Y-48490443D01*
X89310124Y-48471447D01*
X89323792Y-48454792D01*
X89340447Y-48441124D01*
X89359443Y-48430971D01*
X89380062Y-48424716D01*
X89407640Y-48422000D01*
X89916360Y-48422000D01*
X89943938Y-48424716D01*
G37*
G36*
X88541000Y-48436000D02*
G01*
X86139000Y-48436000D01*
X86139000Y-47834000D01*
X88541000Y-47834000D01*
X88541000Y-48436000D01*
G37*
M02*
