M48
; DRILL file {KiCad 5.1.5+dfsg1-2build2} date Сб 28 ноя 2020 21:48:03
; FORMAT={-:-/ absolute / metric / decimal}
; #@! TF.CreationDate,2020-11-28T21:48:03+03:00
; #@! TF.GenerationSoftware,Kicad,Pcbnew,5.1.5+dfsg1-2build2
; #@! TF.FileFunction,Plated,1,2,PTH
FMAT,2
METRIC
T1C0.300
T2C0.400
T3C0.600
T4C0.762
T5C1.000
%
G90
G05
T1
X56.64Y-51.74
X56.64Y-54.24
X56.64Y-59.24
X56.64Y-64.24
X56.64Y-74.24
X56.64Y-79.24
X56.64Y-84.24
X59.14Y-49.24
X59.14Y-86.74
X61.64Y-46.74
X61.64Y-89.24
X62.64Y-57.94
X63.14Y-59.94
X63.24Y-55.94
X64.14Y-44.24
X64.14Y-64.24
X64.14Y-74.24
X64.14Y-81.74
X64.14Y-91.74
X64.44Y-61.24
X65.04Y-54.74
X66.44Y-61.34
X67.24Y-55.04
X67.74Y-60.04
X69.14Y-44.24
X69.14Y-64.24
X69.14Y-91.74
X69.64Y-54.74
X70.44Y-89.14
X70.84Y-53.24
X70.84Y-59.24
X70.866Y-69.342
X71.34Y-61.34
X73.34Y-51.94
X73.54Y-48.34
X74.01Y-64.55
X74.14Y-44.24
X74.14Y-91.74
X74.44Y-46.44
X74.82Y-84.97
X74.84Y-53.74
X75.34Y-48.34
X76.19Y-60.9
X77.04Y-63.54
X77.08Y-82.95
X77.24Y-56.19
X77.24Y-57.31
X77.24Y-58.52
X77.47Y-75.438
X78.22Y-56.19
X78.22Y-57.31
X78.22Y-58.52
X78.74Y-73.822
X79.14Y-44.24
X79.14Y-91.74
X79.44Y-56.19
X79.44Y-57.31
X79.44Y-58.52
X80.01Y-76.454
X80.772Y-61.976
X81.026Y-76.454
X81.534Y-68.58
X81.788Y-67.018
X82.242Y-53.598
X82.296Y-66.04
X82.47Y-57.51
X82.53Y-56.47
X82.925Y-69.463
X83.312Y-55.372
X83.51Y-48.205
X83.82Y-54.61
X83.82Y-68.326
X83.92Y-53.22
X84.11Y-49.99
X84.14Y-44.24
X84.14Y-91.74
X85.09Y-51.054
X85.182Y-61.976
X85.344Y-49.784
X86.16Y-61.55
X86.49Y-83.33
X86.614Y-53.34
X87.02Y-46.97
X87.07Y-65.93
X88.265Y-46.97
X88.646Y-54.61
X88.87Y-64.22
X88.9Y-69.088
X89.02Y-82.05
X89.14Y-44.24
X90.17Y-59.944
X91.14Y-70.84
X91.64Y-86.74
X91.694Y-59.436
X92.74Y-81.74
X93.472Y-56.388
X94.14Y-44.24
X94.14Y-91.74
X94.234Y-54.61
X94.24Y-50.14
X95.14Y-56.74
X95.14Y-58.74
X95.64Y-51.34
X97.14Y-49.14
X97.14Y-54.74
X97.14Y-56.74
X97.14Y-58.74
X99.14Y-44.24
X99.14Y-49.24
X99.14Y-51.34
X99.14Y-54.74
X99.14Y-56.74
X99.14Y-58.74
X99.14Y-84.24
X99.14Y-91.74
X100.584Y-54.61
X103.68Y-81.74
X104.14Y-44.24
X104.14Y-91.74
X106.64Y-86.74
X106.76Y-48.5
X109.14Y-44.24
X109.14Y-91.74
X109.474Y-56.642
X111.64Y-81.74
X114.14Y-44.24
X114.14Y-51.74
X114.14Y-91.74
X114.99Y-61.84
X116.64Y-69.24
X119.14Y-44.24
X119.14Y-74.24
X119.14Y-81.74
X119.14Y-91.74
X121.14Y-52.74
X121.64Y-46.74
X121.64Y-56.74
X121.64Y-89.24
X122.14Y-61.74
X124.14Y-49.24
X124.14Y-86.74
X126.64Y-51.74
X126.64Y-56.74
X126.64Y-61.74
X126.64Y-71.74
X126.64Y-76.74
X126.64Y-84.24
T2
X81.857Y-84.239
T3
X91.186Y-47.244
T4
X95.84Y-78.24
X123.64Y-78.24
T5
X71.15Y-72.95
X71.15Y-75.49
X71.15Y-78.03
X71.15Y-80.57
X71.15Y-83.11
X71.15Y-85.65
T0
M30
