M48
; DRILL file {KiCad 5.1.5+dfsg1-2build2} date Сб 20 фев 2021 14:04:47
; FORMAT={-:-/ absolute / inch / decimal}
; #@! TF.CreationDate,2021-02-20T14:04:47+03:00
; #@! TF.GenerationSoftware,Kicad,Pcbnew,5.1.5+dfsg1-2build2
; #@! TF.FileFunction,Plated,1,2,PTH
FMAT,2
INCH
T1C0.0118
T2C0.0300
T3C0.0394
%
G90
G05
T1
X2.2299Y-2.037
X2.2299Y-2.1354
X2.2299Y-2.3323
X2.2299Y-2.5291
X2.2299Y-2.9228
X2.2299Y-3.1197
X2.2299Y-3.3165
X2.3283Y-1.9386
X2.3283Y-3.415
X2.4268Y-1.8402
X2.4268Y-3.5134
X2.4661Y-2.2811
X2.4858Y-2.3598
X2.4898Y-2.2024
X2.5252Y-1.7417
X2.5252Y-2.5291
X2.5252Y-2.9228
X2.5252Y-3.2181
X2.5252Y-3.6118
X2.537Y-2.411
X2.5606Y-2.1551
X2.6157Y-2.415
X2.6472Y-2.1669
X2.6669Y-2.3638
X2.722Y-1.7417
X2.722Y-2.5291
X2.722Y-3.6118
X2.7417Y-2.1551
X2.7732Y-3.5094
X2.789Y-2.0961
X2.789Y-2.3323
X2.8087Y-2.415
X2.8681Y-2.8425
X2.8702Y-2.7756
X2.8874Y-2.0449
X2.8874Y-2.9091
X2.8953Y-1.9031
X2.9138Y-2.5413
X2.9146Y-2.9819
X2.9189Y-1.7417
X2.9189Y-3.6118
X2.9307Y-1.8283
X2.9339Y-2.8331
X2.9457Y-3.3453
X2.9465Y-2.1157
X2.9661Y-1.9031
X2.9996Y-2.3976
X3.0331Y-2.5016
X3.0346Y-3.2657
X3.039Y-2.2075
X3.0394Y-2.2484
X3.0413Y-2.2965
X3.0854Y-2.2953
X3.0858Y-2.2476
X3.0862Y-2.2059
X3.1157Y-1.7417
X3.1157Y-3.6118
X3.1268Y-2.2476
X3.1276Y-2.2055
X3.1303Y-2.2933
X3.15Y-3.0169
X3.1947Y-3.1651
X3.2169Y-3.1106
X3.2227Y-3.3165
X3.2379Y-2.1102
X3.2406Y-1.7846
X3.2469Y-2.2642
X3.2492Y-2.2232
X3.2807Y-2.8252
X3.2815Y-2.7661
X3.298Y-2.389
X3.3Y-2.15
X3.3083Y-2.2984
X3.3126Y-1.7417
X3.3126Y-3.6118
X3.3224Y-3.1768
X3.3228Y-2.098
X3.335Y-2.8669
X3.3374Y-2.3898
X3.3457Y-1.965
X3.3465Y-1.9993
X3.3465Y-2.0308
X3.3634Y-2.6764
X3.365Y-3.0606
X3.376Y-2.3697
X3.4Y-2.6882
X3.402Y-2.2984
X3.4051Y-3.2807
X3.4079Y-2.8626
X3.426Y-1.8492
X3.4287Y-2.663
X3.4295Y-2.3713
X3.4508Y-1.7949
X3.4533Y-2.2985
X3.4555Y-2.0949
X3.461Y-2.6961
X3.4705Y-2.7831
X3.479Y-1.855
X3.489Y-1.9362
X3.5047Y-3.2303
X3.5094Y-1.7417
X3.5618Y-2.3114
X3.59Y-1.8492
X3.5902Y-1.9992
X3.6079Y-3.415
X3.6512Y-3.2181
X3.7063Y-1.7417
X3.7063Y-3.6118
X3.7102Y-1.974
X3.7264Y-2.4146
X3.7654Y-2.0213
X3.8244Y-1.9346
X3.8516Y-2.3209
X3.9031Y-1.7417
X3.9031Y-1.9386
X3.9031Y-2.0213
X3.9031Y-3.3165
X3.9031Y-3.6118
X3.9181Y-2.2567
X3.96Y-2.15
X4.0819Y-3.2181
X4.1Y-1.7417
X4.1Y-3.6118
X4.1984Y-3.415
X4.2031Y-1.9094
X4.2969Y-1.7417
X4.2969Y-3.6118
X4.31Y-2.23
X4.3953Y-3.2181
X4.4937Y-1.7417
X4.4937Y-2.037
X4.4937Y-3.6118
X4.5272Y-2.4346
X4.5921Y-2.726
X4.6906Y-1.7417
X4.6906Y-2.9228
X4.6906Y-3.2181
X4.6906Y-3.6118
X4.7693Y-2.0764
X4.789Y-1.8402
X4.789Y-2.2339
X4.789Y-3.5134
X4.8087Y-2.4307
X4.8874Y-1.9386
X4.8874Y-3.415
X4.9858Y-2.037
X4.9858Y-2.2339
X4.9858Y-2.4307
X4.9858Y-2.8244
X4.9858Y-3.0213
X4.9858Y-3.3165
T2
X3.7732Y-3.0803
X4.8677Y-3.0803
T3
X2.8012Y-2.872
X2.8012Y-2.972
X2.8012Y-3.072
X2.8012Y-3.172
X2.8012Y-3.272
X2.8012Y-3.372
T0
M30
