G04 #@! TF.GenerationSoftware,KiCad,Pcbnew,5.1.5+dfsg1-2build2*
G04 #@! TF.CreationDate,2021-02-20T14:04:53+03:00*
G04 #@! TF.ProjectId,NRF_SENDER,4e52465f-5345-44e4-9445-522e6b696361,rev?*
G04 #@! TF.SameCoordinates,Original*
G04 #@! TF.FileFunction,Soldermask,Top*
G04 #@! TF.FilePolarity,Negative*
%FSLAX46Y46*%
G04 Gerber Fmt 4.6, Leading zero omitted, Abs format (unit mm)*
G04 Created by KiCad (PCBNEW 5.1.5+dfsg1-2build2) date 2021-02-20 14:04:53*
%MOMM*%
%LPD*%
G04 APERTURE LIST*
%ADD10C,0.100000*%
G04 APERTURE END LIST*
D10*
G36*
X75256000Y-90331000D02*
G01*
X73704000Y-90331000D01*
X73704000Y-89529000D01*
X75256000Y-89529000D01*
X75256000Y-90331000D01*
G37*
G36*
X80416000Y-90331000D02*
G01*
X78864000Y-90331000D01*
X78864000Y-89529000D01*
X80416000Y-89529000D01*
X80416000Y-90331000D01*
G37*
G36*
X90846000Y-90291000D02*
G01*
X89294000Y-90291000D01*
X89294000Y-89489000D01*
X90846000Y-89489000D01*
X90846000Y-90291000D01*
G37*
G36*
X85686000Y-90291000D02*
G01*
X84134000Y-90291000D01*
X84134000Y-89489000D01*
X85686000Y-89489000D01*
X85686000Y-90291000D01*
G37*
G36*
X75256000Y-88331000D02*
G01*
X73704000Y-88331000D01*
X73704000Y-87529000D01*
X75256000Y-87529000D01*
X75256000Y-88331000D01*
G37*
G36*
X80416000Y-88331000D02*
G01*
X78864000Y-88331000D01*
X78864000Y-87529000D01*
X80416000Y-87529000D01*
X80416000Y-88331000D01*
G37*
G36*
X90846000Y-88291000D02*
G01*
X89294000Y-88291000D01*
X89294000Y-87489000D01*
X90846000Y-87489000D01*
X90846000Y-88291000D01*
G37*
G36*
X85686000Y-88291000D02*
G01*
X84134000Y-88291000D01*
X84134000Y-87489000D01*
X85686000Y-87489000D01*
X85686000Y-88291000D01*
G37*
G36*
X71263512Y-84753927D02*
G01*
X71412812Y-84783624D01*
X71576784Y-84851544D01*
X71724354Y-84950147D01*
X71849853Y-85075646D01*
X71948456Y-85223216D01*
X72016376Y-85387188D01*
X72051000Y-85561259D01*
X72051000Y-85738741D01*
X72016376Y-85912812D01*
X71948456Y-86076784D01*
X71849853Y-86224354D01*
X71724354Y-86349853D01*
X71576784Y-86448456D01*
X71412812Y-86516376D01*
X71263512Y-86546073D01*
X71238742Y-86551000D01*
X71061258Y-86551000D01*
X71036488Y-86546073D01*
X70887188Y-86516376D01*
X70723216Y-86448456D01*
X70575646Y-86349853D01*
X70450147Y-86224354D01*
X70351544Y-86076784D01*
X70283624Y-85912812D01*
X70249000Y-85738741D01*
X70249000Y-85561259D01*
X70283624Y-85387188D01*
X70351544Y-85223216D01*
X70450147Y-85075646D01*
X70575646Y-84950147D01*
X70723216Y-84851544D01*
X70887188Y-84783624D01*
X71036488Y-84753927D01*
X71061258Y-84749000D01*
X71238742Y-84749000D01*
X71263512Y-84753927D01*
G37*
G36*
X76659499Y-85188445D02*
G01*
X76696995Y-85199820D01*
X76731554Y-85218292D01*
X76761847Y-85243153D01*
X76786708Y-85273446D01*
X76805180Y-85308005D01*
X76816555Y-85345501D01*
X76821000Y-85390638D01*
X76821000Y-86029362D01*
X76816555Y-86074499D01*
X76805180Y-86111995D01*
X76786708Y-86146554D01*
X76761847Y-86176847D01*
X76731554Y-86201708D01*
X76696995Y-86220180D01*
X76659499Y-86231555D01*
X76614362Y-86236000D01*
X75875638Y-86236000D01*
X75830501Y-86231555D01*
X75793005Y-86220180D01*
X75758446Y-86201708D01*
X75728153Y-86176847D01*
X75703292Y-86146554D01*
X75684820Y-86111995D01*
X75673445Y-86074499D01*
X75669000Y-86029362D01*
X75669000Y-85390638D01*
X75673445Y-85345501D01*
X75684820Y-85308005D01*
X75703292Y-85273446D01*
X75728153Y-85243153D01*
X75758446Y-85218292D01*
X75793005Y-85199820D01*
X75830501Y-85188445D01*
X75875638Y-85184000D01*
X76614362Y-85184000D01*
X76659499Y-85188445D01*
G37*
G36*
X78409499Y-85188445D02*
G01*
X78446995Y-85199820D01*
X78481554Y-85218292D01*
X78511847Y-85243153D01*
X78536708Y-85273446D01*
X78555180Y-85308005D01*
X78566555Y-85345501D01*
X78571000Y-85390638D01*
X78571000Y-86029362D01*
X78566555Y-86074499D01*
X78555180Y-86111995D01*
X78536708Y-86146554D01*
X78511847Y-86176847D01*
X78481554Y-86201708D01*
X78446995Y-86220180D01*
X78409499Y-86231555D01*
X78364362Y-86236000D01*
X77625638Y-86236000D01*
X77580501Y-86231555D01*
X77543005Y-86220180D01*
X77508446Y-86201708D01*
X77478153Y-86176847D01*
X77453292Y-86146554D01*
X77434820Y-86111995D01*
X77423445Y-86074499D01*
X77419000Y-86029362D01*
X77419000Y-85390638D01*
X77423445Y-85345501D01*
X77434820Y-85308005D01*
X77453292Y-85273446D01*
X77478153Y-85243153D01*
X77508446Y-85218292D01*
X77543005Y-85199820D01*
X77580501Y-85188445D01*
X77625638Y-85184000D01*
X78364362Y-85184000D01*
X78409499Y-85188445D01*
G37*
G36*
X71263512Y-82213927D02*
G01*
X71412812Y-82243624D01*
X71576784Y-82311544D01*
X71724354Y-82410147D01*
X71849853Y-82535646D01*
X71948456Y-82683216D01*
X72016376Y-82847188D01*
X72051000Y-83021259D01*
X72051000Y-83198741D01*
X72016376Y-83372812D01*
X71948456Y-83536784D01*
X71849853Y-83684354D01*
X71724354Y-83809853D01*
X71576784Y-83908456D01*
X71412812Y-83976376D01*
X71263512Y-84006073D01*
X71238742Y-84011000D01*
X71061258Y-84011000D01*
X71036488Y-84006073D01*
X70887188Y-83976376D01*
X70723216Y-83908456D01*
X70575646Y-83809853D01*
X70450147Y-83684354D01*
X70351544Y-83536784D01*
X70283624Y-83372812D01*
X70249000Y-83198741D01*
X70249000Y-83021259D01*
X70283624Y-82847188D01*
X70351544Y-82683216D01*
X70450147Y-82535646D01*
X70575646Y-82410147D01*
X70723216Y-82311544D01*
X70887188Y-82243624D01*
X71036488Y-82213927D01*
X71061258Y-82209000D01*
X71238742Y-82209000D01*
X71263512Y-82213927D01*
G37*
G36*
X80094499Y-82813445D02*
G01*
X80131995Y-82824820D01*
X80166554Y-82843292D01*
X80196847Y-82868153D01*
X80221708Y-82898446D01*
X80240180Y-82933005D01*
X80251555Y-82970501D01*
X80256000Y-83015638D01*
X80256000Y-83754362D01*
X80251555Y-83799499D01*
X80240180Y-83836995D01*
X80221708Y-83871554D01*
X80196847Y-83901847D01*
X80166554Y-83926708D01*
X80131995Y-83945180D01*
X80094499Y-83956555D01*
X80049362Y-83961000D01*
X79410638Y-83961000D01*
X79365501Y-83956555D01*
X79328005Y-83945180D01*
X79293446Y-83926708D01*
X79263153Y-83901847D01*
X79238292Y-83871554D01*
X79219820Y-83836995D01*
X79208445Y-83799499D01*
X79204000Y-83754362D01*
X79204000Y-83015638D01*
X79208445Y-82970501D01*
X79219820Y-82933005D01*
X79238292Y-82898446D01*
X79263153Y-82868153D01*
X79293446Y-82843292D01*
X79328005Y-82824820D01*
X79365501Y-82813445D01*
X79410638Y-82809000D01*
X80049362Y-82809000D01*
X80094499Y-82813445D01*
G37*
G36*
X87749499Y-81558445D02*
G01*
X87786995Y-81569820D01*
X87821554Y-81588292D01*
X87851847Y-81613153D01*
X87876708Y-81643446D01*
X87895180Y-81678005D01*
X87906555Y-81715501D01*
X87911000Y-81760638D01*
X87911000Y-82399362D01*
X87906555Y-82444499D01*
X87895180Y-82481995D01*
X87876708Y-82516554D01*
X87851847Y-82546847D01*
X87821554Y-82571708D01*
X87786995Y-82590180D01*
X87749499Y-82601555D01*
X87704362Y-82606000D01*
X86965638Y-82606000D01*
X86920501Y-82601555D01*
X86883005Y-82590180D01*
X86848446Y-82571708D01*
X86818153Y-82546847D01*
X86793292Y-82516554D01*
X86774820Y-82481995D01*
X86763445Y-82444499D01*
X86759000Y-82399362D01*
X86759000Y-81760638D01*
X86763445Y-81715501D01*
X86774820Y-81678005D01*
X86793292Y-81643446D01*
X86818153Y-81613153D01*
X86848446Y-81588292D01*
X86883005Y-81569820D01*
X86920501Y-81558445D01*
X86965638Y-81554000D01*
X87704362Y-81554000D01*
X87749499Y-81558445D01*
G37*
G36*
X85999499Y-81558445D02*
G01*
X86036995Y-81569820D01*
X86071554Y-81588292D01*
X86101847Y-81613153D01*
X86126708Y-81643446D01*
X86145180Y-81678005D01*
X86156555Y-81715501D01*
X86161000Y-81760638D01*
X86161000Y-82399362D01*
X86156555Y-82444499D01*
X86145180Y-82481995D01*
X86126708Y-82516554D01*
X86101847Y-82546847D01*
X86071554Y-82571708D01*
X86036995Y-82590180D01*
X85999499Y-82601555D01*
X85954362Y-82606000D01*
X85215638Y-82606000D01*
X85170501Y-82601555D01*
X85133005Y-82590180D01*
X85098446Y-82571708D01*
X85068153Y-82546847D01*
X85043292Y-82516554D01*
X85024820Y-82481995D01*
X85013445Y-82444499D01*
X85009000Y-82399362D01*
X85009000Y-81760638D01*
X85013445Y-81715501D01*
X85024820Y-81678005D01*
X85043292Y-81643446D01*
X85068153Y-81613153D01*
X85098446Y-81588292D01*
X85133005Y-81569820D01*
X85170501Y-81558445D01*
X85215638Y-81554000D01*
X85954362Y-81554000D01*
X85999499Y-81558445D01*
G37*
G36*
X84199499Y-81488445D02*
G01*
X84236995Y-81499820D01*
X84271554Y-81518292D01*
X84301847Y-81543153D01*
X84326708Y-81573446D01*
X84345180Y-81608005D01*
X84356555Y-81645501D01*
X84361000Y-81690638D01*
X84361000Y-82329362D01*
X84356555Y-82374499D01*
X84345180Y-82411995D01*
X84326708Y-82446554D01*
X84301847Y-82476847D01*
X84271554Y-82501708D01*
X84236995Y-82520180D01*
X84199499Y-82531555D01*
X84154362Y-82536000D01*
X83415638Y-82536000D01*
X83370501Y-82531555D01*
X83333005Y-82520180D01*
X83298446Y-82501708D01*
X83268153Y-82476847D01*
X83243292Y-82446554D01*
X83224820Y-82411995D01*
X83213445Y-82374499D01*
X83209000Y-82329362D01*
X83209000Y-81690638D01*
X83213445Y-81645501D01*
X83224820Y-81608005D01*
X83243292Y-81573446D01*
X83268153Y-81543153D01*
X83298446Y-81518292D01*
X83333005Y-81499820D01*
X83370501Y-81488445D01*
X83415638Y-81484000D01*
X84154362Y-81484000D01*
X84199499Y-81488445D01*
G37*
G36*
X82449499Y-81488445D02*
G01*
X82486995Y-81499820D01*
X82521554Y-81518292D01*
X82551847Y-81543153D01*
X82576708Y-81573446D01*
X82595180Y-81608005D01*
X82606555Y-81645501D01*
X82611000Y-81690638D01*
X82611000Y-82329362D01*
X82606555Y-82374499D01*
X82595180Y-82411995D01*
X82576708Y-82446554D01*
X82551847Y-82476847D01*
X82521554Y-82501708D01*
X82486995Y-82520180D01*
X82449499Y-82531555D01*
X82404362Y-82536000D01*
X81665638Y-82536000D01*
X81620501Y-82531555D01*
X81583005Y-82520180D01*
X81548446Y-82501708D01*
X81518153Y-82476847D01*
X81493292Y-82446554D01*
X81474820Y-82411995D01*
X81463445Y-82374499D01*
X81459000Y-82329362D01*
X81459000Y-81690638D01*
X81463445Y-81645501D01*
X81474820Y-81608005D01*
X81493292Y-81573446D01*
X81518153Y-81543153D01*
X81548446Y-81518292D01*
X81583005Y-81499820D01*
X81620501Y-81488445D01*
X81665638Y-81484000D01*
X82404362Y-81484000D01*
X82449499Y-81488445D01*
G37*
G36*
X78342499Y-81075445D02*
G01*
X78379995Y-81086820D01*
X78414554Y-81105292D01*
X78444847Y-81130153D01*
X78469708Y-81160446D01*
X78488180Y-81195005D01*
X78499555Y-81232501D01*
X78504000Y-81277638D01*
X78504000Y-82016362D01*
X78499555Y-82061499D01*
X78488180Y-82098995D01*
X78469708Y-82133554D01*
X78444847Y-82163847D01*
X78414554Y-82188708D01*
X78379995Y-82207180D01*
X78342499Y-82218555D01*
X78297362Y-82223000D01*
X77658638Y-82223000D01*
X77613501Y-82218555D01*
X77576005Y-82207180D01*
X77541446Y-82188708D01*
X77511153Y-82163847D01*
X77486292Y-82133554D01*
X77467820Y-82098995D01*
X77456445Y-82061499D01*
X77452000Y-82016362D01*
X77452000Y-81277638D01*
X77456445Y-81232501D01*
X77467820Y-81195005D01*
X77486292Y-81160446D01*
X77511153Y-81130153D01*
X77541446Y-81105292D01*
X77576005Y-81086820D01*
X77613501Y-81075445D01*
X77658638Y-81071000D01*
X78297362Y-81071000D01*
X78342499Y-81075445D01*
G37*
G36*
X80094499Y-81063445D02*
G01*
X80131995Y-81074820D01*
X80166554Y-81093292D01*
X80196847Y-81118153D01*
X80221708Y-81148446D01*
X80240180Y-81183005D01*
X80251555Y-81220501D01*
X80256000Y-81265638D01*
X80256000Y-82004362D01*
X80251555Y-82049499D01*
X80240180Y-82086995D01*
X80221708Y-82121554D01*
X80196847Y-82151847D01*
X80166554Y-82176708D01*
X80131995Y-82195180D01*
X80094499Y-82206555D01*
X80049362Y-82211000D01*
X79410638Y-82211000D01*
X79365501Y-82206555D01*
X79328005Y-82195180D01*
X79293446Y-82176708D01*
X79263153Y-82151847D01*
X79238292Y-82121554D01*
X79219820Y-82086995D01*
X79208445Y-82049499D01*
X79204000Y-82004362D01*
X79204000Y-81265638D01*
X79208445Y-81220501D01*
X79219820Y-81183005D01*
X79238292Y-81148446D01*
X79263153Y-81118153D01*
X79293446Y-81093292D01*
X79328005Y-81074820D01*
X79365501Y-81063445D01*
X79410638Y-81059000D01*
X80049362Y-81059000D01*
X80094499Y-81063445D01*
G37*
G36*
X71263512Y-79673927D02*
G01*
X71412812Y-79703624D01*
X71576784Y-79771544D01*
X71724354Y-79870147D01*
X71849853Y-79995646D01*
X71948456Y-80143216D01*
X72016376Y-80307188D01*
X72051000Y-80481259D01*
X72051000Y-80658741D01*
X72016376Y-80832812D01*
X71948456Y-80996784D01*
X71849853Y-81144354D01*
X71724354Y-81269853D01*
X71576784Y-81368456D01*
X71412812Y-81436376D01*
X71263512Y-81466073D01*
X71238742Y-81471000D01*
X71061258Y-81471000D01*
X71036488Y-81466073D01*
X70887188Y-81436376D01*
X70723216Y-81368456D01*
X70575646Y-81269853D01*
X70450147Y-81144354D01*
X70351544Y-80996784D01*
X70283624Y-80832812D01*
X70249000Y-80658741D01*
X70249000Y-80481259D01*
X70283624Y-80307188D01*
X70351544Y-80143216D01*
X70450147Y-79995646D01*
X70575646Y-79870147D01*
X70723216Y-79771544D01*
X70887188Y-79703624D01*
X71036488Y-79673927D01*
X71061258Y-79669000D01*
X71238742Y-79669000D01*
X71263512Y-79673927D01*
G37*
G36*
X78342499Y-79325445D02*
G01*
X78379995Y-79336820D01*
X78414554Y-79355292D01*
X78444847Y-79380153D01*
X78469708Y-79410446D01*
X78488180Y-79445005D01*
X78499555Y-79482501D01*
X78504000Y-79527638D01*
X78504000Y-80266362D01*
X78499555Y-80311499D01*
X78488180Y-80348995D01*
X78469708Y-80383554D01*
X78444847Y-80413847D01*
X78414554Y-80438708D01*
X78379995Y-80457180D01*
X78342499Y-80468555D01*
X78297362Y-80473000D01*
X77658638Y-80473000D01*
X77613501Y-80468555D01*
X77576005Y-80457180D01*
X77541446Y-80438708D01*
X77511153Y-80413847D01*
X77486292Y-80383554D01*
X77467820Y-80348995D01*
X77456445Y-80311499D01*
X77452000Y-80266362D01*
X77452000Y-79527638D01*
X77456445Y-79482501D01*
X77467820Y-79445005D01*
X77486292Y-79410446D01*
X77511153Y-79380153D01*
X77541446Y-79355292D01*
X77576005Y-79336820D01*
X77613501Y-79325445D01*
X77658638Y-79321000D01*
X78297362Y-79321000D01*
X78342499Y-79325445D01*
G37*
G36*
X85874499Y-78848445D02*
G01*
X85911995Y-78859820D01*
X85946554Y-78878292D01*
X85976847Y-78903153D01*
X86001708Y-78933446D01*
X86020180Y-78968005D01*
X86031555Y-79005501D01*
X86036000Y-79050638D01*
X86036000Y-79689362D01*
X86031555Y-79734499D01*
X86020180Y-79771995D01*
X86001708Y-79806554D01*
X85976847Y-79836847D01*
X85946554Y-79861708D01*
X85911995Y-79880180D01*
X85874499Y-79891555D01*
X85829362Y-79896000D01*
X85090638Y-79896000D01*
X85045501Y-79891555D01*
X85008005Y-79880180D01*
X84973446Y-79861708D01*
X84943153Y-79836847D01*
X84918292Y-79806554D01*
X84899820Y-79771995D01*
X84888445Y-79734499D01*
X84884000Y-79689362D01*
X84884000Y-79050638D01*
X84888445Y-79005501D01*
X84899820Y-78968005D01*
X84918292Y-78933446D01*
X84943153Y-78903153D01*
X84973446Y-78878292D01*
X85008005Y-78859820D01*
X85045501Y-78848445D01*
X85090638Y-78844000D01*
X85829362Y-78844000D01*
X85874499Y-78848445D01*
G37*
G36*
X87624499Y-78848445D02*
G01*
X87661995Y-78859820D01*
X87696554Y-78878292D01*
X87726847Y-78903153D01*
X87751708Y-78933446D01*
X87770180Y-78968005D01*
X87781555Y-79005501D01*
X87786000Y-79050638D01*
X87786000Y-79689362D01*
X87781555Y-79734499D01*
X87770180Y-79771995D01*
X87751708Y-79806554D01*
X87726847Y-79836847D01*
X87696554Y-79861708D01*
X87661995Y-79880180D01*
X87624499Y-79891555D01*
X87579362Y-79896000D01*
X86840638Y-79896000D01*
X86795501Y-79891555D01*
X86758005Y-79880180D01*
X86723446Y-79861708D01*
X86693153Y-79836847D01*
X86668292Y-79806554D01*
X86649820Y-79771995D01*
X86638445Y-79734499D01*
X86634000Y-79689362D01*
X86634000Y-79050638D01*
X86638445Y-79005501D01*
X86649820Y-78968005D01*
X86668292Y-78933446D01*
X86693153Y-78903153D01*
X86723446Y-78878292D01*
X86758005Y-78859820D01*
X86795501Y-78848445D01*
X86840638Y-78844000D01*
X87579362Y-78844000D01*
X87624499Y-78848445D01*
G37*
G36*
X124019487Y-76988996D02*
G01*
X124256253Y-77087068D01*
X124256255Y-77087069D01*
X124469339Y-77229447D01*
X124650553Y-77410661D01*
X124781527Y-77606677D01*
X124792932Y-77623747D01*
X124891004Y-77860513D01*
X124941000Y-78111861D01*
X124941000Y-78368139D01*
X124891004Y-78619487D01*
X124804446Y-78828456D01*
X124792931Y-78856255D01*
X124650553Y-79069339D01*
X124469339Y-79250553D01*
X124256255Y-79392931D01*
X124256254Y-79392932D01*
X124256253Y-79392932D01*
X124019487Y-79491004D01*
X123768139Y-79541000D01*
X123511861Y-79541000D01*
X123260513Y-79491004D01*
X123023747Y-79392932D01*
X123023746Y-79392932D01*
X123023745Y-79392931D01*
X122810661Y-79250553D01*
X122629447Y-79069339D01*
X122487069Y-78856255D01*
X122475554Y-78828456D01*
X122388996Y-78619487D01*
X122339000Y-78368139D01*
X122339000Y-78111861D01*
X122388996Y-77860513D01*
X122487068Y-77623747D01*
X122498474Y-77606677D01*
X122629447Y-77410661D01*
X122810661Y-77229447D01*
X123023745Y-77087069D01*
X123023747Y-77087068D01*
X123260513Y-76988996D01*
X123511861Y-76939000D01*
X123768139Y-76939000D01*
X124019487Y-76988996D01*
G37*
G36*
X97141000Y-79541000D02*
G01*
X94539000Y-79541000D01*
X94539000Y-76939000D01*
X97141000Y-76939000D01*
X97141000Y-79541000D01*
G37*
G36*
X83964499Y-78253445D02*
G01*
X84001995Y-78264820D01*
X84036554Y-78283292D01*
X84066847Y-78308153D01*
X84091708Y-78338446D01*
X84110180Y-78373005D01*
X84121555Y-78410501D01*
X84126000Y-78455638D01*
X84126000Y-79194362D01*
X84121555Y-79239499D01*
X84110180Y-79276995D01*
X84091708Y-79311554D01*
X84066847Y-79341847D01*
X84036554Y-79366708D01*
X84001995Y-79385180D01*
X83964499Y-79396555D01*
X83919362Y-79401000D01*
X83280638Y-79401000D01*
X83235501Y-79396555D01*
X83198005Y-79385180D01*
X83163446Y-79366708D01*
X83133153Y-79341847D01*
X83108292Y-79311554D01*
X83089820Y-79276995D01*
X83078445Y-79239499D01*
X83074000Y-79194362D01*
X83074000Y-78455638D01*
X83078445Y-78410501D01*
X83089820Y-78373005D01*
X83108292Y-78338446D01*
X83133153Y-78308153D01*
X83163446Y-78283292D01*
X83198005Y-78264820D01*
X83235501Y-78253445D01*
X83280638Y-78249000D01*
X83919362Y-78249000D01*
X83964499Y-78253445D01*
G37*
G36*
X71263512Y-77133927D02*
G01*
X71412812Y-77163624D01*
X71576784Y-77231544D01*
X71724354Y-77330147D01*
X71849853Y-77455646D01*
X71948456Y-77603216D01*
X72016376Y-77767188D01*
X72051000Y-77941259D01*
X72051000Y-78118741D01*
X72016376Y-78292812D01*
X71948456Y-78456784D01*
X71849853Y-78604354D01*
X71724354Y-78729853D01*
X71576784Y-78828456D01*
X71412812Y-78896376D01*
X71263512Y-78926073D01*
X71238742Y-78931000D01*
X71061258Y-78931000D01*
X71036488Y-78926073D01*
X70887188Y-78896376D01*
X70723216Y-78828456D01*
X70575646Y-78729853D01*
X70450147Y-78604354D01*
X70351544Y-78456784D01*
X70283624Y-78292812D01*
X70249000Y-78118741D01*
X70249000Y-77941259D01*
X70283624Y-77767188D01*
X70351544Y-77603216D01*
X70450147Y-77455646D01*
X70575646Y-77330147D01*
X70723216Y-77231544D01*
X70887188Y-77163624D01*
X71036488Y-77133927D01*
X71061258Y-77129000D01*
X71238742Y-77129000D01*
X71263512Y-77133927D01*
G37*
G36*
X77619499Y-77098445D02*
G01*
X77656995Y-77109820D01*
X77691554Y-77128292D01*
X77721847Y-77153153D01*
X77746708Y-77183446D01*
X77765180Y-77218005D01*
X77776555Y-77255501D01*
X77781000Y-77300638D01*
X77781000Y-77939362D01*
X77776555Y-77984499D01*
X77765180Y-78021995D01*
X77746708Y-78056554D01*
X77721847Y-78086847D01*
X77691554Y-78111708D01*
X77656995Y-78130180D01*
X77619499Y-78141555D01*
X77574362Y-78146000D01*
X76835638Y-78146000D01*
X76790501Y-78141555D01*
X76753005Y-78130180D01*
X76718446Y-78111708D01*
X76688153Y-78086847D01*
X76663292Y-78056554D01*
X76644820Y-78021995D01*
X76633445Y-77984499D01*
X76629000Y-77939362D01*
X76629000Y-77300638D01*
X76633445Y-77255501D01*
X76644820Y-77218005D01*
X76663292Y-77183446D01*
X76688153Y-77153153D01*
X76718446Y-77128292D01*
X76753005Y-77109820D01*
X76790501Y-77098445D01*
X76835638Y-77094000D01*
X77574362Y-77094000D01*
X77619499Y-77098445D01*
G37*
G36*
X75869499Y-77098445D02*
G01*
X75906995Y-77109820D01*
X75941554Y-77128292D01*
X75971847Y-77153153D01*
X75996708Y-77183446D01*
X76015180Y-77218005D01*
X76026555Y-77255501D01*
X76031000Y-77300638D01*
X76031000Y-77939362D01*
X76026555Y-77984499D01*
X76015180Y-78021995D01*
X75996708Y-78056554D01*
X75971847Y-78086847D01*
X75941554Y-78111708D01*
X75906995Y-78130180D01*
X75869499Y-78141555D01*
X75824362Y-78146000D01*
X75085638Y-78146000D01*
X75040501Y-78141555D01*
X75003005Y-78130180D01*
X74968446Y-78111708D01*
X74938153Y-78086847D01*
X74913292Y-78056554D01*
X74894820Y-78021995D01*
X74883445Y-77984499D01*
X74879000Y-77939362D01*
X74879000Y-77300638D01*
X74883445Y-77255501D01*
X74894820Y-77218005D01*
X74913292Y-77183446D01*
X74938153Y-77153153D01*
X74968446Y-77128292D01*
X75003005Y-77109820D01*
X75040501Y-77098445D01*
X75085638Y-77094000D01*
X75824362Y-77094000D01*
X75869499Y-77098445D01*
G37*
G36*
X83964499Y-76503445D02*
G01*
X84001995Y-76514820D01*
X84036554Y-76533292D01*
X84066847Y-76558153D01*
X84091708Y-76588446D01*
X84110180Y-76623005D01*
X84121555Y-76660501D01*
X84126000Y-76705638D01*
X84126000Y-77444362D01*
X84121555Y-77489499D01*
X84110180Y-77526995D01*
X84091708Y-77561554D01*
X84066847Y-77591847D01*
X84036554Y-77616708D01*
X84001995Y-77635180D01*
X83964499Y-77646555D01*
X83919362Y-77651000D01*
X83280638Y-77651000D01*
X83235501Y-77646555D01*
X83198005Y-77635180D01*
X83163446Y-77616708D01*
X83133153Y-77591847D01*
X83108292Y-77561554D01*
X83089820Y-77526995D01*
X83078445Y-77489499D01*
X83074000Y-77444362D01*
X83074000Y-76705638D01*
X83078445Y-76660501D01*
X83089820Y-76623005D01*
X83108292Y-76588446D01*
X83133153Y-76558153D01*
X83163446Y-76533292D01*
X83198005Y-76514820D01*
X83235501Y-76503445D01*
X83280638Y-76499000D01*
X83919362Y-76499000D01*
X83964499Y-76503445D01*
G37*
G36*
X89759499Y-76198445D02*
G01*
X89796995Y-76209820D01*
X89831554Y-76228292D01*
X89861847Y-76253153D01*
X89886708Y-76283446D01*
X89905180Y-76318005D01*
X89916555Y-76355501D01*
X89921000Y-76400638D01*
X89921000Y-77039362D01*
X89916555Y-77084499D01*
X89905180Y-77121995D01*
X89886708Y-77156554D01*
X89861847Y-77186847D01*
X89831554Y-77211708D01*
X89796995Y-77230180D01*
X89759499Y-77241555D01*
X89714362Y-77246000D01*
X88975638Y-77246000D01*
X88930501Y-77241555D01*
X88893005Y-77230180D01*
X88858446Y-77211708D01*
X88828153Y-77186847D01*
X88803292Y-77156554D01*
X88784820Y-77121995D01*
X88773445Y-77084499D01*
X88769000Y-77039362D01*
X88769000Y-76400638D01*
X88773445Y-76355501D01*
X88784820Y-76318005D01*
X88803292Y-76283446D01*
X88828153Y-76253153D01*
X88858446Y-76228292D01*
X88893005Y-76209820D01*
X88930501Y-76198445D01*
X88975638Y-76194000D01*
X89714362Y-76194000D01*
X89759499Y-76198445D01*
G37*
G36*
X88009499Y-76198445D02*
G01*
X88046995Y-76209820D01*
X88081554Y-76228292D01*
X88111847Y-76253153D01*
X88136708Y-76283446D01*
X88155180Y-76318005D01*
X88166555Y-76355501D01*
X88171000Y-76400638D01*
X88171000Y-77039362D01*
X88166555Y-77084499D01*
X88155180Y-77121995D01*
X88136708Y-77156554D01*
X88111847Y-77186847D01*
X88081554Y-77211708D01*
X88046995Y-77230180D01*
X88009499Y-77241555D01*
X87964362Y-77246000D01*
X87225638Y-77246000D01*
X87180501Y-77241555D01*
X87143005Y-77230180D01*
X87108446Y-77211708D01*
X87078153Y-77186847D01*
X87053292Y-77156554D01*
X87034820Y-77121995D01*
X87023445Y-77084499D01*
X87019000Y-77039362D01*
X87019000Y-76400638D01*
X87023445Y-76355501D01*
X87034820Y-76318005D01*
X87053292Y-76283446D01*
X87078153Y-76253153D01*
X87108446Y-76228292D01*
X87143005Y-76209820D01*
X87180501Y-76198445D01*
X87225638Y-76194000D01*
X87964362Y-76194000D01*
X88009499Y-76198445D01*
G37*
G36*
X71263512Y-74593927D02*
G01*
X71412812Y-74623624D01*
X71576784Y-74691544D01*
X71724354Y-74790147D01*
X71849853Y-74915646D01*
X71948456Y-75063216D01*
X72016376Y-75227188D01*
X72051000Y-75401259D01*
X72051000Y-75578741D01*
X72016376Y-75752812D01*
X71948456Y-75916784D01*
X71849853Y-76064354D01*
X71724354Y-76189853D01*
X71576784Y-76288456D01*
X71412812Y-76356376D01*
X71263512Y-76386073D01*
X71238742Y-76391000D01*
X71061258Y-76391000D01*
X71036488Y-76386073D01*
X70887188Y-76356376D01*
X70723216Y-76288456D01*
X70575646Y-76189853D01*
X70450147Y-76064354D01*
X70351544Y-75916784D01*
X70283624Y-75752812D01*
X70249000Y-75578741D01*
X70249000Y-75401259D01*
X70283624Y-75227188D01*
X70351544Y-75063216D01*
X70450147Y-74915646D01*
X70575646Y-74790147D01*
X70723216Y-74691544D01*
X70887188Y-74623624D01*
X71036488Y-74593927D01*
X71061258Y-74589000D01*
X71238742Y-74589000D01*
X71263512Y-74593927D01*
G37*
G36*
X83250295Y-73685323D02*
G01*
X83257309Y-73687451D01*
X83271077Y-73694810D01*
X83293716Y-73704187D01*
X83317749Y-73708967D01*
X83342253Y-73708967D01*
X83366286Y-73704186D01*
X83388923Y-73694810D01*
X83402691Y-73687451D01*
X83409705Y-73685323D01*
X83423140Y-73684000D01*
X83736860Y-73684000D01*
X83750295Y-73685323D01*
X83757309Y-73687451D01*
X83771077Y-73694810D01*
X83793716Y-73704187D01*
X83817749Y-73708967D01*
X83842253Y-73708967D01*
X83866286Y-73704186D01*
X83888923Y-73694810D01*
X83902691Y-73687451D01*
X83909705Y-73685323D01*
X83923140Y-73684000D01*
X84236860Y-73684000D01*
X84250295Y-73685323D01*
X84257309Y-73687451D01*
X84271077Y-73694810D01*
X84293716Y-73704187D01*
X84317749Y-73708967D01*
X84342253Y-73708967D01*
X84366286Y-73704186D01*
X84388923Y-73694810D01*
X84402691Y-73687451D01*
X84409705Y-73685323D01*
X84423140Y-73684000D01*
X84736860Y-73684000D01*
X84750295Y-73685323D01*
X84757309Y-73687451D01*
X84771077Y-73694810D01*
X84793716Y-73704187D01*
X84817749Y-73708967D01*
X84842253Y-73708967D01*
X84866286Y-73704186D01*
X84888923Y-73694810D01*
X84902691Y-73687451D01*
X84909705Y-73685323D01*
X84923140Y-73684000D01*
X85236860Y-73684000D01*
X85250295Y-73685323D01*
X85257309Y-73687451D01*
X85271077Y-73694810D01*
X85293716Y-73704187D01*
X85317749Y-73708967D01*
X85342253Y-73708967D01*
X85366286Y-73704186D01*
X85388923Y-73694810D01*
X85402691Y-73687451D01*
X85409705Y-73685323D01*
X85423140Y-73684000D01*
X85736860Y-73684000D01*
X85750295Y-73685323D01*
X85757309Y-73687451D01*
X85771077Y-73694810D01*
X85793716Y-73704187D01*
X85817749Y-73708967D01*
X85842253Y-73708967D01*
X85866286Y-73704186D01*
X85888923Y-73694810D01*
X85902691Y-73687451D01*
X85909705Y-73685323D01*
X85923140Y-73684000D01*
X86236860Y-73684000D01*
X86250295Y-73685323D01*
X86257309Y-73687451D01*
X86271077Y-73694810D01*
X86293716Y-73704187D01*
X86317749Y-73708967D01*
X86342253Y-73708967D01*
X86366286Y-73704186D01*
X86388923Y-73694810D01*
X86402691Y-73687451D01*
X86409705Y-73685323D01*
X86423140Y-73684000D01*
X86736860Y-73684000D01*
X86750295Y-73685323D01*
X86757309Y-73687451D01*
X86771077Y-73694810D01*
X86793716Y-73704187D01*
X86817749Y-73708967D01*
X86842253Y-73708967D01*
X86866286Y-73704186D01*
X86888923Y-73694810D01*
X86902691Y-73687451D01*
X86909705Y-73685323D01*
X86923140Y-73684000D01*
X87236860Y-73684000D01*
X87250295Y-73685323D01*
X87257309Y-73687451D01*
X87271077Y-73694810D01*
X87293716Y-73704187D01*
X87317749Y-73708967D01*
X87342253Y-73708967D01*
X87366286Y-73704186D01*
X87388923Y-73694810D01*
X87402691Y-73687451D01*
X87409705Y-73685323D01*
X87423140Y-73684000D01*
X87736860Y-73684000D01*
X87750295Y-73685323D01*
X87757309Y-73687451D01*
X87771077Y-73694810D01*
X87793716Y-73704187D01*
X87817749Y-73708967D01*
X87842253Y-73708967D01*
X87866286Y-73704186D01*
X87888923Y-73694810D01*
X87902691Y-73687451D01*
X87909705Y-73685323D01*
X87923140Y-73684000D01*
X88236860Y-73684000D01*
X88250295Y-73685323D01*
X88257309Y-73687451D01*
X88271077Y-73694810D01*
X88293716Y-73704187D01*
X88317749Y-73708967D01*
X88342253Y-73708967D01*
X88366286Y-73704186D01*
X88388923Y-73694810D01*
X88402691Y-73687451D01*
X88409705Y-73685323D01*
X88423140Y-73684000D01*
X88736860Y-73684000D01*
X88750295Y-73685323D01*
X88757310Y-73687451D01*
X88763776Y-73690908D01*
X88769442Y-73695558D01*
X88774092Y-73701224D01*
X88777549Y-73707690D01*
X88779677Y-73714705D01*
X88781000Y-73728140D01*
X88781000Y-75216860D01*
X88779677Y-75230295D01*
X88777549Y-75237310D01*
X88774092Y-75243776D01*
X88769442Y-75249442D01*
X88763776Y-75254092D01*
X88757310Y-75257549D01*
X88750295Y-75259677D01*
X88736860Y-75261000D01*
X88423140Y-75261000D01*
X88409705Y-75259677D01*
X88402691Y-75257549D01*
X88388923Y-75250190D01*
X88366284Y-75240813D01*
X88342251Y-75236033D01*
X88317747Y-75236033D01*
X88293714Y-75240814D01*
X88271077Y-75250190D01*
X88257309Y-75257549D01*
X88250295Y-75259677D01*
X88236860Y-75261000D01*
X87923140Y-75261000D01*
X87909705Y-75259677D01*
X87902691Y-75257549D01*
X87888923Y-75250190D01*
X87866284Y-75240813D01*
X87842251Y-75236033D01*
X87817747Y-75236033D01*
X87793714Y-75240814D01*
X87771077Y-75250190D01*
X87757309Y-75257549D01*
X87750295Y-75259677D01*
X87736860Y-75261000D01*
X87423140Y-75261000D01*
X87409705Y-75259677D01*
X87402691Y-75257549D01*
X87388923Y-75250190D01*
X87366284Y-75240813D01*
X87342251Y-75236033D01*
X87317747Y-75236033D01*
X87293714Y-75240814D01*
X87271077Y-75250190D01*
X87257309Y-75257549D01*
X87250295Y-75259677D01*
X87236860Y-75261000D01*
X86923140Y-75261000D01*
X86909705Y-75259677D01*
X86902691Y-75257549D01*
X86888923Y-75250190D01*
X86866284Y-75240813D01*
X86842251Y-75236033D01*
X86817747Y-75236033D01*
X86793714Y-75240814D01*
X86771077Y-75250190D01*
X86757309Y-75257549D01*
X86750295Y-75259677D01*
X86736860Y-75261000D01*
X86423140Y-75261000D01*
X86409705Y-75259677D01*
X86402691Y-75257549D01*
X86388923Y-75250190D01*
X86366284Y-75240813D01*
X86342251Y-75236033D01*
X86317747Y-75236033D01*
X86293714Y-75240814D01*
X86271077Y-75250190D01*
X86257309Y-75257549D01*
X86250295Y-75259677D01*
X86236860Y-75261000D01*
X85923140Y-75261000D01*
X85909705Y-75259677D01*
X85902691Y-75257549D01*
X85888923Y-75250190D01*
X85866284Y-75240813D01*
X85842251Y-75236033D01*
X85817747Y-75236033D01*
X85793714Y-75240814D01*
X85771077Y-75250190D01*
X85757309Y-75257549D01*
X85750295Y-75259677D01*
X85736860Y-75261000D01*
X85423140Y-75261000D01*
X85409705Y-75259677D01*
X85402691Y-75257549D01*
X85388923Y-75250190D01*
X85366284Y-75240813D01*
X85342251Y-75236033D01*
X85317747Y-75236033D01*
X85293714Y-75240814D01*
X85271077Y-75250190D01*
X85257309Y-75257549D01*
X85250295Y-75259677D01*
X85236860Y-75261000D01*
X84923140Y-75261000D01*
X84909705Y-75259677D01*
X84902691Y-75257549D01*
X84888923Y-75250190D01*
X84866284Y-75240813D01*
X84842251Y-75236033D01*
X84817747Y-75236033D01*
X84793714Y-75240814D01*
X84771077Y-75250190D01*
X84757309Y-75257549D01*
X84750295Y-75259677D01*
X84736860Y-75261000D01*
X84423140Y-75261000D01*
X84409705Y-75259677D01*
X84402691Y-75257549D01*
X84388923Y-75250190D01*
X84366284Y-75240813D01*
X84342251Y-75236033D01*
X84317747Y-75236033D01*
X84293714Y-75240814D01*
X84271077Y-75250190D01*
X84257309Y-75257549D01*
X84250295Y-75259677D01*
X84236860Y-75261000D01*
X83923140Y-75261000D01*
X83909705Y-75259677D01*
X83902691Y-75257549D01*
X83888923Y-75250190D01*
X83866284Y-75240813D01*
X83842251Y-75236033D01*
X83817747Y-75236033D01*
X83793714Y-75240814D01*
X83771077Y-75250190D01*
X83757309Y-75257549D01*
X83750295Y-75259677D01*
X83736860Y-75261000D01*
X83423140Y-75261000D01*
X83409705Y-75259677D01*
X83402691Y-75257549D01*
X83388923Y-75250190D01*
X83366284Y-75240813D01*
X83342251Y-75236033D01*
X83317747Y-75236033D01*
X83293714Y-75240814D01*
X83271077Y-75250190D01*
X83257309Y-75257549D01*
X83250295Y-75259677D01*
X83236860Y-75261000D01*
X82923140Y-75261000D01*
X82909705Y-75259677D01*
X82902690Y-75257549D01*
X82896224Y-75254092D01*
X82890558Y-75249442D01*
X82885908Y-75243776D01*
X82882451Y-75237310D01*
X82880323Y-75230295D01*
X82879000Y-75216860D01*
X82879000Y-73728140D01*
X82880323Y-73714705D01*
X82882451Y-73707690D01*
X82885908Y-73701224D01*
X82890558Y-73695558D01*
X82896224Y-73690908D01*
X82902690Y-73687451D01*
X82909705Y-73685323D01*
X82923140Y-73684000D01*
X83236860Y-73684000D01*
X83250295Y-73685323D01*
G37*
G36*
X81419499Y-73948445D02*
G01*
X81456995Y-73959820D01*
X81491554Y-73978292D01*
X81521847Y-74003153D01*
X81546708Y-74033446D01*
X81565180Y-74068005D01*
X81576555Y-74105501D01*
X81581000Y-74150638D01*
X81581000Y-74789362D01*
X81576555Y-74834499D01*
X81565180Y-74871995D01*
X81546708Y-74906554D01*
X81521847Y-74936847D01*
X81491554Y-74961708D01*
X81456995Y-74980180D01*
X81419499Y-74991555D01*
X81374362Y-74996000D01*
X80635638Y-74996000D01*
X80590501Y-74991555D01*
X80553005Y-74980180D01*
X80518446Y-74961708D01*
X80488153Y-74936847D01*
X80463292Y-74906554D01*
X80444820Y-74871995D01*
X80433445Y-74834499D01*
X80429000Y-74789362D01*
X80429000Y-74150638D01*
X80433445Y-74105501D01*
X80444820Y-74068005D01*
X80463292Y-74033446D01*
X80488153Y-74003153D01*
X80518446Y-73978292D01*
X80553005Y-73959820D01*
X80590501Y-73948445D01*
X80635638Y-73944000D01*
X81374362Y-73944000D01*
X81419499Y-73948445D01*
G37*
G36*
X79669499Y-73948445D02*
G01*
X79706995Y-73959820D01*
X79741554Y-73978292D01*
X79771847Y-74003153D01*
X79796708Y-74033446D01*
X79815180Y-74068005D01*
X79826555Y-74105501D01*
X79831000Y-74150638D01*
X79831000Y-74789362D01*
X79826555Y-74834499D01*
X79815180Y-74871995D01*
X79796708Y-74906554D01*
X79771847Y-74936847D01*
X79741554Y-74961708D01*
X79706995Y-74980180D01*
X79669499Y-74991555D01*
X79624362Y-74996000D01*
X78885638Y-74996000D01*
X78840501Y-74991555D01*
X78803005Y-74980180D01*
X78768446Y-74961708D01*
X78738153Y-74936847D01*
X78713292Y-74906554D01*
X78694820Y-74871995D01*
X78683445Y-74834499D01*
X78679000Y-74789362D01*
X78679000Y-74150638D01*
X78683445Y-74105501D01*
X78694820Y-74068005D01*
X78713292Y-74033446D01*
X78738153Y-74003153D01*
X78768446Y-73978292D01*
X78803005Y-73959820D01*
X78840501Y-73948445D01*
X78885638Y-73944000D01*
X79624362Y-73944000D01*
X79669499Y-73948445D01*
G37*
G36*
X72051000Y-73851000D02*
G01*
X70249000Y-73851000D01*
X70249000Y-72049000D01*
X72051000Y-72049000D01*
X72051000Y-73851000D01*
G37*
G36*
X82425295Y-67360323D02*
G01*
X82432310Y-67362451D01*
X82438776Y-67365908D01*
X82444442Y-67370558D01*
X82449092Y-67376224D01*
X82452549Y-67382690D01*
X82454677Y-67389705D01*
X82456000Y-67403140D01*
X82456000Y-67716860D01*
X82454677Y-67730295D01*
X82452549Y-67737309D01*
X82445190Y-67751077D01*
X82435813Y-67773716D01*
X82431033Y-67797749D01*
X82431033Y-67822253D01*
X82435814Y-67846286D01*
X82445190Y-67868923D01*
X82452549Y-67882691D01*
X82454677Y-67889705D01*
X82456000Y-67903140D01*
X82456000Y-68216860D01*
X82454677Y-68230295D01*
X82452549Y-68237309D01*
X82445190Y-68251077D01*
X82435813Y-68273716D01*
X82431033Y-68297749D01*
X82431033Y-68322253D01*
X82435814Y-68346286D01*
X82445190Y-68368923D01*
X82452549Y-68382691D01*
X82454677Y-68389705D01*
X82456000Y-68403140D01*
X82456000Y-68716860D01*
X82454677Y-68730295D01*
X82452549Y-68737309D01*
X82445190Y-68751077D01*
X82435813Y-68773716D01*
X82431033Y-68797749D01*
X82431033Y-68822253D01*
X82435814Y-68846286D01*
X82445190Y-68868923D01*
X82452549Y-68882691D01*
X82454677Y-68889705D01*
X82456000Y-68903140D01*
X82456000Y-69216860D01*
X82454677Y-69230295D01*
X82452549Y-69237309D01*
X82445190Y-69251077D01*
X82435813Y-69273716D01*
X82431033Y-69297749D01*
X82431033Y-69322253D01*
X82435814Y-69346286D01*
X82445190Y-69368923D01*
X82452549Y-69382691D01*
X82454677Y-69389705D01*
X82456000Y-69403140D01*
X82456000Y-69716860D01*
X82454677Y-69730295D01*
X82452549Y-69737309D01*
X82445190Y-69751077D01*
X82435813Y-69773716D01*
X82431033Y-69797749D01*
X82431033Y-69822253D01*
X82435814Y-69846286D01*
X82445190Y-69868923D01*
X82452549Y-69882691D01*
X82454677Y-69889705D01*
X82456000Y-69903140D01*
X82456000Y-70216860D01*
X82454677Y-70230295D01*
X82452549Y-70237309D01*
X82445190Y-70251077D01*
X82435813Y-70273716D01*
X82431033Y-70297749D01*
X82431033Y-70322253D01*
X82435814Y-70346286D01*
X82445190Y-70368923D01*
X82452549Y-70382691D01*
X82454677Y-70389705D01*
X82456000Y-70403140D01*
X82456000Y-70716860D01*
X82454677Y-70730295D01*
X82452549Y-70737309D01*
X82445190Y-70751077D01*
X82435813Y-70773716D01*
X82431033Y-70797749D01*
X82431033Y-70822253D01*
X82435814Y-70846286D01*
X82445190Y-70868923D01*
X82452549Y-70882691D01*
X82454677Y-70889705D01*
X82456000Y-70903140D01*
X82456000Y-71216860D01*
X82454677Y-71230295D01*
X82452549Y-71237309D01*
X82445190Y-71251077D01*
X82435813Y-71273716D01*
X82431033Y-71297749D01*
X82431033Y-71322253D01*
X82435814Y-71346286D01*
X82445190Y-71368923D01*
X82452549Y-71382691D01*
X82454677Y-71389705D01*
X82456000Y-71403140D01*
X82456000Y-71716860D01*
X82454677Y-71730295D01*
X82452549Y-71737309D01*
X82445190Y-71751077D01*
X82435813Y-71773716D01*
X82431033Y-71797749D01*
X82431033Y-71822253D01*
X82435814Y-71846286D01*
X82445190Y-71868923D01*
X82452549Y-71882691D01*
X82454677Y-71889705D01*
X82456000Y-71903140D01*
X82456000Y-72216860D01*
X82454677Y-72230295D01*
X82452549Y-72237309D01*
X82445190Y-72251077D01*
X82435813Y-72273716D01*
X82431033Y-72297749D01*
X82431033Y-72322253D01*
X82435814Y-72346286D01*
X82445190Y-72368923D01*
X82452549Y-72382691D01*
X82454677Y-72389705D01*
X82456000Y-72403140D01*
X82456000Y-72716860D01*
X82454677Y-72730295D01*
X82452549Y-72737309D01*
X82445190Y-72751077D01*
X82435813Y-72773716D01*
X82431033Y-72797749D01*
X82431033Y-72822253D01*
X82435814Y-72846286D01*
X82445190Y-72868923D01*
X82452549Y-72882691D01*
X82454677Y-72889705D01*
X82456000Y-72903140D01*
X82456000Y-73216860D01*
X82454677Y-73230295D01*
X82452549Y-73237310D01*
X82449092Y-73243776D01*
X82444442Y-73249442D01*
X82438776Y-73254092D01*
X82432310Y-73257549D01*
X82425295Y-73259677D01*
X82411860Y-73261000D01*
X80923140Y-73261000D01*
X80909705Y-73259677D01*
X80902690Y-73257549D01*
X80896224Y-73254092D01*
X80890558Y-73249442D01*
X80885908Y-73243776D01*
X80882451Y-73237310D01*
X80880323Y-73230295D01*
X80879000Y-73216860D01*
X80879000Y-72903140D01*
X80880323Y-72889705D01*
X80882451Y-72882691D01*
X80889810Y-72868923D01*
X80899187Y-72846284D01*
X80903967Y-72822251D01*
X80903967Y-72797747D01*
X80899186Y-72773714D01*
X80889810Y-72751077D01*
X80882451Y-72737309D01*
X80880323Y-72730295D01*
X80879000Y-72716860D01*
X80879000Y-72403140D01*
X80880323Y-72389705D01*
X80882451Y-72382691D01*
X80889810Y-72368923D01*
X80899187Y-72346284D01*
X80903967Y-72322251D01*
X80903967Y-72297747D01*
X80899186Y-72273714D01*
X80889810Y-72251077D01*
X80882451Y-72237309D01*
X80880323Y-72230295D01*
X80879000Y-72216860D01*
X80879000Y-71903140D01*
X80880323Y-71889705D01*
X80882451Y-71882691D01*
X80889810Y-71868923D01*
X80899187Y-71846284D01*
X80903967Y-71822251D01*
X80903967Y-71797747D01*
X80899186Y-71773714D01*
X80889810Y-71751077D01*
X80882451Y-71737309D01*
X80880323Y-71730295D01*
X80879000Y-71716860D01*
X80879000Y-71403140D01*
X80880323Y-71389705D01*
X80882451Y-71382691D01*
X80889810Y-71368923D01*
X80899187Y-71346284D01*
X80903967Y-71322251D01*
X80903967Y-71297747D01*
X80899186Y-71273714D01*
X80889810Y-71251077D01*
X80882451Y-71237309D01*
X80880323Y-71230295D01*
X80879000Y-71216860D01*
X80879000Y-70903140D01*
X80880323Y-70889705D01*
X80882451Y-70882691D01*
X80889810Y-70868923D01*
X80899187Y-70846284D01*
X80903967Y-70822251D01*
X80903967Y-70797747D01*
X80899186Y-70773714D01*
X80889810Y-70751077D01*
X80882451Y-70737309D01*
X80880323Y-70730295D01*
X80879000Y-70716860D01*
X80879000Y-70403140D01*
X80880323Y-70389705D01*
X80882451Y-70382691D01*
X80889810Y-70368923D01*
X80899187Y-70346284D01*
X80903967Y-70322251D01*
X80903967Y-70297747D01*
X80899186Y-70273714D01*
X80889810Y-70251077D01*
X80882451Y-70237309D01*
X80880323Y-70230295D01*
X80879000Y-70216860D01*
X80879000Y-69903140D01*
X80880323Y-69889705D01*
X80882451Y-69882691D01*
X80889810Y-69868923D01*
X80899187Y-69846284D01*
X80903967Y-69822251D01*
X80903967Y-69797747D01*
X80899186Y-69773714D01*
X80889810Y-69751077D01*
X80882451Y-69737309D01*
X80880323Y-69730295D01*
X80879000Y-69716860D01*
X80879000Y-69403140D01*
X80880323Y-69389705D01*
X80882451Y-69382691D01*
X80889810Y-69368923D01*
X80899187Y-69346284D01*
X80903967Y-69322251D01*
X80903967Y-69297747D01*
X80899186Y-69273714D01*
X80889810Y-69251077D01*
X80882451Y-69237309D01*
X80880323Y-69230295D01*
X80879000Y-69216860D01*
X80879000Y-68903140D01*
X80880323Y-68889705D01*
X80882451Y-68882691D01*
X80889810Y-68868923D01*
X80899187Y-68846284D01*
X80903967Y-68822251D01*
X80903967Y-68797747D01*
X80899186Y-68773714D01*
X80889810Y-68751077D01*
X80882451Y-68737309D01*
X80880323Y-68730295D01*
X80879000Y-68716860D01*
X80879000Y-68403140D01*
X80880323Y-68389705D01*
X80882451Y-68382691D01*
X80889810Y-68368923D01*
X80899187Y-68346284D01*
X80903967Y-68322251D01*
X80903967Y-68297747D01*
X80899186Y-68273714D01*
X80889810Y-68251077D01*
X80882451Y-68237309D01*
X80880323Y-68230295D01*
X80879000Y-68216860D01*
X80879000Y-67903140D01*
X80880323Y-67889705D01*
X80882451Y-67882691D01*
X80889810Y-67868923D01*
X80899187Y-67846284D01*
X80903967Y-67822251D01*
X80903967Y-67797747D01*
X80899186Y-67773714D01*
X80889810Y-67751077D01*
X80882451Y-67737309D01*
X80880323Y-67730295D01*
X80879000Y-67716860D01*
X80879000Y-67403140D01*
X80880323Y-67389705D01*
X80882451Y-67382690D01*
X80885908Y-67376224D01*
X80890558Y-67370558D01*
X80896224Y-67365908D01*
X80902690Y-67362451D01*
X80909705Y-67360323D01*
X80923140Y-67359000D01*
X82411860Y-67359000D01*
X82425295Y-67360323D01*
G37*
G36*
X90750295Y-67360323D02*
G01*
X90757310Y-67362451D01*
X90763776Y-67365908D01*
X90769442Y-67370558D01*
X90774092Y-67376224D01*
X90777549Y-67382690D01*
X90779677Y-67389705D01*
X90781000Y-67403140D01*
X90781000Y-67716860D01*
X90779677Y-67730295D01*
X90777549Y-67737309D01*
X90770190Y-67751077D01*
X90760813Y-67773716D01*
X90756033Y-67797749D01*
X90756033Y-67822253D01*
X90760814Y-67846286D01*
X90770190Y-67868923D01*
X90777549Y-67882691D01*
X90779677Y-67889705D01*
X90781000Y-67903140D01*
X90781000Y-68216860D01*
X90779677Y-68230295D01*
X90777549Y-68237309D01*
X90770190Y-68251077D01*
X90760813Y-68273716D01*
X90756033Y-68297749D01*
X90756033Y-68322253D01*
X90760814Y-68346286D01*
X90770190Y-68368923D01*
X90777549Y-68382691D01*
X90779677Y-68389705D01*
X90781000Y-68403140D01*
X90781000Y-68716860D01*
X90779677Y-68730295D01*
X90777549Y-68737309D01*
X90770190Y-68751077D01*
X90760813Y-68773716D01*
X90756033Y-68797749D01*
X90756033Y-68822253D01*
X90760814Y-68846286D01*
X90770190Y-68868923D01*
X90777549Y-68882691D01*
X90779677Y-68889705D01*
X90781000Y-68903140D01*
X90781000Y-69216860D01*
X90779677Y-69230295D01*
X90777549Y-69237309D01*
X90770190Y-69251077D01*
X90760813Y-69273716D01*
X90756033Y-69297749D01*
X90756033Y-69322253D01*
X90760814Y-69346286D01*
X90770190Y-69368923D01*
X90777549Y-69382691D01*
X90779677Y-69389705D01*
X90781000Y-69403140D01*
X90781000Y-69716860D01*
X90779677Y-69730295D01*
X90777549Y-69737309D01*
X90770190Y-69751077D01*
X90760813Y-69773716D01*
X90756033Y-69797749D01*
X90756033Y-69822253D01*
X90760814Y-69846286D01*
X90770190Y-69868923D01*
X90777549Y-69882691D01*
X90779677Y-69889705D01*
X90781000Y-69903140D01*
X90781000Y-70216860D01*
X90779677Y-70230295D01*
X90777549Y-70237309D01*
X90770190Y-70251077D01*
X90760813Y-70273716D01*
X90756033Y-70297749D01*
X90756033Y-70322253D01*
X90760814Y-70346286D01*
X90770190Y-70368923D01*
X90777549Y-70382691D01*
X90779677Y-70389705D01*
X90781000Y-70403140D01*
X90781000Y-70716860D01*
X90779677Y-70730295D01*
X90777549Y-70737309D01*
X90770190Y-70751077D01*
X90760813Y-70773716D01*
X90756033Y-70797749D01*
X90756033Y-70822253D01*
X90760814Y-70846286D01*
X90770190Y-70868923D01*
X90777549Y-70882691D01*
X90779677Y-70889705D01*
X90781000Y-70903140D01*
X90781000Y-71216860D01*
X90779677Y-71230295D01*
X90777549Y-71237309D01*
X90770190Y-71251077D01*
X90760813Y-71273716D01*
X90756033Y-71297749D01*
X90756033Y-71322253D01*
X90760814Y-71346286D01*
X90770190Y-71368923D01*
X90777549Y-71382691D01*
X90779677Y-71389705D01*
X90781000Y-71403140D01*
X90781000Y-71716860D01*
X90779677Y-71730295D01*
X90777549Y-71737309D01*
X90770190Y-71751077D01*
X90760813Y-71773716D01*
X90756033Y-71797749D01*
X90756033Y-71822253D01*
X90760814Y-71846286D01*
X90770190Y-71868923D01*
X90777549Y-71882691D01*
X90779677Y-71889705D01*
X90781000Y-71903140D01*
X90781000Y-72216860D01*
X90779677Y-72230295D01*
X90777549Y-72237309D01*
X90770190Y-72251077D01*
X90760813Y-72273716D01*
X90756033Y-72297749D01*
X90756033Y-72322253D01*
X90760814Y-72346286D01*
X90770190Y-72368923D01*
X90777549Y-72382691D01*
X90779677Y-72389705D01*
X90781000Y-72403140D01*
X90781000Y-72716860D01*
X90779677Y-72730295D01*
X90777549Y-72737309D01*
X90770190Y-72751077D01*
X90760813Y-72773716D01*
X90756033Y-72797749D01*
X90756033Y-72822253D01*
X90760814Y-72846286D01*
X90770190Y-72868923D01*
X90777549Y-72882691D01*
X90779677Y-72889705D01*
X90781000Y-72903140D01*
X90781000Y-73216860D01*
X90779677Y-73230295D01*
X90777549Y-73237310D01*
X90774092Y-73243776D01*
X90769442Y-73249442D01*
X90763776Y-73254092D01*
X90757310Y-73257549D01*
X90750295Y-73259677D01*
X90736860Y-73261000D01*
X89248140Y-73261000D01*
X89234705Y-73259677D01*
X89227690Y-73257549D01*
X89221224Y-73254092D01*
X89215558Y-73249442D01*
X89210908Y-73243776D01*
X89207451Y-73237310D01*
X89205323Y-73230295D01*
X89204000Y-73216860D01*
X89204000Y-72903140D01*
X89205323Y-72889705D01*
X89207451Y-72882691D01*
X89214810Y-72868923D01*
X89224187Y-72846284D01*
X89228967Y-72822251D01*
X89228967Y-72797747D01*
X89224186Y-72773714D01*
X89214810Y-72751077D01*
X89207451Y-72737309D01*
X89205323Y-72730295D01*
X89204000Y-72716860D01*
X89204000Y-72403140D01*
X89205323Y-72389705D01*
X89207451Y-72382691D01*
X89214810Y-72368923D01*
X89224187Y-72346284D01*
X89228967Y-72322251D01*
X89228967Y-72297747D01*
X89224186Y-72273714D01*
X89214810Y-72251077D01*
X89207451Y-72237309D01*
X89205323Y-72230295D01*
X89204000Y-72216860D01*
X89204000Y-71903140D01*
X89205323Y-71889705D01*
X89207451Y-71882691D01*
X89214810Y-71868923D01*
X89224187Y-71846284D01*
X89228967Y-71822251D01*
X89228967Y-71797747D01*
X89224186Y-71773714D01*
X89214810Y-71751077D01*
X89207451Y-71737309D01*
X89205323Y-71730295D01*
X89204000Y-71716860D01*
X89204000Y-71403140D01*
X89205323Y-71389705D01*
X89207451Y-71382691D01*
X89214810Y-71368923D01*
X89224187Y-71346284D01*
X89228967Y-71322251D01*
X89228967Y-71297747D01*
X89224186Y-71273714D01*
X89214810Y-71251077D01*
X89207451Y-71237309D01*
X89205323Y-71230295D01*
X89204000Y-71216860D01*
X89204000Y-70903140D01*
X89205323Y-70889705D01*
X89207451Y-70882691D01*
X89214810Y-70868923D01*
X89224187Y-70846284D01*
X89228967Y-70822251D01*
X89228967Y-70797747D01*
X89224186Y-70773714D01*
X89214810Y-70751077D01*
X89207451Y-70737309D01*
X89205323Y-70730295D01*
X89204000Y-70716860D01*
X89204000Y-70403140D01*
X89205323Y-70389705D01*
X89207451Y-70382691D01*
X89214810Y-70368923D01*
X89224187Y-70346284D01*
X89228967Y-70322251D01*
X89228967Y-70297747D01*
X89224186Y-70273714D01*
X89214810Y-70251077D01*
X89207451Y-70237309D01*
X89205323Y-70230295D01*
X89204000Y-70216860D01*
X89204000Y-69903140D01*
X89205323Y-69889705D01*
X89207451Y-69882691D01*
X89214810Y-69868923D01*
X89224187Y-69846284D01*
X89228967Y-69822251D01*
X89228967Y-69797747D01*
X89224186Y-69773714D01*
X89214810Y-69751077D01*
X89207451Y-69737309D01*
X89205323Y-69730295D01*
X89204000Y-69716860D01*
X89204000Y-69403140D01*
X89205323Y-69389705D01*
X89207451Y-69382691D01*
X89214810Y-69368923D01*
X89224187Y-69346284D01*
X89228967Y-69322251D01*
X89228967Y-69297747D01*
X89224186Y-69273714D01*
X89214810Y-69251077D01*
X89207451Y-69237309D01*
X89205323Y-69230295D01*
X89204000Y-69216860D01*
X89204000Y-68903140D01*
X89205323Y-68889705D01*
X89207451Y-68882691D01*
X89214810Y-68868923D01*
X89224187Y-68846284D01*
X89228967Y-68822251D01*
X89228967Y-68797747D01*
X89224186Y-68773714D01*
X89214810Y-68751077D01*
X89207451Y-68737309D01*
X89205323Y-68730295D01*
X89204000Y-68716860D01*
X89204000Y-68403140D01*
X89205323Y-68389705D01*
X89207451Y-68382691D01*
X89214810Y-68368923D01*
X89224187Y-68346284D01*
X89228967Y-68322251D01*
X89228967Y-68297747D01*
X89224186Y-68273714D01*
X89214810Y-68251077D01*
X89207451Y-68237309D01*
X89205323Y-68230295D01*
X89204000Y-68216860D01*
X89204000Y-67903140D01*
X89205323Y-67889705D01*
X89207451Y-67882691D01*
X89214810Y-67868923D01*
X89224187Y-67846284D01*
X89228967Y-67822251D01*
X89228967Y-67797747D01*
X89224186Y-67773714D01*
X89214810Y-67751077D01*
X89207451Y-67737309D01*
X89205323Y-67730295D01*
X89204000Y-67716860D01*
X89204000Y-67403140D01*
X89205323Y-67389705D01*
X89207451Y-67382690D01*
X89210908Y-67376224D01*
X89215558Y-67370558D01*
X89221224Y-67365908D01*
X89227690Y-67362451D01*
X89234705Y-67360323D01*
X89248140Y-67359000D01*
X90736860Y-67359000D01*
X90750295Y-67360323D01*
G37*
G36*
X78534499Y-71918445D02*
G01*
X78571995Y-71929820D01*
X78606554Y-71948292D01*
X78636847Y-71973153D01*
X78661708Y-72003446D01*
X78680180Y-72038005D01*
X78691555Y-72075501D01*
X78696000Y-72120638D01*
X78696000Y-72759362D01*
X78691555Y-72804499D01*
X78680180Y-72841995D01*
X78661708Y-72876554D01*
X78636847Y-72906847D01*
X78606554Y-72931708D01*
X78571995Y-72950180D01*
X78534499Y-72961555D01*
X78489362Y-72966000D01*
X77750638Y-72966000D01*
X77705501Y-72961555D01*
X77668005Y-72950180D01*
X77633446Y-72931708D01*
X77603153Y-72906847D01*
X77578292Y-72876554D01*
X77559820Y-72841995D01*
X77548445Y-72804499D01*
X77544000Y-72759362D01*
X77544000Y-72120638D01*
X77548445Y-72075501D01*
X77559820Y-72038005D01*
X77578292Y-72003446D01*
X77603153Y-71973153D01*
X77633446Y-71948292D01*
X77668005Y-71929820D01*
X77705501Y-71918445D01*
X77750638Y-71914000D01*
X78489362Y-71914000D01*
X78534499Y-71918445D01*
G37*
G36*
X76784499Y-71918445D02*
G01*
X76821995Y-71929820D01*
X76856554Y-71948292D01*
X76886847Y-71973153D01*
X76911708Y-72003446D01*
X76930180Y-72038005D01*
X76941555Y-72075501D01*
X76946000Y-72120638D01*
X76946000Y-72759362D01*
X76941555Y-72804499D01*
X76930180Y-72841995D01*
X76911708Y-72876554D01*
X76886847Y-72906847D01*
X76856554Y-72931708D01*
X76821995Y-72950180D01*
X76784499Y-72961555D01*
X76739362Y-72966000D01*
X76000638Y-72966000D01*
X75955501Y-72961555D01*
X75918005Y-72950180D01*
X75883446Y-72931708D01*
X75853153Y-72906847D01*
X75828292Y-72876554D01*
X75809820Y-72841995D01*
X75798445Y-72804499D01*
X75794000Y-72759362D01*
X75794000Y-72120638D01*
X75798445Y-72075501D01*
X75809820Y-72038005D01*
X75828292Y-72003446D01*
X75853153Y-71973153D01*
X75883446Y-71948292D01*
X75918005Y-71929820D01*
X75955501Y-71918445D01*
X76000638Y-71914000D01*
X76739362Y-71914000D01*
X76784499Y-71918445D01*
G37*
G36*
X92364499Y-70133445D02*
G01*
X92401995Y-70144820D01*
X92436554Y-70163292D01*
X92466847Y-70188153D01*
X92491708Y-70218446D01*
X92510180Y-70253005D01*
X92521555Y-70290501D01*
X92526000Y-70335638D01*
X92526000Y-71074362D01*
X92521555Y-71119499D01*
X92510180Y-71156995D01*
X92491708Y-71191554D01*
X92466847Y-71221847D01*
X92436554Y-71246708D01*
X92401995Y-71265180D01*
X92364499Y-71276555D01*
X92319362Y-71281000D01*
X91680638Y-71281000D01*
X91635501Y-71276555D01*
X91598005Y-71265180D01*
X91563446Y-71246708D01*
X91533153Y-71221847D01*
X91508292Y-71191554D01*
X91489820Y-71156995D01*
X91478445Y-71119499D01*
X91474000Y-71074362D01*
X91474000Y-70335638D01*
X91478445Y-70290501D01*
X91489820Y-70253005D01*
X91508292Y-70218446D01*
X91533153Y-70188153D01*
X91563446Y-70163292D01*
X91598005Y-70144820D01*
X91635501Y-70133445D01*
X91680638Y-70129000D01*
X92319362Y-70129000D01*
X92364499Y-70133445D01*
G37*
G36*
X78534499Y-70058445D02*
G01*
X78571995Y-70069820D01*
X78606554Y-70088292D01*
X78636847Y-70113153D01*
X78661708Y-70143446D01*
X78680180Y-70178005D01*
X78691555Y-70215501D01*
X78696000Y-70260638D01*
X78696000Y-70899362D01*
X78691555Y-70944499D01*
X78680180Y-70981995D01*
X78661708Y-71016554D01*
X78636847Y-71046847D01*
X78606554Y-71071708D01*
X78571995Y-71090180D01*
X78534499Y-71101555D01*
X78489362Y-71106000D01*
X77750638Y-71106000D01*
X77705501Y-71101555D01*
X77668005Y-71090180D01*
X77633446Y-71071708D01*
X77603153Y-71046847D01*
X77578292Y-71016554D01*
X77559820Y-70981995D01*
X77548445Y-70944499D01*
X77544000Y-70899362D01*
X77544000Y-70260638D01*
X77548445Y-70215501D01*
X77559820Y-70178005D01*
X77578292Y-70143446D01*
X77603153Y-70113153D01*
X77633446Y-70088292D01*
X77668005Y-70069820D01*
X77705501Y-70058445D01*
X77750638Y-70054000D01*
X78489362Y-70054000D01*
X78534499Y-70058445D01*
G37*
G36*
X76784499Y-70058445D02*
G01*
X76821995Y-70069820D01*
X76856554Y-70088292D01*
X76886847Y-70113153D01*
X76911708Y-70143446D01*
X76930180Y-70178005D01*
X76941555Y-70215501D01*
X76946000Y-70260638D01*
X76946000Y-70899362D01*
X76941555Y-70944499D01*
X76930180Y-70981995D01*
X76911708Y-71016554D01*
X76886847Y-71046847D01*
X76856554Y-71071708D01*
X76821995Y-71090180D01*
X76784499Y-71101555D01*
X76739362Y-71106000D01*
X76000638Y-71106000D01*
X75955501Y-71101555D01*
X75918005Y-71090180D01*
X75883446Y-71071708D01*
X75853153Y-71046847D01*
X75828292Y-71016554D01*
X75809820Y-70981995D01*
X75798445Y-70944499D01*
X75794000Y-70899362D01*
X75794000Y-70260638D01*
X75798445Y-70215501D01*
X75809820Y-70178005D01*
X75828292Y-70143446D01*
X75853153Y-70113153D01*
X75883446Y-70088292D01*
X75918005Y-70069820D01*
X75955501Y-70058445D01*
X76000638Y-70054000D01*
X76739362Y-70054000D01*
X76784499Y-70058445D01*
G37*
G36*
X92364499Y-68383445D02*
G01*
X92401995Y-68394820D01*
X92436554Y-68413292D01*
X92466847Y-68438153D01*
X92491708Y-68468446D01*
X92510180Y-68503005D01*
X92521555Y-68540501D01*
X92526000Y-68585638D01*
X92526000Y-69324362D01*
X92521555Y-69369499D01*
X92510180Y-69406995D01*
X92491708Y-69441554D01*
X92466847Y-69471847D01*
X92436554Y-69496708D01*
X92401995Y-69515180D01*
X92364499Y-69526555D01*
X92319362Y-69531000D01*
X91680638Y-69531000D01*
X91635501Y-69526555D01*
X91598005Y-69515180D01*
X91563446Y-69496708D01*
X91533153Y-69471847D01*
X91508292Y-69441554D01*
X91489820Y-69406995D01*
X91478445Y-69369499D01*
X91474000Y-69324362D01*
X91474000Y-68585638D01*
X91478445Y-68540501D01*
X91489820Y-68503005D01*
X91508292Y-68468446D01*
X91533153Y-68438153D01*
X91563446Y-68413292D01*
X91598005Y-68394820D01*
X91635501Y-68383445D01*
X91680638Y-68379000D01*
X92319362Y-68379000D01*
X92364499Y-68383445D01*
G37*
G36*
X72714499Y-68078445D02*
G01*
X72751995Y-68089820D01*
X72786554Y-68108292D01*
X72816847Y-68133153D01*
X72841708Y-68163446D01*
X72860180Y-68198005D01*
X72871555Y-68235501D01*
X72876000Y-68280638D01*
X72876000Y-68919362D01*
X72871555Y-68964499D01*
X72860180Y-69001995D01*
X72841708Y-69036554D01*
X72816847Y-69066847D01*
X72786554Y-69091708D01*
X72751995Y-69110180D01*
X72714499Y-69121555D01*
X72669362Y-69126000D01*
X71930638Y-69126000D01*
X71885501Y-69121555D01*
X71848005Y-69110180D01*
X71813446Y-69091708D01*
X71783153Y-69066847D01*
X71758292Y-69036554D01*
X71739820Y-69001995D01*
X71728445Y-68964499D01*
X71724000Y-68919362D01*
X71724000Y-68280638D01*
X71728445Y-68235501D01*
X71739820Y-68198005D01*
X71758292Y-68163446D01*
X71783153Y-68133153D01*
X71813446Y-68108292D01*
X71848005Y-68089820D01*
X71885501Y-68078445D01*
X71930638Y-68074000D01*
X72669362Y-68074000D01*
X72714499Y-68078445D01*
G37*
G36*
X74464499Y-68078445D02*
G01*
X74501995Y-68089820D01*
X74536554Y-68108292D01*
X74566847Y-68133153D01*
X74591708Y-68163446D01*
X74610180Y-68198005D01*
X74621555Y-68235501D01*
X74626000Y-68280638D01*
X74626000Y-68919362D01*
X74621555Y-68964499D01*
X74610180Y-69001995D01*
X74591708Y-69036554D01*
X74566847Y-69066847D01*
X74536554Y-69091708D01*
X74501995Y-69110180D01*
X74464499Y-69121555D01*
X74419362Y-69126000D01*
X73680638Y-69126000D01*
X73635501Y-69121555D01*
X73598005Y-69110180D01*
X73563446Y-69091708D01*
X73533153Y-69066847D01*
X73508292Y-69036554D01*
X73489820Y-69001995D01*
X73478445Y-68964499D01*
X73474000Y-68919362D01*
X73474000Y-68280638D01*
X73478445Y-68235501D01*
X73489820Y-68198005D01*
X73508292Y-68163446D01*
X73533153Y-68133153D01*
X73563446Y-68108292D01*
X73598005Y-68089820D01*
X73635501Y-68078445D01*
X73680638Y-68074000D01*
X74419362Y-68074000D01*
X74464499Y-68078445D01*
G37*
G36*
X76784499Y-68068445D02*
G01*
X76821995Y-68079820D01*
X76856554Y-68098292D01*
X76886847Y-68123153D01*
X76911708Y-68153446D01*
X76930180Y-68188005D01*
X76941555Y-68225501D01*
X76946000Y-68270638D01*
X76946000Y-68909362D01*
X76941555Y-68954499D01*
X76930180Y-68991995D01*
X76911708Y-69026554D01*
X76886847Y-69056847D01*
X76856554Y-69081708D01*
X76821995Y-69100180D01*
X76784499Y-69111555D01*
X76739362Y-69116000D01*
X76000638Y-69116000D01*
X75955501Y-69111555D01*
X75918005Y-69100180D01*
X75883446Y-69081708D01*
X75853153Y-69056847D01*
X75828292Y-69026554D01*
X75809820Y-68991995D01*
X75798445Y-68954499D01*
X75794000Y-68909362D01*
X75794000Y-68270638D01*
X75798445Y-68225501D01*
X75809820Y-68188005D01*
X75828292Y-68153446D01*
X75853153Y-68123153D01*
X75883446Y-68098292D01*
X75918005Y-68079820D01*
X75955501Y-68068445D01*
X76000638Y-68064000D01*
X76739362Y-68064000D01*
X76784499Y-68068445D01*
G37*
G36*
X78534499Y-68068445D02*
G01*
X78571995Y-68079820D01*
X78606554Y-68098292D01*
X78636847Y-68123153D01*
X78661708Y-68153446D01*
X78680180Y-68188005D01*
X78691555Y-68225501D01*
X78696000Y-68270638D01*
X78696000Y-68909362D01*
X78691555Y-68954499D01*
X78680180Y-68991995D01*
X78661708Y-69026554D01*
X78636847Y-69056847D01*
X78606554Y-69081708D01*
X78571995Y-69100180D01*
X78534499Y-69111555D01*
X78489362Y-69116000D01*
X77750638Y-69116000D01*
X77705501Y-69111555D01*
X77668005Y-69100180D01*
X77633446Y-69081708D01*
X77603153Y-69056847D01*
X77578292Y-69026554D01*
X77559820Y-68991995D01*
X77548445Y-68954499D01*
X77544000Y-68909362D01*
X77544000Y-68270638D01*
X77548445Y-68225501D01*
X77559820Y-68188005D01*
X77578292Y-68153446D01*
X77603153Y-68123153D01*
X77633446Y-68098292D01*
X77668005Y-68079820D01*
X77705501Y-68068445D01*
X77750638Y-68064000D01*
X78489362Y-68064000D01*
X78534499Y-68068445D01*
G37*
G36*
X72674499Y-66208445D02*
G01*
X72711995Y-66219820D01*
X72746554Y-66238292D01*
X72776847Y-66263153D01*
X72801708Y-66293446D01*
X72820180Y-66328005D01*
X72831555Y-66365501D01*
X72836000Y-66410638D01*
X72836000Y-67049362D01*
X72831555Y-67094499D01*
X72820180Y-67131995D01*
X72801708Y-67166554D01*
X72776847Y-67196847D01*
X72746554Y-67221708D01*
X72711995Y-67240180D01*
X72674499Y-67251555D01*
X72629362Y-67256000D01*
X71890638Y-67256000D01*
X71845501Y-67251555D01*
X71808005Y-67240180D01*
X71773446Y-67221708D01*
X71743153Y-67196847D01*
X71718292Y-67166554D01*
X71699820Y-67131995D01*
X71688445Y-67094499D01*
X71684000Y-67049362D01*
X71684000Y-66410638D01*
X71688445Y-66365501D01*
X71699820Y-66328005D01*
X71718292Y-66293446D01*
X71743153Y-66263153D01*
X71773446Y-66238292D01*
X71808005Y-66219820D01*
X71845501Y-66208445D01*
X71890638Y-66204000D01*
X72629362Y-66204000D01*
X72674499Y-66208445D01*
G37*
G36*
X74424499Y-66208445D02*
G01*
X74461995Y-66219820D01*
X74496554Y-66238292D01*
X74526847Y-66263153D01*
X74551708Y-66293446D01*
X74570180Y-66328005D01*
X74581555Y-66365501D01*
X74586000Y-66410638D01*
X74586000Y-67049362D01*
X74581555Y-67094499D01*
X74570180Y-67131995D01*
X74551708Y-67166554D01*
X74526847Y-67196847D01*
X74496554Y-67221708D01*
X74461995Y-67240180D01*
X74424499Y-67251555D01*
X74379362Y-67256000D01*
X73640638Y-67256000D01*
X73595501Y-67251555D01*
X73558005Y-67240180D01*
X73523446Y-67221708D01*
X73493153Y-67196847D01*
X73468292Y-67166554D01*
X73449820Y-67131995D01*
X73438445Y-67094499D01*
X73434000Y-67049362D01*
X73434000Y-66410638D01*
X73438445Y-66365501D01*
X73449820Y-66328005D01*
X73468292Y-66293446D01*
X73493153Y-66263153D01*
X73523446Y-66238292D01*
X73558005Y-66219820D01*
X73595501Y-66208445D01*
X73640638Y-66204000D01*
X74379362Y-66204000D01*
X74424499Y-66208445D01*
G37*
G36*
X78534499Y-66198445D02*
G01*
X78571995Y-66209820D01*
X78606554Y-66228292D01*
X78636847Y-66253153D01*
X78661708Y-66283446D01*
X78680180Y-66318005D01*
X78691555Y-66355501D01*
X78696000Y-66400638D01*
X78696000Y-67039362D01*
X78691555Y-67084499D01*
X78680180Y-67121995D01*
X78661708Y-67156554D01*
X78636847Y-67186847D01*
X78606554Y-67211708D01*
X78571995Y-67230180D01*
X78534499Y-67241555D01*
X78489362Y-67246000D01*
X77750638Y-67246000D01*
X77705501Y-67241555D01*
X77668005Y-67230180D01*
X77633446Y-67211708D01*
X77603153Y-67186847D01*
X77578292Y-67156554D01*
X77559820Y-67121995D01*
X77548445Y-67084499D01*
X77544000Y-67039362D01*
X77544000Y-66400638D01*
X77548445Y-66355501D01*
X77559820Y-66318005D01*
X77578292Y-66283446D01*
X77603153Y-66253153D01*
X77633446Y-66228292D01*
X77668005Y-66209820D01*
X77705501Y-66198445D01*
X77750638Y-66194000D01*
X78489362Y-66194000D01*
X78534499Y-66198445D01*
G37*
G36*
X76784499Y-66198445D02*
G01*
X76821995Y-66209820D01*
X76856554Y-66228292D01*
X76886847Y-66253153D01*
X76911708Y-66283446D01*
X76930180Y-66318005D01*
X76941555Y-66355501D01*
X76946000Y-66400638D01*
X76946000Y-67039362D01*
X76941555Y-67084499D01*
X76930180Y-67121995D01*
X76911708Y-67156554D01*
X76886847Y-67186847D01*
X76856554Y-67211708D01*
X76821995Y-67230180D01*
X76784499Y-67241555D01*
X76739362Y-67246000D01*
X76000638Y-67246000D01*
X75955501Y-67241555D01*
X75918005Y-67230180D01*
X75883446Y-67211708D01*
X75853153Y-67186847D01*
X75828292Y-67156554D01*
X75809820Y-67121995D01*
X75798445Y-67084499D01*
X75794000Y-67039362D01*
X75794000Y-66400638D01*
X75798445Y-66355501D01*
X75809820Y-66318005D01*
X75828292Y-66283446D01*
X75853153Y-66253153D01*
X75883446Y-66228292D01*
X75918005Y-66209820D01*
X75955501Y-66198445D01*
X76000638Y-66194000D01*
X76739362Y-66194000D01*
X76784499Y-66198445D01*
G37*
G36*
X83250295Y-65360323D02*
G01*
X83257309Y-65362451D01*
X83271077Y-65369810D01*
X83293716Y-65379187D01*
X83317749Y-65383967D01*
X83342253Y-65383967D01*
X83366286Y-65379186D01*
X83388923Y-65369810D01*
X83402691Y-65362451D01*
X83409705Y-65360323D01*
X83423140Y-65359000D01*
X83736860Y-65359000D01*
X83750295Y-65360323D01*
X83757309Y-65362451D01*
X83771077Y-65369810D01*
X83793716Y-65379187D01*
X83817749Y-65383967D01*
X83842253Y-65383967D01*
X83866286Y-65379186D01*
X83888923Y-65369810D01*
X83902691Y-65362451D01*
X83909705Y-65360323D01*
X83923140Y-65359000D01*
X84236860Y-65359000D01*
X84250295Y-65360323D01*
X84257309Y-65362451D01*
X84271077Y-65369810D01*
X84293716Y-65379187D01*
X84317749Y-65383967D01*
X84342253Y-65383967D01*
X84366286Y-65379186D01*
X84388923Y-65369810D01*
X84402691Y-65362451D01*
X84409705Y-65360323D01*
X84423140Y-65359000D01*
X84736860Y-65359000D01*
X84750295Y-65360323D01*
X84757309Y-65362451D01*
X84771077Y-65369810D01*
X84793716Y-65379187D01*
X84817749Y-65383967D01*
X84842253Y-65383967D01*
X84866286Y-65379186D01*
X84888923Y-65369810D01*
X84902691Y-65362451D01*
X84909705Y-65360323D01*
X84923140Y-65359000D01*
X85236860Y-65359000D01*
X85250295Y-65360323D01*
X85257309Y-65362451D01*
X85271077Y-65369810D01*
X85293716Y-65379187D01*
X85317749Y-65383967D01*
X85342253Y-65383967D01*
X85366286Y-65379186D01*
X85388923Y-65369810D01*
X85402691Y-65362451D01*
X85409705Y-65360323D01*
X85423140Y-65359000D01*
X85736860Y-65359000D01*
X85750295Y-65360323D01*
X85757309Y-65362451D01*
X85771077Y-65369810D01*
X85793716Y-65379187D01*
X85817749Y-65383967D01*
X85842253Y-65383967D01*
X85866286Y-65379186D01*
X85888923Y-65369810D01*
X85902691Y-65362451D01*
X85909705Y-65360323D01*
X85923140Y-65359000D01*
X86236860Y-65359000D01*
X86250295Y-65360323D01*
X86257309Y-65362451D01*
X86271077Y-65369810D01*
X86293716Y-65379187D01*
X86317749Y-65383967D01*
X86342253Y-65383967D01*
X86366286Y-65379186D01*
X86388923Y-65369810D01*
X86402691Y-65362451D01*
X86409705Y-65360323D01*
X86423140Y-65359000D01*
X86736860Y-65359000D01*
X86750295Y-65360323D01*
X86757309Y-65362451D01*
X86771077Y-65369810D01*
X86793716Y-65379187D01*
X86817749Y-65383967D01*
X86842253Y-65383967D01*
X86866286Y-65379186D01*
X86888923Y-65369810D01*
X86902691Y-65362451D01*
X86909705Y-65360323D01*
X86923140Y-65359000D01*
X87236860Y-65359000D01*
X87250295Y-65360323D01*
X87257309Y-65362451D01*
X87271077Y-65369810D01*
X87293716Y-65379187D01*
X87317749Y-65383967D01*
X87342253Y-65383967D01*
X87366286Y-65379186D01*
X87388923Y-65369810D01*
X87402691Y-65362451D01*
X87409705Y-65360323D01*
X87423140Y-65359000D01*
X87736860Y-65359000D01*
X87750295Y-65360323D01*
X87757309Y-65362451D01*
X87771077Y-65369810D01*
X87793716Y-65379187D01*
X87817749Y-65383967D01*
X87842253Y-65383967D01*
X87866286Y-65379186D01*
X87888923Y-65369810D01*
X87902691Y-65362451D01*
X87909705Y-65360323D01*
X87923140Y-65359000D01*
X88236860Y-65359000D01*
X88250295Y-65360323D01*
X88257309Y-65362451D01*
X88271077Y-65369810D01*
X88293716Y-65379187D01*
X88317749Y-65383967D01*
X88342253Y-65383967D01*
X88366286Y-65379186D01*
X88388923Y-65369810D01*
X88402691Y-65362451D01*
X88409705Y-65360323D01*
X88423140Y-65359000D01*
X88736860Y-65359000D01*
X88750295Y-65360323D01*
X88757310Y-65362451D01*
X88763776Y-65365908D01*
X88769442Y-65370558D01*
X88774092Y-65376224D01*
X88777549Y-65382690D01*
X88779677Y-65389705D01*
X88781000Y-65403140D01*
X88781000Y-66891860D01*
X88779677Y-66905295D01*
X88777549Y-66912310D01*
X88774092Y-66918776D01*
X88769442Y-66924442D01*
X88763776Y-66929092D01*
X88757310Y-66932549D01*
X88750295Y-66934677D01*
X88736860Y-66936000D01*
X88423140Y-66936000D01*
X88409705Y-66934677D01*
X88402691Y-66932549D01*
X88388923Y-66925190D01*
X88366284Y-66915813D01*
X88342251Y-66911033D01*
X88317747Y-66911033D01*
X88293714Y-66915814D01*
X88271077Y-66925190D01*
X88257309Y-66932549D01*
X88250295Y-66934677D01*
X88236860Y-66936000D01*
X87923140Y-66936000D01*
X87909705Y-66934677D01*
X87902691Y-66932549D01*
X87888923Y-66925190D01*
X87866284Y-66915813D01*
X87842251Y-66911033D01*
X87817747Y-66911033D01*
X87793714Y-66915814D01*
X87771077Y-66925190D01*
X87757309Y-66932549D01*
X87750295Y-66934677D01*
X87736860Y-66936000D01*
X87423140Y-66936000D01*
X87409705Y-66934677D01*
X87402691Y-66932549D01*
X87388923Y-66925190D01*
X87366284Y-66915813D01*
X87342251Y-66911033D01*
X87317747Y-66911033D01*
X87293714Y-66915814D01*
X87271077Y-66925190D01*
X87257309Y-66932549D01*
X87250295Y-66934677D01*
X87236860Y-66936000D01*
X86923140Y-66936000D01*
X86909705Y-66934677D01*
X86902691Y-66932549D01*
X86888923Y-66925190D01*
X86866284Y-66915813D01*
X86842251Y-66911033D01*
X86817747Y-66911033D01*
X86793714Y-66915814D01*
X86771077Y-66925190D01*
X86757309Y-66932549D01*
X86750295Y-66934677D01*
X86736860Y-66936000D01*
X86423140Y-66936000D01*
X86409705Y-66934677D01*
X86402691Y-66932549D01*
X86388923Y-66925190D01*
X86366284Y-66915813D01*
X86342251Y-66911033D01*
X86317747Y-66911033D01*
X86293714Y-66915814D01*
X86271077Y-66925190D01*
X86257309Y-66932549D01*
X86250295Y-66934677D01*
X86236860Y-66936000D01*
X85923140Y-66936000D01*
X85909705Y-66934677D01*
X85902691Y-66932549D01*
X85888923Y-66925190D01*
X85866284Y-66915813D01*
X85842251Y-66911033D01*
X85817747Y-66911033D01*
X85793714Y-66915814D01*
X85771077Y-66925190D01*
X85757309Y-66932549D01*
X85750295Y-66934677D01*
X85736860Y-66936000D01*
X85423140Y-66936000D01*
X85409705Y-66934677D01*
X85402691Y-66932549D01*
X85388923Y-66925190D01*
X85366284Y-66915813D01*
X85342251Y-66911033D01*
X85317747Y-66911033D01*
X85293714Y-66915814D01*
X85271077Y-66925190D01*
X85257309Y-66932549D01*
X85250295Y-66934677D01*
X85236860Y-66936000D01*
X84923140Y-66936000D01*
X84909705Y-66934677D01*
X84902691Y-66932549D01*
X84888923Y-66925190D01*
X84866284Y-66915813D01*
X84842251Y-66911033D01*
X84817747Y-66911033D01*
X84793714Y-66915814D01*
X84771077Y-66925190D01*
X84757309Y-66932549D01*
X84750295Y-66934677D01*
X84736860Y-66936000D01*
X84423140Y-66936000D01*
X84409705Y-66934677D01*
X84402691Y-66932549D01*
X84388923Y-66925190D01*
X84366284Y-66915813D01*
X84342251Y-66911033D01*
X84317747Y-66911033D01*
X84293714Y-66915814D01*
X84271077Y-66925190D01*
X84257309Y-66932549D01*
X84250295Y-66934677D01*
X84236860Y-66936000D01*
X83923140Y-66936000D01*
X83909705Y-66934677D01*
X83902691Y-66932549D01*
X83888923Y-66925190D01*
X83866284Y-66915813D01*
X83842251Y-66911033D01*
X83817747Y-66911033D01*
X83793714Y-66915814D01*
X83771077Y-66925190D01*
X83757309Y-66932549D01*
X83750295Y-66934677D01*
X83736860Y-66936000D01*
X83423140Y-66936000D01*
X83409705Y-66934677D01*
X83402691Y-66932549D01*
X83388923Y-66925190D01*
X83366284Y-66915813D01*
X83342251Y-66911033D01*
X83317747Y-66911033D01*
X83293714Y-66915814D01*
X83271077Y-66925190D01*
X83257309Y-66932549D01*
X83250295Y-66934677D01*
X83236860Y-66936000D01*
X82923140Y-66936000D01*
X82909705Y-66934677D01*
X82902690Y-66932549D01*
X82896224Y-66929092D01*
X82890558Y-66924442D01*
X82885908Y-66918776D01*
X82882451Y-66912310D01*
X82880323Y-66905295D01*
X82879000Y-66891860D01*
X82879000Y-65403140D01*
X82880323Y-65389705D01*
X82882451Y-65382690D01*
X82885908Y-65376224D01*
X82890558Y-65370558D01*
X82896224Y-65365908D01*
X82902690Y-65362451D01*
X82909705Y-65360323D01*
X82923140Y-65359000D01*
X83236860Y-65359000D01*
X83250295Y-65360323D01*
G37*
G36*
X111419591Y-65943085D02*
G01*
X111453569Y-65953393D01*
X111484890Y-65970134D01*
X111512339Y-65992661D01*
X111534866Y-66020110D01*
X111551607Y-66051431D01*
X111561915Y-66085409D01*
X111566000Y-66126890D01*
X111566000Y-66728110D01*
X111561915Y-66769591D01*
X111551607Y-66803569D01*
X111534866Y-66834890D01*
X111512339Y-66862339D01*
X111484890Y-66884866D01*
X111453569Y-66901607D01*
X111419591Y-66911915D01*
X111378110Y-66916000D01*
X110701890Y-66916000D01*
X110660409Y-66911915D01*
X110626431Y-66901607D01*
X110595110Y-66884866D01*
X110567661Y-66862339D01*
X110545134Y-66834890D01*
X110528393Y-66803569D01*
X110518085Y-66769591D01*
X110514000Y-66728110D01*
X110514000Y-66126890D01*
X110518085Y-66085409D01*
X110528393Y-66051431D01*
X110545134Y-66020110D01*
X110567661Y-65992661D01*
X110595110Y-65970134D01*
X110626431Y-65953393D01*
X110660409Y-65943085D01*
X110701890Y-65939000D01*
X111378110Y-65939000D01*
X111419591Y-65943085D01*
G37*
G36*
X108611000Y-66711000D02*
G01*
X100309000Y-66711000D01*
X100309000Y-64009000D01*
X108611000Y-64009000D01*
X108611000Y-66711000D01*
G37*
G36*
X111419591Y-64368085D02*
G01*
X111453569Y-64378393D01*
X111484890Y-64395134D01*
X111512339Y-64417661D01*
X111534866Y-64445110D01*
X111551607Y-64476431D01*
X111561915Y-64510409D01*
X111566000Y-64551890D01*
X111566000Y-65153110D01*
X111561915Y-65194591D01*
X111551607Y-65228569D01*
X111534866Y-65259890D01*
X111512339Y-65287339D01*
X111484890Y-65309866D01*
X111453569Y-65326607D01*
X111419591Y-65336915D01*
X111378110Y-65341000D01*
X110701890Y-65341000D01*
X110660409Y-65336915D01*
X110626431Y-65326607D01*
X110595110Y-65309866D01*
X110567661Y-65287339D01*
X110545134Y-65259890D01*
X110528393Y-65228569D01*
X110518085Y-65194591D01*
X110514000Y-65153110D01*
X110514000Y-64551890D01*
X110518085Y-64510409D01*
X110528393Y-64476431D01*
X110545134Y-64445110D01*
X110567661Y-64417661D01*
X110595110Y-64395134D01*
X110626431Y-64378393D01*
X110660409Y-64368085D01*
X110701890Y-64364000D01*
X111378110Y-64364000D01*
X111419591Y-64368085D01*
G37*
G36*
X82444499Y-63353445D02*
G01*
X82481995Y-63364820D01*
X82516554Y-63383292D01*
X82546847Y-63408153D01*
X82571708Y-63438446D01*
X82590180Y-63473005D01*
X82601555Y-63510501D01*
X82606000Y-63555638D01*
X82606000Y-64294362D01*
X82601555Y-64339499D01*
X82590180Y-64376995D01*
X82571708Y-64411554D01*
X82546847Y-64441847D01*
X82516554Y-64466708D01*
X82481995Y-64485180D01*
X82444499Y-64496555D01*
X82399362Y-64501000D01*
X81760638Y-64501000D01*
X81715501Y-64496555D01*
X81678005Y-64485180D01*
X81643446Y-64466708D01*
X81613153Y-64441847D01*
X81588292Y-64411554D01*
X81569820Y-64376995D01*
X81558445Y-64339499D01*
X81554000Y-64294362D01*
X81554000Y-63555638D01*
X81558445Y-63510501D01*
X81569820Y-63473005D01*
X81588292Y-63438446D01*
X81613153Y-63408153D01*
X81643446Y-63383292D01*
X81678005Y-63364820D01*
X81715501Y-63353445D01*
X81760638Y-63349000D01*
X82399362Y-63349000D01*
X82444499Y-63353445D01*
G37*
G36*
X91394499Y-62918445D02*
G01*
X91431995Y-62929820D01*
X91466554Y-62948292D01*
X91496847Y-62973153D01*
X91521708Y-63003446D01*
X91540180Y-63038005D01*
X91551555Y-63075501D01*
X91556000Y-63120638D01*
X91556000Y-63859362D01*
X91551555Y-63904499D01*
X91540180Y-63941995D01*
X91521708Y-63976554D01*
X91496847Y-64006847D01*
X91466554Y-64031708D01*
X91431995Y-64050180D01*
X91394499Y-64061555D01*
X91349362Y-64066000D01*
X90710638Y-64066000D01*
X90665501Y-64061555D01*
X90628005Y-64050180D01*
X90593446Y-64031708D01*
X90563153Y-64006847D01*
X90538292Y-63976554D01*
X90519820Y-63941995D01*
X90508445Y-63904499D01*
X90504000Y-63859362D01*
X90504000Y-63120638D01*
X90508445Y-63075501D01*
X90519820Y-63038005D01*
X90538292Y-63003446D01*
X90563153Y-62973153D01*
X90593446Y-62948292D01*
X90628005Y-62929820D01*
X90665501Y-62918445D01*
X90710638Y-62914000D01*
X91349362Y-62914000D01*
X91394499Y-62918445D01*
G37*
G36*
X84374499Y-62918445D02*
G01*
X84411995Y-62929820D01*
X84446554Y-62948292D01*
X84476847Y-62973153D01*
X84501708Y-63003446D01*
X84520180Y-63038005D01*
X84531555Y-63075501D01*
X84536000Y-63120638D01*
X84536000Y-63859362D01*
X84531555Y-63904499D01*
X84520180Y-63941995D01*
X84501708Y-63976554D01*
X84476847Y-64006847D01*
X84446554Y-64031708D01*
X84411995Y-64050180D01*
X84374499Y-64061555D01*
X84329362Y-64066000D01*
X83690638Y-64066000D01*
X83645501Y-64061555D01*
X83608005Y-64050180D01*
X83573446Y-64031708D01*
X83543153Y-64006847D01*
X83518292Y-63976554D01*
X83499820Y-63941995D01*
X83488445Y-63904499D01*
X83484000Y-63859362D01*
X83484000Y-63120638D01*
X83488445Y-63075501D01*
X83499820Y-63038005D01*
X83518292Y-63003446D01*
X83543153Y-62973153D01*
X83573446Y-62948292D01*
X83608005Y-62929820D01*
X83645501Y-62918445D01*
X83690638Y-62914000D01*
X84329362Y-62914000D01*
X84374499Y-62918445D01*
G37*
G36*
X86134499Y-62918445D02*
G01*
X86171995Y-62929820D01*
X86206554Y-62948292D01*
X86236847Y-62973153D01*
X86261708Y-63003446D01*
X86280180Y-63038005D01*
X86291555Y-63075501D01*
X86296000Y-63120638D01*
X86296000Y-63859362D01*
X86291555Y-63904499D01*
X86280180Y-63941995D01*
X86261708Y-63976554D01*
X86236847Y-64006847D01*
X86206554Y-64031708D01*
X86171995Y-64050180D01*
X86134499Y-64061555D01*
X86089362Y-64066000D01*
X85450638Y-64066000D01*
X85405501Y-64061555D01*
X85368005Y-64050180D01*
X85333446Y-64031708D01*
X85303153Y-64006847D01*
X85278292Y-63976554D01*
X85259820Y-63941995D01*
X85248445Y-63904499D01*
X85244000Y-63859362D01*
X85244000Y-63120638D01*
X85248445Y-63075501D01*
X85259820Y-63038005D01*
X85278292Y-63003446D01*
X85303153Y-62973153D01*
X85333446Y-62948292D01*
X85368005Y-62929820D01*
X85405501Y-62918445D01*
X85450638Y-62914000D01*
X86089362Y-62914000D01*
X86134499Y-62918445D01*
G37*
G36*
X89644499Y-62918445D02*
G01*
X89681995Y-62929820D01*
X89716554Y-62948292D01*
X89746847Y-62973153D01*
X89771708Y-63003446D01*
X89790180Y-63038005D01*
X89801555Y-63075501D01*
X89806000Y-63120638D01*
X89806000Y-63859362D01*
X89801555Y-63904499D01*
X89790180Y-63941995D01*
X89771708Y-63976554D01*
X89746847Y-64006847D01*
X89716554Y-64031708D01*
X89681995Y-64050180D01*
X89644499Y-64061555D01*
X89599362Y-64066000D01*
X88960638Y-64066000D01*
X88915501Y-64061555D01*
X88878005Y-64050180D01*
X88843446Y-64031708D01*
X88813153Y-64006847D01*
X88788292Y-63976554D01*
X88769820Y-63941995D01*
X88758445Y-63904499D01*
X88754000Y-63859362D01*
X88754000Y-63120638D01*
X88758445Y-63075501D01*
X88769820Y-63038005D01*
X88788292Y-63003446D01*
X88813153Y-62973153D01*
X88843446Y-62948292D01*
X88878005Y-62929820D01*
X88915501Y-62918445D01*
X88960638Y-62914000D01*
X89599362Y-62914000D01*
X89644499Y-62918445D01*
G37*
G36*
X87864499Y-62918445D02*
G01*
X87901995Y-62929820D01*
X87936554Y-62948292D01*
X87966847Y-62973153D01*
X87991708Y-63003446D01*
X88010180Y-63038005D01*
X88021555Y-63075501D01*
X88026000Y-63120638D01*
X88026000Y-63859362D01*
X88021555Y-63904499D01*
X88010180Y-63941995D01*
X87991708Y-63976554D01*
X87966847Y-64006847D01*
X87936554Y-64031708D01*
X87901995Y-64050180D01*
X87864499Y-64061555D01*
X87819362Y-64066000D01*
X87180638Y-64066000D01*
X87135501Y-64061555D01*
X87098005Y-64050180D01*
X87063446Y-64031708D01*
X87033153Y-64006847D01*
X87008292Y-63976554D01*
X86989820Y-63941995D01*
X86978445Y-63904499D01*
X86974000Y-63859362D01*
X86974000Y-63120638D01*
X86978445Y-63075501D01*
X86989820Y-63038005D01*
X87008292Y-63003446D01*
X87033153Y-62973153D01*
X87063446Y-62948292D01*
X87098005Y-62929820D01*
X87135501Y-62918445D01*
X87180638Y-62914000D01*
X87819362Y-62914000D01*
X87864499Y-62918445D01*
G37*
G36*
X74394499Y-61933445D02*
G01*
X74431995Y-61944820D01*
X74466554Y-61963292D01*
X74496847Y-61988153D01*
X74521708Y-62018446D01*
X74540180Y-62053005D01*
X74551555Y-62090501D01*
X74556000Y-62135638D01*
X74556000Y-62874362D01*
X74551555Y-62919499D01*
X74540180Y-62956995D01*
X74521708Y-62991554D01*
X74496847Y-63021847D01*
X74466554Y-63046708D01*
X74431995Y-63065180D01*
X74394499Y-63076555D01*
X74349362Y-63081000D01*
X73710638Y-63081000D01*
X73665501Y-63076555D01*
X73628005Y-63065180D01*
X73593446Y-63046708D01*
X73563153Y-63021847D01*
X73538292Y-62991554D01*
X73519820Y-62956995D01*
X73508445Y-62919499D01*
X73504000Y-62874362D01*
X73504000Y-62135638D01*
X73508445Y-62090501D01*
X73519820Y-62053005D01*
X73538292Y-62018446D01*
X73563153Y-61988153D01*
X73593446Y-61963292D01*
X73628005Y-61944820D01*
X73665501Y-61933445D01*
X73710638Y-61929000D01*
X74349362Y-61929000D01*
X74394499Y-61933445D01*
G37*
G36*
X82444499Y-61603445D02*
G01*
X82481995Y-61614820D01*
X82516554Y-61633292D01*
X82546847Y-61658153D01*
X82571708Y-61688446D01*
X82590180Y-61723005D01*
X82601555Y-61760501D01*
X82606000Y-61805638D01*
X82606000Y-62544362D01*
X82601555Y-62589499D01*
X82590180Y-62626995D01*
X82571708Y-62661554D01*
X82546847Y-62691847D01*
X82516554Y-62716708D01*
X82481995Y-62735180D01*
X82444499Y-62746555D01*
X82399362Y-62751000D01*
X81760638Y-62751000D01*
X81715501Y-62746555D01*
X81678005Y-62735180D01*
X81643446Y-62716708D01*
X81613153Y-62691847D01*
X81588292Y-62661554D01*
X81569820Y-62626995D01*
X81558445Y-62589499D01*
X81554000Y-62544362D01*
X81554000Y-61805638D01*
X81558445Y-61760501D01*
X81569820Y-61723005D01*
X81588292Y-61688446D01*
X81613153Y-61658153D01*
X81643446Y-61633292D01*
X81678005Y-61614820D01*
X81715501Y-61603445D01*
X81760638Y-61599000D01*
X82399362Y-61599000D01*
X82444499Y-61603445D01*
G37*
G36*
X112491000Y-62541000D02*
G01*
X111889000Y-62541000D01*
X111889000Y-61239000D01*
X112491000Y-61239000D01*
X112491000Y-62541000D01*
G37*
G36*
X111541000Y-62541000D02*
G01*
X110939000Y-62541000D01*
X110939000Y-61239000D01*
X111541000Y-61239000D01*
X111541000Y-62541000D01*
G37*
G36*
X113441000Y-62541000D02*
G01*
X112839000Y-62541000D01*
X112839000Y-61239000D01*
X113441000Y-61239000D01*
X113441000Y-62541000D01*
G37*
G36*
X79851938Y-61661716D02*
G01*
X79872557Y-61667971D01*
X79891553Y-61678124D01*
X79908208Y-61691792D01*
X79921876Y-61708447D01*
X79932029Y-61727443D01*
X79938284Y-61748062D01*
X79941000Y-61775640D01*
X79941000Y-62234360D01*
X79938284Y-62261938D01*
X79932029Y-62282557D01*
X79921876Y-62301553D01*
X79908208Y-62318208D01*
X79891553Y-62331876D01*
X79872557Y-62342029D01*
X79851938Y-62348284D01*
X79824360Y-62351000D01*
X79315640Y-62351000D01*
X79288062Y-62348284D01*
X79267443Y-62342029D01*
X79248447Y-62331876D01*
X79231792Y-62318208D01*
X79218124Y-62301553D01*
X79207971Y-62282557D01*
X79201716Y-62261938D01*
X79199000Y-62234360D01*
X79199000Y-61775640D01*
X79201716Y-61748062D01*
X79207971Y-61727443D01*
X79218124Y-61708447D01*
X79231792Y-61691792D01*
X79248447Y-61678124D01*
X79267443Y-61667971D01*
X79288062Y-61661716D01*
X79315640Y-61659000D01*
X79824360Y-61659000D01*
X79851938Y-61661716D01*
G37*
G36*
X91394499Y-61168445D02*
G01*
X91431995Y-61179820D01*
X91466554Y-61198292D01*
X91496847Y-61223153D01*
X91521708Y-61253446D01*
X91540180Y-61288005D01*
X91551555Y-61325501D01*
X91556000Y-61370638D01*
X91556000Y-62109362D01*
X91551555Y-62154499D01*
X91540180Y-62191995D01*
X91521708Y-62226554D01*
X91496847Y-62256847D01*
X91466554Y-62281708D01*
X91431995Y-62300180D01*
X91394499Y-62311555D01*
X91349362Y-62316000D01*
X90710638Y-62316000D01*
X90665501Y-62311555D01*
X90628005Y-62300180D01*
X90593446Y-62281708D01*
X90563153Y-62256847D01*
X90538292Y-62226554D01*
X90519820Y-62191995D01*
X90508445Y-62154499D01*
X90504000Y-62109362D01*
X90504000Y-61370638D01*
X90508445Y-61325501D01*
X90519820Y-61288005D01*
X90538292Y-61253446D01*
X90563153Y-61223153D01*
X90593446Y-61198292D01*
X90628005Y-61179820D01*
X90665501Y-61168445D01*
X90710638Y-61164000D01*
X91349362Y-61164000D01*
X91394499Y-61168445D01*
G37*
G36*
X84374499Y-61168445D02*
G01*
X84411995Y-61179820D01*
X84446554Y-61198292D01*
X84476847Y-61223153D01*
X84501708Y-61253446D01*
X84520180Y-61288005D01*
X84531555Y-61325501D01*
X84536000Y-61370638D01*
X84536000Y-62109362D01*
X84531555Y-62154499D01*
X84520180Y-62191995D01*
X84501708Y-62226554D01*
X84476847Y-62256847D01*
X84446554Y-62281708D01*
X84411995Y-62300180D01*
X84374499Y-62311555D01*
X84329362Y-62316000D01*
X83690638Y-62316000D01*
X83645501Y-62311555D01*
X83608005Y-62300180D01*
X83573446Y-62281708D01*
X83543153Y-62256847D01*
X83518292Y-62226554D01*
X83499820Y-62191995D01*
X83488445Y-62154499D01*
X83484000Y-62109362D01*
X83484000Y-61370638D01*
X83488445Y-61325501D01*
X83499820Y-61288005D01*
X83518292Y-61253446D01*
X83543153Y-61223153D01*
X83573446Y-61198292D01*
X83608005Y-61179820D01*
X83645501Y-61168445D01*
X83690638Y-61164000D01*
X84329362Y-61164000D01*
X84374499Y-61168445D01*
G37*
G36*
X86134499Y-61168445D02*
G01*
X86171995Y-61179820D01*
X86206554Y-61198292D01*
X86236847Y-61223153D01*
X86261708Y-61253446D01*
X86280180Y-61288005D01*
X86291555Y-61325501D01*
X86296000Y-61370638D01*
X86296000Y-62109362D01*
X86291555Y-62154499D01*
X86280180Y-62191995D01*
X86261708Y-62226554D01*
X86236847Y-62256847D01*
X86206554Y-62281708D01*
X86171995Y-62300180D01*
X86134499Y-62311555D01*
X86089362Y-62316000D01*
X85450638Y-62316000D01*
X85405501Y-62311555D01*
X85368005Y-62300180D01*
X85333446Y-62281708D01*
X85303153Y-62256847D01*
X85278292Y-62226554D01*
X85259820Y-62191995D01*
X85248445Y-62154499D01*
X85244000Y-62109362D01*
X85244000Y-61370638D01*
X85248445Y-61325501D01*
X85259820Y-61288005D01*
X85278292Y-61253446D01*
X85303153Y-61223153D01*
X85333446Y-61198292D01*
X85368005Y-61179820D01*
X85405501Y-61168445D01*
X85450638Y-61164000D01*
X86089362Y-61164000D01*
X86134499Y-61168445D01*
G37*
G36*
X87864499Y-61168445D02*
G01*
X87901995Y-61179820D01*
X87936554Y-61198292D01*
X87966847Y-61223153D01*
X87991708Y-61253446D01*
X88010180Y-61288005D01*
X88021555Y-61325501D01*
X88026000Y-61370638D01*
X88026000Y-62109362D01*
X88021555Y-62154499D01*
X88010180Y-62191995D01*
X87991708Y-62226554D01*
X87966847Y-62256847D01*
X87936554Y-62281708D01*
X87901995Y-62300180D01*
X87864499Y-62311555D01*
X87819362Y-62316000D01*
X87180638Y-62316000D01*
X87135501Y-62311555D01*
X87098005Y-62300180D01*
X87063446Y-62281708D01*
X87033153Y-62256847D01*
X87008292Y-62226554D01*
X86989820Y-62191995D01*
X86978445Y-62154499D01*
X86974000Y-62109362D01*
X86974000Y-61370638D01*
X86978445Y-61325501D01*
X86989820Y-61288005D01*
X87008292Y-61253446D01*
X87033153Y-61223153D01*
X87063446Y-61198292D01*
X87098005Y-61179820D01*
X87135501Y-61168445D01*
X87180638Y-61164000D01*
X87819362Y-61164000D01*
X87864499Y-61168445D01*
G37*
G36*
X89644499Y-61168445D02*
G01*
X89681995Y-61179820D01*
X89716554Y-61198292D01*
X89746847Y-61223153D01*
X89771708Y-61253446D01*
X89790180Y-61288005D01*
X89801555Y-61325501D01*
X89806000Y-61370638D01*
X89806000Y-62109362D01*
X89801555Y-62154499D01*
X89790180Y-62191995D01*
X89771708Y-62226554D01*
X89746847Y-62256847D01*
X89716554Y-62281708D01*
X89681995Y-62300180D01*
X89644499Y-62311555D01*
X89599362Y-62316000D01*
X88960638Y-62316000D01*
X88915501Y-62311555D01*
X88878005Y-62300180D01*
X88843446Y-62281708D01*
X88813153Y-62256847D01*
X88788292Y-62226554D01*
X88769820Y-62191995D01*
X88758445Y-62154499D01*
X88754000Y-62109362D01*
X88754000Y-61370638D01*
X88758445Y-61325501D01*
X88769820Y-61288005D01*
X88788292Y-61253446D01*
X88813153Y-61223153D01*
X88843446Y-61198292D01*
X88878005Y-61179820D01*
X88915501Y-61168445D01*
X88960638Y-61164000D01*
X89599362Y-61164000D01*
X89644499Y-61168445D01*
G37*
G36*
X79851938Y-60691716D02*
G01*
X79872557Y-60697971D01*
X79891553Y-60708124D01*
X79908208Y-60721792D01*
X79921876Y-60738447D01*
X79932029Y-60757443D01*
X79938284Y-60778062D01*
X79941000Y-60805640D01*
X79941000Y-61264360D01*
X79938284Y-61291938D01*
X79932029Y-61312557D01*
X79921876Y-61331553D01*
X79908208Y-61348208D01*
X79891553Y-61361876D01*
X79872557Y-61372029D01*
X79851938Y-61378284D01*
X79824360Y-61381000D01*
X79315640Y-61381000D01*
X79288062Y-61378284D01*
X79267443Y-61372029D01*
X79248447Y-61361876D01*
X79231792Y-61348208D01*
X79218124Y-61331553D01*
X79207971Y-61312557D01*
X79201716Y-61291938D01*
X79199000Y-61264360D01*
X79199000Y-60805640D01*
X79201716Y-60778062D01*
X79207971Y-60757443D01*
X79218124Y-60738447D01*
X79231792Y-60721792D01*
X79248447Y-60708124D01*
X79267443Y-60697971D01*
X79288062Y-60691716D01*
X79315640Y-60689000D01*
X79824360Y-60689000D01*
X79851938Y-60691716D01*
G37*
G36*
X74394499Y-60183445D02*
G01*
X74431995Y-60194820D01*
X74466554Y-60213292D01*
X74496847Y-60238153D01*
X74521708Y-60268446D01*
X74540180Y-60303005D01*
X74551555Y-60340501D01*
X74556000Y-60385638D01*
X74556000Y-61124362D01*
X74551555Y-61169499D01*
X74540180Y-61206995D01*
X74521708Y-61241554D01*
X74496847Y-61271847D01*
X74466554Y-61296708D01*
X74431995Y-61315180D01*
X74394499Y-61326555D01*
X74349362Y-61331000D01*
X73710638Y-61331000D01*
X73665501Y-61326555D01*
X73628005Y-61315180D01*
X73593446Y-61296708D01*
X73563153Y-61271847D01*
X73538292Y-61241554D01*
X73519820Y-61206995D01*
X73508445Y-61169499D01*
X73504000Y-61124362D01*
X73504000Y-60385638D01*
X73508445Y-60340501D01*
X73519820Y-60303005D01*
X73538292Y-60268446D01*
X73563153Y-60238153D01*
X73593446Y-60213292D01*
X73628005Y-60194820D01*
X73665501Y-60183445D01*
X73710638Y-60179000D01*
X74349362Y-60179000D01*
X74394499Y-60183445D01*
G37*
G36*
X108611000Y-61111000D02*
G01*
X100309000Y-61111000D01*
X100309000Y-58409000D01*
X108611000Y-58409000D01*
X108611000Y-61111000D01*
G37*
G36*
X72821938Y-59681716D02*
G01*
X72842557Y-59687971D01*
X72861553Y-59698124D01*
X72878208Y-59711792D01*
X72891876Y-59728447D01*
X72902029Y-59747443D01*
X72908284Y-59768062D01*
X72911000Y-59795640D01*
X72911000Y-60254360D01*
X72908284Y-60281938D01*
X72902029Y-60302557D01*
X72891876Y-60321553D01*
X72878208Y-60338208D01*
X72861553Y-60351876D01*
X72842557Y-60362029D01*
X72821938Y-60368284D01*
X72794360Y-60371000D01*
X72285640Y-60371000D01*
X72258062Y-60368284D01*
X72237443Y-60362029D01*
X72218447Y-60351876D01*
X72201792Y-60338208D01*
X72188124Y-60321553D01*
X72177971Y-60302557D01*
X72171716Y-60281938D01*
X72169000Y-60254360D01*
X72169000Y-59795640D01*
X72171716Y-59768062D01*
X72177971Y-59747443D01*
X72188124Y-59728447D01*
X72201792Y-59711792D01*
X72218447Y-59698124D01*
X72237443Y-59687971D01*
X72258062Y-59681716D01*
X72285640Y-59679000D01*
X72794360Y-59679000D01*
X72821938Y-59681716D01*
G37*
G36*
X113441000Y-60191000D02*
G01*
X112839000Y-60191000D01*
X112839000Y-58889000D01*
X113441000Y-58889000D01*
X113441000Y-60191000D01*
G37*
G36*
X111541000Y-60191000D02*
G01*
X110939000Y-60191000D01*
X110939000Y-58889000D01*
X111541000Y-58889000D01*
X111541000Y-60191000D01*
G37*
G36*
X76725355Y-54330083D02*
G01*
X76730029Y-54331501D01*
X76734330Y-54333800D01*
X76740702Y-54339029D01*
X76761076Y-54352643D01*
X76783715Y-54362020D01*
X76807749Y-54366800D01*
X76832253Y-54366800D01*
X76856286Y-54362019D01*
X76878925Y-54352642D01*
X76899298Y-54339029D01*
X76905670Y-54333800D01*
X76909971Y-54331501D01*
X76914645Y-54330083D01*
X76925641Y-54329000D01*
X77214359Y-54329000D01*
X77225355Y-54330083D01*
X77230029Y-54331501D01*
X77234330Y-54333800D01*
X77240702Y-54339029D01*
X77261076Y-54352643D01*
X77283715Y-54362020D01*
X77307749Y-54366800D01*
X77332253Y-54366800D01*
X77356286Y-54362019D01*
X77378925Y-54352642D01*
X77399298Y-54339029D01*
X77405670Y-54333800D01*
X77409971Y-54331501D01*
X77414645Y-54330083D01*
X77425641Y-54329000D01*
X77714359Y-54329000D01*
X77725355Y-54330083D01*
X77730029Y-54331501D01*
X77734330Y-54333800D01*
X77740702Y-54339029D01*
X77761076Y-54352643D01*
X77783715Y-54362020D01*
X77807749Y-54366800D01*
X77832253Y-54366800D01*
X77856286Y-54362019D01*
X77878925Y-54352642D01*
X77899298Y-54339029D01*
X77905670Y-54333800D01*
X77909971Y-54331501D01*
X77914645Y-54330083D01*
X77925641Y-54329000D01*
X78214359Y-54329000D01*
X78225355Y-54330083D01*
X78230029Y-54331501D01*
X78234330Y-54333800D01*
X78240702Y-54339029D01*
X78261076Y-54352643D01*
X78283715Y-54362020D01*
X78307749Y-54366800D01*
X78332253Y-54366800D01*
X78356286Y-54362019D01*
X78378925Y-54352642D01*
X78399298Y-54339029D01*
X78405670Y-54333800D01*
X78409971Y-54331501D01*
X78414645Y-54330083D01*
X78425641Y-54329000D01*
X78714359Y-54329000D01*
X78725355Y-54330083D01*
X78730029Y-54331501D01*
X78734330Y-54333800D01*
X78740702Y-54339029D01*
X78761076Y-54352643D01*
X78783715Y-54362020D01*
X78807749Y-54366800D01*
X78832253Y-54366800D01*
X78856286Y-54362019D01*
X78878925Y-54352642D01*
X78899298Y-54339029D01*
X78905670Y-54333800D01*
X78909971Y-54331501D01*
X78914645Y-54330083D01*
X78925641Y-54329000D01*
X79214359Y-54329000D01*
X79225355Y-54330083D01*
X79230029Y-54331501D01*
X79234330Y-54333800D01*
X79240702Y-54339029D01*
X79261076Y-54352643D01*
X79283715Y-54362020D01*
X79307749Y-54366800D01*
X79332253Y-54366800D01*
X79356286Y-54362019D01*
X79378925Y-54352642D01*
X79399298Y-54339029D01*
X79405670Y-54333800D01*
X79409971Y-54331501D01*
X79414645Y-54330083D01*
X79425641Y-54329000D01*
X79714359Y-54329000D01*
X79725355Y-54330083D01*
X79730029Y-54331501D01*
X79734330Y-54333800D01*
X79740702Y-54339029D01*
X79761076Y-54352643D01*
X79783715Y-54362020D01*
X79807749Y-54366800D01*
X79832253Y-54366800D01*
X79856286Y-54362019D01*
X79878925Y-54352642D01*
X79899298Y-54339029D01*
X79905670Y-54333800D01*
X79909971Y-54331501D01*
X79914645Y-54330083D01*
X79925641Y-54329000D01*
X80214359Y-54329000D01*
X80225355Y-54330083D01*
X80230029Y-54331501D01*
X80234331Y-54333800D01*
X80238104Y-54336896D01*
X80241200Y-54340669D01*
X80243499Y-54344971D01*
X80244917Y-54349645D01*
X80246000Y-54360641D01*
X80246000Y-55179001D01*
X80248402Y-55203387D01*
X80255515Y-55226836D01*
X80267066Y-55248447D01*
X80282611Y-55267389D01*
X80301553Y-55282934D01*
X80323164Y-55294485D01*
X80346613Y-55301598D01*
X80370999Y-55304000D01*
X81189359Y-55304000D01*
X81200355Y-55305083D01*
X81205029Y-55306501D01*
X81209331Y-55308800D01*
X81213104Y-55311896D01*
X81216200Y-55315669D01*
X81218499Y-55319971D01*
X81219917Y-55324645D01*
X81221000Y-55335641D01*
X81221000Y-55624359D01*
X81219917Y-55635355D01*
X81218499Y-55640029D01*
X81216200Y-55644330D01*
X81210971Y-55650702D01*
X81197357Y-55671076D01*
X81187980Y-55693715D01*
X81183200Y-55717749D01*
X81183200Y-55742253D01*
X81187981Y-55766286D01*
X81197358Y-55788925D01*
X81210971Y-55809298D01*
X81216200Y-55815670D01*
X81218499Y-55819971D01*
X81219917Y-55824645D01*
X81221000Y-55835641D01*
X81221000Y-56124359D01*
X81219917Y-56135355D01*
X81218499Y-56140029D01*
X81216200Y-56144330D01*
X81210971Y-56150702D01*
X81197357Y-56171076D01*
X81187980Y-56193715D01*
X81183200Y-56217749D01*
X81183200Y-56242253D01*
X81187981Y-56266286D01*
X81197358Y-56288925D01*
X81210971Y-56309298D01*
X81216200Y-56315670D01*
X81218499Y-56319971D01*
X81219917Y-56324645D01*
X81221000Y-56335641D01*
X81221000Y-56624359D01*
X81219917Y-56635355D01*
X81218499Y-56640029D01*
X81216200Y-56644330D01*
X81210971Y-56650702D01*
X81197357Y-56671076D01*
X81187980Y-56693715D01*
X81183200Y-56717749D01*
X81183200Y-56742253D01*
X81187981Y-56766286D01*
X81197358Y-56788925D01*
X81210971Y-56809298D01*
X81216200Y-56815670D01*
X81218499Y-56819971D01*
X81219917Y-56824645D01*
X81221000Y-56835641D01*
X81221000Y-57124359D01*
X81219917Y-57135355D01*
X81218499Y-57140029D01*
X81216200Y-57144330D01*
X81210971Y-57150702D01*
X81197357Y-57171076D01*
X81187980Y-57193715D01*
X81183200Y-57217749D01*
X81183200Y-57242253D01*
X81187981Y-57266286D01*
X81197358Y-57288925D01*
X81210971Y-57309298D01*
X81216200Y-57315670D01*
X81218499Y-57319971D01*
X81219917Y-57324645D01*
X81221000Y-57335641D01*
X81221000Y-57624359D01*
X81219917Y-57635355D01*
X81218499Y-57640029D01*
X81216200Y-57644330D01*
X81210971Y-57650702D01*
X81197357Y-57671076D01*
X81187980Y-57693715D01*
X81183200Y-57717749D01*
X81183200Y-57742253D01*
X81187981Y-57766286D01*
X81197358Y-57788925D01*
X81210971Y-57809298D01*
X81216200Y-57815670D01*
X81218499Y-57819971D01*
X81219917Y-57824645D01*
X81221000Y-57835641D01*
X81221000Y-58124359D01*
X81219917Y-58135355D01*
X81218499Y-58140029D01*
X81216200Y-58144330D01*
X81210971Y-58150702D01*
X81197357Y-58171076D01*
X81187980Y-58193715D01*
X81183200Y-58217749D01*
X81183200Y-58242253D01*
X81187981Y-58266286D01*
X81197358Y-58288925D01*
X81210971Y-58309298D01*
X81216200Y-58315670D01*
X81218499Y-58319971D01*
X81219917Y-58324645D01*
X81221000Y-58335641D01*
X81221000Y-58624359D01*
X81219917Y-58635355D01*
X81218499Y-58640029D01*
X81216200Y-58644330D01*
X81210971Y-58650702D01*
X81197357Y-58671076D01*
X81187980Y-58693715D01*
X81183200Y-58717749D01*
X81183200Y-58742253D01*
X81187981Y-58766286D01*
X81197358Y-58788925D01*
X81210971Y-58809298D01*
X81216200Y-58815670D01*
X81218499Y-58819971D01*
X81219917Y-58824645D01*
X81221000Y-58835641D01*
X81221000Y-59124359D01*
X81219917Y-59135355D01*
X81218499Y-59140029D01*
X81216200Y-59144331D01*
X81213104Y-59148104D01*
X81209331Y-59151200D01*
X81205029Y-59153499D01*
X81200355Y-59154917D01*
X81189359Y-59156000D01*
X80370999Y-59156000D01*
X80346613Y-59158402D01*
X80323164Y-59165515D01*
X80301553Y-59177066D01*
X80282611Y-59192611D01*
X80267066Y-59211553D01*
X80255515Y-59233164D01*
X80248402Y-59256613D01*
X80246000Y-59280999D01*
X80246000Y-60099359D01*
X80244917Y-60110355D01*
X80243499Y-60115029D01*
X80241200Y-60119331D01*
X80238104Y-60123104D01*
X80234331Y-60126200D01*
X80230029Y-60128499D01*
X80225355Y-60129917D01*
X80214359Y-60131000D01*
X79925641Y-60131000D01*
X79914645Y-60129917D01*
X79909971Y-60128499D01*
X79905670Y-60126200D01*
X79899298Y-60120971D01*
X79878924Y-60107357D01*
X79856285Y-60097980D01*
X79832251Y-60093200D01*
X79807747Y-60093200D01*
X79783714Y-60097981D01*
X79761075Y-60107358D01*
X79740702Y-60120971D01*
X79734330Y-60126200D01*
X79730029Y-60128499D01*
X79725355Y-60129917D01*
X79714359Y-60131000D01*
X79425641Y-60131000D01*
X79414645Y-60129917D01*
X79409971Y-60128499D01*
X79405670Y-60126200D01*
X79399298Y-60120971D01*
X79378924Y-60107357D01*
X79356285Y-60097980D01*
X79332251Y-60093200D01*
X79307747Y-60093200D01*
X79283714Y-60097981D01*
X79261075Y-60107358D01*
X79240702Y-60120971D01*
X79234330Y-60126200D01*
X79230029Y-60128499D01*
X79225355Y-60129917D01*
X79214359Y-60131000D01*
X78925641Y-60131000D01*
X78914645Y-60129917D01*
X78909971Y-60128499D01*
X78905670Y-60126200D01*
X78899298Y-60120971D01*
X78878924Y-60107357D01*
X78856285Y-60097980D01*
X78832251Y-60093200D01*
X78807747Y-60093200D01*
X78783714Y-60097981D01*
X78761075Y-60107358D01*
X78740702Y-60120971D01*
X78734330Y-60126200D01*
X78730029Y-60128499D01*
X78725355Y-60129917D01*
X78714359Y-60131000D01*
X78425641Y-60131000D01*
X78414645Y-60129917D01*
X78409971Y-60128499D01*
X78405670Y-60126200D01*
X78399298Y-60120971D01*
X78378924Y-60107357D01*
X78356285Y-60097980D01*
X78332251Y-60093200D01*
X78307747Y-60093200D01*
X78283714Y-60097981D01*
X78261075Y-60107358D01*
X78240702Y-60120971D01*
X78234330Y-60126200D01*
X78230029Y-60128499D01*
X78225355Y-60129917D01*
X78214359Y-60131000D01*
X77925641Y-60131000D01*
X77914645Y-60129917D01*
X77909971Y-60128499D01*
X77905670Y-60126200D01*
X77899298Y-60120971D01*
X77878924Y-60107357D01*
X77856285Y-60097980D01*
X77832251Y-60093200D01*
X77807747Y-60093200D01*
X77783714Y-60097981D01*
X77761075Y-60107358D01*
X77740702Y-60120971D01*
X77734330Y-60126200D01*
X77730029Y-60128499D01*
X77725355Y-60129917D01*
X77714359Y-60131000D01*
X77425641Y-60131000D01*
X77414645Y-60129917D01*
X77409971Y-60128499D01*
X77405670Y-60126200D01*
X77399298Y-60120971D01*
X77378924Y-60107357D01*
X77356285Y-60097980D01*
X77332251Y-60093200D01*
X77307747Y-60093200D01*
X77283714Y-60097981D01*
X77261075Y-60107358D01*
X77240702Y-60120971D01*
X77234330Y-60126200D01*
X77230029Y-60128499D01*
X77225355Y-60129917D01*
X77214359Y-60131000D01*
X76925641Y-60131000D01*
X76914645Y-60129917D01*
X76909971Y-60128499D01*
X76905670Y-60126200D01*
X76899298Y-60120971D01*
X76878924Y-60107357D01*
X76856285Y-60097980D01*
X76832251Y-60093200D01*
X76807747Y-60093200D01*
X76783714Y-60097981D01*
X76761075Y-60107358D01*
X76740702Y-60120971D01*
X76734330Y-60126200D01*
X76730029Y-60128499D01*
X76725355Y-60129917D01*
X76714359Y-60131000D01*
X76425641Y-60131000D01*
X76414645Y-60129917D01*
X76409971Y-60128499D01*
X76405669Y-60126200D01*
X76401896Y-60123104D01*
X76398800Y-60119331D01*
X76396501Y-60115029D01*
X76395083Y-60110355D01*
X76394000Y-60099359D01*
X76394000Y-59280999D01*
X76391598Y-59256613D01*
X76384485Y-59233164D01*
X76372934Y-59211553D01*
X76357389Y-59192611D01*
X76338447Y-59177066D01*
X76316836Y-59165515D01*
X76293387Y-59158402D01*
X76269001Y-59156000D01*
X75450641Y-59156000D01*
X75439645Y-59154917D01*
X75434971Y-59153499D01*
X75430669Y-59151200D01*
X75426896Y-59148104D01*
X75423800Y-59144331D01*
X75421501Y-59140029D01*
X75420083Y-59135355D01*
X75419000Y-59124359D01*
X75419000Y-58835641D01*
X75420083Y-58824645D01*
X75421501Y-58819971D01*
X75423800Y-58815670D01*
X75429029Y-58809298D01*
X75442643Y-58788924D01*
X75452020Y-58766285D01*
X75456800Y-58742251D01*
X75456800Y-58717747D01*
X75452019Y-58693714D01*
X75442642Y-58671075D01*
X75429029Y-58650702D01*
X75423800Y-58644330D01*
X75421501Y-58640029D01*
X75420083Y-58635355D01*
X75419000Y-58624359D01*
X75419000Y-58335641D01*
X75420083Y-58324645D01*
X75421501Y-58319971D01*
X75423800Y-58315670D01*
X75429029Y-58309298D01*
X75442643Y-58288924D01*
X75452020Y-58266285D01*
X75456800Y-58242251D01*
X75456800Y-58217747D01*
X75452019Y-58193714D01*
X75442642Y-58171075D01*
X75429029Y-58150702D01*
X75423800Y-58144330D01*
X75421501Y-58140029D01*
X75420083Y-58135355D01*
X75419000Y-58124359D01*
X75419000Y-57835641D01*
X75420083Y-57824645D01*
X75421501Y-57819971D01*
X75423800Y-57815670D01*
X75429029Y-57809298D01*
X75442643Y-57788924D01*
X75452020Y-57766285D01*
X75456800Y-57742251D01*
X75456800Y-57717747D01*
X75452019Y-57693714D01*
X75442642Y-57671075D01*
X75429029Y-57650702D01*
X75423800Y-57644330D01*
X75421501Y-57640029D01*
X75420083Y-57635355D01*
X75419000Y-57624359D01*
X75419000Y-57335641D01*
X75420083Y-57324645D01*
X75421501Y-57319971D01*
X75423800Y-57315670D01*
X75429029Y-57309298D01*
X75442643Y-57288924D01*
X75452020Y-57266285D01*
X75456800Y-57242251D01*
X75456800Y-57217747D01*
X75452019Y-57193714D01*
X75442642Y-57171075D01*
X75429029Y-57150702D01*
X75423800Y-57144330D01*
X75421501Y-57140029D01*
X75420083Y-57135355D01*
X75419000Y-57124359D01*
X75419000Y-56835641D01*
X75420083Y-56824645D01*
X75421501Y-56819971D01*
X75423800Y-56815670D01*
X75429029Y-56809298D01*
X75442643Y-56788924D01*
X75452020Y-56766285D01*
X75456800Y-56742251D01*
X75456800Y-56717747D01*
X75452019Y-56693714D01*
X75442642Y-56671075D01*
X75429029Y-56650702D01*
X75423800Y-56644330D01*
X75421501Y-56640029D01*
X75420083Y-56635355D01*
X75419000Y-56624359D01*
X75419000Y-56335641D01*
X75420083Y-56324645D01*
X75421501Y-56319971D01*
X75423800Y-56315670D01*
X75429029Y-56309298D01*
X75442643Y-56288924D01*
X75452020Y-56266285D01*
X75456800Y-56242251D01*
X75456800Y-56217747D01*
X75452019Y-56193714D01*
X75442642Y-56171075D01*
X75429029Y-56150702D01*
X75423800Y-56144330D01*
X75421501Y-56140029D01*
X75420083Y-56135355D01*
X75419000Y-56124359D01*
X75419000Y-55835641D01*
X75420083Y-55824645D01*
X75421501Y-55819971D01*
X75423800Y-55815670D01*
X75429029Y-55809298D01*
X75442643Y-55788924D01*
X75452020Y-55766285D01*
X75456800Y-55742251D01*
X75456800Y-55717749D01*
X76283200Y-55717749D01*
X76283200Y-55742253D01*
X76287981Y-55766286D01*
X76297358Y-55788925D01*
X76310971Y-55809298D01*
X76316200Y-55815670D01*
X76318499Y-55819971D01*
X76319917Y-55824645D01*
X76321000Y-55835641D01*
X76321000Y-56124359D01*
X76319917Y-56135355D01*
X76318499Y-56140029D01*
X76316200Y-56144330D01*
X76310971Y-56150702D01*
X76297357Y-56171076D01*
X76287980Y-56193715D01*
X76283200Y-56217749D01*
X76283200Y-56242253D01*
X76287981Y-56266286D01*
X76297358Y-56288925D01*
X76310971Y-56309298D01*
X76316200Y-56315670D01*
X76318499Y-56319971D01*
X76319917Y-56324645D01*
X76321000Y-56335641D01*
X76321000Y-56624359D01*
X76319917Y-56635355D01*
X76318499Y-56640029D01*
X76316200Y-56644330D01*
X76310971Y-56650702D01*
X76297357Y-56671076D01*
X76287980Y-56693715D01*
X76283200Y-56717749D01*
X76283200Y-56742253D01*
X76287981Y-56766286D01*
X76297358Y-56788925D01*
X76310971Y-56809298D01*
X76316200Y-56815670D01*
X76318499Y-56819971D01*
X76319917Y-56824645D01*
X76321000Y-56835641D01*
X76321000Y-57124359D01*
X76319917Y-57135355D01*
X76318499Y-57140029D01*
X76316200Y-57144330D01*
X76310971Y-57150702D01*
X76297357Y-57171076D01*
X76287980Y-57193715D01*
X76283200Y-57217749D01*
X76283200Y-57242253D01*
X76287981Y-57266286D01*
X76297358Y-57288925D01*
X76310971Y-57309298D01*
X76316200Y-57315670D01*
X76318499Y-57319971D01*
X76319917Y-57324645D01*
X76321000Y-57335641D01*
X76321000Y-57624359D01*
X76319917Y-57635355D01*
X76318499Y-57640029D01*
X76316200Y-57644330D01*
X76310971Y-57650702D01*
X76297357Y-57671076D01*
X76287980Y-57693715D01*
X76283200Y-57717749D01*
X76283200Y-57742253D01*
X76287981Y-57766286D01*
X76297358Y-57788925D01*
X76310971Y-57809298D01*
X76316200Y-57815670D01*
X76318499Y-57819971D01*
X76319917Y-57824645D01*
X76321000Y-57835641D01*
X76321000Y-58124359D01*
X76319917Y-58135355D01*
X76318499Y-58140029D01*
X76316200Y-58144330D01*
X76310971Y-58150702D01*
X76297357Y-58171076D01*
X76287980Y-58193715D01*
X76283200Y-58217749D01*
X76283200Y-58242253D01*
X76287981Y-58266286D01*
X76297358Y-58288925D01*
X76310971Y-58309298D01*
X76316200Y-58315670D01*
X76318499Y-58319971D01*
X76319917Y-58324645D01*
X76321000Y-58335641D01*
X76321000Y-58624359D01*
X76319917Y-58635355D01*
X76318499Y-58640029D01*
X76316200Y-58644330D01*
X76310971Y-58650702D01*
X76297357Y-58671076D01*
X76287980Y-58693715D01*
X76283200Y-58717749D01*
X76283200Y-58742253D01*
X76287981Y-58766286D01*
X76297358Y-58788925D01*
X76310971Y-58809298D01*
X76316200Y-58815670D01*
X76318499Y-58819971D01*
X76319917Y-58824645D01*
X76321000Y-58835641D01*
X76321000Y-59104001D01*
X76323402Y-59128387D01*
X76330515Y-59151836D01*
X76342066Y-59173447D01*
X76357611Y-59192389D01*
X76376553Y-59207934D01*
X76398164Y-59219485D01*
X76421613Y-59226598D01*
X76445999Y-59229000D01*
X76714359Y-59229000D01*
X76725355Y-59230083D01*
X76730029Y-59231501D01*
X76734330Y-59233800D01*
X76740702Y-59239029D01*
X76761076Y-59252643D01*
X76783715Y-59262020D01*
X76807749Y-59266800D01*
X76832253Y-59266800D01*
X76856286Y-59262019D01*
X76878925Y-59252642D01*
X76899298Y-59239029D01*
X76905670Y-59233800D01*
X76909971Y-59231501D01*
X76914645Y-59230083D01*
X76925641Y-59229000D01*
X77214359Y-59229000D01*
X77225355Y-59230083D01*
X77230029Y-59231501D01*
X77234330Y-59233800D01*
X77240702Y-59239029D01*
X77261076Y-59252643D01*
X77283715Y-59262020D01*
X77307749Y-59266800D01*
X77332253Y-59266800D01*
X77356286Y-59262019D01*
X77378925Y-59252642D01*
X77399298Y-59239029D01*
X77405670Y-59233800D01*
X77409971Y-59231501D01*
X77414645Y-59230083D01*
X77425641Y-59229000D01*
X77714359Y-59229000D01*
X77725355Y-59230083D01*
X77730029Y-59231501D01*
X77734330Y-59233800D01*
X77740702Y-59239029D01*
X77761076Y-59252643D01*
X77783715Y-59262020D01*
X77807749Y-59266800D01*
X77832253Y-59266800D01*
X77856286Y-59262019D01*
X77878925Y-59252642D01*
X77899298Y-59239029D01*
X77905670Y-59233800D01*
X77909971Y-59231501D01*
X77914645Y-59230083D01*
X77925641Y-59229000D01*
X78214359Y-59229000D01*
X78225355Y-59230083D01*
X78230029Y-59231501D01*
X78234330Y-59233800D01*
X78240702Y-59239029D01*
X78261076Y-59252643D01*
X78283715Y-59262020D01*
X78307749Y-59266800D01*
X78332253Y-59266800D01*
X78356286Y-59262019D01*
X78378925Y-59252642D01*
X78399298Y-59239029D01*
X78405670Y-59233800D01*
X78409971Y-59231501D01*
X78414645Y-59230083D01*
X78425641Y-59229000D01*
X78714359Y-59229000D01*
X78725355Y-59230083D01*
X78730029Y-59231501D01*
X78734330Y-59233800D01*
X78740702Y-59239029D01*
X78761076Y-59252643D01*
X78783715Y-59262020D01*
X78807749Y-59266800D01*
X78832253Y-59266800D01*
X78856286Y-59262019D01*
X78878925Y-59252642D01*
X78899298Y-59239029D01*
X78905670Y-59233800D01*
X78909971Y-59231501D01*
X78914645Y-59230083D01*
X78925641Y-59229000D01*
X79214359Y-59229000D01*
X79225355Y-59230083D01*
X79230029Y-59231501D01*
X79234330Y-59233800D01*
X79240702Y-59239029D01*
X79261076Y-59252643D01*
X79283715Y-59262020D01*
X79307749Y-59266800D01*
X79332253Y-59266800D01*
X79356286Y-59262019D01*
X79378925Y-59252642D01*
X79399298Y-59239029D01*
X79405670Y-59233800D01*
X79409971Y-59231501D01*
X79414645Y-59230083D01*
X79425641Y-59229000D01*
X79714359Y-59229000D01*
X79725355Y-59230083D01*
X79730029Y-59231501D01*
X79734330Y-59233800D01*
X79740702Y-59239029D01*
X79761076Y-59252643D01*
X79783715Y-59262020D01*
X79807749Y-59266800D01*
X79832253Y-59266800D01*
X79856286Y-59262019D01*
X79878925Y-59252642D01*
X79899298Y-59239029D01*
X79905670Y-59233800D01*
X79909971Y-59231501D01*
X79914645Y-59230083D01*
X79925641Y-59229000D01*
X80194001Y-59229000D01*
X80218387Y-59226598D01*
X80241836Y-59219485D01*
X80263447Y-59207934D01*
X80282389Y-59192389D01*
X80297934Y-59173447D01*
X80309485Y-59151836D01*
X80316598Y-59128387D01*
X80319000Y-59104001D01*
X80319000Y-58835641D01*
X80320083Y-58824645D01*
X80321501Y-58819971D01*
X80323800Y-58815670D01*
X80329029Y-58809298D01*
X80342643Y-58788924D01*
X80352020Y-58766285D01*
X80356800Y-58742251D01*
X80356800Y-58717747D01*
X80352019Y-58693714D01*
X80342642Y-58671075D01*
X80329029Y-58650702D01*
X80323800Y-58644330D01*
X80321501Y-58640029D01*
X80320083Y-58635355D01*
X80319000Y-58624359D01*
X80319000Y-58335641D01*
X80320083Y-58324645D01*
X80321501Y-58319971D01*
X80323800Y-58315670D01*
X80329029Y-58309298D01*
X80342643Y-58288924D01*
X80352020Y-58266285D01*
X80356800Y-58242251D01*
X80356800Y-58217747D01*
X80352019Y-58193714D01*
X80342642Y-58171075D01*
X80329029Y-58150702D01*
X80323800Y-58144330D01*
X80321501Y-58140029D01*
X80320083Y-58135355D01*
X80319000Y-58124359D01*
X80319000Y-57835641D01*
X80320083Y-57824645D01*
X80321501Y-57819971D01*
X80323800Y-57815670D01*
X80329029Y-57809298D01*
X80342643Y-57788924D01*
X80352020Y-57766285D01*
X80356800Y-57742251D01*
X80356800Y-57717747D01*
X80352019Y-57693714D01*
X80342642Y-57671075D01*
X80329029Y-57650702D01*
X80323800Y-57644330D01*
X80321501Y-57640029D01*
X80320083Y-57635355D01*
X80319000Y-57624359D01*
X80319000Y-57335641D01*
X80320083Y-57324645D01*
X80321501Y-57319971D01*
X80323800Y-57315670D01*
X80329029Y-57309298D01*
X80342643Y-57288924D01*
X80352020Y-57266285D01*
X80356800Y-57242251D01*
X80356800Y-57217747D01*
X80352019Y-57193714D01*
X80342642Y-57171075D01*
X80329029Y-57150702D01*
X80323800Y-57144330D01*
X80321501Y-57140029D01*
X80320083Y-57135355D01*
X80319000Y-57124359D01*
X80319000Y-56835641D01*
X80320083Y-56824645D01*
X80321501Y-56819971D01*
X80323800Y-56815670D01*
X80329029Y-56809298D01*
X80342643Y-56788924D01*
X80352020Y-56766285D01*
X80356800Y-56742251D01*
X80356800Y-56717747D01*
X80352019Y-56693714D01*
X80342642Y-56671075D01*
X80329029Y-56650702D01*
X80323800Y-56644330D01*
X80321501Y-56640029D01*
X80320083Y-56635355D01*
X80319000Y-56624359D01*
X80319000Y-56335641D01*
X80320083Y-56324645D01*
X80321501Y-56319971D01*
X80323800Y-56315670D01*
X80329029Y-56309298D01*
X80342643Y-56288924D01*
X80352020Y-56266285D01*
X80356800Y-56242251D01*
X80356800Y-56217747D01*
X80352019Y-56193714D01*
X80342642Y-56171075D01*
X80329029Y-56150702D01*
X80323800Y-56144330D01*
X80321501Y-56140029D01*
X80320083Y-56135355D01*
X80319000Y-56124359D01*
X80319000Y-55835641D01*
X80320083Y-55824645D01*
X80321501Y-55819971D01*
X80323800Y-55815670D01*
X80329029Y-55809298D01*
X80342643Y-55788924D01*
X80352020Y-55766285D01*
X80356800Y-55742251D01*
X80356800Y-55717747D01*
X80352019Y-55693714D01*
X80342642Y-55671075D01*
X80329029Y-55650702D01*
X80323800Y-55644330D01*
X80321501Y-55640029D01*
X80320083Y-55635355D01*
X80319000Y-55624359D01*
X80319000Y-55355999D01*
X80316598Y-55331613D01*
X80309485Y-55308164D01*
X80297934Y-55286553D01*
X80282389Y-55267611D01*
X80263447Y-55252066D01*
X80241836Y-55240515D01*
X80218387Y-55233402D01*
X80194001Y-55231000D01*
X79925641Y-55231000D01*
X79914645Y-55229917D01*
X79909971Y-55228499D01*
X79905670Y-55226200D01*
X79899298Y-55220971D01*
X79878924Y-55207357D01*
X79856285Y-55197980D01*
X79832251Y-55193200D01*
X79807747Y-55193200D01*
X79783714Y-55197981D01*
X79761075Y-55207358D01*
X79740702Y-55220971D01*
X79734330Y-55226200D01*
X79730029Y-55228499D01*
X79725355Y-55229917D01*
X79714359Y-55231000D01*
X79425641Y-55231000D01*
X79414645Y-55229917D01*
X79409971Y-55228499D01*
X79405670Y-55226200D01*
X79399298Y-55220971D01*
X79378924Y-55207357D01*
X79356285Y-55197980D01*
X79332251Y-55193200D01*
X79307747Y-55193200D01*
X79283714Y-55197981D01*
X79261075Y-55207358D01*
X79240702Y-55220971D01*
X79234330Y-55226200D01*
X79230029Y-55228499D01*
X79225355Y-55229917D01*
X79214359Y-55231000D01*
X78925641Y-55231000D01*
X78914645Y-55229917D01*
X78909971Y-55228499D01*
X78905670Y-55226200D01*
X78899298Y-55220971D01*
X78878924Y-55207357D01*
X78856285Y-55197980D01*
X78832251Y-55193200D01*
X78807747Y-55193200D01*
X78783714Y-55197981D01*
X78761075Y-55207358D01*
X78740702Y-55220971D01*
X78734330Y-55226200D01*
X78730029Y-55228499D01*
X78725355Y-55229917D01*
X78714359Y-55231000D01*
X78425641Y-55231000D01*
X78414645Y-55229917D01*
X78409971Y-55228499D01*
X78405670Y-55226200D01*
X78399298Y-55220971D01*
X78378924Y-55207357D01*
X78356285Y-55197980D01*
X78332251Y-55193200D01*
X78307747Y-55193200D01*
X78283714Y-55197981D01*
X78261075Y-55207358D01*
X78240702Y-55220971D01*
X78234330Y-55226200D01*
X78230029Y-55228499D01*
X78225355Y-55229917D01*
X78214359Y-55231000D01*
X77925641Y-55231000D01*
X77914645Y-55229917D01*
X77909971Y-55228499D01*
X77905670Y-55226200D01*
X77899298Y-55220971D01*
X77878924Y-55207357D01*
X77856285Y-55197980D01*
X77832251Y-55193200D01*
X77807747Y-55193200D01*
X77783714Y-55197981D01*
X77761075Y-55207358D01*
X77740702Y-55220971D01*
X77734330Y-55226200D01*
X77730029Y-55228499D01*
X77725355Y-55229917D01*
X77714359Y-55231000D01*
X77425641Y-55231000D01*
X77414645Y-55229917D01*
X77409971Y-55228499D01*
X77405670Y-55226200D01*
X77399298Y-55220971D01*
X77378924Y-55207357D01*
X77356285Y-55197980D01*
X77332251Y-55193200D01*
X77307747Y-55193200D01*
X77283714Y-55197981D01*
X77261075Y-55207358D01*
X77240702Y-55220971D01*
X77234330Y-55226200D01*
X77230029Y-55228499D01*
X77225355Y-55229917D01*
X77214359Y-55231000D01*
X76925641Y-55231000D01*
X76914645Y-55229917D01*
X76909971Y-55228499D01*
X76905670Y-55226200D01*
X76899298Y-55220971D01*
X76878924Y-55207357D01*
X76856285Y-55197980D01*
X76832251Y-55193200D01*
X76807747Y-55193200D01*
X76783714Y-55197981D01*
X76761075Y-55207358D01*
X76740702Y-55220971D01*
X76734330Y-55226200D01*
X76730029Y-55228499D01*
X76725355Y-55229917D01*
X76714359Y-55231000D01*
X76445999Y-55231000D01*
X76421613Y-55233402D01*
X76398164Y-55240515D01*
X76376553Y-55252066D01*
X76357611Y-55267611D01*
X76342066Y-55286553D01*
X76330515Y-55308164D01*
X76323402Y-55331613D01*
X76321000Y-55355999D01*
X76321000Y-55624359D01*
X76319917Y-55635355D01*
X76318499Y-55640029D01*
X76316200Y-55644330D01*
X76310971Y-55650702D01*
X76297357Y-55671076D01*
X76287980Y-55693715D01*
X76283200Y-55717749D01*
X75456800Y-55717749D01*
X75456800Y-55717747D01*
X75452019Y-55693714D01*
X75442642Y-55671075D01*
X75429029Y-55650702D01*
X75423800Y-55644330D01*
X75421501Y-55640029D01*
X75420083Y-55635355D01*
X75419000Y-55624359D01*
X75419000Y-55335641D01*
X75420083Y-55324645D01*
X75421501Y-55319971D01*
X75423800Y-55315669D01*
X75426896Y-55311896D01*
X75430669Y-55308800D01*
X75434971Y-55306501D01*
X75439645Y-55305083D01*
X75450641Y-55304000D01*
X76269001Y-55304000D01*
X76293387Y-55301598D01*
X76316836Y-55294485D01*
X76338447Y-55282934D01*
X76357389Y-55267389D01*
X76372934Y-55248447D01*
X76384485Y-55226836D01*
X76391598Y-55203387D01*
X76394000Y-55179001D01*
X76394000Y-54360641D01*
X76395083Y-54349645D01*
X76396501Y-54344971D01*
X76398800Y-54340669D01*
X76401896Y-54336896D01*
X76405669Y-54333800D01*
X76409971Y-54331501D01*
X76414645Y-54330083D01*
X76425641Y-54329000D01*
X76714359Y-54329000D01*
X76725355Y-54330083D01*
G37*
G36*
X66761000Y-60021000D02*
G01*
X64459000Y-60021000D01*
X64459000Y-58869000D01*
X66761000Y-58869000D01*
X66761000Y-60021000D01*
G37*
G36*
X72821938Y-58711716D02*
G01*
X72842557Y-58717971D01*
X72861553Y-58728124D01*
X72878208Y-58741792D01*
X72891876Y-58758447D01*
X72902029Y-58777443D01*
X72908284Y-58798062D01*
X72911000Y-58825640D01*
X72911000Y-59284360D01*
X72908284Y-59311938D01*
X72902029Y-59332557D01*
X72891876Y-59351553D01*
X72878208Y-59368208D01*
X72861553Y-59381876D01*
X72842557Y-59392029D01*
X72821938Y-59398284D01*
X72794360Y-59401000D01*
X72285640Y-59401000D01*
X72258062Y-59398284D01*
X72237443Y-59392029D01*
X72218447Y-59381876D01*
X72201792Y-59368208D01*
X72188124Y-59351553D01*
X72177971Y-59332557D01*
X72171716Y-59311938D01*
X72169000Y-59284360D01*
X72169000Y-58825640D01*
X72171716Y-58798062D01*
X72177971Y-58777443D01*
X72188124Y-58758447D01*
X72201792Y-58741792D01*
X72218447Y-58728124D01*
X72237443Y-58717971D01*
X72258062Y-58711716D01*
X72285640Y-58709000D01*
X72794360Y-58709000D01*
X72821938Y-58711716D01*
G37*
G36*
X64661000Y-58521000D02*
G01*
X63559000Y-58521000D01*
X63559000Y-57419000D01*
X64661000Y-57419000D01*
X64661000Y-58521000D01*
G37*
G36*
X67661000Y-58521000D02*
G01*
X66559000Y-58521000D01*
X66559000Y-57419000D01*
X67661000Y-57419000D01*
X67661000Y-58521000D01*
G37*
G36*
X72781938Y-57571716D02*
G01*
X72802557Y-57577971D01*
X72821553Y-57588124D01*
X72838208Y-57601792D01*
X72851876Y-57618447D01*
X72862029Y-57637443D01*
X72868284Y-57658062D01*
X72871000Y-57685640D01*
X72871000Y-58194360D01*
X72868284Y-58221938D01*
X72862029Y-58242557D01*
X72851876Y-58261553D01*
X72838208Y-58278208D01*
X72821553Y-58291876D01*
X72802557Y-58302029D01*
X72781938Y-58308284D01*
X72754360Y-58311000D01*
X72295640Y-58311000D01*
X72268062Y-58308284D01*
X72247443Y-58302029D01*
X72228447Y-58291876D01*
X72211792Y-58278208D01*
X72198124Y-58261553D01*
X72187971Y-58242557D01*
X72181716Y-58221938D01*
X72179000Y-58194360D01*
X72179000Y-57685640D01*
X72181716Y-57658062D01*
X72187971Y-57637443D01*
X72198124Y-57618447D01*
X72211792Y-57601792D01*
X72228447Y-57588124D01*
X72247443Y-57577971D01*
X72268062Y-57571716D01*
X72295640Y-57569000D01*
X72754360Y-57569000D01*
X72781938Y-57571716D01*
G37*
G36*
X70416938Y-57571716D02*
G01*
X70437557Y-57577971D01*
X70456553Y-57588124D01*
X70473208Y-57601792D01*
X70486876Y-57618447D01*
X70497029Y-57637443D01*
X70503284Y-57658062D01*
X70506000Y-57685640D01*
X70506000Y-58194360D01*
X70503284Y-58221938D01*
X70497029Y-58242557D01*
X70486876Y-58261553D01*
X70473208Y-58278208D01*
X70456553Y-58291876D01*
X70437557Y-58302029D01*
X70416938Y-58308284D01*
X70389360Y-58311000D01*
X69930640Y-58311000D01*
X69903062Y-58308284D01*
X69882443Y-58302029D01*
X69863447Y-58291876D01*
X69846792Y-58278208D01*
X69833124Y-58261553D01*
X69822971Y-58242557D01*
X69816716Y-58221938D01*
X69814000Y-58194360D01*
X69814000Y-57685640D01*
X69816716Y-57658062D01*
X69822971Y-57637443D01*
X69833124Y-57618447D01*
X69846792Y-57601792D01*
X69863447Y-57588124D01*
X69882443Y-57577971D01*
X69903062Y-57571716D01*
X69930640Y-57569000D01*
X70389360Y-57569000D01*
X70416938Y-57571716D01*
G37*
G36*
X71811938Y-57571716D02*
G01*
X71832557Y-57577971D01*
X71851553Y-57588124D01*
X71868208Y-57601792D01*
X71881876Y-57618447D01*
X71892029Y-57637443D01*
X71898284Y-57658062D01*
X71901000Y-57685640D01*
X71901000Y-58194360D01*
X71898284Y-58221938D01*
X71892029Y-58242557D01*
X71881876Y-58261553D01*
X71868208Y-58278208D01*
X71851553Y-58291876D01*
X71832557Y-58302029D01*
X71811938Y-58308284D01*
X71784360Y-58311000D01*
X71325640Y-58311000D01*
X71298062Y-58308284D01*
X71277443Y-58302029D01*
X71258447Y-58291876D01*
X71241792Y-58278208D01*
X71228124Y-58261553D01*
X71217971Y-58242557D01*
X71211716Y-58221938D01*
X71209000Y-58194360D01*
X71209000Y-57685640D01*
X71211716Y-57658062D01*
X71217971Y-57637443D01*
X71228124Y-57618447D01*
X71241792Y-57601792D01*
X71258447Y-57588124D01*
X71277443Y-57577971D01*
X71298062Y-57571716D01*
X71325640Y-57569000D01*
X71784360Y-57569000D01*
X71811938Y-57571716D01*
G37*
G36*
X69446938Y-57571716D02*
G01*
X69467557Y-57577971D01*
X69486553Y-57588124D01*
X69503208Y-57601792D01*
X69516876Y-57618447D01*
X69527029Y-57637443D01*
X69533284Y-57658062D01*
X69536000Y-57685640D01*
X69536000Y-58194360D01*
X69533284Y-58221938D01*
X69527029Y-58242557D01*
X69516876Y-58261553D01*
X69503208Y-58278208D01*
X69486553Y-58291876D01*
X69467557Y-58302029D01*
X69446938Y-58308284D01*
X69419360Y-58311000D01*
X68960640Y-58311000D01*
X68933062Y-58308284D01*
X68912443Y-58302029D01*
X68893447Y-58291876D01*
X68876792Y-58278208D01*
X68863124Y-58261553D01*
X68852971Y-58242557D01*
X68846716Y-58221938D01*
X68844000Y-58194360D01*
X68844000Y-57685640D01*
X68846716Y-57658062D01*
X68852971Y-57637443D01*
X68863124Y-57618447D01*
X68876792Y-57601792D01*
X68893447Y-57588124D01*
X68912443Y-57577971D01*
X68933062Y-57571716D01*
X68960640Y-57569000D01*
X69419360Y-57569000D01*
X69446938Y-57571716D01*
G37*
G36*
X73861938Y-57596716D02*
G01*
X73882557Y-57602971D01*
X73901553Y-57613124D01*
X73918208Y-57626792D01*
X73931876Y-57643447D01*
X73942029Y-57662443D01*
X73948284Y-57683062D01*
X73951000Y-57710640D01*
X73951000Y-58169360D01*
X73948284Y-58196938D01*
X73942029Y-58217557D01*
X73931876Y-58236553D01*
X73918208Y-58253208D01*
X73901553Y-58266876D01*
X73882557Y-58277029D01*
X73861938Y-58283284D01*
X73834360Y-58286000D01*
X73325640Y-58286000D01*
X73298062Y-58283284D01*
X73277443Y-58277029D01*
X73258447Y-58266876D01*
X73241792Y-58253208D01*
X73228124Y-58236553D01*
X73217971Y-58217557D01*
X73211716Y-58196938D01*
X73209000Y-58169360D01*
X73209000Y-57710640D01*
X73211716Y-57683062D01*
X73217971Y-57662443D01*
X73228124Y-57643447D01*
X73241792Y-57626792D01*
X73258447Y-57613124D01*
X73277443Y-57602971D01*
X73298062Y-57596716D01*
X73325640Y-57594000D01*
X73834360Y-57594000D01*
X73861938Y-57596716D01*
G37*
G36*
X113444591Y-56768085D02*
G01*
X113478569Y-56778393D01*
X113509890Y-56795134D01*
X113537339Y-56817661D01*
X113559866Y-56845110D01*
X113576607Y-56876431D01*
X113586915Y-56910409D01*
X113591000Y-56951890D01*
X113591000Y-57628110D01*
X113586915Y-57669591D01*
X113576607Y-57703569D01*
X113559866Y-57734890D01*
X113537339Y-57762339D01*
X113509890Y-57784866D01*
X113478569Y-57801607D01*
X113444591Y-57811915D01*
X113403110Y-57816000D01*
X112801890Y-57816000D01*
X112760409Y-57811915D01*
X112726431Y-57801607D01*
X112695110Y-57784866D01*
X112667661Y-57762339D01*
X112645134Y-57734890D01*
X112628393Y-57703569D01*
X112618085Y-57669591D01*
X112614000Y-57628110D01*
X112614000Y-56951890D01*
X112618085Y-56910409D01*
X112628393Y-56876431D01*
X112645134Y-56845110D01*
X112667661Y-56817661D01*
X112695110Y-56795134D01*
X112726431Y-56778393D01*
X112760409Y-56768085D01*
X112801890Y-56764000D01*
X113403110Y-56764000D01*
X113444591Y-56768085D01*
G37*
G36*
X115019591Y-56768085D02*
G01*
X115053569Y-56778393D01*
X115084890Y-56795134D01*
X115112339Y-56817661D01*
X115134866Y-56845110D01*
X115151607Y-56876431D01*
X115161915Y-56910409D01*
X115166000Y-56951890D01*
X115166000Y-57628110D01*
X115161915Y-57669591D01*
X115151607Y-57703569D01*
X115134866Y-57734890D01*
X115112339Y-57762339D01*
X115084890Y-57784866D01*
X115053569Y-57801607D01*
X115019591Y-57811915D01*
X114978110Y-57816000D01*
X114376890Y-57816000D01*
X114335409Y-57811915D01*
X114301431Y-57801607D01*
X114270110Y-57784866D01*
X114242661Y-57762339D01*
X114220134Y-57734890D01*
X114203393Y-57703569D01*
X114193085Y-57669591D01*
X114189000Y-57628110D01*
X114189000Y-56951890D01*
X114193085Y-56910409D01*
X114203393Y-56876431D01*
X114220134Y-56845110D01*
X114242661Y-56817661D01*
X114270110Y-56795134D01*
X114301431Y-56778393D01*
X114335409Y-56768085D01*
X114376890Y-56764000D01*
X114978110Y-56764000D01*
X115019591Y-56768085D01*
G37*
G36*
X87094499Y-56638445D02*
G01*
X87131995Y-56649820D01*
X87166554Y-56668292D01*
X87196847Y-56693153D01*
X87221708Y-56723446D01*
X87240180Y-56758005D01*
X87251555Y-56795501D01*
X87256000Y-56840638D01*
X87256000Y-57579362D01*
X87251555Y-57624499D01*
X87240180Y-57661995D01*
X87221708Y-57696554D01*
X87196847Y-57726847D01*
X87166554Y-57751708D01*
X87131995Y-57770180D01*
X87094499Y-57781555D01*
X87049362Y-57786000D01*
X86410638Y-57786000D01*
X86365501Y-57781555D01*
X86328005Y-57770180D01*
X86293446Y-57751708D01*
X86263153Y-57726847D01*
X86238292Y-57696554D01*
X86219820Y-57661995D01*
X86208445Y-57624499D01*
X86204000Y-57579362D01*
X86204000Y-56840638D01*
X86208445Y-56795501D01*
X86219820Y-56758005D01*
X86238292Y-56723446D01*
X86263153Y-56693153D01*
X86293446Y-56668292D01*
X86328005Y-56649820D01*
X86365501Y-56638445D01*
X86410638Y-56634000D01*
X87049362Y-56634000D01*
X87094499Y-56638445D01*
G37*
G36*
X90724499Y-56638445D02*
G01*
X90761995Y-56649820D01*
X90796554Y-56668292D01*
X90826847Y-56693153D01*
X90851708Y-56723446D01*
X90870180Y-56758005D01*
X90881555Y-56795501D01*
X90886000Y-56840638D01*
X90886000Y-57579362D01*
X90881555Y-57624499D01*
X90870180Y-57661995D01*
X90851708Y-57696554D01*
X90826847Y-57726847D01*
X90796554Y-57751708D01*
X90761995Y-57770180D01*
X90724499Y-57781555D01*
X90679362Y-57786000D01*
X90040638Y-57786000D01*
X89995501Y-57781555D01*
X89958005Y-57770180D01*
X89923446Y-57751708D01*
X89893153Y-57726847D01*
X89868292Y-57696554D01*
X89849820Y-57661995D01*
X89838445Y-57624499D01*
X89834000Y-57579362D01*
X89834000Y-56840638D01*
X89838445Y-56795501D01*
X89849820Y-56758005D01*
X89868292Y-56723446D01*
X89893153Y-56693153D01*
X89923446Y-56668292D01*
X89958005Y-56649820D01*
X89995501Y-56638445D01*
X90040638Y-56634000D01*
X90679362Y-56634000D01*
X90724499Y-56638445D01*
G37*
G36*
X88874499Y-56638445D02*
G01*
X88911995Y-56649820D01*
X88946554Y-56668292D01*
X88976847Y-56693153D01*
X89001708Y-56723446D01*
X89020180Y-56758005D01*
X89031555Y-56795501D01*
X89036000Y-56840638D01*
X89036000Y-57579362D01*
X89031555Y-57624499D01*
X89020180Y-57661995D01*
X89001708Y-57696554D01*
X88976847Y-57726847D01*
X88946554Y-57751708D01*
X88911995Y-57770180D01*
X88874499Y-57781555D01*
X88829362Y-57786000D01*
X88190638Y-57786000D01*
X88145501Y-57781555D01*
X88108005Y-57770180D01*
X88073446Y-57751708D01*
X88043153Y-57726847D01*
X88018292Y-57696554D01*
X87999820Y-57661995D01*
X87988445Y-57624499D01*
X87984000Y-57579362D01*
X87984000Y-56840638D01*
X87988445Y-56795501D01*
X87999820Y-56758005D01*
X88018292Y-56723446D01*
X88043153Y-56693153D01*
X88073446Y-56668292D01*
X88108005Y-56649820D01*
X88145501Y-56638445D01*
X88190638Y-56634000D01*
X88829362Y-56634000D01*
X88874499Y-56638445D01*
G37*
G36*
X84711938Y-57061716D02*
G01*
X84732557Y-57067971D01*
X84751553Y-57078124D01*
X84768208Y-57091792D01*
X84781876Y-57108447D01*
X84792029Y-57127443D01*
X84798284Y-57148062D01*
X84801000Y-57175640D01*
X84801000Y-57634360D01*
X84798284Y-57661938D01*
X84792029Y-57682557D01*
X84781876Y-57701553D01*
X84768208Y-57718208D01*
X84751553Y-57731876D01*
X84732557Y-57742029D01*
X84711938Y-57748284D01*
X84684360Y-57751000D01*
X84175640Y-57751000D01*
X84148062Y-57748284D01*
X84127443Y-57742029D01*
X84108447Y-57731876D01*
X84091792Y-57718208D01*
X84078124Y-57701553D01*
X84067971Y-57682557D01*
X84061716Y-57661938D01*
X84059000Y-57634360D01*
X84059000Y-57175640D01*
X84061716Y-57148062D01*
X84067971Y-57127443D01*
X84078124Y-57108447D01*
X84091792Y-57091792D01*
X84108447Y-57078124D01*
X84127443Y-57067971D01*
X84148062Y-57061716D01*
X84175640Y-57059000D01*
X84684360Y-57059000D01*
X84711938Y-57061716D01*
G37*
G36*
X83661938Y-57061716D02*
G01*
X83682557Y-57067971D01*
X83701553Y-57078124D01*
X83718208Y-57091792D01*
X83731876Y-57108447D01*
X83742029Y-57127443D01*
X83748284Y-57148062D01*
X83751000Y-57175640D01*
X83751000Y-57634360D01*
X83748284Y-57661938D01*
X83742029Y-57682557D01*
X83731876Y-57701553D01*
X83718208Y-57718208D01*
X83701553Y-57731876D01*
X83682557Y-57742029D01*
X83661938Y-57748284D01*
X83634360Y-57751000D01*
X83125640Y-57751000D01*
X83098062Y-57748284D01*
X83077443Y-57742029D01*
X83058447Y-57731876D01*
X83041792Y-57718208D01*
X83028124Y-57701553D01*
X83017971Y-57682557D01*
X83011716Y-57661938D01*
X83009000Y-57634360D01*
X83009000Y-57175640D01*
X83011716Y-57148062D01*
X83017971Y-57127443D01*
X83028124Y-57108447D01*
X83041792Y-57091792D01*
X83058447Y-57078124D01*
X83077443Y-57067971D01*
X83098062Y-57061716D01*
X83125640Y-57059000D01*
X83634360Y-57059000D01*
X83661938Y-57061716D01*
G37*
G36*
X102199591Y-56575585D02*
G01*
X102233569Y-56585893D01*
X102264890Y-56602634D01*
X102292339Y-56625161D01*
X102314866Y-56652610D01*
X102331607Y-56683931D01*
X102341915Y-56717909D01*
X102346000Y-56759390D01*
X102346000Y-57360610D01*
X102341915Y-57402091D01*
X102331607Y-57436069D01*
X102314866Y-57467390D01*
X102292339Y-57494839D01*
X102264890Y-57517366D01*
X102233569Y-57534107D01*
X102199591Y-57544415D01*
X102158110Y-57548500D01*
X101481890Y-57548500D01*
X101440409Y-57544415D01*
X101406431Y-57534107D01*
X101375110Y-57517366D01*
X101347661Y-57494839D01*
X101325134Y-57467390D01*
X101308393Y-57436069D01*
X101298085Y-57402091D01*
X101294000Y-57360610D01*
X101294000Y-56759390D01*
X101298085Y-56717909D01*
X101308393Y-56683931D01*
X101325134Y-56652610D01*
X101347661Y-56625161D01*
X101375110Y-56602634D01*
X101406431Y-56585893D01*
X101440409Y-56575585D01*
X101481890Y-56571500D01*
X102158110Y-56571500D01*
X102199591Y-56575585D01*
G37*
G36*
X104841000Y-57321000D02*
G01*
X103639000Y-57321000D01*
X103639000Y-56119000D01*
X104841000Y-56119000D01*
X104841000Y-57321000D01*
G37*
G36*
X107641000Y-57321000D02*
G01*
X106439000Y-57321000D01*
X106439000Y-56119000D01*
X107641000Y-56119000D01*
X107641000Y-57321000D01*
G37*
G36*
X73861938Y-56626716D02*
G01*
X73882557Y-56632971D01*
X73901553Y-56643124D01*
X73918208Y-56656792D01*
X73931876Y-56673447D01*
X73942029Y-56692443D01*
X73948284Y-56713062D01*
X73951000Y-56740640D01*
X73951000Y-57199360D01*
X73948284Y-57226938D01*
X73942029Y-57247557D01*
X73931876Y-57266553D01*
X73918208Y-57283208D01*
X73901553Y-57296876D01*
X73882557Y-57307029D01*
X73861938Y-57313284D01*
X73834360Y-57316000D01*
X73325640Y-57316000D01*
X73298062Y-57313284D01*
X73277443Y-57307029D01*
X73258447Y-57296876D01*
X73241792Y-57283208D01*
X73228124Y-57266553D01*
X73217971Y-57247557D01*
X73211716Y-57226938D01*
X73209000Y-57199360D01*
X73209000Y-56740640D01*
X73211716Y-56713062D01*
X73217971Y-56692443D01*
X73228124Y-56673447D01*
X73241792Y-56656792D01*
X73258447Y-56643124D01*
X73277443Y-56632971D01*
X73298062Y-56626716D01*
X73325640Y-56624000D01*
X73834360Y-56624000D01*
X73861938Y-56626716D01*
G37*
G36*
X66761000Y-57071000D02*
G01*
X64459000Y-57071000D01*
X64459000Y-55919000D01*
X66761000Y-55919000D01*
X66761000Y-57071000D01*
G37*
G36*
X71521938Y-56196716D02*
G01*
X71542557Y-56202971D01*
X71561553Y-56213124D01*
X71578208Y-56226792D01*
X71591876Y-56243447D01*
X71602029Y-56262443D01*
X71608284Y-56283062D01*
X71611000Y-56310640D01*
X71611000Y-56769360D01*
X71608284Y-56796938D01*
X71602029Y-56817557D01*
X71591876Y-56836553D01*
X71578208Y-56853208D01*
X71561553Y-56866876D01*
X71542557Y-56877029D01*
X71521938Y-56883284D01*
X71494360Y-56886000D01*
X70985640Y-56886000D01*
X70958062Y-56883284D01*
X70937443Y-56877029D01*
X70918447Y-56866876D01*
X70901792Y-56853208D01*
X70888124Y-56836553D01*
X70877971Y-56817557D01*
X70871716Y-56796938D01*
X70869000Y-56769360D01*
X70869000Y-56310640D01*
X70871716Y-56283062D01*
X70877971Y-56262443D01*
X70888124Y-56243447D01*
X70901792Y-56226792D01*
X70918447Y-56213124D01*
X70937443Y-56202971D01*
X70958062Y-56196716D01*
X70985640Y-56194000D01*
X71494360Y-56194000D01*
X71521938Y-56196716D01*
G37*
G36*
X72621938Y-56181716D02*
G01*
X72642557Y-56187971D01*
X72661553Y-56198124D01*
X72678208Y-56211792D01*
X72691876Y-56228447D01*
X72702029Y-56247443D01*
X72708284Y-56268062D01*
X72711000Y-56295640D01*
X72711000Y-56754360D01*
X72708284Y-56781938D01*
X72702029Y-56802557D01*
X72691876Y-56821553D01*
X72678208Y-56838208D01*
X72661553Y-56851876D01*
X72642557Y-56862029D01*
X72621938Y-56868284D01*
X72594360Y-56871000D01*
X72085640Y-56871000D01*
X72058062Y-56868284D01*
X72037443Y-56862029D01*
X72018447Y-56851876D01*
X72001792Y-56838208D01*
X71988124Y-56821553D01*
X71977971Y-56802557D01*
X71971716Y-56781938D01*
X71969000Y-56754360D01*
X71969000Y-56295640D01*
X71971716Y-56268062D01*
X71977971Y-56247443D01*
X71988124Y-56228447D01*
X72001792Y-56211792D01*
X72018447Y-56198124D01*
X72037443Y-56187971D01*
X72058062Y-56181716D01*
X72085640Y-56179000D01*
X72594360Y-56179000D01*
X72621938Y-56181716D01*
G37*
G36*
X84711938Y-56091716D02*
G01*
X84732557Y-56097971D01*
X84751553Y-56108124D01*
X84768208Y-56121792D01*
X84781876Y-56138447D01*
X84792029Y-56157443D01*
X84798284Y-56178062D01*
X84801000Y-56205640D01*
X84801000Y-56664360D01*
X84798284Y-56691938D01*
X84792029Y-56712557D01*
X84781876Y-56731553D01*
X84768208Y-56748208D01*
X84751553Y-56761876D01*
X84732557Y-56772029D01*
X84711938Y-56778284D01*
X84684360Y-56781000D01*
X84175640Y-56781000D01*
X84148062Y-56778284D01*
X84127443Y-56772029D01*
X84108447Y-56761876D01*
X84091792Y-56748208D01*
X84078124Y-56731553D01*
X84067971Y-56712557D01*
X84061716Y-56691938D01*
X84059000Y-56664360D01*
X84059000Y-56205640D01*
X84061716Y-56178062D01*
X84067971Y-56157443D01*
X84078124Y-56138447D01*
X84091792Y-56121792D01*
X84108447Y-56108124D01*
X84127443Y-56097971D01*
X84148062Y-56091716D01*
X84175640Y-56089000D01*
X84684360Y-56089000D01*
X84711938Y-56091716D01*
G37*
G36*
X83661938Y-56091716D02*
G01*
X83682557Y-56097971D01*
X83701553Y-56108124D01*
X83718208Y-56121792D01*
X83731876Y-56138447D01*
X83742029Y-56157443D01*
X83748284Y-56178062D01*
X83751000Y-56205640D01*
X83751000Y-56664360D01*
X83748284Y-56691938D01*
X83742029Y-56712557D01*
X83731876Y-56731553D01*
X83718208Y-56748208D01*
X83701553Y-56761876D01*
X83682557Y-56772029D01*
X83661938Y-56778284D01*
X83634360Y-56781000D01*
X83125640Y-56781000D01*
X83098062Y-56778284D01*
X83077443Y-56772029D01*
X83058447Y-56761876D01*
X83041792Y-56748208D01*
X83028124Y-56731553D01*
X83017971Y-56712557D01*
X83011716Y-56691938D01*
X83009000Y-56664360D01*
X83009000Y-56205640D01*
X83011716Y-56178062D01*
X83017971Y-56157443D01*
X83028124Y-56138447D01*
X83041792Y-56121792D01*
X83058447Y-56108124D01*
X83077443Y-56097971D01*
X83098062Y-56091716D01*
X83125640Y-56089000D01*
X83634360Y-56089000D01*
X83661938Y-56091716D01*
G37*
G36*
X88874499Y-54888445D02*
G01*
X88911995Y-54899820D01*
X88946554Y-54918292D01*
X88976847Y-54943153D01*
X89001708Y-54973446D01*
X89020180Y-55008005D01*
X89031555Y-55045501D01*
X89036000Y-55090638D01*
X89036000Y-55829362D01*
X89031555Y-55874499D01*
X89020180Y-55911995D01*
X89001708Y-55946554D01*
X88976847Y-55976847D01*
X88946554Y-56001708D01*
X88911995Y-56020180D01*
X88874499Y-56031555D01*
X88829362Y-56036000D01*
X88190638Y-56036000D01*
X88145501Y-56031555D01*
X88108005Y-56020180D01*
X88073446Y-56001708D01*
X88043153Y-55976847D01*
X88018292Y-55946554D01*
X87999820Y-55911995D01*
X87988445Y-55874499D01*
X87984000Y-55829362D01*
X87984000Y-55090638D01*
X87988445Y-55045501D01*
X87999820Y-55008005D01*
X88018292Y-54973446D01*
X88043153Y-54943153D01*
X88073446Y-54918292D01*
X88108005Y-54899820D01*
X88145501Y-54888445D01*
X88190638Y-54884000D01*
X88829362Y-54884000D01*
X88874499Y-54888445D01*
G37*
G36*
X87094499Y-54888445D02*
G01*
X87131995Y-54899820D01*
X87166554Y-54918292D01*
X87196847Y-54943153D01*
X87221708Y-54973446D01*
X87240180Y-55008005D01*
X87251555Y-55045501D01*
X87256000Y-55090638D01*
X87256000Y-55829362D01*
X87251555Y-55874499D01*
X87240180Y-55911995D01*
X87221708Y-55946554D01*
X87196847Y-55976847D01*
X87166554Y-56001708D01*
X87131995Y-56020180D01*
X87094499Y-56031555D01*
X87049362Y-56036000D01*
X86410638Y-56036000D01*
X86365501Y-56031555D01*
X86328005Y-56020180D01*
X86293446Y-56001708D01*
X86263153Y-55976847D01*
X86238292Y-55946554D01*
X86219820Y-55911995D01*
X86208445Y-55874499D01*
X86204000Y-55829362D01*
X86204000Y-55090638D01*
X86208445Y-55045501D01*
X86219820Y-55008005D01*
X86238292Y-54973446D01*
X86263153Y-54943153D01*
X86293446Y-54918292D01*
X86328005Y-54899820D01*
X86365501Y-54888445D01*
X86410638Y-54884000D01*
X87049362Y-54884000D01*
X87094499Y-54888445D01*
G37*
G36*
X90724499Y-54888445D02*
G01*
X90761995Y-54899820D01*
X90796554Y-54918292D01*
X90826847Y-54943153D01*
X90851708Y-54973446D01*
X90870180Y-55008005D01*
X90881555Y-55045501D01*
X90886000Y-55090638D01*
X90886000Y-55829362D01*
X90881555Y-55874499D01*
X90870180Y-55911995D01*
X90851708Y-55946554D01*
X90826847Y-55976847D01*
X90796554Y-56001708D01*
X90761995Y-56020180D01*
X90724499Y-56031555D01*
X90679362Y-56036000D01*
X90040638Y-56036000D01*
X89995501Y-56031555D01*
X89958005Y-56020180D01*
X89923446Y-56001708D01*
X89893153Y-55976847D01*
X89868292Y-55946554D01*
X89849820Y-55911995D01*
X89838445Y-55874499D01*
X89834000Y-55829362D01*
X89834000Y-55090638D01*
X89838445Y-55045501D01*
X89849820Y-55008005D01*
X89868292Y-54973446D01*
X89893153Y-54943153D01*
X89923446Y-54918292D01*
X89958005Y-54899820D01*
X89995501Y-54888445D01*
X90040638Y-54884000D01*
X90679362Y-54884000D01*
X90724499Y-54888445D01*
G37*
G36*
X102199591Y-55000585D02*
G01*
X102233569Y-55010893D01*
X102264890Y-55027634D01*
X102292339Y-55050161D01*
X102314866Y-55077610D01*
X102331607Y-55108931D01*
X102341915Y-55142909D01*
X102346000Y-55184390D01*
X102346000Y-55785610D01*
X102341915Y-55827091D01*
X102331607Y-55861069D01*
X102314866Y-55892390D01*
X102292339Y-55919839D01*
X102264890Y-55942366D01*
X102233569Y-55959107D01*
X102199591Y-55969415D01*
X102158110Y-55973500D01*
X101481890Y-55973500D01*
X101440409Y-55969415D01*
X101406431Y-55959107D01*
X101375110Y-55942366D01*
X101347661Y-55919839D01*
X101325134Y-55892390D01*
X101308393Y-55861069D01*
X101298085Y-55827091D01*
X101294000Y-55785610D01*
X101294000Y-55184390D01*
X101298085Y-55142909D01*
X101308393Y-55108931D01*
X101325134Y-55077610D01*
X101347661Y-55050161D01*
X101375110Y-55027634D01*
X101406431Y-55010893D01*
X101440409Y-55000585D01*
X101481890Y-54996500D01*
X102158110Y-54996500D01*
X102199591Y-55000585D01*
G37*
G36*
X71521938Y-55226716D02*
G01*
X71542557Y-55232971D01*
X71561553Y-55243124D01*
X71578208Y-55256792D01*
X71591876Y-55273447D01*
X71602029Y-55292443D01*
X71608284Y-55313062D01*
X71611000Y-55340640D01*
X71611000Y-55799360D01*
X71608284Y-55826938D01*
X71602029Y-55847557D01*
X71591876Y-55866553D01*
X71578208Y-55883208D01*
X71561553Y-55896876D01*
X71542557Y-55907029D01*
X71521938Y-55913284D01*
X71494360Y-55916000D01*
X70985640Y-55916000D01*
X70958062Y-55913284D01*
X70937443Y-55907029D01*
X70918447Y-55896876D01*
X70901792Y-55883208D01*
X70888124Y-55866553D01*
X70877971Y-55847557D01*
X70871716Y-55826938D01*
X70869000Y-55799360D01*
X70869000Y-55340640D01*
X70871716Y-55313062D01*
X70877971Y-55292443D01*
X70888124Y-55273447D01*
X70901792Y-55256792D01*
X70918447Y-55243124D01*
X70937443Y-55232971D01*
X70958062Y-55226716D01*
X70985640Y-55224000D01*
X71494360Y-55224000D01*
X71521938Y-55226716D01*
G37*
G36*
X72621938Y-55211716D02*
G01*
X72642557Y-55217971D01*
X72661553Y-55228124D01*
X72678208Y-55241792D01*
X72691876Y-55258447D01*
X72702029Y-55277443D01*
X72708284Y-55298062D01*
X72711000Y-55325640D01*
X72711000Y-55784360D01*
X72708284Y-55811938D01*
X72702029Y-55832557D01*
X72691876Y-55851553D01*
X72678208Y-55868208D01*
X72661553Y-55881876D01*
X72642557Y-55892029D01*
X72621938Y-55898284D01*
X72594360Y-55901000D01*
X72085640Y-55901000D01*
X72058062Y-55898284D01*
X72037443Y-55892029D01*
X72018447Y-55881876D01*
X72001792Y-55868208D01*
X71988124Y-55851553D01*
X71977971Y-55832557D01*
X71971716Y-55811938D01*
X71969000Y-55784360D01*
X71969000Y-55325640D01*
X71971716Y-55298062D01*
X71977971Y-55277443D01*
X71988124Y-55258447D01*
X72001792Y-55241792D01*
X72018447Y-55228124D01*
X72037443Y-55217971D01*
X72058062Y-55211716D01*
X72085640Y-55209000D01*
X72594360Y-55209000D01*
X72621938Y-55211716D01*
G37*
G36*
X73721938Y-55181716D02*
G01*
X73742557Y-55187971D01*
X73761553Y-55198124D01*
X73778208Y-55211792D01*
X73791876Y-55228447D01*
X73802029Y-55247443D01*
X73808284Y-55268062D01*
X73811000Y-55295640D01*
X73811000Y-55754360D01*
X73808284Y-55781938D01*
X73802029Y-55802557D01*
X73791876Y-55821553D01*
X73778208Y-55838208D01*
X73761553Y-55851876D01*
X73742557Y-55862029D01*
X73721938Y-55868284D01*
X73694360Y-55871000D01*
X73185640Y-55871000D01*
X73158062Y-55868284D01*
X73137443Y-55862029D01*
X73118447Y-55851876D01*
X73101792Y-55838208D01*
X73088124Y-55821553D01*
X73077971Y-55802557D01*
X73071716Y-55781938D01*
X73069000Y-55754360D01*
X73069000Y-55295640D01*
X73071716Y-55268062D01*
X73077971Y-55247443D01*
X73088124Y-55228447D01*
X73101792Y-55211792D01*
X73118447Y-55198124D01*
X73137443Y-55187971D01*
X73158062Y-55181716D01*
X73185640Y-55179000D01*
X73694360Y-55179000D01*
X73721938Y-55181716D01*
G37*
G36*
X105271000Y-55151000D02*
G01*
X104269000Y-55151000D01*
X104269000Y-54249000D01*
X105271000Y-54249000D01*
X105271000Y-55151000D01*
G37*
G36*
X73721938Y-54211716D02*
G01*
X73742557Y-54217971D01*
X73761553Y-54228124D01*
X73778208Y-54241792D01*
X73791876Y-54258447D01*
X73802029Y-54277443D01*
X73808284Y-54298062D01*
X73811000Y-54325640D01*
X73811000Y-54784360D01*
X73808284Y-54811938D01*
X73802029Y-54832557D01*
X73791876Y-54851553D01*
X73778208Y-54868208D01*
X73761553Y-54881876D01*
X73742557Y-54892029D01*
X73721938Y-54898284D01*
X73694360Y-54901000D01*
X73185640Y-54901000D01*
X73158062Y-54898284D01*
X73137443Y-54892029D01*
X73118447Y-54881876D01*
X73101792Y-54868208D01*
X73088124Y-54851553D01*
X73077971Y-54832557D01*
X73071716Y-54811938D01*
X73069000Y-54784360D01*
X73069000Y-54325640D01*
X73071716Y-54298062D01*
X73077971Y-54277443D01*
X73088124Y-54258447D01*
X73101792Y-54241792D01*
X73118447Y-54228124D01*
X73137443Y-54217971D01*
X73158062Y-54211716D01*
X73185640Y-54209000D01*
X73694360Y-54209000D01*
X73721938Y-54211716D01*
G37*
G36*
X72621938Y-53981716D02*
G01*
X72642557Y-53987971D01*
X72661553Y-53998124D01*
X72678208Y-54011792D01*
X72691876Y-54028447D01*
X72702029Y-54047443D01*
X72708284Y-54068062D01*
X72711000Y-54095640D01*
X72711000Y-54554360D01*
X72708284Y-54581938D01*
X72702029Y-54602557D01*
X72691876Y-54621553D01*
X72678208Y-54638208D01*
X72661553Y-54651876D01*
X72642557Y-54662029D01*
X72621938Y-54668284D01*
X72594360Y-54671000D01*
X72085640Y-54671000D01*
X72058062Y-54668284D01*
X72037443Y-54662029D01*
X72018447Y-54651876D01*
X72001792Y-54638208D01*
X71988124Y-54621553D01*
X71977971Y-54602557D01*
X71971716Y-54581938D01*
X71969000Y-54554360D01*
X71969000Y-54095640D01*
X71971716Y-54068062D01*
X71977971Y-54047443D01*
X71988124Y-54028447D01*
X72001792Y-54011792D01*
X72018447Y-53998124D01*
X72037443Y-53987971D01*
X72058062Y-53981716D01*
X72085640Y-53979000D01*
X72594360Y-53979000D01*
X72621938Y-53981716D01*
G37*
G36*
X102244499Y-53163445D02*
G01*
X102281995Y-53174820D01*
X102316554Y-53193292D01*
X102346847Y-53218153D01*
X102371708Y-53248446D01*
X102390180Y-53283005D01*
X102401555Y-53320501D01*
X102406000Y-53365638D01*
X102406000Y-54104362D01*
X102401555Y-54149499D01*
X102390180Y-54186995D01*
X102371708Y-54221554D01*
X102346847Y-54251847D01*
X102316554Y-54276708D01*
X102281995Y-54295180D01*
X102244499Y-54306555D01*
X102199362Y-54311000D01*
X101560638Y-54311000D01*
X101515501Y-54306555D01*
X101478005Y-54295180D01*
X101443446Y-54276708D01*
X101413153Y-54251847D01*
X101388292Y-54221554D01*
X101369820Y-54186995D01*
X101358445Y-54149499D01*
X101354000Y-54104362D01*
X101354000Y-53365638D01*
X101358445Y-53320501D01*
X101369820Y-53283005D01*
X101388292Y-53248446D01*
X101413153Y-53218153D01*
X101443446Y-53193292D01*
X101478005Y-53174820D01*
X101515501Y-53163445D01*
X101560638Y-53159000D01*
X102199362Y-53159000D01*
X102244499Y-53163445D01*
G37*
G36*
X107271000Y-54201000D02*
G01*
X106269000Y-54201000D01*
X106269000Y-53299000D01*
X107271000Y-53299000D01*
X107271000Y-54201000D01*
G37*
G36*
X72621938Y-53011716D02*
G01*
X72642557Y-53017971D01*
X72661553Y-53028124D01*
X72678208Y-53041792D01*
X72691876Y-53058447D01*
X72702029Y-53077443D01*
X72708284Y-53098062D01*
X72711000Y-53125640D01*
X72711000Y-53584360D01*
X72708284Y-53611938D01*
X72702029Y-53632557D01*
X72691876Y-53651553D01*
X72678208Y-53668208D01*
X72661553Y-53681876D01*
X72642557Y-53692029D01*
X72621938Y-53698284D01*
X72594360Y-53701000D01*
X72085640Y-53701000D01*
X72058062Y-53698284D01*
X72037443Y-53692029D01*
X72018447Y-53681876D01*
X72001792Y-53668208D01*
X71988124Y-53651553D01*
X71977971Y-53632557D01*
X71971716Y-53611938D01*
X71969000Y-53584360D01*
X71969000Y-53125640D01*
X71971716Y-53098062D01*
X71977971Y-53077443D01*
X71988124Y-53058447D01*
X72001792Y-53041792D01*
X72018447Y-53028124D01*
X72037443Y-53017971D01*
X72058062Y-53011716D01*
X72085640Y-53009000D01*
X72594360Y-53009000D01*
X72621938Y-53011716D01*
G37*
G36*
X76681938Y-52571716D02*
G01*
X76702557Y-52577971D01*
X76721553Y-52588124D01*
X76738208Y-52601792D01*
X76751876Y-52618447D01*
X76762029Y-52637443D01*
X76768284Y-52658062D01*
X76771000Y-52685640D01*
X76771000Y-53194360D01*
X76768284Y-53221938D01*
X76762029Y-53242557D01*
X76751876Y-53261553D01*
X76738208Y-53278208D01*
X76721553Y-53291876D01*
X76702557Y-53302029D01*
X76681938Y-53308284D01*
X76654360Y-53311000D01*
X76195640Y-53311000D01*
X76168062Y-53308284D01*
X76147443Y-53302029D01*
X76128447Y-53291876D01*
X76111792Y-53278208D01*
X76098124Y-53261553D01*
X76087971Y-53242557D01*
X76081716Y-53221938D01*
X76079000Y-53194360D01*
X76079000Y-52685640D01*
X76081716Y-52658062D01*
X76087971Y-52637443D01*
X76098124Y-52618447D01*
X76111792Y-52601792D01*
X76128447Y-52588124D01*
X76147443Y-52577971D01*
X76168062Y-52571716D01*
X76195640Y-52569000D01*
X76654360Y-52569000D01*
X76681938Y-52571716D01*
G37*
G36*
X75711938Y-52571716D02*
G01*
X75732557Y-52577971D01*
X75751553Y-52588124D01*
X75768208Y-52601792D01*
X75781876Y-52618447D01*
X75792029Y-52637443D01*
X75798284Y-52658062D01*
X75801000Y-52685640D01*
X75801000Y-53194360D01*
X75798284Y-53221938D01*
X75792029Y-53242557D01*
X75781876Y-53261553D01*
X75768208Y-53278208D01*
X75751553Y-53291876D01*
X75732557Y-53302029D01*
X75711938Y-53308284D01*
X75684360Y-53311000D01*
X75225640Y-53311000D01*
X75198062Y-53308284D01*
X75177443Y-53302029D01*
X75158447Y-53291876D01*
X75141792Y-53278208D01*
X75128124Y-53261553D01*
X75117971Y-53242557D01*
X75111716Y-53221938D01*
X75109000Y-53194360D01*
X75109000Y-52685640D01*
X75111716Y-52658062D01*
X75117971Y-52637443D01*
X75128124Y-52618447D01*
X75141792Y-52601792D01*
X75158447Y-52588124D01*
X75177443Y-52577971D01*
X75198062Y-52571716D01*
X75225640Y-52569000D01*
X75684360Y-52569000D01*
X75711938Y-52571716D01*
G37*
G36*
X105271000Y-53251000D02*
G01*
X104269000Y-53251000D01*
X104269000Y-52349000D01*
X105271000Y-52349000D01*
X105271000Y-53251000D01*
G37*
G36*
X102244499Y-51413445D02*
G01*
X102281995Y-51424820D01*
X102316554Y-51443292D01*
X102346847Y-51468153D01*
X102371708Y-51498446D01*
X102390180Y-51533005D01*
X102401555Y-51570501D01*
X102406000Y-51615638D01*
X102406000Y-52354362D01*
X102401555Y-52399499D01*
X102390180Y-52436995D01*
X102371708Y-52471554D01*
X102346847Y-52501847D01*
X102316554Y-52526708D01*
X102281995Y-52545180D01*
X102244499Y-52556555D01*
X102199362Y-52561000D01*
X101560638Y-52561000D01*
X101515501Y-52556555D01*
X101478005Y-52545180D01*
X101443446Y-52526708D01*
X101413153Y-52501847D01*
X101388292Y-52471554D01*
X101369820Y-52436995D01*
X101358445Y-52399499D01*
X101354000Y-52354362D01*
X101354000Y-51615638D01*
X101358445Y-51570501D01*
X101369820Y-51533005D01*
X101388292Y-51498446D01*
X101413153Y-51468153D01*
X101443446Y-51443292D01*
X101478005Y-51424820D01*
X101515501Y-51413445D01*
X101560638Y-51409000D01*
X102199362Y-51409000D01*
X102244499Y-51413445D01*
G37*
G36*
X76911938Y-50271716D02*
G01*
X76932557Y-50277971D01*
X76951553Y-50288124D01*
X76968208Y-50301792D01*
X76981876Y-50318447D01*
X76992029Y-50337443D01*
X76998284Y-50358062D01*
X77001000Y-50385640D01*
X77001000Y-50894360D01*
X76998284Y-50921938D01*
X76992029Y-50942557D01*
X76981876Y-50961553D01*
X76968208Y-50978208D01*
X76951553Y-50991876D01*
X76932557Y-51002029D01*
X76911938Y-51008284D01*
X76884360Y-51011000D01*
X76425640Y-51011000D01*
X76398062Y-51008284D01*
X76377443Y-51002029D01*
X76358447Y-50991876D01*
X76341792Y-50978208D01*
X76328124Y-50961553D01*
X76317971Y-50942557D01*
X76311716Y-50921938D01*
X76309000Y-50894360D01*
X76309000Y-50385640D01*
X76311716Y-50358062D01*
X76317971Y-50337443D01*
X76328124Y-50318447D01*
X76341792Y-50301792D01*
X76358447Y-50288124D01*
X76377443Y-50277971D01*
X76398062Y-50271716D01*
X76425640Y-50269000D01*
X76884360Y-50269000D01*
X76911938Y-50271716D01*
G37*
G36*
X77881938Y-50271716D02*
G01*
X77902557Y-50277971D01*
X77921553Y-50288124D01*
X77938208Y-50301792D01*
X77951876Y-50318447D01*
X77962029Y-50337443D01*
X77968284Y-50358062D01*
X77971000Y-50385640D01*
X77971000Y-50894360D01*
X77968284Y-50921938D01*
X77962029Y-50942557D01*
X77951876Y-50961553D01*
X77938208Y-50978208D01*
X77921553Y-50991876D01*
X77902557Y-51002029D01*
X77881938Y-51008284D01*
X77854360Y-51011000D01*
X77395640Y-51011000D01*
X77368062Y-51008284D01*
X77347443Y-51002029D01*
X77328447Y-50991876D01*
X77311792Y-50978208D01*
X77298124Y-50961553D01*
X77287971Y-50942557D01*
X77281716Y-50921938D01*
X77279000Y-50894360D01*
X77279000Y-50385640D01*
X77281716Y-50358062D01*
X77287971Y-50337443D01*
X77298124Y-50318447D01*
X77311792Y-50301792D01*
X77328447Y-50288124D01*
X77347443Y-50277971D01*
X77368062Y-50271716D01*
X77395640Y-50269000D01*
X77854360Y-50269000D01*
X77881938Y-50271716D01*
G37*
G36*
X80021938Y-50251716D02*
G01*
X80042557Y-50257971D01*
X80061553Y-50268124D01*
X80078208Y-50281792D01*
X80091876Y-50298447D01*
X80102029Y-50317443D01*
X80108284Y-50338062D01*
X80111000Y-50365640D01*
X80111000Y-50874360D01*
X80108284Y-50901938D01*
X80102029Y-50922557D01*
X80091876Y-50941553D01*
X80078208Y-50958208D01*
X80061553Y-50971876D01*
X80042557Y-50982029D01*
X80021938Y-50988284D01*
X79994360Y-50991000D01*
X79535640Y-50991000D01*
X79508062Y-50988284D01*
X79487443Y-50982029D01*
X79468447Y-50971876D01*
X79451792Y-50958208D01*
X79438124Y-50941553D01*
X79427971Y-50922557D01*
X79421716Y-50901938D01*
X79419000Y-50874360D01*
X79419000Y-50365640D01*
X79421716Y-50338062D01*
X79427971Y-50317443D01*
X79438124Y-50298447D01*
X79451792Y-50281792D01*
X79468447Y-50268124D01*
X79487443Y-50257971D01*
X79508062Y-50251716D01*
X79535640Y-50249000D01*
X79994360Y-50249000D01*
X80021938Y-50251716D01*
G37*
G36*
X79051938Y-50251716D02*
G01*
X79072557Y-50257971D01*
X79091553Y-50268124D01*
X79108208Y-50281792D01*
X79121876Y-50298447D01*
X79132029Y-50317443D01*
X79138284Y-50338062D01*
X79141000Y-50365640D01*
X79141000Y-50874360D01*
X79138284Y-50901938D01*
X79132029Y-50922557D01*
X79121876Y-50941553D01*
X79108208Y-50958208D01*
X79091553Y-50971876D01*
X79072557Y-50982029D01*
X79051938Y-50988284D01*
X79024360Y-50991000D01*
X78565640Y-50991000D01*
X78538062Y-50988284D01*
X78517443Y-50982029D01*
X78498447Y-50971876D01*
X78481792Y-50958208D01*
X78468124Y-50941553D01*
X78457971Y-50922557D01*
X78451716Y-50901938D01*
X78449000Y-50874360D01*
X78449000Y-50365640D01*
X78451716Y-50338062D01*
X78457971Y-50317443D01*
X78468124Y-50298447D01*
X78481792Y-50281792D01*
X78498447Y-50268124D01*
X78517443Y-50257971D01*
X78538062Y-50251716D01*
X78565640Y-50249000D01*
X79024360Y-50249000D01*
X79051938Y-50251716D01*
G37*
G36*
X82606938Y-50241716D02*
G01*
X82627557Y-50247971D01*
X82646553Y-50258124D01*
X82663208Y-50271792D01*
X82676876Y-50288447D01*
X82687029Y-50307443D01*
X82693284Y-50328062D01*
X82696000Y-50355640D01*
X82696000Y-50864360D01*
X82693284Y-50891938D01*
X82687029Y-50912557D01*
X82676876Y-50931553D01*
X82663208Y-50948208D01*
X82646553Y-50961876D01*
X82627557Y-50972029D01*
X82606938Y-50978284D01*
X82579360Y-50981000D01*
X82120640Y-50981000D01*
X82093062Y-50978284D01*
X82072443Y-50972029D01*
X82053447Y-50961876D01*
X82036792Y-50948208D01*
X82023124Y-50931553D01*
X82012971Y-50912557D01*
X82006716Y-50891938D01*
X82004000Y-50864360D01*
X82004000Y-50355640D01*
X82006716Y-50328062D01*
X82012971Y-50307443D01*
X82023124Y-50288447D01*
X82036792Y-50271792D01*
X82053447Y-50258124D01*
X82072443Y-50247971D01*
X82093062Y-50241716D01*
X82120640Y-50239000D01*
X82579360Y-50239000D01*
X82606938Y-50241716D01*
G37*
G36*
X81636938Y-50241716D02*
G01*
X81657557Y-50247971D01*
X81676553Y-50258124D01*
X81693208Y-50271792D01*
X81706876Y-50288447D01*
X81717029Y-50307443D01*
X81723284Y-50328062D01*
X81726000Y-50355640D01*
X81726000Y-50864360D01*
X81723284Y-50891938D01*
X81717029Y-50912557D01*
X81706876Y-50931553D01*
X81693208Y-50948208D01*
X81676553Y-50961876D01*
X81657557Y-50972029D01*
X81636938Y-50978284D01*
X81609360Y-50981000D01*
X81150640Y-50981000D01*
X81123062Y-50978284D01*
X81102443Y-50972029D01*
X81083447Y-50961876D01*
X81066792Y-50948208D01*
X81053124Y-50931553D01*
X81042971Y-50912557D01*
X81036716Y-50891938D01*
X81034000Y-50864360D01*
X81034000Y-50355640D01*
X81036716Y-50328062D01*
X81042971Y-50307443D01*
X81053124Y-50288447D01*
X81066792Y-50271792D01*
X81083447Y-50258124D01*
X81102443Y-50247971D01*
X81123062Y-50241716D01*
X81150640Y-50239000D01*
X81609360Y-50239000D01*
X81636938Y-50241716D01*
G37*
G36*
X88541000Y-50486000D02*
G01*
X86139000Y-50486000D01*
X86139000Y-49884000D01*
X88541000Y-49884000D01*
X88541000Y-50486000D01*
G37*
G36*
X91467938Y-49440716D02*
G01*
X91488557Y-49446971D01*
X91507553Y-49457124D01*
X91524208Y-49470792D01*
X91537876Y-49487447D01*
X91548029Y-49506443D01*
X91554284Y-49527062D01*
X91557000Y-49554640D01*
X91557000Y-50013360D01*
X91554284Y-50040938D01*
X91548029Y-50061557D01*
X91537876Y-50080553D01*
X91524208Y-50097208D01*
X91507553Y-50110876D01*
X91488557Y-50121029D01*
X91467938Y-50127284D01*
X91440360Y-50130000D01*
X90931640Y-50130000D01*
X90904062Y-50127284D01*
X90883443Y-50121029D01*
X90864447Y-50110876D01*
X90847792Y-50097208D01*
X90834124Y-50080553D01*
X90823971Y-50061557D01*
X90817716Y-50040938D01*
X90815000Y-50013360D01*
X90815000Y-49554640D01*
X90817716Y-49527062D01*
X90823971Y-49506443D01*
X90834124Y-49487447D01*
X90847792Y-49470792D01*
X90864447Y-49457124D01*
X90883443Y-49446971D01*
X90904062Y-49440716D01*
X90931640Y-49438000D01*
X91440360Y-49438000D01*
X91467938Y-49440716D01*
G37*
G36*
X89943938Y-49394716D02*
G01*
X89964557Y-49400971D01*
X89983553Y-49411124D01*
X90000208Y-49424792D01*
X90013876Y-49441447D01*
X90024029Y-49460443D01*
X90030284Y-49481062D01*
X90033000Y-49508640D01*
X90033000Y-49967360D01*
X90030284Y-49994938D01*
X90024029Y-50015557D01*
X90013876Y-50034553D01*
X90000208Y-50051208D01*
X89983553Y-50064876D01*
X89964557Y-50075029D01*
X89943938Y-50081284D01*
X89916360Y-50084000D01*
X89407640Y-50084000D01*
X89380062Y-50081284D01*
X89359443Y-50075029D01*
X89340447Y-50064876D01*
X89323792Y-50051208D01*
X89310124Y-50034553D01*
X89299971Y-50015557D01*
X89293716Y-49994938D01*
X89291000Y-49967360D01*
X89291000Y-49508640D01*
X89293716Y-49481062D01*
X89299971Y-49460443D01*
X89310124Y-49441447D01*
X89323792Y-49424792D01*
X89340447Y-49411124D01*
X89359443Y-49400971D01*
X89380062Y-49394716D01*
X89407640Y-49392000D01*
X89916360Y-49392000D01*
X89943938Y-49394716D01*
G37*
G36*
X78571000Y-49401000D02*
G01*
X76769000Y-49401000D01*
X76769000Y-46899000D01*
X78571000Y-46899000D01*
X78571000Y-49401000D01*
G37*
G36*
X82271000Y-49401000D02*
G01*
X80469000Y-49401000D01*
X80469000Y-46899000D01*
X82271000Y-46899000D01*
X82271000Y-49401000D01*
G37*
G36*
X91467938Y-48470716D02*
G01*
X91488557Y-48476971D01*
X91507553Y-48487124D01*
X91524208Y-48500792D01*
X91537876Y-48517447D01*
X91548029Y-48536443D01*
X91554284Y-48557062D01*
X91557000Y-48584640D01*
X91557000Y-49043360D01*
X91554284Y-49070938D01*
X91548029Y-49091557D01*
X91537876Y-49110553D01*
X91524208Y-49127208D01*
X91507553Y-49140876D01*
X91488557Y-49151029D01*
X91467938Y-49157284D01*
X91440360Y-49160000D01*
X90931640Y-49160000D01*
X90904062Y-49157284D01*
X90883443Y-49151029D01*
X90864447Y-49140876D01*
X90847792Y-49127208D01*
X90834124Y-49110553D01*
X90823971Y-49091557D01*
X90817716Y-49070938D01*
X90815000Y-49043360D01*
X90815000Y-48584640D01*
X90817716Y-48557062D01*
X90823971Y-48536443D01*
X90834124Y-48517447D01*
X90847792Y-48500792D01*
X90864447Y-48487124D01*
X90883443Y-48476971D01*
X90904062Y-48470716D01*
X90931640Y-48468000D01*
X91440360Y-48468000D01*
X91467938Y-48470716D01*
G37*
G36*
X89943938Y-48424716D02*
G01*
X89964557Y-48430971D01*
X89983553Y-48441124D01*
X90000208Y-48454792D01*
X90013876Y-48471447D01*
X90024029Y-48490443D01*
X90030284Y-48511062D01*
X90033000Y-48538640D01*
X90033000Y-48997360D01*
X90030284Y-49024938D01*
X90024029Y-49045557D01*
X90013876Y-49064553D01*
X90000208Y-49081208D01*
X89983553Y-49094876D01*
X89964557Y-49105029D01*
X89943938Y-49111284D01*
X89916360Y-49114000D01*
X89407640Y-49114000D01*
X89380062Y-49111284D01*
X89359443Y-49105029D01*
X89340447Y-49094876D01*
X89323792Y-49081208D01*
X89310124Y-49064553D01*
X89299971Y-49045557D01*
X89293716Y-49024938D01*
X89291000Y-48997360D01*
X89291000Y-48538640D01*
X89293716Y-48511062D01*
X89299971Y-48490443D01*
X89310124Y-48471447D01*
X89323792Y-48454792D01*
X89340447Y-48441124D01*
X89359443Y-48430971D01*
X89380062Y-48424716D01*
X89407640Y-48422000D01*
X89916360Y-48422000D01*
X89943938Y-48424716D01*
G37*
G36*
X88541000Y-48436000D02*
G01*
X86139000Y-48436000D01*
X86139000Y-47834000D01*
X88541000Y-47834000D01*
X88541000Y-48436000D01*
G37*
M02*
