%FSLAX45Y45*%
G04 Gerber Fmt 4.5, Leading zero omitted, Abs format (unit mm)*
G04 Created by KiCad (PCBNEW 5.1.5+dfsg1-2build2) date 2020-11-28 21:48:07*
%MOMM*%
%LPD*%
G04 APERTURE LIST*
%TA.AperFunction,Profile*%
%ADD10C,0.120000*%
%TD*%
%ADD11C,0.200000*%
%ADD12C,0.300000*%
G04 APERTURE END LIST*
D10*
X12514000Y-6774000D02*
G75*
G03X12514000Y-6774000I-150000J0D01*
G01*
X6114000Y-6774000D02*
G75*
G03X6114000Y-6774000I-150000J0D01*
G01*
X13014000Y-8674000D02*
X13014000Y-4974000D01*
X6114000Y-9374000D02*
X12314000Y-9374000D01*
X5414000Y-4974000D02*
X5414000Y-8670994D01*
X6114000Y-4274000D02*
X12314000Y-4274000D01*
X6114000Y-4274000D02*
G75*
G02X5414000Y-4974000I-700000J0D01*
G01*
X13014000Y-4974000D02*
G75*
G02X12314000Y-4274000I0J700000D01*
G01*
X5414000Y-8670994D02*
G75*
G02X6114000Y-9374000I0J-700006D01*
G01*
X12314000Y-9374000D02*
G75*
G02X13014000Y-8674000I697000J3000D01*
G01*
D11*
X5649000Y-5159000D02*
X5679000Y-5189000D01*
X5679000Y-5159000D02*
X5649000Y-5189000D01*
X5649000Y-5409000D02*
X5679000Y-5439000D01*
X5679000Y-5409000D02*
X5649000Y-5439000D01*
X5649000Y-5909000D02*
X5679000Y-5939000D01*
X5679000Y-5909000D02*
X5649000Y-5939000D01*
X5649000Y-6409000D02*
X5679000Y-6439000D01*
X5679000Y-6409000D02*
X5649000Y-6439000D01*
X5649000Y-7409000D02*
X5679000Y-7439000D01*
X5679000Y-7409000D02*
X5649000Y-7439000D01*
X5649000Y-7909000D02*
X5679000Y-7939000D01*
X5679000Y-7909000D02*
X5649000Y-7939000D01*
X5649000Y-8409000D02*
X5679000Y-8439000D01*
X5679000Y-8409000D02*
X5649000Y-8439000D01*
X5899000Y-4909000D02*
X5929000Y-4939000D01*
X5929000Y-4909000D02*
X5899000Y-4939000D01*
X5899000Y-8659000D02*
X5929000Y-8689000D01*
X5929000Y-8659000D02*
X5899000Y-8689000D01*
X6149000Y-4659000D02*
X6179000Y-4689000D01*
X6179000Y-4659000D02*
X6149000Y-4689000D01*
X6149000Y-8909000D02*
X6179000Y-8939000D01*
X6179000Y-8909000D02*
X6149000Y-8939000D01*
X6249000Y-5779000D02*
X6279000Y-5809000D01*
X6279000Y-5779000D02*
X6249000Y-5809000D01*
X6299000Y-5979000D02*
X6329000Y-6009000D01*
X6329000Y-5979000D02*
X6299000Y-6009000D01*
X6309000Y-5579000D02*
X6339000Y-5609000D01*
X6339000Y-5579000D02*
X6309000Y-5609000D01*
X6399000Y-4409000D02*
X6429000Y-4439000D01*
X6429000Y-4409000D02*
X6399000Y-4439000D01*
X6399000Y-6409000D02*
X6429000Y-6439000D01*
X6429000Y-6409000D02*
X6399000Y-6439000D01*
X6399000Y-7409000D02*
X6429000Y-7439000D01*
X6429000Y-7409000D02*
X6399000Y-7439000D01*
X6399000Y-8159000D02*
X6429000Y-8189000D01*
X6429000Y-8159000D02*
X6399000Y-8189000D01*
X6399000Y-9159000D02*
X6429000Y-9189000D01*
X6429000Y-9159000D02*
X6399000Y-9189000D01*
X6429000Y-6109000D02*
X6459000Y-6139000D01*
X6459000Y-6109000D02*
X6429000Y-6139000D01*
X6489000Y-5459000D02*
X6519000Y-5489000D01*
X6519000Y-5459000D02*
X6489000Y-5489000D01*
X6629000Y-6119000D02*
X6659000Y-6149000D01*
X6659000Y-6119000D02*
X6629000Y-6149000D01*
X6709000Y-5489000D02*
X6739000Y-5519000D01*
X6739000Y-5489000D02*
X6709000Y-5519000D01*
X6759000Y-5989000D02*
X6789000Y-6019000D01*
X6789000Y-5989000D02*
X6759000Y-6019000D01*
X6899000Y-4409000D02*
X6929000Y-4439000D01*
X6929000Y-4409000D02*
X6899000Y-4439000D01*
X6899000Y-6409000D02*
X6929000Y-6439000D01*
X6929000Y-6409000D02*
X6899000Y-6439000D01*
X6899000Y-9159000D02*
X6929000Y-9189000D01*
X6929000Y-9159000D02*
X6899000Y-9189000D01*
X6949000Y-5459000D02*
X6979000Y-5489000D01*
X6979000Y-5459000D02*
X6949000Y-5489000D01*
X7029000Y-8899000D02*
X7059000Y-8929000D01*
X7059000Y-8899000D02*
X7029000Y-8929000D01*
X7069000Y-5309000D02*
X7099000Y-5339000D01*
X7099000Y-5309000D02*
X7069000Y-5339000D01*
X7069000Y-5909000D02*
X7099000Y-5939000D01*
X7099000Y-5909000D02*
X7069000Y-5939000D01*
X7071600Y-6919200D02*
X7101600Y-6949200D01*
X7101600Y-6919200D02*
X7071600Y-6949200D01*
X7119000Y-6119000D02*
X7149000Y-6149000D01*
X7149000Y-6119000D02*
X7119000Y-6149000D01*
X7319000Y-5179000D02*
X7349000Y-5209000D01*
X7349000Y-5179000D02*
X7319000Y-5209000D01*
X7339000Y-4819000D02*
X7369000Y-4849000D01*
X7369000Y-4819000D02*
X7339000Y-4849000D01*
X7386000Y-6440000D02*
X7416000Y-6470000D01*
X7416000Y-6440000D02*
X7386000Y-6470000D01*
X7399000Y-4409000D02*
X7429000Y-4439000D01*
X7429000Y-4409000D02*
X7399000Y-4439000D01*
X7399000Y-9159000D02*
X7429000Y-9189000D01*
X7429000Y-9159000D02*
X7399000Y-9189000D01*
X7429000Y-4629000D02*
X7459000Y-4659000D01*
X7459000Y-4629000D02*
X7429000Y-4659000D01*
X7467000Y-8482000D02*
X7497000Y-8512000D01*
X7497000Y-8482000D02*
X7467000Y-8512000D01*
X7469000Y-5359000D02*
X7499000Y-5389000D01*
X7499000Y-5359000D02*
X7469000Y-5389000D01*
X7519000Y-4819000D02*
X7549000Y-4849000D01*
X7549000Y-4819000D02*
X7519000Y-4849000D01*
X7604000Y-6074999D02*
X7634000Y-6104999D01*
X7634000Y-6074999D02*
X7604000Y-6104999D01*
X7689000Y-6339000D02*
X7719000Y-6369000D01*
X7719000Y-6339000D02*
X7689000Y-6369000D01*
X7693000Y-8280000D02*
X7723000Y-8310000D01*
X7723000Y-8280000D02*
X7693000Y-8310000D01*
X7709000Y-5604000D02*
X7739000Y-5634000D01*
X7739000Y-5604000D02*
X7709000Y-5634000D01*
X7709000Y-5716000D02*
X7739000Y-5746000D01*
X7739000Y-5716000D02*
X7709000Y-5746000D01*
X7709000Y-5837000D02*
X7739000Y-5867000D01*
X7739000Y-5837000D02*
X7709000Y-5867000D01*
X7732000Y-7528800D02*
X7762000Y-7558800D01*
X7762000Y-7528800D02*
X7732000Y-7558800D01*
X7807000Y-5604000D02*
X7837000Y-5634000D01*
X7837000Y-5604000D02*
X7807000Y-5634000D01*
X7807000Y-5716000D02*
X7837000Y-5746000D01*
X7837000Y-5716000D02*
X7807000Y-5746000D01*
X7807000Y-5837000D02*
X7837000Y-5867000D01*
X7837000Y-5837000D02*
X7807000Y-5867000D01*
X7859000Y-7367200D02*
X7889000Y-7397200D01*
X7889000Y-7367200D02*
X7859000Y-7397200D01*
X7899000Y-4409000D02*
X7929000Y-4439000D01*
X7929000Y-4409000D02*
X7899000Y-4439000D01*
X7899000Y-9159000D02*
X7929000Y-9189000D01*
X7929000Y-9159000D02*
X7899000Y-9189000D01*
X7929000Y-5604000D02*
X7959000Y-5634000D01*
X7959000Y-5604000D02*
X7929000Y-5634000D01*
X7929000Y-5716000D02*
X7959000Y-5746000D01*
X7959000Y-5716000D02*
X7929000Y-5746000D01*
X7929000Y-5837000D02*
X7959000Y-5867000D01*
X7959000Y-5837000D02*
X7929000Y-5867000D01*
X7986000Y-7630400D02*
X8016000Y-7660400D01*
X8016000Y-7630400D02*
X7986000Y-7660400D01*
X8062200Y-6182600D02*
X8092200Y-6212600D01*
X8092200Y-6182600D02*
X8062200Y-6212600D01*
X8087600Y-7630400D02*
X8117600Y-7660400D01*
X8117600Y-7630400D02*
X8087600Y-7660400D01*
X8138400Y-6843000D02*
X8168400Y-6873000D01*
X8168400Y-6843000D02*
X8138400Y-6873000D01*
X8163800Y-6686799D02*
X8193800Y-6716799D01*
X8193800Y-6686799D02*
X8163800Y-6716799D01*
X8209151Y-5344849D02*
X8239151Y-5374849D01*
X8239151Y-5344849D02*
X8209151Y-5374849D01*
X8214600Y-6589000D02*
X8244600Y-6619000D01*
X8244600Y-6589000D02*
X8214600Y-6619000D01*
X8232000Y-5736000D02*
X8262000Y-5766000D01*
X8262000Y-5736000D02*
X8232000Y-5766000D01*
X8238000Y-5632000D02*
X8268000Y-5662000D01*
X8268000Y-5632000D02*
X8238000Y-5662000D01*
X8277527Y-6931327D02*
X8307527Y-6961327D01*
X8307527Y-6931327D02*
X8277527Y-6961327D01*
X8316200Y-5522200D02*
X8346200Y-5552200D01*
X8346200Y-5522200D02*
X8316200Y-5552200D01*
X8335999Y-4805501D02*
X8365999Y-4835501D01*
X8365999Y-4805501D02*
X8335999Y-4835501D01*
X8367000Y-5446000D02*
X8397000Y-5476000D01*
X8397000Y-5446000D02*
X8367000Y-5476000D01*
X8367000Y-6817600D02*
X8397000Y-6847600D01*
X8397000Y-6817600D02*
X8367000Y-6847600D01*
X8377000Y-5307000D02*
X8407000Y-5337000D01*
X8407000Y-5307000D02*
X8377000Y-5337000D01*
X8396000Y-4984000D02*
X8426000Y-5014000D01*
X8426000Y-4984000D02*
X8396000Y-5014000D01*
X8399000Y-4409000D02*
X8429000Y-4439000D01*
X8429000Y-4409000D02*
X8399000Y-4439000D01*
X8399000Y-9159000D02*
X8429000Y-9189000D01*
X8429000Y-9159000D02*
X8399000Y-9189000D01*
X8494000Y-5090400D02*
X8524000Y-5120400D01*
X8524000Y-5090400D02*
X8494000Y-5120400D01*
X8503201Y-6182600D02*
X8533201Y-6212600D01*
X8533201Y-6182600D02*
X8503201Y-6212600D01*
X8519400Y-4963400D02*
X8549400Y-4993400D01*
X8549400Y-4963400D02*
X8519400Y-4993400D01*
X8601000Y-6140000D02*
X8631000Y-6170000D01*
X8631000Y-6140000D02*
X8601000Y-6170000D01*
X8634000Y-8318000D02*
X8664000Y-8348000D01*
X8664000Y-8318000D02*
X8634000Y-8348000D01*
X8646400Y-5319000D02*
X8676400Y-5349000D01*
X8676400Y-5319000D02*
X8646400Y-5349000D01*
X8687000Y-4682000D02*
X8717000Y-4712000D01*
X8717000Y-4682000D02*
X8687000Y-4712000D01*
X8692000Y-6578000D02*
X8722000Y-6608000D01*
X8722000Y-6578000D02*
X8692000Y-6608000D01*
X8811500Y-4682000D02*
X8841500Y-4712000D01*
X8841500Y-4682000D02*
X8811500Y-4712000D01*
X8849600Y-5446000D02*
X8879600Y-5476000D01*
X8879600Y-5446000D02*
X8849600Y-5476000D01*
X8872000Y-6407000D02*
X8902000Y-6437000D01*
X8902000Y-6407000D02*
X8872000Y-6437000D01*
X8875000Y-6893800D02*
X8905000Y-6923800D01*
X8905000Y-6893800D02*
X8875000Y-6923800D01*
X8887000Y-8190000D02*
X8917000Y-8220000D01*
X8917000Y-8190000D02*
X8887000Y-8220000D01*
X8899000Y-4409000D02*
X8929000Y-4439000D01*
X8929000Y-4409000D02*
X8899000Y-4439000D01*
X9002000Y-5979400D02*
X9032000Y-6009400D01*
X9032000Y-5979400D02*
X9002000Y-6009400D01*
X9099000Y-7069000D02*
X9129000Y-7099000D01*
X9129000Y-7069000D02*
X9099000Y-7099000D01*
X9149000Y-8659000D02*
X9179000Y-8689000D01*
X9179000Y-8659000D02*
X9149000Y-8689000D01*
X9154400Y-5928600D02*
X9184400Y-5958600D01*
X9184400Y-5928600D02*
X9154400Y-5958600D01*
X9259000Y-8159000D02*
X9289000Y-8189000D01*
X9289000Y-8159000D02*
X9259000Y-8189000D01*
X9332200Y-5623800D02*
X9362200Y-5653800D01*
X9362200Y-5623800D02*
X9332200Y-5653800D01*
X9399000Y-4409000D02*
X9429000Y-4439000D01*
X9429000Y-4409000D02*
X9399000Y-4439000D01*
X9399000Y-9159000D02*
X9429000Y-9189000D01*
X9429000Y-9159000D02*
X9399000Y-9189000D01*
X9408400Y-5446000D02*
X9438400Y-5476000D01*
X9438400Y-5446000D02*
X9408400Y-5476000D01*
X9409000Y-4999000D02*
X9439000Y-5029000D01*
X9439000Y-4999000D02*
X9409000Y-5029000D01*
X9499000Y-5659000D02*
X9529000Y-5689000D01*
X9529000Y-5659000D02*
X9499000Y-5689000D01*
X9499000Y-5859000D02*
X9529000Y-5889000D01*
X9529000Y-5859000D02*
X9499000Y-5889000D01*
X9549000Y-5119000D02*
X9579000Y-5149000D01*
X9579000Y-5119000D02*
X9549000Y-5149000D01*
X9699000Y-4899000D02*
X9729000Y-4929000D01*
X9729000Y-4899000D02*
X9699000Y-4929000D01*
X9699000Y-5459000D02*
X9729000Y-5489000D01*
X9729000Y-5459000D02*
X9699000Y-5489000D01*
X9699000Y-5659000D02*
X9729000Y-5689000D01*
X9729000Y-5659000D02*
X9699000Y-5689000D01*
X9699000Y-5859000D02*
X9729000Y-5889000D01*
X9729000Y-5859000D02*
X9699000Y-5889000D01*
X9899000Y-4409000D02*
X9929000Y-4439000D01*
X9929000Y-4409000D02*
X9899000Y-4439000D01*
X9899000Y-4909000D02*
X9929000Y-4939000D01*
X9929000Y-4909000D02*
X9899000Y-4939000D01*
X9899000Y-5119000D02*
X9929000Y-5149000D01*
X9929000Y-5119000D02*
X9899000Y-5149000D01*
X9899000Y-5459000D02*
X9929000Y-5489000D01*
X9929000Y-5459000D02*
X9899000Y-5489000D01*
X9899000Y-5659000D02*
X9929000Y-5689000D01*
X9929000Y-5659000D02*
X9899000Y-5689000D01*
X9899000Y-5859000D02*
X9929000Y-5889000D01*
X9929000Y-5859000D02*
X9899000Y-5889000D01*
X9899000Y-8409000D02*
X9929000Y-8439000D01*
X9929000Y-8409000D02*
X9899000Y-8439000D01*
X9899000Y-9159000D02*
X9929000Y-9189000D01*
X9929000Y-9159000D02*
X9899000Y-9189000D01*
X10043400Y-5446000D02*
X10073400Y-5476000D01*
X10073400Y-5446000D02*
X10043400Y-5476000D01*
X10353000Y-8159000D02*
X10383000Y-8189000D01*
X10383000Y-8159000D02*
X10353000Y-8189000D01*
X10399000Y-4409000D02*
X10429000Y-4439000D01*
X10429000Y-4409000D02*
X10399000Y-4439000D01*
X10399000Y-9159000D02*
X10429000Y-9189000D01*
X10429000Y-9159000D02*
X10399000Y-9189000D01*
X10649000Y-8659000D02*
X10679000Y-8689000D01*
X10679000Y-8659000D02*
X10649000Y-8689000D01*
X10661000Y-4835000D02*
X10691000Y-4865000D01*
X10691000Y-4835000D02*
X10661000Y-4865000D01*
X10899000Y-4409000D02*
X10929000Y-4439000D01*
X10929000Y-4409000D02*
X10899000Y-4439000D01*
X10899000Y-9159000D02*
X10929000Y-9189000D01*
X10929000Y-9159000D02*
X10899000Y-9189000D01*
X10932400Y-5649200D02*
X10962400Y-5679200D01*
X10962400Y-5649200D02*
X10932400Y-5679200D01*
X11149000Y-8159000D02*
X11179000Y-8189000D01*
X11179000Y-8159000D02*
X11149000Y-8189000D01*
X11399000Y-4409000D02*
X11429000Y-4439000D01*
X11429000Y-4409000D02*
X11399000Y-4439000D01*
X11399000Y-5159000D02*
X11429000Y-5189000D01*
X11429000Y-5159000D02*
X11399000Y-5189000D01*
X11399000Y-9159000D02*
X11429000Y-9189000D01*
X11429000Y-9159000D02*
X11399000Y-9189000D01*
X11484000Y-6169000D02*
X11514000Y-6199000D01*
X11514000Y-6169000D02*
X11484000Y-6199000D01*
X11649000Y-6909000D02*
X11679000Y-6939000D01*
X11679000Y-6909000D02*
X11649000Y-6939000D01*
X11899000Y-4409000D02*
X11929000Y-4439000D01*
X11929000Y-4409000D02*
X11899000Y-4439000D01*
X11899000Y-7409000D02*
X11929000Y-7439000D01*
X11929000Y-7409000D02*
X11899000Y-7439000D01*
X11899000Y-8159000D02*
X11929000Y-8189000D01*
X11929000Y-8159000D02*
X11899000Y-8189000D01*
X11899000Y-9159000D02*
X11929000Y-9189000D01*
X11929000Y-9159000D02*
X11899000Y-9189000D01*
X12099000Y-5259000D02*
X12129000Y-5289000D01*
X12129000Y-5259000D02*
X12099000Y-5289000D01*
X12149000Y-4659000D02*
X12179000Y-4689000D01*
X12179000Y-4659000D02*
X12149000Y-4689000D01*
X12149000Y-5659000D02*
X12179000Y-5689000D01*
X12179000Y-5659000D02*
X12149000Y-5689000D01*
X12149000Y-8909000D02*
X12179000Y-8939000D01*
X12179000Y-8909000D02*
X12149000Y-8939000D01*
X12199000Y-6159000D02*
X12229000Y-6189000D01*
X12229000Y-6159000D02*
X12199000Y-6189000D01*
X12399000Y-4909000D02*
X12429000Y-4939000D01*
X12429000Y-4909000D02*
X12399000Y-4939000D01*
X12399000Y-8659000D02*
X12429000Y-8689000D01*
X12429000Y-8659000D02*
X12399000Y-8689000D01*
X12649000Y-5159000D02*
X12679000Y-5189000D01*
X12679000Y-5159000D02*
X12649000Y-5189000D01*
X12649000Y-5659000D02*
X12679000Y-5689000D01*
X12679000Y-5659000D02*
X12649000Y-5689000D01*
X12649000Y-6159000D02*
X12679000Y-6189000D01*
X12679000Y-6159000D02*
X12649000Y-6189000D01*
X12649000Y-7159000D02*
X12679000Y-7189000D01*
X12679000Y-7159000D02*
X12649000Y-7189000D01*
X12649000Y-7659000D02*
X12679000Y-7689000D01*
X12679000Y-7659000D02*
X12649000Y-7689000D01*
X12649000Y-8409000D02*
X12679000Y-8439000D01*
X12679000Y-8409000D02*
X12649000Y-8439000D01*
X8205678Y-8423916D02*
G75*
G03X8205678Y-8423916I-20000J0D01*
G01*
X9118600Y-4694400D02*
X9118600Y-4754400D01*
X9088600Y-4724400D02*
X9148600Y-4724400D01*
X9610941Y-7850941D02*
X9610941Y-7797059D01*
X9557059Y-7797059D01*
X9557059Y-7850941D01*
X9610941Y-7850941D01*
X12390941Y-7850941D02*
X12390941Y-7797059D01*
X12337059Y-7797059D01*
X12337059Y-7850941D01*
X12390941Y-7850941D01*
X7115000Y-7345000D02*
X7165000Y-7295000D01*
X7115000Y-7245000D01*
X7065000Y-7295000D01*
X7115000Y-7345000D01*
X7115000Y-7599000D02*
X7165000Y-7549000D01*
X7115000Y-7499000D01*
X7065000Y-7549000D01*
X7115000Y-7599000D01*
X7115000Y-7853000D02*
X7165000Y-7803000D01*
X7115000Y-7753000D01*
X7065000Y-7803000D01*
X7115000Y-7853000D01*
X7115000Y-8107000D02*
X7165000Y-8057000D01*
X7115000Y-8007000D01*
X7065000Y-8057000D01*
X7115000Y-8107000D01*
X7115000Y-8361000D02*
X7165000Y-8311000D01*
X7115000Y-8261000D01*
X7065000Y-8311000D01*
X7115000Y-8361000D01*
X7115000Y-8615000D02*
X7165000Y-8565000D01*
X7115000Y-8515000D01*
X7065000Y-8565000D01*
X7115000Y-8615000D01*
D12*
X5694428Y-9845714D02*
X5694428Y-9545714D01*
X5765857Y-9545714D01*
X5808714Y-9560000D01*
X5837286Y-9588572D01*
X5851571Y-9617143D01*
X5865857Y-9674286D01*
X5865857Y-9717143D01*
X5851571Y-9774286D01*
X5837286Y-9802857D01*
X5808714Y-9831429D01*
X5765857Y-9845714D01*
X5694428Y-9845714D01*
X5994428Y-9845714D02*
X5994428Y-9645714D01*
X5994428Y-9702857D02*
X6008714Y-9674286D01*
X6023000Y-9660000D01*
X6051571Y-9645714D01*
X6080143Y-9645714D01*
X6180143Y-9845714D02*
X6180143Y-9645714D01*
X6180143Y-9545714D02*
X6165857Y-9560000D01*
X6180143Y-9574286D01*
X6194428Y-9560000D01*
X6180143Y-9545714D01*
X6180143Y-9574286D01*
X6365857Y-9845714D02*
X6337286Y-9831429D01*
X6323000Y-9802857D01*
X6323000Y-9545714D01*
X6523000Y-9845714D02*
X6494428Y-9831429D01*
X6480143Y-9802857D01*
X6480143Y-9545714D01*
X6865857Y-9845714D02*
X6865857Y-9545714D01*
X6965857Y-9760000D01*
X7065857Y-9545714D01*
X7065857Y-9845714D01*
X7337286Y-9845714D02*
X7337286Y-9688572D01*
X7323000Y-9660000D01*
X7294428Y-9645714D01*
X7237286Y-9645714D01*
X7208714Y-9660000D01*
X7337286Y-9831429D02*
X7308714Y-9845714D01*
X7237286Y-9845714D01*
X7208714Y-9831429D01*
X7194428Y-9802857D01*
X7194428Y-9774286D01*
X7208714Y-9745714D01*
X7237286Y-9731429D01*
X7308714Y-9731429D01*
X7337286Y-9717143D01*
X7480143Y-9645714D02*
X7480143Y-9945714D01*
X7480143Y-9660000D02*
X7508714Y-9645714D01*
X7565857Y-9645714D01*
X7594428Y-9660000D01*
X7608714Y-9674286D01*
X7623000Y-9702857D01*
X7623000Y-9788572D01*
X7608714Y-9817143D01*
X7594428Y-9831429D01*
X7565857Y-9845714D01*
X7508714Y-9845714D01*
X7480143Y-9831429D01*
X7751571Y-9817143D02*
X7765857Y-9831429D01*
X7751571Y-9845714D01*
X7737286Y-9831429D01*
X7751571Y-9817143D01*
X7751571Y-9845714D01*
X7751571Y-9660000D02*
X7765857Y-9674286D01*
X7751571Y-9688572D01*
X7737286Y-9674286D01*
X7751571Y-9660000D01*
X7751571Y-9688572D01*
X5378000Y-10325000D02*
X5408000Y-10355000D01*
X5408000Y-10325000D02*
X5378000Y-10355000D01*
X5751571Y-10175714D02*
X5780143Y-10175714D01*
X5808714Y-10190000D01*
X5823000Y-10204286D01*
X5837286Y-10232857D01*
X5851571Y-10290000D01*
X5851571Y-10361429D01*
X5837286Y-10418572D01*
X5823000Y-10447143D01*
X5808714Y-10461429D01*
X5780143Y-10475714D01*
X5751571Y-10475714D01*
X5723000Y-10461429D01*
X5708714Y-10447143D01*
X5694428Y-10418572D01*
X5680143Y-10361429D01*
X5680143Y-10290000D01*
X5694428Y-10232857D01*
X5708714Y-10204286D01*
X5723000Y-10190000D01*
X5751571Y-10175714D01*
X5980143Y-10447143D02*
X5994428Y-10461429D01*
X5980143Y-10475714D01*
X5965857Y-10461429D01*
X5980143Y-10447143D01*
X5980143Y-10475714D01*
X6094428Y-10175714D02*
X6280143Y-10175714D01*
X6180143Y-10290000D01*
X6223000Y-10290000D01*
X6251571Y-10304286D01*
X6265857Y-10318572D01*
X6280143Y-10347143D01*
X6280143Y-10418572D01*
X6265857Y-10447143D01*
X6251571Y-10461429D01*
X6223000Y-10475714D01*
X6137286Y-10475714D01*
X6108714Y-10461429D01*
X6094428Y-10447143D01*
X6465857Y-10175714D02*
X6494428Y-10175714D01*
X6523000Y-10190000D01*
X6537286Y-10204286D01*
X6551571Y-10232857D01*
X6565857Y-10290000D01*
X6565857Y-10361429D01*
X6551571Y-10418572D01*
X6537286Y-10447143D01*
X6523000Y-10461429D01*
X6494428Y-10475714D01*
X6465857Y-10475714D01*
X6437286Y-10461429D01*
X6423000Y-10447143D01*
X6408714Y-10418572D01*
X6394428Y-10361429D01*
X6394428Y-10290000D01*
X6408714Y-10232857D01*
X6423000Y-10204286D01*
X6437286Y-10190000D01*
X6465857Y-10175714D01*
X6694428Y-10475714D02*
X6694428Y-10275714D01*
X6694428Y-10304286D02*
X6708714Y-10290000D01*
X6737286Y-10275714D01*
X6780143Y-10275714D01*
X6808714Y-10290000D01*
X6823000Y-10318572D01*
X6823000Y-10475714D01*
X6823000Y-10318572D02*
X6837286Y-10290000D01*
X6865857Y-10275714D01*
X6908714Y-10275714D01*
X6937286Y-10290000D01*
X6951571Y-10318572D01*
X6951571Y-10475714D01*
X7094428Y-10475714D02*
X7094428Y-10275714D01*
X7094428Y-10304286D02*
X7108714Y-10290000D01*
X7137286Y-10275714D01*
X7180143Y-10275714D01*
X7208714Y-10290000D01*
X7223000Y-10318572D01*
X7223000Y-10475714D01*
X7223000Y-10318572D02*
X7237286Y-10290000D01*
X7265857Y-10275714D01*
X7308714Y-10275714D01*
X7337286Y-10290000D01*
X7351571Y-10318572D01*
X7351571Y-10475714D01*
X7937286Y-10161429D02*
X7680143Y-10547143D01*
X8323000Y-10175714D02*
X8351571Y-10175714D01*
X8380143Y-10190000D01*
X8394428Y-10204286D01*
X8408714Y-10232857D01*
X8423000Y-10290000D01*
X8423000Y-10361429D01*
X8408714Y-10418572D01*
X8394428Y-10447143D01*
X8380143Y-10461429D01*
X8351571Y-10475714D01*
X8323000Y-10475714D01*
X8294428Y-10461429D01*
X8280143Y-10447143D01*
X8265857Y-10418572D01*
X8251571Y-10361429D01*
X8251571Y-10290000D01*
X8265857Y-10232857D01*
X8280143Y-10204286D01*
X8294428Y-10190000D01*
X8323000Y-10175714D01*
X8551571Y-10447143D02*
X8565857Y-10461429D01*
X8551571Y-10475714D01*
X8537286Y-10461429D01*
X8551571Y-10447143D01*
X8551571Y-10475714D01*
X8751571Y-10175714D02*
X8780143Y-10175714D01*
X8808714Y-10190000D01*
X8823000Y-10204286D01*
X8837286Y-10232857D01*
X8851571Y-10290000D01*
X8851571Y-10361429D01*
X8837286Y-10418572D01*
X8823000Y-10447143D01*
X8808714Y-10461429D01*
X8780143Y-10475714D01*
X8751571Y-10475714D01*
X8723000Y-10461429D01*
X8708714Y-10447143D01*
X8694428Y-10418572D01*
X8680143Y-10361429D01*
X8680143Y-10290000D01*
X8694428Y-10232857D01*
X8708714Y-10204286D01*
X8723000Y-10190000D01*
X8751571Y-10175714D01*
X9137286Y-10475714D02*
X8965857Y-10475714D01*
X9051571Y-10475714D02*
X9051571Y-10175714D01*
X9023000Y-10218572D01*
X8994428Y-10247143D01*
X8965857Y-10261429D01*
X9251571Y-10204286D02*
X9265857Y-10190000D01*
X9294428Y-10175714D01*
X9365857Y-10175714D01*
X9394428Y-10190000D01*
X9408714Y-10204286D01*
X9423000Y-10232857D01*
X9423000Y-10261429D01*
X9408714Y-10304286D01*
X9237286Y-10475714D01*
X9423000Y-10475714D01*
X9537286Y-10175714D02*
X9537286Y-10232857D01*
X9651571Y-10175714D02*
X9651571Y-10232857D01*
X10094428Y-10590000D02*
X10080143Y-10575714D01*
X10051571Y-10532857D01*
X10037286Y-10504286D01*
X10023000Y-10461429D01*
X10008714Y-10390000D01*
X10008714Y-10332857D01*
X10023000Y-10261429D01*
X10037286Y-10218572D01*
X10051571Y-10190000D01*
X10080143Y-10147143D01*
X10094428Y-10132857D01*
X10365857Y-10475714D02*
X10194428Y-10475714D01*
X10280143Y-10475714D02*
X10280143Y-10175714D01*
X10251571Y-10218572D01*
X10223000Y-10247143D01*
X10194428Y-10261429D01*
X10623000Y-10275714D02*
X10623000Y-10475714D01*
X10551571Y-10161429D02*
X10480143Y-10375714D01*
X10665857Y-10375714D01*
X10751571Y-10175714D02*
X10951571Y-10175714D01*
X10823000Y-10475714D01*
X11294428Y-10475714D02*
X11294428Y-10175714D01*
X11423000Y-10475714D02*
X11423000Y-10318572D01*
X11408714Y-10290000D01*
X11380143Y-10275714D01*
X11337286Y-10275714D01*
X11308714Y-10290000D01*
X11294428Y-10304286D01*
X11608714Y-10475714D02*
X11580143Y-10461429D01*
X11565857Y-10447143D01*
X11551571Y-10418572D01*
X11551571Y-10332857D01*
X11565857Y-10304286D01*
X11580143Y-10290000D01*
X11608714Y-10275714D01*
X11651571Y-10275714D01*
X11680143Y-10290000D01*
X11694428Y-10304286D01*
X11708714Y-10332857D01*
X11708714Y-10418572D01*
X11694428Y-10447143D01*
X11680143Y-10461429D01*
X11651571Y-10475714D01*
X11608714Y-10475714D01*
X11880143Y-10475714D02*
X11851571Y-10461429D01*
X11837286Y-10432857D01*
X11837286Y-10175714D01*
X12108714Y-10461429D02*
X12080143Y-10475714D01*
X12023000Y-10475714D01*
X11994428Y-10461429D01*
X11980143Y-10432857D01*
X11980143Y-10318572D01*
X11994428Y-10290000D01*
X12023000Y-10275714D01*
X12080143Y-10275714D01*
X12108714Y-10290000D01*
X12123000Y-10318572D01*
X12123000Y-10347143D01*
X11980143Y-10375714D01*
X12237286Y-10461429D02*
X12265857Y-10475714D01*
X12323000Y-10475714D01*
X12351571Y-10461429D01*
X12365857Y-10432857D01*
X12365857Y-10418572D01*
X12351571Y-10390000D01*
X12323000Y-10375714D01*
X12280143Y-10375714D01*
X12251571Y-10361429D01*
X12237286Y-10332857D01*
X12237286Y-10318572D01*
X12251571Y-10290000D01*
X12280143Y-10275714D01*
X12323000Y-10275714D01*
X12351571Y-10290000D01*
X12465857Y-10590000D02*
X12480143Y-10575714D01*
X12508714Y-10532857D01*
X12523000Y-10504286D01*
X12537286Y-10461429D01*
X12551571Y-10390000D01*
X12551571Y-10332857D01*
X12537286Y-10261429D01*
X12523000Y-10218572D01*
X12508714Y-10190000D01*
X12480143Y-10147143D01*
X12465857Y-10132857D01*
X5408000Y-10736000D02*
G75*
G03X5408000Y-10736000I-20000J0D01*
G01*
X5751571Y-10571714D02*
X5780143Y-10571714D01*
X5808714Y-10586000D01*
X5823000Y-10600286D01*
X5837286Y-10628857D01*
X5851571Y-10686000D01*
X5851571Y-10757429D01*
X5837286Y-10814572D01*
X5823000Y-10843143D01*
X5808714Y-10857429D01*
X5780143Y-10871714D01*
X5751571Y-10871714D01*
X5723000Y-10857429D01*
X5708714Y-10843143D01*
X5694428Y-10814572D01*
X5680143Y-10757429D01*
X5680143Y-10686000D01*
X5694428Y-10628857D01*
X5708714Y-10600286D01*
X5723000Y-10586000D01*
X5751571Y-10571714D01*
X5980143Y-10843143D02*
X5994428Y-10857429D01*
X5980143Y-10871714D01*
X5965857Y-10857429D01*
X5980143Y-10843143D01*
X5980143Y-10871714D01*
X6251571Y-10671714D02*
X6251571Y-10871714D01*
X6180143Y-10557429D02*
X6108714Y-10771714D01*
X6294428Y-10771714D01*
X6465857Y-10571714D02*
X6494428Y-10571714D01*
X6523000Y-10586000D01*
X6537286Y-10600286D01*
X6551571Y-10628857D01*
X6565857Y-10686000D01*
X6565857Y-10757429D01*
X6551571Y-10814572D01*
X6537286Y-10843143D01*
X6523000Y-10857429D01*
X6494428Y-10871714D01*
X6465857Y-10871714D01*
X6437286Y-10857429D01*
X6423000Y-10843143D01*
X6408714Y-10814572D01*
X6394428Y-10757429D01*
X6394428Y-10686000D01*
X6408714Y-10628857D01*
X6423000Y-10600286D01*
X6437286Y-10586000D01*
X6465857Y-10571714D01*
X6694428Y-10871714D02*
X6694428Y-10671714D01*
X6694428Y-10700286D02*
X6708714Y-10686000D01*
X6737286Y-10671714D01*
X6780143Y-10671714D01*
X6808714Y-10686000D01*
X6823000Y-10714572D01*
X6823000Y-10871714D01*
X6823000Y-10714572D02*
X6837286Y-10686000D01*
X6865857Y-10671714D01*
X6908714Y-10671714D01*
X6937286Y-10686000D01*
X6951571Y-10714572D01*
X6951571Y-10871714D01*
X7094428Y-10871714D02*
X7094428Y-10671714D01*
X7094428Y-10700286D02*
X7108714Y-10686000D01*
X7137286Y-10671714D01*
X7180143Y-10671714D01*
X7208714Y-10686000D01*
X7223000Y-10714572D01*
X7223000Y-10871714D01*
X7223000Y-10714572D02*
X7237286Y-10686000D01*
X7265857Y-10671714D01*
X7308714Y-10671714D01*
X7337286Y-10686000D01*
X7351571Y-10714572D01*
X7351571Y-10871714D01*
X7937286Y-10557429D02*
X7680143Y-10943143D01*
X8323000Y-10571714D02*
X8351571Y-10571714D01*
X8380143Y-10586000D01*
X8394428Y-10600286D01*
X8408714Y-10628857D01*
X8423000Y-10686000D01*
X8423000Y-10757429D01*
X8408714Y-10814572D01*
X8394428Y-10843143D01*
X8380143Y-10857429D01*
X8351571Y-10871714D01*
X8323000Y-10871714D01*
X8294428Y-10857429D01*
X8280143Y-10843143D01*
X8265857Y-10814572D01*
X8251571Y-10757429D01*
X8251571Y-10686000D01*
X8265857Y-10628857D01*
X8280143Y-10600286D01*
X8294428Y-10586000D01*
X8323000Y-10571714D01*
X8551571Y-10843143D02*
X8565857Y-10857429D01*
X8551571Y-10871714D01*
X8537286Y-10857429D01*
X8551571Y-10843143D01*
X8551571Y-10871714D01*
X8751571Y-10571714D02*
X8780143Y-10571714D01*
X8808714Y-10586000D01*
X8823000Y-10600286D01*
X8837286Y-10628857D01*
X8851571Y-10686000D01*
X8851571Y-10757429D01*
X8837286Y-10814572D01*
X8823000Y-10843143D01*
X8808714Y-10857429D01*
X8780143Y-10871714D01*
X8751571Y-10871714D01*
X8723000Y-10857429D01*
X8708714Y-10843143D01*
X8694428Y-10814572D01*
X8680143Y-10757429D01*
X8680143Y-10686000D01*
X8694428Y-10628857D01*
X8708714Y-10600286D01*
X8723000Y-10586000D01*
X8751571Y-10571714D01*
X9137286Y-10871714D02*
X8965857Y-10871714D01*
X9051571Y-10871714D02*
X9051571Y-10571714D01*
X9023000Y-10614572D01*
X8994428Y-10643143D01*
X8965857Y-10657429D01*
X9394428Y-10571714D02*
X9337286Y-10571714D01*
X9308714Y-10586000D01*
X9294428Y-10600286D01*
X9265857Y-10643143D01*
X9251571Y-10700286D01*
X9251571Y-10814572D01*
X9265857Y-10843143D01*
X9280143Y-10857429D01*
X9308714Y-10871714D01*
X9365857Y-10871714D01*
X9394428Y-10857429D01*
X9408714Y-10843143D01*
X9423000Y-10814572D01*
X9423000Y-10743143D01*
X9408714Y-10714572D01*
X9394428Y-10700286D01*
X9365857Y-10686000D01*
X9308714Y-10686000D01*
X9280143Y-10700286D01*
X9265857Y-10714572D01*
X9251571Y-10743143D01*
X9537286Y-10571714D02*
X9537286Y-10628857D01*
X9651571Y-10571714D02*
X9651571Y-10628857D01*
X10094428Y-10986000D02*
X10080143Y-10971714D01*
X10051571Y-10928857D01*
X10037286Y-10900286D01*
X10023000Y-10857429D01*
X10008714Y-10786000D01*
X10008714Y-10728857D01*
X10023000Y-10657429D01*
X10037286Y-10614572D01*
X10051571Y-10586000D01*
X10080143Y-10543143D01*
X10094428Y-10528857D01*
X10365857Y-10871714D02*
X10194428Y-10871714D01*
X10280143Y-10871714D02*
X10280143Y-10571714D01*
X10251571Y-10614572D01*
X10223000Y-10643143D01*
X10194428Y-10657429D01*
X10723000Y-10871714D02*
X10723000Y-10571714D01*
X10851571Y-10871714D02*
X10851571Y-10714572D01*
X10837286Y-10686000D01*
X10808714Y-10671714D01*
X10765857Y-10671714D01*
X10737286Y-10686000D01*
X10723000Y-10700286D01*
X11037286Y-10871714D02*
X11008714Y-10857429D01*
X10994428Y-10843143D01*
X10980143Y-10814572D01*
X10980143Y-10728857D01*
X10994428Y-10700286D01*
X11008714Y-10686000D01*
X11037286Y-10671714D01*
X11080143Y-10671714D01*
X11108714Y-10686000D01*
X11123000Y-10700286D01*
X11137286Y-10728857D01*
X11137286Y-10814572D01*
X11123000Y-10843143D01*
X11108714Y-10857429D01*
X11080143Y-10871714D01*
X11037286Y-10871714D01*
X11308714Y-10871714D02*
X11280143Y-10857429D01*
X11265857Y-10828857D01*
X11265857Y-10571714D01*
X11537286Y-10857429D02*
X11508714Y-10871714D01*
X11451571Y-10871714D01*
X11423000Y-10857429D01*
X11408714Y-10828857D01*
X11408714Y-10714572D01*
X11423000Y-10686000D01*
X11451571Y-10671714D01*
X11508714Y-10671714D01*
X11537286Y-10686000D01*
X11551571Y-10714572D01*
X11551571Y-10743143D01*
X11408714Y-10771714D01*
X11651571Y-10986000D02*
X11665857Y-10971714D01*
X11694428Y-10928857D01*
X11708714Y-10900286D01*
X11723000Y-10857429D01*
X11737286Y-10786000D01*
X11737286Y-10728857D01*
X11723000Y-10657429D01*
X11708714Y-10614572D01*
X11694428Y-10586000D01*
X11665857Y-10543143D01*
X11651571Y-10528857D01*
X5378000Y-11102000D02*
X5378000Y-11162000D01*
X5348000Y-11132000D02*
X5408000Y-11132000D01*
X5751571Y-10967714D02*
X5780143Y-10967714D01*
X5808714Y-10982000D01*
X5823000Y-10996286D01*
X5837286Y-11024857D01*
X5851571Y-11082000D01*
X5851571Y-11153429D01*
X5837286Y-11210571D01*
X5823000Y-11239143D01*
X5808714Y-11253429D01*
X5780143Y-11267714D01*
X5751571Y-11267714D01*
X5723000Y-11253429D01*
X5708714Y-11239143D01*
X5694428Y-11210571D01*
X5680143Y-11153429D01*
X5680143Y-11082000D01*
X5694428Y-11024857D01*
X5708714Y-10996286D01*
X5723000Y-10982000D01*
X5751571Y-10967714D01*
X5980143Y-11239143D02*
X5994428Y-11253429D01*
X5980143Y-11267714D01*
X5965857Y-11253429D01*
X5980143Y-11239143D01*
X5980143Y-11267714D01*
X6251571Y-10967714D02*
X6194428Y-10967714D01*
X6165857Y-10982000D01*
X6151571Y-10996286D01*
X6123000Y-11039143D01*
X6108714Y-11096286D01*
X6108714Y-11210571D01*
X6123000Y-11239143D01*
X6137286Y-11253429D01*
X6165857Y-11267714D01*
X6223000Y-11267714D01*
X6251571Y-11253429D01*
X6265857Y-11239143D01*
X6280143Y-11210571D01*
X6280143Y-11139143D01*
X6265857Y-11110572D01*
X6251571Y-11096286D01*
X6223000Y-11082000D01*
X6165857Y-11082000D01*
X6137286Y-11096286D01*
X6123000Y-11110572D01*
X6108714Y-11139143D01*
X6465857Y-10967714D02*
X6494428Y-10967714D01*
X6523000Y-10982000D01*
X6537286Y-10996286D01*
X6551571Y-11024857D01*
X6565857Y-11082000D01*
X6565857Y-11153429D01*
X6551571Y-11210571D01*
X6537286Y-11239143D01*
X6523000Y-11253429D01*
X6494428Y-11267714D01*
X6465857Y-11267714D01*
X6437286Y-11253429D01*
X6423000Y-11239143D01*
X6408714Y-11210571D01*
X6394428Y-11153429D01*
X6394428Y-11082000D01*
X6408714Y-11024857D01*
X6423000Y-10996286D01*
X6437286Y-10982000D01*
X6465857Y-10967714D01*
X6694428Y-11267714D02*
X6694428Y-11067714D01*
X6694428Y-11096286D02*
X6708714Y-11082000D01*
X6737286Y-11067714D01*
X6780143Y-11067714D01*
X6808714Y-11082000D01*
X6823000Y-11110572D01*
X6823000Y-11267714D01*
X6823000Y-11110572D02*
X6837286Y-11082000D01*
X6865857Y-11067714D01*
X6908714Y-11067714D01*
X6937286Y-11082000D01*
X6951571Y-11110572D01*
X6951571Y-11267714D01*
X7094428Y-11267714D02*
X7094428Y-11067714D01*
X7094428Y-11096286D02*
X7108714Y-11082000D01*
X7137286Y-11067714D01*
X7180143Y-11067714D01*
X7208714Y-11082000D01*
X7223000Y-11110572D01*
X7223000Y-11267714D01*
X7223000Y-11110572D02*
X7237286Y-11082000D01*
X7265857Y-11067714D01*
X7308714Y-11067714D01*
X7337286Y-11082000D01*
X7351571Y-11110572D01*
X7351571Y-11267714D01*
X7937286Y-10953429D02*
X7680143Y-11339143D01*
X8323000Y-10967714D02*
X8351571Y-10967714D01*
X8380143Y-10982000D01*
X8394428Y-10996286D01*
X8408714Y-11024857D01*
X8423000Y-11082000D01*
X8423000Y-11153429D01*
X8408714Y-11210571D01*
X8394428Y-11239143D01*
X8380143Y-11253429D01*
X8351571Y-11267714D01*
X8323000Y-11267714D01*
X8294428Y-11253429D01*
X8280143Y-11239143D01*
X8265857Y-11210571D01*
X8251571Y-11153429D01*
X8251571Y-11082000D01*
X8265857Y-11024857D01*
X8280143Y-10996286D01*
X8294428Y-10982000D01*
X8323000Y-10967714D01*
X8551571Y-11239143D02*
X8565857Y-11253429D01*
X8551571Y-11267714D01*
X8537286Y-11253429D01*
X8551571Y-11239143D01*
X8551571Y-11267714D01*
X8751571Y-10967714D02*
X8780143Y-10967714D01*
X8808714Y-10982000D01*
X8823000Y-10996286D01*
X8837286Y-11024857D01*
X8851571Y-11082000D01*
X8851571Y-11153429D01*
X8837286Y-11210571D01*
X8823000Y-11239143D01*
X8808714Y-11253429D01*
X8780143Y-11267714D01*
X8751571Y-11267714D01*
X8723000Y-11253429D01*
X8708714Y-11239143D01*
X8694428Y-11210571D01*
X8680143Y-11153429D01*
X8680143Y-11082000D01*
X8694428Y-11024857D01*
X8708714Y-10996286D01*
X8723000Y-10982000D01*
X8751571Y-10967714D01*
X8965857Y-10996286D02*
X8980143Y-10982000D01*
X9008714Y-10967714D01*
X9080143Y-10967714D01*
X9108714Y-10982000D01*
X9123000Y-10996286D01*
X9137286Y-11024857D01*
X9137286Y-11053429D01*
X9123000Y-11096286D01*
X8951571Y-11267714D01*
X9137286Y-11267714D01*
X9394428Y-11067714D02*
X9394428Y-11267714D01*
X9323000Y-10953429D02*
X9251571Y-11167714D01*
X9437286Y-11167714D01*
X9537286Y-10967714D02*
X9537286Y-11024857D01*
X9651571Y-10967714D02*
X9651571Y-11024857D01*
X10094428Y-11382000D02*
X10080143Y-11367714D01*
X10051571Y-11324857D01*
X10037286Y-11296286D01*
X10023000Y-11253429D01*
X10008714Y-11182000D01*
X10008714Y-11124857D01*
X10023000Y-11053429D01*
X10037286Y-11010572D01*
X10051571Y-10982000D01*
X10080143Y-10939143D01*
X10094428Y-10924857D01*
X10365857Y-11267714D02*
X10194428Y-11267714D01*
X10280143Y-11267714D02*
X10280143Y-10967714D01*
X10251571Y-11010572D01*
X10223000Y-11039143D01*
X10194428Y-11053429D01*
X10723000Y-11267714D02*
X10723000Y-10967714D01*
X10851571Y-11267714D02*
X10851571Y-11110572D01*
X10837286Y-11082000D01*
X10808714Y-11067714D01*
X10765857Y-11067714D01*
X10737286Y-11082000D01*
X10723000Y-11096286D01*
X11037286Y-11267714D02*
X11008714Y-11253429D01*
X10994428Y-11239143D01*
X10980143Y-11210571D01*
X10980143Y-11124857D01*
X10994428Y-11096286D01*
X11008714Y-11082000D01*
X11037286Y-11067714D01*
X11080143Y-11067714D01*
X11108714Y-11082000D01*
X11123000Y-11096286D01*
X11137286Y-11124857D01*
X11137286Y-11210571D01*
X11123000Y-11239143D01*
X11108714Y-11253429D01*
X11080143Y-11267714D01*
X11037286Y-11267714D01*
X11308714Y-11267714D02*
X11280143Y-11253429D01*
X11265857Y-11224857D01*
X11265857Y-10967714D01*
X11537286Y-11253429D02*
X11508714Y-11267714D01*
X11451571Y-11267714D01*
X11423000Y-11253429D01*
X11408714Y-11224857D01*
X11408714Y-11110572D01*
X11423000Y-11082000D01*
X11451571Y-11067714D01*
X11508714Y-11067714D01*
X11537286Y-11082000D01*
X11551571Y-11110572D01*
X11551571Y-11139143D01*
X11408714Y-11167714D01*
X11651571Y-11382000D02*
X11665857Y-11367714D01*
X11694428Y-11324857D01*
X11708714Y-11296286D01*
X11723000Y-11253429D01*
X11737286Y-11182000D01*
X11737286Y-11124857D01*
X11723000Y-11053429D01*
X11708714Y-11010572D01*
X11694428Y-10982000D01*
X11665857Y-10939143D01*
X11651571Y-10924857D01*
X5396841Y-11554941D02*
X5396841Y-11501059D01*
X5342959Y-11501059D01*
X5342959Y-11554941D01*
X5396841Y-11554941D01*
X5751571Y-11363714D02*
X5780143Y-11363714D01*
X5808714Y-11378000D01*
X5823000Y-11392286D01*
X5837286Y-11420857D01*
X5851571Y-11478000D01*
X5851571Y-11549429D01*
X5837286Y-11606571D01*
X5823000Y-11635143D01*
X5808714Y-11649429D01*
X5780143Y-11663714D01*
X5751571Y-11663714D01*
X5723000Y-11649429D01*
X5708714Y-11635143D01*
X5694428Y-11606571D01*
X5680143Y-11549429D01*
X5680143Y-11478000D01*
X5694428Y-11420857D01*
X5708714Y-11392286D01*
X5723000Y-11378000D01*
X5751571Y-11363714D01*
X5980143Y-11635143D02*
X5994428Y-11649429D01*
X5980143Y-11663714D01*
X5965857Y-11649429D01*
X5980143Y-11635143D01*
X5980143Y-11663714D01*
X6094428Y-11363714D02*
X6294428Y-11363714D01*
X6165857Y-11663714D01*
X6537286Y-11363714D02*
X6480143Y-11363714D01*
X6451571Y-11378000D01*
X6437286Y-11392286D01*
X6408714Y-11435143D01*
X6394428Y-11492286D01*
X6394428Y-11606571D01*
X6408714Y-11635143D01*
X6423000Y-11649429D01*
X6451571Y-11663714D01*
X6508714Y-11663714D01*
X6537286Y-11649429D01*
X6551571Y-11635143D01*
X6565857Y-11606571D01*
X6565857Y-11535143D01*
X6551571Y-11506571D01*
X6537286Y-11492286D01*
X6508714Y-11478000D01*
X6451571Y-11478000D01*
X6423000Y-11492286D01*
X6408714Y-11506571D01*
X6394428Y-11535143D01*
X6694428Y-11663714D02*
X6694428Y-11463714D01*
X6694428Y-11492286D02*
X6708714Y-11478000D01*
X6737286Y-11463714D01*
X6780143Y-11463714D01*
X6808714Y-11478000D01*
X6823000Y-11506571D01*
X6823000Y-11663714D01*
X6823000Y-11506571D02*
X6837286Y-11478000D01*
X6865857Y-11463714D01*
X6908714Y-11463714D01*
X6937286Y-11478000D01*
X6951571Y-11506571D01*
X6951571Y-11663714D01*
X7094428Y-11663714D02*
X7094428Y-11463714D01*
X7094428Y-11492286D02*
X7108714Y-11478000D01*
X7137286Y-11463714D01*
X7180143Y-11463714D01*
X7208714Y-11478000D01*
X7223000Y-11506571D01*
X7223000Y-11663714D01*
X7223000Y-11506571D02*
X7237286Y-11478000D01*
X7265857Y-11463714D01*
X7308714Y-11463714D01*
X7337286Y-11478000D01*
X7351571Y-11506571D01*
X7351571Y-11663714D01*
X7937286Y-11349429D02*
X7680143Y-11735143D01*
X8323000Y-11363714D02*
X8351571Y-11363714D01*
X8380143Y-11378000D01*
X8394428Y-11392286D01*
X8408714Y-11420857D01*
X8423000Y-11478000D01*
X8423000Y-11549429D01*
X8408714Y-11606571D01*
X8394428Y-11635143D01*
X8380143Y-11649429D01*
X8351571Y-11663714D01*
X8323000Y-11663714D01*
X8294428Y-11649429D01*
X8280143Y-11635143D01*
X8265857Y-11606571D01*
X8251571Y-11549429D01*
X8251571Y-11478000D01*
X8265857Y-11420857D01*
X8280143Y-11392286D01*
X8294428Y-11378000D01*
X8323000Y-11363714D01*
X8551571Y-11635143D02*
X8565857Y-11649429D01*
X8551571Y-11663714D01*
X8537286Y-11649429D01*
X8551571Y-11635143D01*
X8551571Y-11663714D01*
X8751571Y-11363714D02*
X8780143Y-11363714D01*
X8808714Y-11378000D01*
X8823000Y-11392286D01*
X8837286Y-11420857D01*
X8851571Y-11478000D01*
X8851571Y-11549429D01*
X8837286Y-11606571D01*
X8823000Y-11635143D01*
X8808714Y-11649429D01*
X8780143Y-11663714D01*
X8751571Y-11663714D01*
X8723000Y-11649429D01*
X8708714Y-11635143D01*
X8694428Y-11606571D01*
X8680143Y-11549429D01*
X8680143Y-11478000D01*
X8694428Y-11420857D01*
X8708714Y-11392286D01*
X8723000Y-11378000D01*
X8751571Y-11363714D01*
X8951571Y-11363714D02*
X9137286Y-11363714D01*
X9037286Y-11478000D01*
X9080143Y-11478000D01*
X9108714Y-11492286D01*
X9123000Y-11506571D01*
X9137286Y-11535143D01*
X9137286Y-11606571D01*
X9123000Y-11635143D01*
X9108714Y-11649429D01*
X9080143Y-11663714D01*
X8994428Y-11663714D01*
X8965857Y-11649429D01*
X8951571Y-11635143D01*
X9323000Y-11363714D02*
X9351571Y-11363714D01*
X9380143Y-11378000D01*
X9394428Y-11392286D01*
X9408714Y-11420857D01*
X9423000Y-11478000D01*
X9423000Y-11549429D01*
X9408714Y-11606571D01*
X9394428Y-11635143D01*
X9380143Y-11649429D01*
X9351571Y-11663714D01*
X9323000Y-11663714D01*
X9294428Y-11649429D01*
X9280143Y-11635143D01*
X9265857Y-11606571D01*
X9251571Y-11549429D01*
X9251571Y-11478000D01*
X9265857Y-11420857D01*
X9280143Y-11392286D01*
X9294428Y-11378000D01*
X9323000Y-11363714D01*
X9537286Y-11363714D02*
X9537286Y-11420857D01*
X9651571Y-11363714D02*
X9651571Y-11420857D01*
X10094428Y-11778000D02*
X10080143Y-11763714D01*
X10051571Y-11720857D01*
X10037286Y-11692286D01*
X10023000Y-11649429D01*
X10008714Y-11578000D01*
X10008714Y-11520857D01*
X10023000Y-11449429D01*
X10037286Y-11406571D01*
X10051571Y-11378000D01*
X10080143Y-11335143D01*
X10094428Y-11320857D01*
X10194428Y-11392286D02*
X10208714Y-11378000D01*
X10237286Y-11363714D01*
X10308714Y-11363714D01*
X10337286Y-11378000D01*
X10351571Y-11392286D01*
X10365857Y-11420857D01*
X10365857Y-11449429D01*
X10351571Y-11492286D01*
X10180143Y-11663714D01*
X10365857Y-11663714D01*
X10723000Y-11663714D02*
X10723000Y-11363714D01*
X10851571Y-11663714D02*
X10851571Y-11506571D01*
X10837286Y-11478000D01*
X10808714Y-11463714D01*
X10765857Y-11463714D01*
X10737286Y-11478000D01*
X10723000Y-11492286D01*
X11037286Y-11663714D02*
X11008714Y-11649429D01*
X10994428Y-11635143D01*
X10980143Y-11606571D01*
X10980143Y-11520857D01*
X10994428Y-11492286D01*
X11008714Y-11478000D01*
X11037286Y-11463714D01*
X11080143Y-11463714D01*
X11108714Y-11478000D01*
X11123000Y-11492286D01*
X11137286Y-11520857D01*
X11137286Y-11606571D01*
X11123000Y-11635143D01*
X11108714Y-11649429D01*
X11080143Y-11663714D01*
X11037286Y-11663714D01*
X11308714Y-11663714D02*
X11280143Y-11649429D01*
X11265857Y-11620857D01*
X11265857Y-11363714D01*
X11537286Y-11649429D02*
X11508714Y-11663714D01*
X11451571Y-11663714D01*
X11423000Y-11649429D01*
X11408714Y-11620857D01*
X11408714Y-11506571D01*
X11423000Y-11478000D01*
X11451571Y-11463714D01*
X11508714Y-11463714D01*
X11537286Y-11478000D01*
X11551571Y-11506571D01*
X11551571Y-11535143D01*
X11408714Y-11563714D01*
X11665857Y-11649429D02*
X11694428Y-11663714D01*
X11751571Y-11663714D01*
X11780143Y-11649429D01*
X11794428Y-11620857D01*
X11794428Y-11606571D01*
X11780143Y-11578000D01*
X11751571Y-11563714D01*
X11708714Y-11563714D01*
X11680143Y-11549429D01*
X11665857Y-11520857D01*
X11665857Y-11506571D01*
X11680143Y-11478000D01*
X11708714Y-11463714D01*
X11751571Y-11463714D01*
X11780143Y-11478000D01*
X11894428Y-11778000D02*
X11908714Y-11763714D01*
X11937286Y-11720857D01*
X11951571Y-11692286D01*
X11965857Y-11649429D01*
X11980143Y-11578000D01*
X11980143Y-11520857D01*
X11965857Y-11449429D01*
X11951571Y-11406571D01*
X11937286Y-11378000D01*
X11908714Y-11335143D01*
X11894428Y-11320857D01*
X5358000Y-11974000D02*
X5408000Y-11924000D01*
X5358000Y-11874000D01*
X5308000Y-11924000D01*
X5358000Y-11974000D01*
X5851571Y-12059714D02*
X5680143Y-12059714D01*
X5765857Y-12059714D02*
X5765857Y-11759714D01*
X5737286Y-11802571D01*
X5708714Y-11831143D01*
X5680143Y-11845429D01*
X5980143Y-12031143D02*
X5994428Y-12045429D01*
X5980143Y-12059714D01*
X5965857Y-12045429D01*
X5980143Y-12031143D01*
X5980143Y-12059714D01*
X6180143Y-11759714D02*
X6208714Y-11759714D01*
X6237286Y-11774000D01*
X6251571Y-11788286D01*
X6265857Y-11816857D01*
X6280143Y-11874000D01*
X6280143Y-11945429D01*
X6265857Y-12002571D01*
X6251571Y-12031143D01*
X6237286Y-12045429D01*
X6208714Y-12059714D01*
X6180143Y-12059714D01*
X6151571Y-12045429D01*
X6137286Y-12031143D01*
X6123000Y-12002571D01*
X6108714Y-11945429D01*
X6108714Y-11874000D01*
X6123000Y-11816857D01*
X6137286Y-11788286D01*
X6151571Y-11774000D01*
X6180143Y-11759714D01*
X6465857Y-11759714D02*
X6494428Y-11759714D01*
X6523000Y-11774000D01*
X6537286Y-11788286D01*
X6551571Y-11816857D01*
X6565857Y-11874000D01*
X6565857Y-11945429D01*
X6551571Y-12002571D01*
X6537286Y-12031143D01*
X6523000Y-12045429D01*
X6494428Y-12059714D01*
X6465857Y-12059714D01*
X6437286Y-12045429D01*
X6423000Y-12031143D01*
X6408714Y-12002571D01*
X6394428Y-11945429D01*
X6394428Y-11874000D01*
X6408714Y-11816857D01*
X6423000Y-11788286D01*
X6437286Y-11774000D01*
X6465857Y-11759714D01*
X6694428Y-12059714D02*
X6694428Y-11859714D01*
X6694428Y-11888286D02*
X6708714Y-11874000D01*
X6737286Y-11859714D01*
X6780143Y-11859714D01*
X6808714Y-11874000D01*
X6823000Y-11902571D01*
X6823000Y-12059714D01*
X6823000Y-11902571D02*
X6837286Y-11874000D01*
X6865857Y-11859714D01*
X6908714Y-11859714D01*
X6937286Y-11874000D01*
X6951571Y-11902571D01*
X6951571Y-12059714D01*
X7094428Y-12059714D02*
X7094428Y-11859714D01*
X7094428Y-11888286D02*
X7108714Y-11874000D01*
X7137286Y-11859714D01*
X7180143Y-11859714D01*
X7208714Y-11874000D01*
X7223000Y-11902571D01*
X7223000Y-12059714D01*
X7223000Y-11902571D02*
X7237286Y-11874000D01*
X7265857Y-11859714D01*
X7308714Y-11859714D01*
X7337286Y-11874000D01*
X7351571Y-11902571D01*
X7351571Y-12059714D01*
X7937286Y-11745429D02*
X7680143Y-12131143D01*
X8323000Y-11759714D02*
X8351571Y-11759714D01*
X8380143Y-11774000D01*
X8394428Y-11788286D01*
X8408714Y-11816857D01*
X8423000Y-11874000D01*
X8423000Y-11945429D01*
X8408714Y-12002571D01*
X8394428Y-12031143D01*
X8380143Y-12045429D01*
X8351571Y-12059714D01*
X8323000Y-12059714D01*
X8294428Y-12045429D01*
X8280143Y-12031143D01*
X8265857Y-12002571D01*
X8251571Y-11945429D01*
X8251571Y-11874000D01*
X8265857Y-11816857D01*
X8280143Y-11788286D01*
X8294428Y-11774000D01*
X8323000Y-11759714D01*
X8551571Y-12031143D02*
X8565857Y-12045429D01*
X8551571Y-12059714D01*
X8537286Y-12045429D01*
X8551571Y-12031143D01*
X8551571Y-12059714D01*
X8751571Y-11759714D02*
X8780143Y-11759714D01*
X8808714Y-11774000D01*
X8823000Y-11788286D01*
X8837286Y-11816857D01*
X8851571Y-11874000D01*
X8851571Y-11945429D01*
X8837286Y-12002571D01*
X8823000Y-12031143D01*
X8808714Y-12045429D01*
X8780143Y-12059714D01*
X8751571Y-12059714D01*
X8723000Y-12045429D01*
X8708714Y-12031143D01*
X8694428Y-12002571D01*
X8680143Y-11945429D01*
X8680143Y-11874000D01*
X8694428Y-11816857D01*
X8708714Y-11788286D01*
X8723000Y-11774000D01*
X8751571Y-11759714D01*
X8951571Y-11759714D02*
X9137286Y-11759714D01*
X9037286Y-11874000D01*
X9080143Y-11874000D01*
X9108714Y-11888286D01*
X9123000Y-11902571D01*
X9137286Y-11931143D01*
X9137286Y-12002571D01*
X9123000Y-12031143D01*
X9108714Y-12045429D01*
X9080143Y-12059714D01*
X8994428Y-12059714D01*
X8965857Y-12045429D01*
X8951571Y-12031143D01*
X9280143Y-12059714D02*
X9337286Y-12059714D01*
X9365857Y-12045429D01*
X9380143Y-12031143D01*
X9408714Y-11988286D01*
X9423000Y-11931143D01*
X9423000Y-11816857D01*
X9408714Y-11788286D01*
X9394428Y-11774000D01*
X9365857Y-11759714D01*
X9308714Y-11759714D01*
X9280143Y-11774000D01*
X9265857Y-11788286D01*
X9251571Y-11816857D01*
X9251571Y-11888286D01*
X9265857Y-11916857D01*
X9280143Y-11931143D01*
X9308714Y-11945429D01*
X9365857Y-11945429D01*
X9394428Y-11931143D01*
X9408714Y-11916857D01*
X9423000Y-11888286D01*
X9537286Y-11759714D02*
X9537286Y-11816857D01*
X9651571Y-11759714D02*
X9651571Y-11816857D01*
X10094428Y-12174000D02*
X10080143Y-12159714D01*
X10051571Y-12116857D01*
X10037286Y-12088286D01*
X10023000Y-12045429D01*
X10008714Y-11974000D01*
X10008714Y-11916857D01*
X10023000Y-11845429D01*
X10037286Y-11802571D01*
X10051571Y-11774000D01*
X10080143Y-11731143D01*
X10094428Y-11716857D01*
X10337286Y-11759714D02*
X10280143Y-11759714D01*
X10251571Y-11774000D01*
X10237286Y-11788286D01*
X10208714Y-11831143D01*
X10194428Y-11888286D01*
X10194428Y-12002571D01*
X10208714Y-12031143D01*
X10223000Y-12045429D01*
X10251571Y-12059714D01*
X10308714Y-12059714D01*
X10337286Y-12045429D01*
X10351571Y-12031143D01*
X10365857Y-12002571D01*
X10365857Y-11931143D01*
X10351571Y-11902571D01*
X10337286Y-11888286D01*
X10308714Y-11874000D01*
X10251571Y-11874000D01*
X10223000Y-11888286D01*
X10208714Y-11902571D01*
X10194428Y-11931143D01*
X10723000Y-12059714D02*
X10723000Y-11759714D01*
X10851571Y-12059714D02*
X10851571Y-11902571D01*
X10837286Y-11874000D01*
X10808714Y-11859714D01*
X10765857Y-11859714D01*
X10737286Y-11874000D01*
X10723000Y-11888286D01*
X11037286Y-12059714D02*
X11008714Y-12045429D01*
X10994428Y-12031143D01*
X10980143Y-12002571D01*
X10980143Y-11916857D01*
X10994428Y-11888286D01*
X11008714Y-11874000D01*
X11037286Y-11859714D01*
X11080143Y-11859714D01*
X11108714Y-11874000D01*
X11123000Y-11888286D01*
X11137286Y-11916857D01*
X11137286Y-12002571D01*
X11123000Y-12031143D01*
X11108714Y-12045429D01*
X11080143Y-12059714D01*
X11037286Y-12059714D01*
X11308714Y-12059714D02*
X11280143Y-12045429D01*
X11265857Y-12016857D01*
X11265857Y-11759714D01*
X11537286Y-12045429D02*
X11508714Y-12059714D01*
X11451571Y-12059714D01*
X11423000Y-12045429D01*
X11408714Y-12016857D01*
X11408714Y-11902571D01*
X11423000Y-11874000D01*
X11451571Y-11859714D01*
X11508714Y-11859714D01*
X11537286Y-11874000D01*
X11551571Y-11902571D01*
X11551571Y-11931143D01*
X11408714Y-11959714D01*
X11665857Y-12045429D02*
X11694428Y-12059714D01*
X11751571Y-12059714D01*
X11780143Y-12045429D01*
X11794428Y-12016857D01*
X11794428Y-12002571D01*
X11780143Y-11974000D01*
X11751571Y-11959714D01*
X11708714Y-11959714D01*
X11680143Y-11945429D01*
X11665857Y-11916857D01*
X11665857Y-11902571D01*
X11680143Y-11874000D01*
X11708714Y-11859714D01*
X11751571Y-11859714D01*
X11780143Y-11874000D01*
X11894428Y-12174000D02*
X11908714Y-12159714D01*
X11937286Y-12116857D01*
X11951571Y-12088286D01*
X11965857Y-12045429D01*
X11980143Y-11974000D01*
X11980143Y-11916857D01*
X11965857Y-11845429D01*
X11951571Y-11802571D01*
X11937286Y-11774000D01*
X11908714Y-11731143D01*
X11894428Y-11716857D01*
M02*
