G04 #@! TF.GenerationSoftware,KiCad,Pcbnew,5.1.5+dfsg1-2build2*
G04 #@! TF.CreationDate,2021-02-20T14:04:53+03:00*
G04 #@! TF.ProjectId,NRF_SENDER,4e52465f-5345-44e4-9445-522e6b696361,rev?*
G04 #@! TF.SameCoordinates,Original*
G04 #@! TF.FileFunction,Legend,Top*
G04 #@! TF.FilePolarity,Positive*
%FSLAX46Y46*%
G04 Gerber Fmt 4.6, Leading zero omitted, Abs format (unit mm)*
G04 Created by KiCad (PCBNEW 5.1.5+dfsg1-2build2) date 2021-02-20 14:04:53*
%MOMM*%
%LPD*%
G04 APERTURE LIST*
%ADD10C,0.150000*%
%ADD11C,0.200000*%
%ADD12C,0.120000*%
%ADD13C,0.050000*%
%ADD14C,0.100000*%
%ADD15C,0.140000*%
G04 APERTURE END LIST*
D10*
X63434285Y-86184761D02*
X63577142Y-86232380D01*
X63815238Y-86232380D01*
X63910476Y-86184761D01*
X63958095Y-86137142D01*
X64005714Y-86041904D01*
X64005714Y-85946666D01*
X63958095Y-85851428D01*
X63910476Y-85803809D01*
X63815238Y-85756190D01*
X63624761Y-85708571D01*
X63529523Y-85660952D01*
X63481904Y-85613333D01*
X63434285Y-85518095D01*
X63434285Y-85422857D01*
X63481904Y-85327619D01*
X63529523Y-85280000D01*
X63624761Y-85232380D01*
X63862857Y-85232380D01*
X64005714Y-85280000D01*
X64339047Y-85232380D02*
X64577142Y-86232380D01*
X64767619Y-85518095D01*
X64958095Y-86232380D01*
X65196190Y-85232380D01*
X65767619Y-85232380D02*
X65958095Y-85232380D01*
X66053333Y-85280000D01*
X66148571Y-85375238D01*
X66196190Y-85565714D01*
X66196190Y-85899047D01*
X66148571Y-86089523D01*
X66053333Y-86184761D01*
X65958095Y-86232380D01*
X65767619Y-86232380D01*
X65672380Y-86184761D01*
X65577142Y-86089523D01*
X65529523Y-85899047D01*
X65529523Y-85565714D01*
X65577142Y-85375238D01*
X65672380Y-85280000D01*
X65767619Y-85232380D01*
X66386666Y-86327619D02*
X67148571Y-86327619D01*
X67386666Y-86232380D02*
X67386666Y-85232380D01*
X67958095Y-86232380D01*
X67958095Y-85232380D01*
X69005714Y-86137142D02*
X68958095Y-86184761D01*
X68815238Y-86232380D01*
X68720000Y-86232380D01*
X68577142Y-86184761D01*
X68481904Y-86089523D01*
X68434285Y-85994285D01*
X68386666Y-85803809D01*
X68386666Y-85660952D01*
X68434285Y-85470476D01*
X68481904Y-85375238D01*
X68577142Y-85280000D01*
X68720000Y-85232380D01*
X68815238Y-85232380D01*
X68958095Y-85280000D01*
X69005714Y-85327619D01*
X85448095Y-91252380D02*
X85638571Y-91252380D01*
X85733809Y-91300000D01*
X85829047Y-91395238D01*
X85876666Y-91585714D01*
X85876666Y-91919047D01*
X85829047Y-92109523D01*
X85733809Y-92204761D01*
X85638571Y-92252380D01*
X85448095Y-92252380D01*
X85352857Y-92204761D01*
X85257619Y-92109523D01*
X85210000Y-91919047D01*
X85210000Y-91585714D01*
X85257619Y-91395238D01*
X85352857Y-91300000D01*
X85448095Y-91252380D01*
X86305238Y-92252380D02*
X86305238Y-91252380D01*
X86686190Y-91252380D01*
X86781428Y-91300000D01*
X86829047Y-91347619D01*
X86876666Y-91442857D01*
X86876666Y-91585714D01*
X86829047Y-91680952D01*
X86781428Y-91728571D01*
X86686190Y-91776190D01*
X86305238Y-91776190D01*
X87162380Y-91252380D02*
X87733809Y-91252380D01*
X87448095Y-92252380D02*
X87448095Y-91252380D01*
X88067142Y-92252380D02*
X88067142Y-91252380D01*
X88733809Y-91252380D02*
X88924285Y-91252380D01*
X89019523Y-91300000D01*
X89114761Y-91395238D01*
X89162380Y-91585714D01*
X89162380Y-91919047D01*
X89114761Y-92109523D01*
X89019523Y-92204761D01*
X88924285Y-92252380D01*
X88733809Y-92252380D01*
X88638571Y-92204761D01*
X88543333Y-92109523D01*
X88495714Y-91919047D01*
X88495714Y-91585714D01*
X88543333Y-91395238D01*
X88638571Y-91300000D01*
X88733809Y-91252380D01*
X89590952Y-92252380D02*
X89590952Y-91252380D01*
X90162380Y-92252380D01*
X90162380Y-91252380D01*
X75077619Y-92462380D02*
X74744285Y-91986190D01*
X74506190Y-92462380D02*
X74506190Y-91462380D01*
X74887142Y-91462380D01*
X74982380Y-91510000D01*
X75030000Y-91557619D01*
X75077619Y-91652857D01*
X75077619Y-91795714D01*
X75030000Y-91890952D01*
X74982380Y-91938571D01*
X74887142Y-91986190D01*
X74506190Y-91986190D01*
X75506190Y-91938571D02*
X75839523Y-91938571D01*
X75982380Y-92462380D02*
X75506190Y-92462380D01*
X75506190Y-91462380D01*
X75982380Y-91462380D01*
X76363333Y-92414761D02*
X76506190Y-92462380D01*
X76744285Y-92462380D01*
X76839523Y-92414761D01*
X76887142Y-92367142D01*
X76934761Y-92271904D01*
X76934761Y-92176666D01*
X76887142Y-92081428D01*
X76839523Y-92033809D01*
X76744285Y-91986190D01*
X76553809Y-91938571D01*
X76458571Y-91890952D01*
X76410952Y-91843333D01*
X76363333Y-91748095D01*
X76363333Y-91652857D01*
X76410952Y-91557619D01*
X76458571Y-91510000D01*
X76553809Y-91462380D01*
X76791904Y-91462380D01*
X76934761Y-91510000D01*
X77363333Y-91938571D02*
X77696666Y-91938571D01*
X77839523Y-92462380D02*
X77363333Y-92462380D01*
X77363333Y-91462380D01*
X77839523Y-91462380D01*
X78125238Y-91462380D02*
X78696666Y-91462380D01*
X78410952Y-92462380D02*
X78410952Y-91462380D01*
X63872380Y-83882380D02*
X63872380Y-82882380D01*
X64443809Y-83882380D01*
X64443809Y-82882380D01*
X65491428Y-83882380D02*
X65158095Y-83406190D01*
X64920000Y-83882380D02*
X64920000Y-82882380D01*
X65300952Y-82882380D01*
X65396190Y-82930000D01*
X65443809Y-82977619D01*
X65491428Y-83072857D01*
X65491428Y-83215714D01*
X65443809Y-83310952D01*
X65396190Y-83358571D01*
X65300952Y-83406190D01*
X64920000Y-83406190D01*
X65920000Y-83358571D02*
X66253333Y-83358571D01*
X66396190Y-83882380D02*
X65920000Y-83882380D01*
X65920000Y-82882380D01*
X66396190Y-82882380D01*
X66777142Y-83834761D02*
X66920000Y-83882380D01*
X67158095Y-83882380D01*
X67253333Y-83834761D01*
X67300952Y-83787142D01*
X67348571Y-83691904D01*
X67348571Y-83596666D01*
X67300952Y-83501428D01*
X67253333Y-83453809D01*
X67158095Y-83406190D01*
X66967619Y-83358571D01*
X66872380Y-83310952D01*
X66824761Y-83263333D01*
X66777142Y-83168095D01*
X66777142Y-83072857D01*
X66824761Y-82977619D01*
X66872380Y-82930000D01*
X66967619Y-82882380D01*
X67205714Y-82882380D01*
X67348571Y-82930000D01*
X67777142Y-83358571D02*
X68110476Y-83358571D01*
X68253333Y-83882380D02*
X67777142Y-83882380D01*
X67777142Y-82882380D01*
X68253333Y-82882380D01*
X68539047Y-82882380D02*
X69110476Y-82882380D01*
X68824761Y-83882380D02*
X68824761Y-82882380D01*
X64010000Y-81124761D02*
X64152857Y-81172380D01*
X64390952Y-81172380D01*
X64486190Y-81124761D01*
X64533809Y-81077142D01*
X64581428Y-80981904D01*
X64581428Y-80886666D01*
X64533809Y-80791428D01*
X64486190Y-80743809D01*
X64390952Y-80696190D01*
X64200476Y-80648571D01*
X64105238Y-80600952D01*
X64057619Y-80553333D01*
X64010000Y-80458095D01*
X64010000Y-80362857D01*
X64057619Y-80267619D01*
X64105238Y-80220000D01*
X64200476Y-80172380D01*
X64438571Y-80172380D01*
X64581428Y-80220000D01*
X64914761Y-80172380D02*
X65152857Y-81172380D01*
X65343333Y-80458095D01*
X65533809Y-81172380D01*
X65771904Y-80172380D01*
X66152857Y-81172380D02*
X66152857Y-80172380D01*
X66390952Y-80172380D01*
X66533809Y-80220000D01*
X66629047Y-80315238D01*
X66676666Y-80410476D01*
X66724285Y-80600952D01*
X66724285Y-80743809D01*
X66676666Y-80934285D01*
X66629047Y-81029523D01*
X66533809Y-81124761D01*
X66390952Y-81172380D01*
X66152857Y-81172380D01*
X66914761Y-81267619D02*
X67676666Y-81267619D01*
X67914761Y-81172380D02*
X67914761Y-80172380D01*
X68581428Y-80172380D02*
X68771904Y-80172380D01*
X68867142Y-80220000D01*
X68962380Y-80315238D01*
X69010000Y-80505714D01*
X69010000Y-80839047D01*
X68962380Y-81029523D01*
X68867142Y-81124761D01*
X68771904Y-81172380D01*
X68581428Y-81172380D01*
X68486190Y-81124761D01*
X68390952Y-81029523D01*
X68343333Y-80839047D01*
X68343333Y-80505714D01*
X68390952Y-80315238D01*
X68486190Y-80220000D01*
X68581428Y-80172380D01*
X66898095Y-77660000D02*
X66802857Y-77612380D01*
X66660000Y-77612380D01*
X66517142Y-77660000D01*
X66421904Y-77755238D01*
X66374285Y-77850476D01*
X66326666Y-78040952D01*
X66326666Y-78183809D01*
X66374285Y-78374285D01*
X66421904Y-78469523D01*
X66517142Y-78564761D01*
X66660000Y-78612380D01*
X66755238Y-78612380D01*
X66898095Y-78564761D01*
X66945714Y-78517142D01*
X66945714Y-78183809D01*
X66755238Y-78183809D01*
X67374285Y-78612380D02*
X67374285Y-77612380D01*
X67945714Y-78612380D01*
X67945714Y-77612380D01*
X68421904Y-78612380D02*
X68421904Y-77612380D01*
X68660000Y-77612380D01*
X68802857Y-77660000D01*
X68898095Y-77755238D01*
X68945714Y-77850476D01*
X68993333Y-78040952D01*
X68993333Y-78183809D01*
X68945714Y-78374285D01*
X68898095Y-78469523D01*
X68802857Y-78564761D01*
X68660000Y-78612380D01*
X68421904Y-78612380D01*
X62884761Y-72432380D02*
X63218095Y-73432380D01*
X63551428Y-72432380D01*
X63884761Y-73432380D02*
X63884761Y-72432380D01*
X64122857Y-72432380D01*
X64265714Y-72480000D01*
X64360952Y-72575238D01*
X64408571Y-72670476D01*
X64456190Y-72860952D01*
X64456190Y-73003809D01*
X64408571Y-73194285D01*
X64360952Y-73289523D01*
X64265714Y-73384761D01*
X64122857Y-73432380D01*
X63884761Y-73432380D01*
X64884761Y-73432380D02*
X64884761Y-72432380D01*
X65122857Y-72432380D01*
X65265714Y-72480000D01*
X65360952Y-72575238D01*
X65408571Y-72670476D01*
X65456190Y-72860952D01*
X65456190Y-73003809D01*
X65408571Y-73194285D01*
X65360952Y-73289523D01*
X65265714Y-73384761D01*
X65122857Y-73432380D01*
X64884761Y-73432380D01*
X65646666Y-73527619D02*
X66408571Y-73527619D01*
X66551428Y-72432380D02*
X67170476Y-72432380D01*
X66837142Y-72813333D01*
X66979999Y-72813333D01*
X67075238Y-72860952D01*
X67122857Y-72908571D01*
X67170476Y-73003809D01*
X67170476Y-73241904D01*
X67122857Y-73337142D01*
X67075238Y-73384761D01*
X66979999Y-73432380D01*
X66694285Y-73432380D01*
X66599047Y-73384761D01*
X66551428Y-73337142D01*
X67456190Y-72432380D02*
X67789523Y-73432380D01*
X68122857Y-72432380D01*
X68360952Y-72432380D02*
X68980000Y-72432380D01*
X68646666Y-72813333D01*
X68789523Y-72813333D01*
X68884761Y-72860952D01*
X68932380Y-72908571D01*
X68980000Y-73003809D01*
X68980000Y-73241904D01*
X68932380Y-73337142D01*
X68884761Y-73384761D01*
X68789523Y-73432380D01*
X68503809Y-73432380D01*
X68408571Y-73384761D01*
X68360952Y-73337142D01*
X62697142Y-75764761D02*
X62840000Y-75812380D01*
X63078095Y-75812380D01*
X63173333Y-75764761D01*
X63220952Y-75717142D01*
X63268571Y-75621904D01*
X63268571Y-75526666D01*
X63220952Y-75431428D01*
X63173333Y-75383809D01*
X63078095Y-75336190D01*
X62887619Y-75288571D01*
X62792380Y-75240952D01*
X62744761Y-75193333D01*
X62697142Y-75098095D01*
X62697142Y-75002857D01*
X62744761Y-74907619D01*
X62792380Y-74860000D01*
X62887619Y-74812380D01*
X63125714Y-74812380D01*
X63268571Y-74860000D01*
X63601904Y-74812380D02*
X63840000Y-75812380D01*
X64030476Y-75098095D01*
X64220952Y-75812380D01*
X64459047Y-74812380D01*
X64840000Y-75812380D02*
X64840000Y-74812380D01*
X65078095Y-74812380D01*
X65220952Y-74860000D01*
X65316190Y-74955238D01*
X65363809Y-75050476D01*
X65411428Y-75240952D01*
X65411428Y-75383809D01*
X65363809Y-75574285D01*
X65316190Y-75669523D01*
X65220952Y-75764761D01*
X65078095Y-75812380D01*
X64840000Y-75812380D01*
X65601904Y-75907619D02*
X66363809Y-75907619D01*
X67173333Y-75717142D02*
X67125714Y-75764761D01*
X66982857Y-75812380D01*
X66887619Y-75812380D01*
X66744761Y-75764761D01*
X66649523Y-75669523D01*
X66601904Y-75574285D01*
X66554285Y-75383809D01*
X66554285Y-75240952D01*
X66601904Y-75050476D01*
X66649523Y-74955238D01*
X66744761Y-74860000D01*
X66887619Y-74812380D01*
X66982857Y-74812380D01*
X67125714Y-74860000D01*
X67173333Y-74907619D01*
X68078095Y-75812380D02*
X67601904Y-75812380D01*
X67601904Y-74812380D01*
X68411428Y-75812380D02*
X68411428Y-74812380D01*
X68982857Y-75812380D02*
X68554285Y-75240952D01*
X68982857Y-74812380D02*
X68411428Y-75383809D01*
D11*
X109893576Y-62280000D02*
G75*
G03X109893576Y-62280000I-183576J0D01*
G01*
X88953576Y-50990000D02*
G75*
G03X88953576Y-50990000I-183576J0D01*
G01*
D10*
X88759047Y-36022380D02*
X88568571Y-36022380D01*
X88473333Y-36070000D01*
X88425714Y-36117619D01*
X88330476Y-36260476D01*
X88282857Y-36450952D01*
X88282857Y-36831904D01*
X88330476Y-36927142D01*
X88378095Y-36974761D01*
X88473333Y-37022380D01*
X88663809Y-37022380D01*
X88759047Y-36974761D01*
X88806666Y-36927142D01*
X88854285Y-36831904D01*
X88854285Y-36593809D01*
X88806666Y-36498571D01*
X88759047Y-36450952D01*
X88663809Y-36403333D01*
X88473333Y-36403333D01*
X88378095Y-36450952D01*
X88330476Y-36498571D01*
X88282857Y-36593809D01*
X89235238Y-36117619D02*
X89282857Y-36070000D01*
X89378095Y-36022380D01*
X89616190Y-36022380D01*
X89711428Y-36070000D01*
X89759047Y-36117619D01*
X89806666Y-36212857D01*
X89806666Y-36308095D01*
X89759047Y-36450952D01*
X89187619Y-37022380D01*
X89806666Y-37022380D01*
X90282857Y-36974761D02*
X90282857Y-37022380D01*
X90235238Y-37117619D01*
X90187619Y-37165238D01*
X90901904Y-36022380D02*
X90997142Y-36022380D01*
X91092380Y-36070000D01*
X91140000Y-36117619D01*
X91187619Y-36212857D01*
X91235238Y-36403333D01*
X91235238Y-36641428D01*
X91187619Y-36831904D01*
X91140000Y-36927142D01*
X91092380Y-36974761D01*
X90997142Y-37022380D01*
X90901904Y-37022380D01*
X90806666Y-36974761D01*
X90759047Y-36927142D01*
X90711428Y-36831904D01*
X90663809Y-36641428D01*
X90663809Y-36403333D01*
X90711428Y-36212857D01*
X90759047Y-36117619D01*
X90806666Y-36070000D01*
X90901904Y-36022380D01*
X91854285Y-36022380D02*
X91949523Y-36022380D01*
X92044761Y-36070000D01*
X92092380Y-36117619D01*
X92140000Y-36212857D01*
X92187619Y-36403333D01*
X92187619Y-36641428D01*
X92140000Y-36831904D01*
X92092380Y-36927142D01*
X92044761Y-36974761D01*
X91949523Y-37022380D01*
X91854285Y-37022380D01*
X91759047Y-36974761D01*
X91711428Y-36927142D01*
X91663809Y-36831904D01*
X91616190Y-36641428D01*
X91616190Y-36403333D01*
X91663809Y-36212857D01*
X91711428Y-36117619D01*
X91759047Y-36070000D01*
X91854285Y-36022380D01*
X92806666Y-36022380D02*
X92901904Y-36022380D01*
X92997142Y-36070000D01*
X93044761Y-36117619D01*
X93092380Y-36212857D01*
X93140000Y-36403333D01*
X93140000Y-36641428D01*
X93092380Y-36831904D01*
X93044761Y-36927142D01*
X92997142Y-36974761D01*
X92901904Y-37022380D01*
X92806666Y-37022380D01*
X92711428Y-36974761D01*
X92663809Y-36927142D01*
X92616190Y-36831904D01*
X92568571Y-36641428D01*
X92568571Y-36403333D01*
X92616190Y-36212857D01*
X92663809Y-36117619D01*
X92711428Y-36070000D01*
X92806666Y-36022380D01*
X94330476Y-37022380D02*
X94330476Y-36355714D01*
X94616190Y-36879523D01*
X94901904Y-36355714D01*
X94901904Y-37022380D01*
X95378095Y-37022380D02*
X95378095Y-36355714D01*
X95663809Y-36879523D01*
X95949523Y-36355714D01*
X95949523Y-37022380D01*
D12*
X61140000Y-37840000D02*
X123140000Y-37840000D01*
X61140000Y-42740000D02*
X61140000Y-37253579D01*
X123140000Y-42740000D02*
X123140000Y-37253579D01*
X123140000Y-37840000D02*
X122013496Y-38426421D01*
X123140000Y-37840000D02*
X122013496Y-37253579D01*
X61140000Y-37840000D02*
X62266504Y-38426421D01*
X61140000Y-37840000D02*
X62266504Y-37253579D01*
D10*
X88235238Y-30822380D02*
X88901904Y-30822380D01*
X88473333Y-31822380D01*
X89711428Y-30822380D02*
X89520952Y-30822380D01*
X89425714Y-30870000D01*
X89378095Y-30917619D01*
X89282857Y-31060476D01*
X89235238Y-31250952D01*
X89235238Y-31631904D01*
X89282857Y-31727142D01*
X89330476Y-31774761D01*
X89425714Y-31822380D01*
X89616190Y-31822380D01*
X89711428Y-31774761D01*
X89759047Y-31727142D01*
X89806666Y-31631904D01*
X89806666Y-31393809D01*
X89759047Y-31298571D01*
X89711428Y-31250952D01*
X89616190Y-31203333D01*
X89425714Y-31203333D01*
X89330476Y-31250952D01*
X89282857Y-31298571D01*
X89235238Y-31393809D01*
X90282857Y-31774761D02*
X90282857Y-31822380D01*
X90235238Y-31917619D01*
X90187619Y-31965238D01*
X90901904Y-30822380D02*
X90997142Y-30822380D01*
X91092380Y-30870000D01*
X91140000Y-30917619D01*
X91187619Y-31012857D01*
X91235238Y-31203333D01*
X91235238Y-31441428D01*
X91187619Y-31631904D01*
X91140000Y-31727142D01*
X91092380Y-31774761D01*
X90997142Y-31822380D01*
X90901904Y-31822380D01*
X90806666Y-31774761D01*
X90759047Y-31727142D01*
X90711428Y-31631904D01*
X90663809Y-31441428D01*
X90663809Y-31203333D01*
X90711428Y-31012857D01*
X90759047Y-30917619D01*
X90806666Y-30870000D01*
X90901904Y-30822380D01*
X91854285Y-30822380D02*
X91949523Y-30822380D01*
X92044761Y-30870000D01*
X92092380Y-30917619D01*
X92140000Y-31012857D01*
X92187619Y-31203333D01*
X92187619Y-31441428D01*
X92140000Y-31631904D01*
X92092380Y-31727142D01*
X92044761Y-31774761D01*
X91949523Y-31822380D01*
X91854285Y-31822380D01*
X91759047Y-31774761D01*
X91711428Y-31727142D01*
X91663809Y-31631904D01*
X91616190Y-31441428D01*
X91616190Y-31203333D01*
X91663809Y-31012857D01*
X91711428Y-30917619D01*
X91759047Y-30870000D01*
X91854285Y-30822380D01*
X92806666Y-30822380D02*
X92901904Y-30822380D01*
X92997142Y-30870000D01*
X93044761Y-30917619D01*
X93092380Y-31012857D01*
X93140000Y-31203333D01*
X93140000Y-31441428D01*
X93092380Y-31631904D01*
X93044761Y-31727142D01*
X92997142Y-31774761D01*
X92901904Y-31822380D01*
X92806666Y-31822380D01*
X92711428Y-31774761D01*
X92663809Y-31727142D01*
X92616190Y-31631904D01*
X92568571Y-31441428D01*
X92568571Y-31203333D01*
X92616190Y-31012857D01*
X92663809Y-30917619D01*
X92711428Y-30870000D01*
X92806666Y-30822380D01*
X94330476Y-31822380D02*
X94330476Y-31155714D01*
X94616190Y-31679523D01*
X94901904Y-31155714D01*
X94901904Y-31822380D01*
X95378095Y-31822380D02*
X95378095Y-31155714D01*
X95663809Y-31679523D01*
X95949523Y-31155714D01*
X95949523Y-31822380D01*
D12*
X130140000Y-32640000D02*
X54140000Y-32640000D01*
X130140000Y-49740000D02*
X130140000Y-32053579D01*
X54140000Y-49740000D02*
X54140000Y-32053579D01*
X54140000Y-32640000D02*
X55266504Y-32053579D01*
X54140000Y-32640000D02*
X55266504Y-33226421D01*
X130140000Y-32640000D02*
X129013496Y-32053579D01*
X130140000Y-32640000D02*
X129013496Y-33226421D01*
D10*
X136662380Y-72144761D02*
X136662380Y-71525714D01*
X137043333Y-71859047D01*
X137043333Y-71716190D01*
X137090952Y-71620952D01*
X137138571Y-71573333D01*
X137233809Y-71525714D01*
X137471904Y-71525714D01*
X137567142Y-71573333D01*
X137614761Y-71620952D01*
X137662380Y-71716190D01*
X137662380Y-72001904D01*
X137614761Y-72097142D01*
X137567142Y-72144761D01*
X136662380Y-71192380D02*
X136662380Y-70525714D01*
X137662380Y-70954285D01*
X137614761Y-70097142D02*
X137662380Y-70097142D01*
X137757619Y-70144761D01*
X137805238Y-70192380D01*
X136662380Y-69478095D02*
X136662380Y-69382857D01*
X136710000Y-69287619D01*
X136757619Y-69240000D01*
X136852857Y-69192380D01*
X137043333Y-69144761D01*
X137281428Y-69144761D01*
X137471904Y-69192380D01*
X137567142Y-69240000D01*
X137614761Y-69287619D01*
X137662380Y-69382857D01*
X137662380Y-69478095D01*
X137614761Y-69573333D01*
X137567142Y-69620952D01*
X137471904Y-69668571D01*
X137281428Y-69716190D01*
X137043333Y-69716190D01*
X136852857Y-69668571D01*
X136757619Y-69620952D01*
X136710000Y-69573333D01*
X136662380Y-69478095D01*
X136662380Y-68525714D02*
X136662380Y-68430476D01*
X136710000Y-68335238D01*
X136757619Y-68287619D01*
X136852857Y-68240000D01*
X137043333Y-68192380D01*
X137281428Y-68192380D01*
X137471904Y-68240000D01*
X137567142Y-68287619D01*
X137614761Y-68335238D01*
X137662380Y-68430476D01*
X137662380Y-68525714D01*
X137614761Y-68620952D01*
X137567142Y-68668571D01*
X137471904Y-68716190D01*
X137281428Y-68763809D01*
X137043333Y-68763809D01*
X136852857Y-68716190D01*
X136757619Y-68668571D01*
X136710000Y-68620952D01*
X136662380Y-68525714D01*
X136662380Y-67573333D02*
X136662380Y-67478095D01*
X136710000Y-67382857D01*
X136757619Y-67335238D01*
X136852857Y-67287619D01*
X137043333Y-67240000D01*
X137281428Y-67240000D01*
X137471904Y-67287619D01*
X137567142Y-67335238D01*
X137614761Y-67382857D01*
X137662380Y-67478095D01*
X137662380Y-67573333D01*
X137614761Y-67668571D01*
X137567142Y-67716190D01*
X137471904Y-67763809D01*
X137281428Y-67811428D01*
X137043333Y-67811428D01*
X136852857Y-67763809D01*
X136757619Y-67716190D01*
X136710000Y-67668571D01*
X136662380Y-67573333D01*
X137662380Y-66049523D02*
X136995714Y-66049523D01*
X137519523Y-65763809D01*
X136995714Y-65478095D01*
X137662380Y-65478095D01*
X137662380Y-65001904D02*
X136995714Y-65001904D01*
X137519523Y-64716190D01*
X136995714Y-64430476D01*
X137662380Y-64430476D01*
D12*
X135940000Y-86740000D02*
X135940000Y-49740000D01*
X130140000Y-86740000D02*
X136526421Y-86740000D01*
X130140000Y-49740000D02*
X136526421Y-49740000D01*
X135940000Y-49740000D02*
X136526421Y-50866504D01*
X135940000Y-49740000D02*
X135353579Y-50866504D01*
X135940000Y-86740000D02*
X136526421Y-85613496D01*
X135940000Y-86740000D02*
X135353579Y-85613496D01*
D10*
X141762380Y-71573333D02*
X141762380Y-72049523D01*
X142238571Y-72097142D01*
X142190952Y-72049523D01*
X142143333Y-71954285D01*
X142143333Y-71716190D01*
X142190952Y-71620952D01*
X142238571Y-71573333D01*
X142333809Y-71525714D01*
X142571904Y-71525714D01*
X142667142Y-71573333D01*
X142714761Y-71620952D01*
X142762380Y-71716190D01*
X142762380Y-71954285D01*
X142714761Y-72049523D01*
X142667142Y-72097142D01*
X142762380Y-70573333D02*
X142762380Y-71144761D01*
X142762380Y-70859047D02*
X141762380Y-70859047D01*
X141905238Y-70954285D01*
X142000476Y-71049523D01*
X142048095Y-71144761D01*
X142714761Y-70097142D02*
X142762380Y-70097142D01*
X142857619Y-70144761D01*
X142905238Y-70192380D01*
X141762380Y-69478095D02*
X141762380Y-69382857D01*
X141810000Y-69287619D01*
X141857619Y-69240000D01*
X141952857Y-69192380D01*
X142143333Y-69144761D01*
X142381428Y-69144761D01*
X142571904Y-69192380D01*
X142667142Y-69240000D01*
X142714761Y-69287619D01*
X142762380Y-69382857D01*
X142762380Y-69478095D01*
X142714761Y-69573333D01*
X142667142Y-69620952D01*
X142571904Y-69668571D01*
X142381428Y-69716190D01*
X142143333Y-69716190D01*
X141952857Y-69668571D01*
X141857619Y-69620952D01*
X141810000Y-69573333D01*
X141762380Y-69478095D01*
X141762380Y-68525714D02*
X141762380Y-68430476D01*
X141810000Y-68335238D01*
X141857619Y-68287619D01*
X141952857Y-68240000D01*
X142143333Y-68192380D01*
X142381428Y-68192380D01*
X142571904Y-68240000D01*
X142667142Y-68287619D01*
X142714761Y-68335238D01*
X142762380Y-68430476D01*
X142762380Y-68525714D01*
X142714761Y-68620952D01*
X142667142Y-68668571D01*
X142571904Y-68716190D01*
X142381428Y-68763809D01*
X142143333Y-68763809D01*
X141952857Y-68716190D01*
X141857619Y-68668571D01*
X141810000Y-68620952D01*
X141762380Y-68525714D01*
X141762380Y-67573333D02*
X141762380Y-67478095D01*
X141810000Y-67382857D01*
X141857619Y-67335238D01*
X141952857Y-67287619D01*
X142143333Y-67240000D01*
X142381428Y-67240000D01*
X142571904Y-67287619D01*
X142667142Y-67335238D01*
X142714761Y-67382857D01*
X142762380Y-67478095D01*
X142762380Y-67573333D01*
X142714761Y-67668571D01*
X142667142Y-67716190D01*
X142571904Y-67763809D01*
X142381428Y-67811428D01*
X142143333Y-67811428D01*
X141952857Y-67763809D01*
X141857619Y-67716190D01*
X141810000Y-67668571D01*
X141762380Y-67573333D01*
X142762380Y-66049523D02*
X142095714Y-66049523D01*
X142619523Y-65763809D01*
X142095714Y-65478095D01*
X142762380Y-65478095D01*
X142762380Y-65001904D02*
X142095714Y-65001904D01*
X142619523Y-64716190D01*
X142095714Y-64430476D01*
X142762380Y-64430476D01*
D12*
X141040000Y-93740000D02*
X141040000Y-42740000D01*
X123140000Y-93740000D02*
X141626421Y-93740000D01*
X123140000Y-42740000D02*
X141626421Y-42740000D01*
X141040000Y-42740000D02*
X141626421Y-43866504D01*
X141040000Y-42740000D02*
X140453579Y-43866504D01*
X141040000Y-93740000D02*
X141626421Y-92613496D01*
X141040000Y-93740000D02*
X140453579Y-92613496D01*
D13*
X75470000Y-84980000D02*
X78770000Y-84980000D01*
X75470000Y-86440000D02*
X75470000Y-84980000D01*
X78770000Y-86440000D02*
X75470000Y-86440000D01*
X78770000Y-84980000D02*
X78770000Y-86440000D01*
D12*
X77291267Y-85200000D02*
X76948733Y-85200000D01*
X77291267Y-86220000D02*
X76948733Y-86220000D01*
D13*
X79000000Y-84160000D02*
X79000000Y-80860000D01*
X80460000Y-84160000D02*
X79000000Y-84160000D01*
X80460000Y-80860000D02*
X80460000Y-84160000D01*
X79000000Y-80860000D02*
X80460000Y-80860000D01*
D12*
X79220000Y-82338733D02*
X79220000Y-82681267D01*
X80240000Y-82338733D02*
X80240000Y-82681267D01*
D13*
X74680000Y-76890000D02*
X77980000Y-76890000D01*
X74680000Y-78350000D02*
X74680000Y-76890000D01*
X77980000Y-78350000D02*
X74680000Y-78350000D01*
X77980000Y-76890000D02*
X77980000Y-78350000D01*
D12*
X76501267Y-77110000D02*
X76158733Y-77110000D01*
X76501267Y-78130000D02*
X76158733Y-78130000D01*
D13*
X86820000Y-75990000D02*
X90120000Y-75990000D01*
X86820000Y-77450000D02*
X86820000Y-75990000D01*
X90120000Y-77450000D02*
X86820000Y-77450000D01*
X90120000Y-75990000D02*
X90120000Y-77450000D01*
D12*
X88641267Y-76210000D02*
X88298733Y-76210000D01*
X88641267Y-77230000D02*
X88298733Y-77230000D01*
D13*
X91270000Y-71480000D02*
X91270000Y-68180000D01*
X92730000Y-71480000D02*
X91270000Y-71480000D01*
X92730000Y-68180000D02*
X92730000Y-71480000D01*
X91270000Y-68180000D02*
X92730000Y-68180000D01*
D12*
X91490000Y-69658733D02*
X91490000Y-70001267D01*
X92510000Y-69658733D02*
X92510000Y-70001267D01*
D13*
X82810000Y-61400000D02*
X82810000Y-64700000D01*
X81350000Y-61400000D02*
X82810000Y-61400000D01*
X81350000Y-64700000D02*
X81350000Y-61400000D01*
X82810000Y-64700000D02*
X81350000Y-64700000D01*
D12*
X82590000Y-63221267D02*
X82590000Y-62878733D01*
X81570000Y-63221267D02*
X81570000Y-62878733D01*
D13*
X78480000Y-73740000D02*
X81780000Y-73740000D01*
X78480000Y-75200000D02*
X78480000Y-73740000D01*
X81780000Y-75200000D02*
X78480000Y-75200000D01*
X81780000Y-73740000D02*
X81780000Y-75200000D01*
D12*
X80301267Y-73960000D02*
X79958733Y-73960000D01*
X80301267Y-74980000D02*
X79958733Y-74980000D01*
X101090000Y-57752500D02*
X101090000Y-54792500D01*
X102550000Y-57752500D02*
X101090000Y-57752500D01*
X102550000Y-54792500D02*
X102550000Y-57752500D01*
X101090000Y-54792500D02*
X102550000Y-54792500D01*
X110310000Y-67120000D02*
X110310000Y-64160000D01*
X111770000Y-67120000D02*
X110310000Y-67120000D01*
X111770000Y-64160000D02*
X111770000Y-67120000D01*
X110310000Y-64160000D02*
X111770000Y-64160000D01*
X115370000Y-58020000D02*
X112410000Y-58020000D01*
X115370000Y-56560000D02*
X115370000Y-58020000D01*
X112410000Y-56560000D02*
X115370000Y-56560000D01*
X112410000Y-58020000D02*
X112410000Y-56560000D01*
D13*
X78895000Y-69320000D02*
X75595000Y-69320000D01*
X78895000Y-67860000D02*
X78895000Y-69320000D01*
X75595000Y-67860000D02*
X78895000Y-67860000D01*
X75595000Y-69320000D02*
X75595000Y-67860000D01*
D12*
X77073733Y-69100000D02*
X77416267Y-69100000D01*
X77073733Y-68080000D02*
X77416267Y-68080000D01*
D13*
X87780000Y-57985000D02*
X87780000Y-54685000D01*
X89240000Y-57985000D02*
X87780000Y-57985000D01*
X89240000Y-54685000D02*
X89240000Y-57985000D01*
X87780000Y-54685000D02*
X89240000Y-54685000D01*
D12*
X88000000Y-56163733D02*
X88000000Y-56506267D01*
X89020000Y-56163733D02*
X89020000Y-56506267D01*
D13*
X87460000Y-54685000D02*
X87460000Y-57985000D01*
X86000000Y-54685000D02*
X87460000Y-54685000D01*
X86000000Y-57985000D02*
X86000000Y-54685000D01*
X87460000Y-57985000D02*
X86000000Y-57985000D01*
D12*
X87240000Y-56506267D02*
X87240000Y-56163733D01*
X86220000Y-56506267D02*
X86220000Y-56163733D01*
D13*
X78708000Y-79122000D02*
X78708000Y-82422000D01*
X77248000Y-79122000D02*
X78708000Y-79122000D01*
X77248000Y-82422000D02*
X77248000Y-79122000D01*
X78708000Y-82422000D02*
X77248000Y-82422000D01*
D12*
X78488000Y-80943267D02*
X78488000Y-80600733D01*
X77468000Y-80943267D02*
X77468000Y-80600733D01*
D13*
X90300000Y-64265000D02*
X90300000Y-60965000D01*
X91760000Y-64265000D02*
X90300000Y-64265000D01*
X91760000Y-60965000D02*
X91760000Y-64265000D01*
X90300000Y-60965000D02*
X91760000Y-60965000D01*
D12*
X90520000Y-62443733D02*
X90520000Y-62786267D01*
X91540000Y-62443733D02*
X91540000Y-62786267D01*
D13*
X88550000Y-64265000D02*
X88550000Y-60965000D01*
X90010000Y-64265000D02*
X88550000Y-64265000D01*
X90010000Y-60965000D02*
X90010000Y-64265000D01*
X88550000Y-60965000D02*
X90010000Y-60965000D01*
D12*
X88770000Y-62443733D02*
X88770000Y-62786267D01*
X89790000Y-62443733D02*
X89790000Y-62786267D01*
D13*
X86770000Y-64265000D02*
X86770000Y-60965000D01*
X88230000Y-64265000D02*
X86770000Y-64265000D01*
X88230000Y-60965000D02*
X88230000Y-64265000D01*
X86770000Y-60965000D02*
X88230000Y-60965000D01*
D12*
X86990000Y-62443733D02*
X86990000Y-62786267D01*
X88010000Y-62443733D02*
X88010000Y-62786267D01*
D13*
X85040000Y-64265000D02*
X85040000Y-60965000D01*
X86500000Y-64265000D02*
X85040000Y-64265000D01*
X86500000Y-60965000D02*
X86500000Y-64265000D01*
X85040000Y-60965000D02*
X86500000Y-60965000D01*
D12*
X85260000Y-62443733D02*
X85260000Y-62786267D01*
X86280000Y-62443733D02*
X86280000Y-62786267D01*
D13*
X83280000Y-64265000D02*
X83280000Y-60965000D01*
X84740000Y-64265000D02*
X83280000Y-64265000D01*
X84740000Y-60965000D02*
X84740000Y-64265000D01*
X83280000Y-60965000D02*
X84740000Y-60965000D01*
D12*
X83500000Y-62443733D02*
X83500000Y-62786267D01*
X84520000Y-62443733D02*
X84520000Y-62786267D01*
D13*
X84810000Y-81350000D02*
X88110000Y-81350000D01*
X84810000Y-82810000D02*
X84810000Y-81350000D01*
X88110000Y-82810000D02*
X84810000Y-82810000D01*
X88110000Y-81350000D02*
X88110000Y-82810000D01*
D12*
X86631267Y-81570000D02*
X86288733Y-81570000D01*
X86631267Y-82590000D02*
X86288733Y-82590000D01*
D13*
X73300000Y-63280000D02*
X73300000Y-59980000D01*
X74760000Y-63280000D02*
X73300000Y-63280000D01*
X74760000Y-59980000D02*
X74760000Y-63280000D01*
X73300000Y-59980000D02*
X74760000Y-59980000D01*
D12*
X73520000Y-61458733D02*
X73520000Y-61801267D01*
X74540000Y-61458733D02*
X74540000Y-61801267D01*
D13*
X81260000Y-81280000D02*
X84560000Y-81280000D01*
X81260000Y-82740000D02*
X81260000Y-81280000D01*
X84560000Y-82740000D02*
X81260000Y-82740000D01*
X84560000Y-81280000D02*
X84560000Y-82740000D01*
D12*
X83081267Y-81500000D02*
X82738733Y-81500000D01*
X83081267Y-82520000D02*
X82738733Y-82520000D01*
D13*
X102610000Y-51210000D02*
X102610000Y-54510000D01*
X101150000Y-51210000D02*
X102610000Y-51210000D01*
X101150000Y-54510000D02*
X101150000Y-51210000D01*
X102610000Y-54510000D02*
X101150000Y-54510000D01*
D12*
X102390000Y-53031267D02*
X102390000Y-52688733D01*
X101370000Y-53031267D02*
X101370000Y-52688733D01*
D13*
X84685000Y-78640000D02*
X87985000Y-78640000D01*
X84685000Y-80100000D02*
X84685000Y-78640000D01*
X87985000Y-80100000D02*
X84685000Y-80100000D01*
X87985000Y-78640000D02*
X87985000Y-80100000D01*
D12*
X86506267Y-78860000D02*
X86163733Y-78860000D01*
X86506267Y-79880000D02*
X86163733Y-79880000D01*
D13*
X89630000Y-57985000D02*
X89630000Y-54685000D01*
X91090000Y-57985000D02*
X89630000Y-57985000D01*
X91090000Y-54685000D02*
X91090000Y-57985000D01*
X89630000Y-54685000D02*
X91090000Y-54685000D01*
D12*
X89850000Y-56163733D02*
X89850000Y-56506267D01*
X90870000Y-56163733D02*
X90870000Y-56506267D01*
D13*
X78895000Y-71310000D02*
X75595000Y-71310000D01*
X78895000Y-69850000D02*
X78895000Y-71310000D01*
X75595000Y-69850000D02*
X78895000Y-69850000D01*
X75595000Y-71310000D02*
X75595000Y-69850000D01*
D12*
X77073733Y-71090000D02*
X77416267Y-71090000D01*
X77073733Y-70070000D02*
X77416267Y-70070000D01*
D13*
X78895000Y-73170000D02*
X75595000Y-73170000D01*
X78895000Y-71710000D02*
X78895000Y-73170000D01*
X75595000Y-71710000D02*
X78895000Y-71710000D01*
X75595000Y-73170000D02*
X75595000Y-71710000D01*
D12*
X77073733Y-72950000D02*
X77416267Y-72950000D01*
X77073733Y-71930000D02*
X77416267Y-71930000D01*
D13*
X84330000Y-76300000D02*
X84330000Y-79600000D01*
X82870000Y-76300000D02*
X84330000Y-76300000D01*
X82870000Y-79600000D02*
X82870000Y-76300000D01*
X84330000Y-79600000D02*
X82870000Y-79600000D01*
D12*
X84110000Y-78121267D02*
X84110000Y-77778733D01*
X83090000Y-78121267D02*
X83090000Y-77778733D01*
D13*
X78895000Y-67450000D02*
X75595000Y-67450000D01*
X78895000Y-65990000D02*
X78895000Y-67450000D01*
X75595000Y-65990000D02*
X78895000Y-65990000D01*
X75595000Y-67450000D02*
X75595000Y-65990000D01*
D12*
X77073733Y-67230000D02*
X77416267Y-67230000D01*
X77073733Y-66210000D02*
X77416267Y-66210000D01*
X73395000Y-67130000D02*
X72865000Y-66730000D01*
X73395000Y-66320000D02*
X73395000Y-67130000D01*
X72865000Y-66730000D02*
X73395000Y-66320000D01*
X72855000Y-66320000D02*
X72855000Y-67120000D01*
D13*
X74785000Y-67460000D02*
X71485000Y-67460000D01*
X74785000Y-66000000D02*
X74785000Y-67460000D01*
X71485000Y-66000000D02*
X74785000Y-66000000D01*
X71485000Y-67460000D02*
X71485000Y-66000000D01*
D12*
X73435000Y-69000000D02*
X72905000Y-68600000D01*
X73435000Y-68190000D02*
X73435000Y-69000000D01*
X72905000Y-68600000D02*
X73435000Y-68190000D01*
X72895000Y-68190000D02*
X72895000Y-68990000D01*
D13*
X74825000Y-69330000D02*
X71525000Y-69330000D01*
X74825000Y-67870000D02*
X74825000Y-69330000D01*
X71525000Y-67870000D02*
X74825000Y-67870000D01*
X71525000Y-69330000D02*
X71525000Y-67870000D01*
D12*
X82670000Y-66700000D02*
X82220000Y-66700000D01*
X82220000Y-66700000D02*
X82220000Y-67150000D01*
X88990000Y-66700000D02*
X89440000Y-66700000D01*
X89440000Y-66700000D02*
X89440000Y-67150000D01*
X82670000Y-73920000D02*
X82220000Y-73920000D01*
X82220000Y-73920000D02*
X82220000Y-73470000D01*
X88990000Y-73920000D02*
X89440000Y-73920000D01*
X89440000Y-73920000D02*
X89440000Y-73470000D01*
X89440000Y-73470000D02*
X90730000Y-73470000D01*
X90750185Y-74030000D02*
G75*
G03X90750185Y-74030000I-270185J0D01*
G01*
X90630000Y-74030000D02*
G75*
G03X90630000Y-74030000I-150000J0D01*
G01*
X90516056Y-74030000D02*
G75*
G03X90516056Y-74030000I-36056J0D01*
G01*
D10*
X110240000Y-62890000D02*
X114240000Y-62890000D01*
X114240000Y-58590000D02*
X114240000Y-62890000D01*
X110240000Y-58590000D02*
X114240000Y-58590000D01*
X110240000Y-62890000D02*
X110240000Y-58590000D01*
D12*
X80910000Y-54150000D02*
X75720000Y-54150000D01*
X81390000Y-59820000D02*
X81390000Y-54625000D01*
X75735000Y-60300000D02*
X80900000Y-60300000D01*
X75260000Y-59825000D02*
X75250000Y-54635000D01*
X81390000Y-59820000D02*
X80910000Y-60300000D01*
X75250000Y-54160000D02*
X75250000Y-54635000D01*
X75725000Y-54150000D02*
X75250000Y-54150000D01*
X81390000Y-54150000D02*
X81390000Y-54625000D01*
X80915000Y-54150000D02*
X81390000Y-54150000D01*
X75260000Y-60300000D02*
X75260000Y-59825000D01*
X75735000Y-60300000D02*
X75260000Y-60300000D01*
X70605000Y-58410000D02*
X68745000Y-58410000D01*
X70605000Y-57470000D02*
X70605000Y-58410000D01*
X68745000Y-57470000D02*
X70605000Y-57470000D01*
X68745000Y-58410000D02*
X68745000Y-57470000D01*
X73910000Y-54110000D02*
X73910000Y-55970000D01*
X72970000Y-54110000D02*
X73910000Y-54110000D01*
X72970000Y-55970000D02*
X72970000Y-54110000D01*
X73910000Y-55970000D02*
X72970000Y-55970000D01*
X90716000Y-50229000D02*
X90716000Y-48369000D01*
X91656000Y-50229000D02*
X90716000Y-50229000D01*
X91656000Y-48369000D02*
X91656000Y-50229000D01*
X90716000Y-48369000D02*
X91656000Y-48369000D01*
X89192000Y-50183000D02*
X89192000Y-48323000D01*
X90132000Y-50183000D02*
X89192000Y-50183000D01*
X90132000Y-48323000D02*
X90132000Y-50183000D01*
X89192000Y-48323000D02*
X90132000Y-48323000D01*
X82910000Y-57850000D02*
X82910000Y-55990000D01*
X83850000Y-57850000D02*
X82910000Y-57850000D01*
X83850000Y-55990000D02*
X83850000Y-57850000D01*
X82910000Y-55990000D02*
X83850000Y-55990000D01*
X79100000Y-62450000D02*
X79100000Y-60590000D01*
X80040000Y-62450000D02*
X79100000Y-62450000D01*
X80040000Y-60590000D02*
X80040000Y-62450000D01*
X79100000Y-60590000D02*
X80040000Y-60590000D01*
X75010000Y-52470000D02*
X76870000Y-52470000D01*
X75010000Y-53410000D02*
X75010000Y-52470000D01*
X76870000Y-53410000D02*
X75010000Y-53410000D01*
X76870000Y-52470000D02*
X76870000Y-53410000D01*
X83960000Y-57850000D02*
X83960000Y-55990000D01*
X84900000Y-57850000D02*
X83960000Y-57850000D01*
X84900000Y-55990000D02*
X84900000Y-57850000D01*
X83960000Y-55990000D02*
X84900000Y-55990000D01*
X73010000Y-58610000D02*
X73010000Y-60470000D01*
X72070000Y-58610000D02*
X73010000Y-58610000D01*
X72070000Y-60470000D02*
X72070000Y-58610000D01*
X73010000Y-60470000D02*
X72070000Y-60470000D01*
X70770000Y-56985000D02*
X70770000Y-55125000D01*
X71710000Y-56985000D02*
X70770000Y-56985000D01*
X71710000Y-55125000D02*
X71710000Y-56985000D01*
X70770000Y-55125000D02*
X71710000Y-55125000D01*
X71870000Y-54770000D02*
X71870000Y-52910000D01*
X72810000Y-54770000D02*
X71870000Y-54770000D01*
X72810000Y-52910000D02*
X72810000Y-54770000D01*
X71870000Y-52910000D02*
X72810000Y-52910000D01*
X76210000Y-50170000D02*
X78070000Y-50170000D01*
X76210000Y-51110000D02*
X76210000Y-50170000D01*
X78070000Y-51110000D02*
X76210000Y-51110000D01*
X78070000Y-50170000D02*
X78070000Y-51110000D01*
X82795000Y-51080000D02*
X80935000Y-51080000D01*
X82795000Y-50140000D02*
X82795000Y-51080000D01*
X80935000Y-50140000D02*
X82795000Y-50140000D01*
X80935000Y-51080000D02*
X80935000Y-50140000D01*
X103440000Y-55570000D02*
X103440000Y-57870000D01*
X107840000Y-57870000D02*
X103440000Y-57870000D01*
X107840000Y-55570000D02*
X107840000Y-57870000D01*
X103440000Y-55570000D02*
X107840000Y-55570000D01*
D14*
X104890000Y-56720000D02*
X105290000Y-56720000D01*
X105290000Y-56720000D02*
X105290000Y-56170000D01*
X105290000Y-56720000D02*
X105290000Y-57270000D01*
X105290000Y-56720000D02*
X105890000Y-56320000D01*
X105890000Y-56320000D02*
X105890000Y-57120000D01*
X105890000Y-57120000D02*
X105290000Y-56720000D01*
X105890000Y-56720000D02*
X106390000Y-56720000D01*
D12*
X64110000Y-59470000D02*
X64110000Y-58670000D01*
X64310000Y-59470000D02*
X64110000Y-59470000D01*
X64110000Y-56470000D02*
X64310000Y-56470000D01*
X64110000Y-57270000D02*
X64110000Y-56470000D01*
X67110000Y-56470000D02*
X67110000Y-57270000D01*
X66910000Y-56470000D02*
X67110000Y-56470000D01*
X67110000Y-59270000D02*
X66910000Y-59470000D01*
X67110000Y-58670000D02*
X67110000Y-59270000D01*
X67110000Y-58670000D02*
X67610000Y-58670000D01*
X67110000Y-57270000D02*
X67610000Y-57270000D01*
X74050000Y-56525000D02*
X74050000Y-58385000D01*
X73110000Y-56525000D02*
X74050000Y-56525000D01*
X73110000Y-58385000D02*
X73110000Y-56525000D01*
X74050000Y-58385000D02*
X73110000Y-58385000D01*
X71110000Y-57470000D02*
X72970000Y-57470000D01*
X71110000Y-58410000D02*
X71110000Y-57470000D01*
X72970000Y-58410000D02*
X71110000Y-58410000D01*
X72970000Y-57470000D02*
X72970000Y-58410000D01*
X71870000Y-56970000D02*
X71870000Y-55110000D01*
X72810000Y-56970000D02*
X71870000Y-56970000D01*
X72810000Y-55110000D02*
X72810000Y-56970000D01*
X71870000Y-55110000D02*
X72810000Y-55110000D01*
X108660000Y-63810000D02*
X108660000Y-61310000D01*
X100260000Y-61310000D02*
X100260000Y-63810000D01*
X106530000Y-55330000D02*
X105070000Y-55330000D01*
X106530000Y-52170000D02*
X104370000Y-52170000D01*
X106530000Y-52170000D02*
X106530000Y-53100000D01*
X106530000Y-55330000D02*
X106530000Y-54400000D01*
X80210000Y-51090000D02*
X78350000Y-51090000D01*
X80210000Y-50150000D02*
X80210000Y-51090000D01*
X78350000Y-50150000D02*
X80210000Y-50150000D01*
X78350000Y-51090000D02*
X78350000Y-50150000D01*
D14*
X88690000Y-50360000D02*
X88690000Y-50610000D01*
X85990000Y-50510000D02*
X85990000Y-50360000D01*
X86140000Y-50510000D02*
X85990000Y-50510000D01*
X85990000Y-47810000D02*
X86140000Y-47810000D01*
X85990000Y-47810000D02*
X85990000Y-47960000D01*
X88690000Y-47810000D02*
X88690000Y-47960000D01*
X88690000Y-47800000D02*
X88540000Y-47800000D01*
D12*
X77020000Y-49860000D02*
X82020000Y-49860000D01*
X77020000Y-46440000D02*
X82020000Y-46440000D01*
D10*
X126040000Y-73240000D02*
X92840000Y-73240000D01*
X126040000Y-83240000D02*
X126040000Y-73240000D01*
X92840000Y-83240000D02*
X126040000Y-83240000D01*
X92840000Y-73240000D02*
X92840000Y-83240000D01*
D12*
X74610000Y-90680000D02*
X74610000Y-90580000D01*
X74610000Y-87180000D02*
X74610000Y-87280000D01*
X79510000Y-87280000D02*
X79510000Y-87180000D01*
X79510000Y-90680000D02*
X79510000Y-90580000D01*
X79510000Y-89280000D02*
X79510000Y-88580000D01*
X74610000Y-89280000D02*
X74610000Y-88580000D01*
X74610000Y-90680000D02*
X79510000Y-90680000D01*
X79510000Y-87180000D02*
X74610000Y-87180000D01*
X89940000Y-87140000D02*
X85040000Y-87140000D01*
X85040000Y-90640000D02*
X89940000Y-90640000D01*
X85040000Y-89240000D02*
X85040000Y-88540000D01*
X89940000Y-89240000D02*
X89940000Y-88540000D01*
X89940000Y-90640000D02*
X89940000Y-90540000D01*
X89940000Y-87240000D02*
X89940000Y-87140000D01*
X85040000Y-87140000D02*
X85040000Y-87240000D01*
X85040000Y-90640000D02*
X85040000Y-90540000D01*
X69820000Y-86980000D02*
X72480000Y-86980000D01*
X69820000Y-74220000D02*
X69820000Y-86980000D01*
X72480000Y-74220000D02*
X72480000Y-86980000D01*
X69820000Y-74220000D02*
X72480000Y-74220000D01*
X69820000Y-72950000D02*
X69820000Y-71620000D01*
X69820000Y-71620000D02*
X71150000Y-71620000D01*
D10*
X74103333Y-86667142D02*
X74055714Y-86714761D01*
X73912857Y-86762380D01*
X73817619Y-86762380D01*
X73674761Y-86714761D01*
X73579523Y-86619523D01*
X73531904Y-86524285D01*
X73484285Y-86333809D01*
X73484285Y-86190952D01*
X73531904Y-86000476D01*
X73579523Y-85905238D01*
X73674761Y-85810000D01*
X73817619Y-85762380D01*
X73912857Y-85762380D01*
X74055714Y-85810000D01*
X74103333Y-85857619D01*
X74436666Y-85762380D02*
X75055714Y-85762380D01*
X74722380Y-86143333D01*
X74865238Y-86143333D01*
X74960476Y-86190952D01*
X75008095Y-86238571D01*
X75055714Y-86333809D01*
X75055714Y-86571904D01*
X75008095Y-86667142D01*
X74960476Y-86714761D01*
X74865238Y-86762380D01*
X74579523Y-86762380D01*
X74484285Y-86714761D01*
X74436666Y-86667142D01*
X80397142Y-85696666D02*
X80444761Y-85744285D01*
X80492380Y-85887142D01*
X80492380Y-85982380D01*
X80444761Y-86125238D01*
X80349523Y-86220476D01*
X80254285Y-86268095D01*
X80063809Y-86315714D01*
X79920952Y-86315714D01*
X79730476Y-86268095D01*
X79635238Y-86220476D01*
X79540000Y-86125238D01*
X79492380Y-85982380D01*
X79492380Y-85887142D01*
X79540000Y-85744285D01*
X79587619Y-85696666D01*
X80492380Y-84744285D02*
X80492380Y-85315714D01*
X80492380Y-85030000D02*
X79492380Y-85030000D01*
X79635238Y-85125238D01*
X79730476Y-85220476D01*
X79778095Y-85315714D01*
X75363333Y-79907142D02*
X75315714Y-79954761D01*
X75172857Y-80002380D01*
X75077619Y-80002380D01*
X74934761Y-79954761D01*
X74839523Y-79859523D01*
X74791904Y-79764285D01*
X74744285Y-79573809D01*
X74744285Y-79430952D01*
X74791904Y-79240476D01*
X74839523Y-79145238D01*
X74934761Y-79050000D01*
X75077619Y-79002380D01*
X75172857Y-79002380D01*
X75315714Y-79050000D01*
X75363333Y-79097619D01*
X75744285Y-79097619D02*
X75791904Y-79050000D01*
X75887142Y-79002380D01*
X76125238Y-79002380D01*
X76220476Y-79050000D01*
X76268095Y-79097619D01*
X76315714Y-79192857D01*
X76315714Y-79288095D01*
X76268095Y-79430952D01*
X75696666Y-80002380D01*
X76315714Y-80002380D01*
X90587142Y-75707142D02*
X90539523Y-75754761D01*
X90396666Y-75802380D01*
X90301428Y-75802380D01*
X90158571Y-75754761D01*
X90063333Y-75659523D01*
X90015714Y-75564285D01*
X89968095Y-75373809D01*
X89968095Y-75230952D01*
X90015714Y-75040476D01*
X90063333Y-74945238D01*
X90158571Y-74850000D01*
X90301428Y-74802380D01*
X90396666Y-74802380D01*
X90539523Y-74850000D01*
X90587142Y-74897619D01*
X90968095Y-74897619D02*
X91015714Y-74850000D01*
X91110952Y-74802380D01*
X91349047Y-74802380D01*
X91444285Y-74850000D01*
X91491904Y-74897619D01*
X91539523Y-74992857D01*
X91539523Y-75088095D01*
X91491904Y-75230952D01*
X90920476Y-75802380D01*
X91539523Y-75802380D01*
X92158571Y-74802380D02*
X92253809Y-74802380D01*
X92349047Y-74850000D01*
X92396666Y-74897619D01*
X92444285Y-74992857D01*
X92491904Y-75183333D01*
X92491904Y-75421428D01*
X92444285Y-75611904D01*
X92396666Y-75707142D01*
X92349047Y-75754761D01*
X92253809Y-75802380D01*
X92158571Y-75802380D01*
X92063333Y-75754761D01*
X92015714Y-75707142D01*
X91968095Y-75611904D01*
X91920476Y-75421428D01*
X91920476Y-75183333D01*
X91968095Y-74992857D01*
X92015714Y-74897619D01*
X92063333Y-74850000D01*
X92158571Y-74802380D01*
X93787142Y-70472857D02*
X93834761Y-70520476D01*
X93882380Y-70663333D01*
X93882380Y-70758571D01*
X93834761Y-70901428D01*
X93739523Y-70996666D01*
X93644285Y-71044285D01*
X93453809Y-71091904D01*
X93310952Y-71091904D01*
X93120476Y-71044285D01*
X93025238Y-70996666D01*
X92930000Y-70901428D01*
X92882380Y-70758571D01*
X92882380Y-70663333D01*
X92930000Y-70520476D01*
X92977619Y-70472857D01*
X92977619Y-70091904D02*
X92930000Y-70044285D01*
X92882380Y-69949047D01*
X92882380Y-69710952D01*
X92930000Y-69615714D01*
X92977619Y-69568095D01*
X93072857Y-69520476D01*
X93168095Y-69520476D01*
X93310952Y-69568095D01*
X93882380Y-70139523D01*
X93882380Y-69520476D01*
X93882380Y-68568095D02*
X93882380Y-69139523D01*
X93882380Y-68853809D02*
X92882380Y-68853809D01*
X93025238Y-68949047D01*
X93120476Y-69044285D01*
X93168095Y-69139523D01*
X80997142Y-65732857D02*
X81044761Y-65780476D01*
X81092380Y-65923333D01*
X81092380Y-66018571D01*
X81044761Y-66161428D01*
X80949523Y-66256666D01*
X80854285Y-66304285D01*
X80663809Y-66351904D01*
X80520952Y-66351904D01*
X80330476Y-66304285D01*
X80235238Y-66256666D01*
X80140000Y-66161428D01*
X80092380Y-66018571D01*
X80092380Y-65923333D01*
X80140000Y-65780476D01*
X80187619Y-65732857D01*
X80187619Y-65351904D02*
X80140000Y-65304285D01*
X80092380Y-65209047D01*
X80092380Y-64970952D01*
X80140000Y-64875714D01*
X80187619Y-64828095D01*
X80282857Y-64780476D01*
X80378095Y-64780476D01*
X80520952Y-64828095D01*
X81092380Y-65399523D01*
X81092380Y-64780476D01*
X80187619Y-64399523D02*
X80140000Y-64351904D01*
X80092380Y-64256666D01*
X80092380Y-64018571D01*
X80140000Y-63923333D01*
X80187619Y-63875714D01*
X80282857Y-63828095D01*
X80378095Y-63828095D01*
X80520952Y-63875714D01*
X81092380Y-64447142D01*
X81092380Y-63828095D01*
X79487142Y-76257142D02*
X79439523Y-76304761D01*
X79296666Y-76352380D01*
X79201428Y-76352380D01*
X79058571Y-76304761D01*
X78963333Y-76209523D01*
X78915714Y-76114285D01*
X78868095Y-75923809D01*
X78868095Y-75780952D01*
X78915714Y-75590476D01*
X78963333Y-75495238D01*
X79058571Y-75400000D01*
X79201428Y-75352380D01*
X79296666Y-75352380D01*
X79439523Y-75400000D01*
X79487142Y-75447619D01*
X79868095Y-75447619D02*
X79915714Y-75400000D01*
X80010952Y-75352380D01*
X80249047Y-75352380D01*
X80344285Y-75400000D01*
X80391904Y-75447619D01*
X80439523Y-75542857D01*
X80439523Y-75638095D01*
X80391904Y-75780952D01*
X79820476Y-76352380D01*
X80439523Y-76352380D01*
X80772857Y-75352380D02*
X81391904Y-75352380D01*
X81058571Y-75733333D01*
X81201428Y-75733333D01*
X81296666Y-75780952D01*
X81344285Y-75828571D01*
X81391904Y-75923809D01*
X81391904Y-76161904D01*
X81344285Y-76257142D01*
X81296666Y-76304761D01*
X81201428Y-76352380D01*
X80915714Y-76352380D01*
X80820476Y-76304761D01*
X80772857Y-76257142D01*
X99997142Y-57112857D02*
X100044761Y-57160476D01*
X100092380Y-57303333D01*
X100092380Y-57398571D01*
X100044761Y-57541428D01*
X99949523Y-57636666D01*
X99854285Y-57684285D01*
X99663809Y-57731904D01*
X99520952Y-57731904D01*
X99330476Y-57684285D01*
X99235238Y-57636666D01*
X99140000Y-57541428D01*
X99092380Y-57398571D01*
X99092380Y-57303333D01*
X99140000Y-57160476D01*
X99187619Y-57112857D01*
X100092380Y-56160476D02*
X100092380Y-56731904D01*
X100092380Y-56446190D02*
X99092380Y-56446190D01*
X99235238Y-56541428D01*
X99330476Y-56636666D01*
X99378095Y-56731904D01*
X99092380Y-55303333D02*
X99092380Y-55493809D01*
X99140000Y-55589047D01*
X99187619Y-55636666D01*
X99330476Y-55731904D01*
X99520952Y-55779523D01*
X99901904Y-55779523D01*
X99997142Y-55731904D01*
X100044761Y-55684285D01*
X100092380Y-55589047D01*
X100092380Y-55398571D01*
X100044761Y-55303333D01*
X99997142Y-55255714D01*
X99901904Y-55208095D01*
X99663809Y-55208095D01*
X99568571Y-55255714D01*
X99520952Y-55303333D01*
X99473333Y-55398571D01*
X99473333Y-55589047D01*
X99520952Y-55684285D01*
X99568571Y-55731904D01*
X99663809Y-55779523D01*
X111547142Y-69482857D02*
X111594761Y-69530476D01*
X111642380Y-69673333D01*
X111642380Y-69768571D01*
X111594761Y-69911428D01*
X111499523Y-70006666D01*
X111404285Y-70054285D01*
X111213809Y-70101904D01*
X111070952Y-70101904D01*
X110880476Y-70054285D01*
X110785238Y-70006666D01*
X110690000Y-69911428D01*
X110642380Y-69768571D01*
X110642380Y-69673333D01*
X110690000Y-69530476D01*
X110737619Y-69482857D01*
X111642380Y-68530476D02*
X111642380Y-69101904D01*
X111642380Y-68816190D02*
X110642380Y-68816190D01*
X110785238Y-68911428D01*
X110880476Y-69006666D01*
X110928095Y-69101904D01*
X110642380Y-67625714D02*
X110642380Y-68101904D01*
X111118571Y-68149523D01*
X111070952Y-68101904D01*
X111023333Y-68006666D01*
X111023333Y-67768571D01*
X111070952Y-67673333D01*
X111118571Y-67625714D01*
X111213809Y-67578095D01*
X111451904Y-67578095D01*
X111547142Y-67625714D01*
X111594761Y-67673333D01*
X111642380Y-67768571D01*
X111642380Y-68006666D01*
X111594761Y-68101904D01*
X111547142Y-68149523D01*
X113247142Y-56217142D02*
X113199523Y-56264761D01*
X113056666Y-56312380D01*
X112961428Y-56312380D01*
X112818571Y-56264761D01*
X112723333Y-56169523D01*
X112675714Y-56074285D01*
X112628095Y-55883809D01*
X112628095Y-55740952D01*
X112675714Y-55550476D01*
X112723333Y-55455238D01*
X112818571Y-55360000D01*
X112961428Y-55312380D01*
X113056666Y-55312380D01*
X113199523Y-55360000D01*
X113247142Y-55407619D01*
X114199523Y-56312380D02*
X113628095Y-56312380D01*
X113913809Y-56312380D02*
X113913809Y-55312380D01*
X113818571Y-55455238D01*
X113723333Y-55550476D01*
X113628095Y-55598095D01*
X114675714Y-56312380D02*
X114866190Y-56312380D01*
X114961428Y-56264761D01*
X115009047Y-56217142D01*
X115104285Y-56074285D01*
X115151904Y-55883809D01*
X115151904Y-55502857D01*
X115104285Y-55407619D01*
X115056666Y-55360000D01*
X114961428Y-55312380D01*
X114770952Y-55312380D01*
X114675714Y-55360000D01*
X114628095Y-55407619D01*
X114580476Y-55502857D01*
X114580476Y-55740952D01*
X114628095Y-55836190D01*
X114675714Y-55883809D01*
X114770952Y-55931428D01*
X114961428Y-55931428D01*
X115056666Y-55883809D01*
X115104285Y-55836190D01*
X115151904Y-55740952D01*
X76427142Y-65782380D02*
X76093809Y-65306190D01*
X75855714Y-65782380D02*
X75855714Y-64782380D01*
X76236666Y-64782380D01*
X76331904Y-64830000D01*
X76379523Y-64877619D01*
X76427142Y-64972857D01*
X76427142Y-65115714D01*
X76379523Y-65210952D01*
X76331904Y-65258571D01*
X76236666Y-65306190D01*
X75855714Y-65306190D01*
X77379523Y-65782380D02*
X76808095Y-65782380D01*
X77093809Y-65782380D02*
X77093809Y-64782380D01*
X76998571Y-64925238D01*
X76903333Y-65020476D01*
X76808095Y-65068095D01*
X78284285Y-64782380D02*
X77808095Y-64782380D01*
X77760476Y-65258571D01*
X77808095Y-65210952D01*
X77903333Y-65163333D01*
X78141428Y-65163333D01*
X78236666Y-65210952D01*
X78284285Y-65258571D01*
X78331904Y-65353809D01*
X78331904Y-65591904D01*
X78284285Y-65687142D01*
X78236666Y-65734761D01*
X78141428Y-65782380D01*
X77903333Y-65782380D01*
X77808095Y-65734761D01*
X77760476Y-65687142D01*
X89212380Y-53556666D02*
X88736190Y-53890000D01*
X89212380Y-54128095D02*
X88212380Y-54128095D01*
X88212380Y-53747142D01*
X88260000Y-53651904D01*
X88307619Y-53604285D01*
X88402857Y-53556666D01*
X88545714Y-53556666D01*
X88640952Y-53604285D01*
X88688571Y-53651904D01*
X88736190Y-53747142D01*
X88736190Y-54128095D01*
X89212380Y-53080476D02*
X89212380Y-52890000D01*
X89164761Y-52794761D01*
X89117142Y-52747142D01*
X88974285Y-52651904D01*
X88783809Y-52604285D01*
X88402857Y-52604285D01*
X88307619Y-52651904D01*
X88260000Y-52699523D01*
X88212380Y-52794761D01*
X88212380Y-52985238D01*
X88260000Y-53080476D01*
X88307619Y-53128095D01*
X88402857Y-53175714D01*
X88640952Y-53175714D01*
X88736190Y-53128095D01*
X88783809Y-53080476D01*
X88831428Y-52985238D01*
X88831428Y-52794761D01*
X88783809Y-52699523D01*
X88736190Y-52651904D01*
X88640952Y-52604285D01*
X87082380Y-53556666D02*
X86606190Y-53890000D01*
X87082380Y-54128095D02*
X86082380Y-54128095D01*
X86082380Y-53747142D01*
X86130000Y-53651904D01*
X86177619Y-53604285D01*
X86272857Y-53556666D01*
X86415714Y-53556666D01*
X86510952Y-53604285D01*
X86558571Y-53651904D01*
X86606190Y-53747142D01*
X86606190Y-54128095D01*
X86177619Y-53175714D02*
X86130000Y-53128095D01*
X86082380Y-53032857D01*
X86082380Y-52794761D01*
X86130000Y-52699523D01*
X86177619Y-52651904D01*
X86272857Y-52604285D01*
X86368095Y-52604285D01*
X86510952Y-52651904D01*
X87082380Y-53223333D01*
X87082380Y-52604285D01*
X80082380Y-78966666D02*
X79606190Y-79300000D01*
X80082380Y-79538095D02*
X79082380Y-79538095D01*
X79082380Y-79157142D01*
X79130000Y-79061904D01*
X79177619Y-79014285D01*
X79272857Y-78966666D01*
X79415714Y-78966666D01*
X79510952Y-79014285D01*
X79558571Y-79061904D01*
X79606190Y-79157142D01*
X79606190Y-79538095D01*
X80082380Y-78014285D02*
X80082380Y-78585714D01*
X80082380Y-78300000D02*
X79082380Y-78300000D01*
X79225238Y-78395238D01*
X79320476Y-78490476D01*
X79368095Y-78585714D01*
X91502380Y-59936666D02*
X91026190Y-60270000D01*
X91502380Y-60508095D02*
X90502380Y-60508095D01*
X90502380Y-60127142D01*
X90550000Y-60031904D01*
X90597619Y-59984285D01*
X90692857Y-59936666D01*
X90835714Y-59936666D01*
X90930952Y-59984285D01*
X90978571Y-60031904D01*
X91026190Y-60127142D01*
X91026190Y-60508095D01*
X90502380Y-59603333D02*
X90502380Y-58984285D01*
X90883333Y-59317619D01*
X90883333Y-59174761D01*
X90930952Y-59079523D01*
X90978571Y-59031904D01*
X91073809Y-58984285D01*
X91311904Y-58984285D01*
X91407142Y-59031904D01*
X91454761Y-59079523D01*
X91502380Y-59174761D01*
X91502380Y-59460476D01*
X91454761Y-59555714D01*
X91407142Y-59603333D01*
X89702380Y-59876666D02*
X89226190Y-60210000D01*
X89702380Y-60448095D02*
X88702380Y-60448095D01*
X88702380Y-60067142D01*
X88750000Y-59971904D01*
X88797619Y-59924285D01*
X88892857Y-59876666D01*
X89035714Y-59876666D01*
X89130952Y-59924285D01*
X89178571Y-59971904D01*
X89226190Y-60067142D01*
X89226190Y-60448095D01*
X89035714Y-59019523D02*
X89702380Y-59019523D01*
X88654761Y-59257619D02*
X89369047Y-59495714D01*
X89369047Y-58876666D01*
X87902380Y-59906666D02*
X87426190Y-60240000D01*
X87902380Y-60478095D02*
X86902380Y-60478095D01*
X86902380Y-60097142D01*
X86950000Y-60001904D01*
X86997619Y-59954285D01*
X87092857Y-59906666D01*
X87235714Y-59906666D01*
X87330952Y-59954285D01*
X87378571Y-60001904D01*
X87426190Y-60097142D01*
X87426190Y-60478095D01*
X86902380Y-59001904D02*
X86902380Y-59478095D01*
X87378571Y-59525714D01*
X87330952Y-59478095D01*
X87283333Y-59382857D01*
X87283333Y-59144761D01*
X87330952Y-59049523D01*
X87378571Y-59001904D01*
X87473809Y-58954285D01*
X87711904Y-58954285D01*
X87807142Y-59001904D01*
X87854761Y-59049523D01*
X87902380Y-59144761D01*
X87902380Y-59382857D01*
X87854761Y-59478095D01*
X87807142Y-59525714D01*
X86332380Y-59946666D02*
X85856190Y-60280000D01*
X86332380Y-60518095D02*
X85332380Y-60518095D01*
X85332380Y-60137142D01*
X85380000Y-60041904D01*
X85427619Y-59994285D01*
X85522857Y-59946666D01*
X85665714Y-59946666D01*
X85760952Y-59994285D01*
X85808571Y-60041904D01*
X85856190Y-60137142D01*
X85856190Y-60518095D01*
X85332380Y-59089523D02*
X85332380Y-59280000D01*
X85380000Y-59375238D01*
X85427619Y-59422857D01*
X85570476Y-59518095D01*
X85760952Y-59565714D01*
X86141904Y-59565714D01*
X86237142Y-59518095D01*
X86284761Y-59470476D01*
X86332380Y-59375238D01*
X86332380Y-59184761D01*
X86284761Y-59089523D01*
X86237142Y-59041904D01*
X86141904Y-58994285D01*
X85903809Y-58994285D01*
X85808571Y-59041904D01*
X85760952Y-59089523D01*
X85713333Y-59184761D01*
X85713333Y-59375238D01*
X85760952Y-59470476D01*
X85808571Y-59518095D01*
X85903809Y-59565714D01*
X85892380Y-62781666D02*
X85416190Y-63115000D01*
X85892380Y-63353095D02*
X84892380Y-63353095D01*
X84892380Y-62972142D01*
X84940000Y-62876904D01*
X84987619Y-62829285D01*
X85082857Y-62781666D01*
X85225714Y-62781666D01*
X85320952Y-62829285D01*
X85368571Y-62876904D01*
X85416190Y-62972142D01*
X85416190Y-63353095D01*
X84892380Y-62448333D02*
X84892380Y-61781666D01*
X85892380Y-62210238D01*
X87757142Y-84392380D02*
X87423809Y-83916190D01*
X87185714Y-84392380D02*
X87185714Y-83392380D01*
X87566666Y-83392380D01*
X87661904Y-83440000D01*
X87709523Y-83487619D01*
X87757142Y-83582857D01*
X87757142Y-83725714D01*
X87709523Y-83820952D01*
X87661904Y-83868571D01*
X87566666Y-83916190D01*
X87185714Y-83916190D01*
X88709523Y-84392380D02*
X88138095Y-84392380D01*
X88423809Y-84392380D02*
X88423809Y-83392380D01*
X88328571Y-83535238D01*
X88233333Y-83630476D01*
X88138095Y-83678095D01*
X89042857Y-83392380D02*
X89661904Y-83392380D01*
X89328571Y-83773333D01*
X89471428Y-83773333D01*
X89566666Y-83820952D01*
X89614285Y-83868571D01*
X89661904Y-83963809D01*
X89661904Y-84201904D01*
X89614285Y-84297142D01*
X89566666Y-84344761D01*
X89471428Y-84392380D01*
X89185714Y-84392380D01*
X89090476Y-84344761D01*
X89042857Y-84297142D01*
X75332380Y-65262857D02*
X74856190Y-65596190D01*
X75332380Y-65834285D02*
X74332380Y-65834285D01*
X74332380Y-65453333D01*
X74380000Y-65358095D01*
X74427619Y-65310476D01*
X74522857Y-65262857D01*
X74665714Y-65262857D01*
X74760952Y-65310476D01*
X74808571Y-65358095D01*
X74856190Y-65453333D01*
X74856190Y-65834285D01*
X75332380Y-64310476D02*
X75332380Y-64881904D01*
X75332380Y-64596190D02*
X74332380Y-64596190D01*
X74475238Y-64691428D01*
X74570476Y-64786666D01*
X74618095Y-64881904D01*
X74332380Y-63453333D02*
X74332380Y-63643809D01*
X74380000Y-63739047D01*
X74427619Y-63786666D01*
X74570476Y-63881904D01*
X74760952Y-63929523D01*
X75141904Y-63929523D01*
X75237142Y-63881904D01*
X75284761Y-63834285D01*
X75332380Y-63739047D01*
X75332380Y-63548571D01*
X75284761Y-63453333D01*
X75237142Y-63405714D01*
X75141904Y-63358095D01*
X74903809Y-63358095D01*
X74808571Y-63405714D01*
X74760952Y-63453333D01*
X74713333Y-63548571D01*
X74713333Y-63739047D01*
X74760952Y-63834285D01*
X74808571Y-63881904D01*
X74903809Y-63929523D01*
X83297142Y-84282380D02*
X82963809Y-83806190D01*
X82725714Y-84282380D02*
X82725714Y-83282380D01*
X83106666Y-83282380D01*
X83201904Y-83330000D01*
X83249523Y-83377619D01*
X83297142Y-83472857D01*
X83297142Y-83615714D01*
X83249523Y-83710952D01*
X83201904Y-83758571D01*
X83106666Y-83806190D01*
X82725714Y-83806190D01*
X84249523Y-84282380D02*
X83678095Y-84282380D01*
X83963809Y-84282380D02*
X83963809Y-83282380D01*
X83868571Y-83425238D01*
X83773333Y-83520476D01*
X83678095Y-83568095D01*
X84820952Y-83710952D02*
X84725714Y-83663333D01*
X84678095Y-83615714D01*
X84630476Y-83520476D01*
X84630476Y-83472857D01*
X84678095Y-83377619D01*
X84725714Y-83330000D01*
X84820952Y-83282380D01*
X85011428Y-83282380D01*
X85106666Y-83330000D01*
X85154285Y-83377619D01*
X85201904Y-83472857D01*
X85201904Y-83520476D01*
X85154285Y-83615714D01*
X85106666Y-83663333D01*
X85011428Y-83710952D01*
X84820952Y-83710952D01*
X84725714Y-83758571D01*
X84678095Y-83806190D01*
X84630476Y-83901428D01*
X84630476Y-84091904D01*
X84678095Y-84187142D01*
X84725714Y-84234761D01*
X84820952Y-84282380D01*
X85011428Y-84282380D01*
X85106666Y-84234761D01*
X85154285Y-84187142D01*
X85201904Y-84091904D01*
X85201904Y-83901428D01*
X85154285Y-83806190D01*
X85106666Y-83758571D01*
X85011428Y-83710952D01*
X102332380Y-49962857D02*
X101856190Y-50296190D01*
X102332380Y-50534285D02*
X101332380Y-50534285D01*
X101332380Y-50153333D01*
X101380000Y-50058095D01*
X101427619Y-50010476D01*
X101522857Y-49962857D01*
X101665714Y-49962857D01*
X101760952Y-50010476D01*
X101808571Y-50058095D01*
X101856190Y-50153333D01*
X101856190Y-50534285D01*
X102332380Y-49010476D02*
X102332380Y-49581904D01*
X102332380Y-49296190D02*
X101332380Y-49296190D01*
X101475238Y-49391428D01*
X101570476Y-49486666D01*
X101618095Y-49581904D01*
X102332380Y-48534285D02*
X102332380Y-48343809D01*
X102284761Y-48248571D01*
X102237142Y-48200952D01*
X102094285Y-48105714D01*
X101903809Y-48058095D01*
X101522857Y-48058095D01*
X101427619Y-48105714D01*
X101380000Y-48153333D01*
X101332380Y-48248571D01*
X101332380Y-48439047D01*
X101380000Y-48534285D01*
X101427619Y-48581904D01*
X101522857Y-48629523D01*
X101760952Y-48629523D01*
X101856190Y-48581904D01*
X101903809Y-48534285D01*
X101951428Y-48439047D01*
X101951428Y-48248571D01*
X101903809Y-48153333D01*
X101856190Y-48105714D01*
X101760952Y-48058095D01*
X89097142Y-79002380D02*
X88763809Y-78526190D01*
X88525714Y-79002380D02*
X88525714Y-78002380D01*
X88906666Y-78002380D01*
X89001904Y-78050000D01*
X89049523Y-78097619D01*
X89097142Y-78192857D01*
X89097142Y-78335714D01*
X89049523Y-78430952D01*
X89001904Y-78478571D01*
X88906666Y-78526190D01*
X88525714Y-78526190D01*
X89478095Y-78097619D02*
X89525714Y-78050000D01*
X89620952Y-78002380D01*
X89859047Y-78002380D01*
X89954285Y-78050000D01*
X90001904Y-78097619D01*
X90049523Y-78192857D01*
X90049523Y-78288095D01*
X90001904Y-78430952D01*
X89430476Y-79002380D01*
X90049523Y-79002380D01*
X90668571Y-78002380D02*
X90763809Y-78002380D01*
X90859047Y-78050000D01*
X90906666Y-78097619D01*
X90954285Y-78192857D01*
X91001904Y-78383333D01*
X91001904Y-78621428D01*
X90954285Y-78811904D01*
X90906666Y-78907142D01*
X90859047Y-78954761D01*
X90763809Y-79002380D01*
X90668571Y-79002380D01*
X90573333Y-78954761D01*
X90525714Y-78907142D01*
X90478095Y-78811904D01*
X90430476Y-78621428D01*
X90430476Y-78383333D01*
X90478095Y-78192857D01*
X90525714Y-78097619D01*
X90573333Y-78050000D01*
X90668571Y-78002380D01*
X90912380Y-53656666D02*
X90436190Y-53990000D01*
X90912380Y-54228095D02*
X89912380Y-54228095D01*
X89912380Y-53847142D01*
X89960000Y-53751904D01*
X90007619Y-53704285D01*
X90102857Y-53656666D01*
X90245714Y-53656666D01*
X90340952Y-53704285D01*
X90388571Y-53751904D01*
X90436190Y-53847142D01*
X90436190Y-54228095D01*
X90340952Y-53085238D02*
X90293333Y-53180476D01*
X90245714Y-53228095D01*
X90150476Y-53275714D01*
X90102857Y-53275714D01*
X90007619Y-53228095D01*
X89960000Y-53180476D01*
X89912380Y-53085238D01*
X89912380Y-52894761D01*
X89960000Y-52799523D01*
X90007619Y-52751904D01*
X90102857Y-52704285D01*
X90150476Y-52704285D01*
X90245714Y-52751904D01*
X90293333Y-52799523D01*
X90340952Y-52894761D01*
X90340952Y-53085238D01*
X90388571Y-53180476D01*
X90436190Y-53228095D01*
X90531428Y-53275714D01*
X90721904Y-53275714D01*
X90817142Y-53228095D01*
X90864761Y-53180476D01*
X90912380Y-53085238D01*
X90912380Y-52894761D01*
X90864761Y-52799523D01*
X90817142Y-52751904D01*
X90721904Y-52704285D01*
X90531428Y-52704285D01*
X90436190Y-52751904D01*
X90388571Y-52799523D01*
X90340952Y-52894761D01*
X73217142Y-71282380D02*
X72883809Y-70806190D01*
X72645714Y-71282380D02*
X72645714Y-70282380D01*
X73026666Y-70282380D01*
X73121904Y-70330000D01*
X73169523Y-70377619D01*
X73217142Y-70472857D01*
X73217142Y-70615714D01*
X73169523Y-70710952D01*
X73121904Y-70758571D01*
X73026666Y-70806190D01*
X72645714Y-70806190D01*
X74169523Y-71282380D02*
X73598095Y-71282380D01*
X73883809Y-71282380D02*
X73883809Y-70282380D01*
X73788571Y-70425238D01*
X73693333Y-70520476D01*
X73598095Y-70568095D01*
X74788571Y-70282380D02*
X74883809Y-70282380D01*
X74979047Y-70330000D01*
X75026666Y-70377619D01*
X75074285Y-70472857D01*
X75121904Y-70663333D01*
X75121904Y-70901428D01*
X75074285Y-71091904D01*
X75026666Y-71187142D01*
X74979047Y-71234761D01*
X74883809Y-71282380D01*
X74788571Y-71282380D01*
X74693333Y-71234761D01*
X74645714Y-71187142D01*
X74598095Y-71091904D01*
X74550476Y-70901428D01*
X74550476Y-70663333D01*
X74598095Y-70472857D01*
X74645714Y-70377619D01*
X74693333Y-70330000D01*
X74788571Y-70282380D01*
X76397142Y-74562380D02*
X76063809Y-74086190D01*
X75825714Y-74562380D02*
X75825714Y-73562380D01*
X76206666Y-73562380D01*
X76301904Y-73610000D01*
X76349523Y-73657619D01*
X76397142Y-73752857D01*
X76397142Y-73895714D01*
X76349523Y-73990952D01*
X76301904Y-74038571D01*
X76206666Y-74086190D01*
X75825714Y-74086190D01*
X77349523Y-74562380D02*
X76778095Y-74562380D01*
X77063809Y-74562380D02*
X77063809Y-73562380D01*
X76968571Y-73705238D01*
X76873333Y-73800476D01*
X76778095Y-73848095D01*
X78301904Y-74562380D02*
X77730476Y-74562380D01*
X78016190Y-74562380D02*
X78016190Y-73562380D01*
X77920952Y-73705238D01*
X77825714Y-73800476D01*
X77730476Y-73848095D01*
X82622380Y-78592857D02*
X82146190Y-78926190D01*
X82622380Y-79164285D02*
X81622380Y-79164285D01*
X81622380Y-78783333D01*
X81670000Y-78688095D01*
X81717619Y-78640476D01*
X81812857Y-78592857D01*
X81955714Y-78592857D01*
X82050952Y-78640476D01*
X82098571Y-78688095D01*
X82146190Y-78783333D01*
X82146190Y-79164285D01*
X82622380Y-77640476D02*
X82622380Y-78211904D01*
X82622380Y-77926190D02*
X81622380Y-77926190D01*
X81765238Y-78021428D01*
X81860476Y-78116666D01*
X81908095Y-78211904D01*
X81717619Y-77259523D02*
X81670000Y-77211904D01*
X81622380Y-77116666D01*
X81622380Y-76878571D01*
X81670000Y-76783333D01*
X81717619Y-76735714D01*
X81812857Y-76688095D01*
X81908095Y-76688095D01*
X82050952Y-76735714D01*
X82622380Y-77307142D01*
X82622380Y-76688095D01*
X76447142Y-64392380D02*
X76113809Y-63916190D01*
X75875714Y-64392380D02*
X75875714Y-63392380D01*
X76256666Y-63392380D01*
X76351904Y-63440000D01*
X76399523Y-63487619D01*
X76447142Y-63582857D01*
X76447142Y-63725714D01*
X76399523Y-63820952D01*
X76351904Y-63868571D01*
X76256666Y-63916190D01*
X75875714Y-63916190D01*
X77399523Y-64392380D02*
X76828095Y-64392380D01*
X77113809Y-64392380D02*
X77113809Y-63392380D01*
X77018571Y-63535238D01*
X76923333Y-63630476D01*
X76828095Y-63678095D01*
X78256666Y-63725714D02*
X78256666Y-64392380D01*
X78018571Y-63344761D02*
X77780476Y-64059047D01*
X78399523Y-64059047D01*
X69441904Y-66922380D02*
X69441904Y-65922380D01*
X69680000Y-65922380D01*
X69822857Y-65970000D01*
X69918095Y-66065238D01*
X69965714Y-66160476D01*
X70013333Y-66350952D01*
X70013333Y-66493809D01*
X69965714Y-66684285D01*
X69918095Y-66779523D01*
X69822857Y-66874761D01*
X69680000Y-66922380D01*
X69441904Y-66922380D01*
X70965714Y-66922380D02*
X70394285Y-66922380D01*
X70680000Y-66922380D02*
X70680000Y-65922380D01*
X70584761Y-66065238D01*
X70489523Y-66160476D01*
X70394285Y-66208095D01*
X69481904Y-69092380D02*
X69481904Y-68092380D01*
X69720000Y-68092380D01*
X69862857Y-68140000D01*
X69958095Y-68235238D01*
X70005714Y-68330476D01*
X70053333Y-68520952D01*
X70053333Y-68663809D01*
X70005714Y-68854285D01*
X69958095Y-68949523D01*
X69862857Y-69044761D01*
X69720000Y-69092380D01*
X69481904Y-69092380D01*
X70434285Y-68187619D02*
X70481904Y-68140000D01*
X70577142Y-68092380D01*
X70815238Y-68092380D01*
X70910476Y-68140000D01*
X70958095Y-68187619D01*
X71005714Y-68282857D01*
X71005714Y-68378095D01*
X70958095Y-68520952D01*
X70386666Y-69092380D01*
X71005714Y-69092380D01*
X90138095Y-64942380D02*
X90138095Y-65751904D01*
X90185714Y-65847142D01*
X90233333Y-65894761D01*
X90328571Y-65942380D01*
X90519047Y-65942380D01*
X90614285Y-65894761D01*
X90661904Y-65847142D01*
X90709523Y-65751904D01*
X90709523Y-64942380D01*
X91709523Y-65942380D02*
X91138095Y-65942380D01*
X91423809Y-65942380D02*
X91423809Y-64942380D01*
X91328571Y-65085238D01*
X91233333Y-65180476D01*
X91138095Y-65228095D01*
X113392380Y-65101904D02*
X114201904Y-65101904D01*
X114297142Y-65054285D01*
X114344761Y-65006666D01*
X114392380Y-64911428D01*
X114392380Y-64720952D01*
X114344761Y-64625714D01*
X114297142Y-64578095D01*
X114201904Y-64530476D01*
X113392380Y-64530476D01*
X113725714Y-63625714D02*
X114392380Y-63625714D01*
X113344761Y-63863809D02*
X114059047Y-64101904D01*
X114059047Y-63482857D01*
X81178095Y-60122380D02*
X81178095Y-60931904D01*
X81225714Y-61027142D01*
X81273333Y-61074761D01*
X81368571Y-61122380D01*
X81559047Y-61122380D01*
X81654285Y-61074761D01*
X81701904Y-61027142D01*
X81749523Y-60931904D01*
X81749523Y-60122380D01*
X82130476Y-60122380D02*
X82749523Y-60122380D01*
X82416190Y-60503333D01*
X82559047Y-60503333D01*
X82654285Y-60550952D01*
X82701904Y-60598571D01*
X82749523Y-60693809D01*
X82749523Y-60931904D01*
X82701904Y-61027142D01*
X82654285Y-61074761D01*
X82559047Y-61122380D01*
X82273333Y-61122380D01*
X82178095Y-61074761D01*
X82130476Y-61027142D01*
X69847142Y-60632857D02*
X69894761Y-60680476D01*
X69942380Y-60823333D01*
X69942380Y-60918571D01*
X69894761Y-61061428D01*
X69799523Y-61156666D01*
X69704285Y-61204285D01*
X69513809Y-61251904D01*
X69370952Y-61251904D01*
X69180476Y-61204285D01*
X69085238Y-61156666D01*
X68990000Y-61061428D01*
X68942380Y-60918571D01*
X68942380Y-60823333D01*
X68990000Y-60680476D01*
X69037619Y-60632857D01*
X69942380Y-59680476D02*
X69942380Y-60251904D01*
X69942380Y-59966190D02*
X68942380Y-59966190D01*
X69085238Y-60061428D01*
X69180476Y-60156666D01*
X69228095Y-60251904D01*
X68942380Y-59347142D02*
X68942380Y-58728095D01*
X69323333Y-59061428D01*
X69323333Y-58918571D01*
X69370952Y-58823333D01*
X69418571Y-58775714D01*
X69513809Y-58728095D01*
X69751904Y-58728095D01*
X69847142Y-58775714D01*
X69894761Y-58823333D01*
X69942380Y-58918571D01*
X69942380Y-59204285D01*
X69894761Y-59299523D01*
X69847142Y-59347142D01*
D15*
X74947142Y-56082857D02*
X74994761Y-56130476D01*
X75042380Y-56273333D01*
X75042380Y-56368571D01*
X74994761Y-56511428D01*
X74899523Y-56606666D01*
X74804285Y-56654285D01*
X74613809Y-56701904D01*
X74470952Y-56701904D01*
X74280476Y-56654285D01*
X74185238Y-56606666D01*
X74090000Y-56511428D01*
X74042380Y-56368571D01*
X74042380Y-56273333D01*
X74090000Y-56130476D01*
X74137619Y-56082857D01*
X75042380Y-55130476D02*
X75042380Y-55701904D01*
X75042380Y-55416190D02*
X74042380Y-55416190D01*
X74185238Y-55511428D01*
X74280476Y-55606666D01*
X74328095Y-55701904D01*
X75042380Y-54178095D02*
X75042380Y-54749523D01*
X75042380Y-54463809D02*
X74042380Y-54463809D01*
X74185238Y-54559047D01*
X74280476Y-54654285D01*
X74328095Y-54749523D01*
D10*
X92997142Y-49406666D02*
X93044761Y-49454285D01*
X93092380Y-49597142D01*
X93092380Y-49692380D01*
X93044761Y-49835238D01*
X92949523Y-49930476D01*
X92854285Y-49978095D01*
X92663809Y-50025714D01*
X92520952Y-50025714D01*
X92330476Y-49978095D01*
X92235238Y-49930476D01*
X92140000Y-49835238D01*
X92092380Y-49692380D01*
X92092380Y-49597142D01*
X92140000Y-49454285D01*
X92187619Y-49406666D01*
X92425714Y-48549523D02*
X93092380Y-48549523D01*
X92044761Y-48787619D02*
X92759047Y-49025714D01*
X92759047Y-48406666D01*
X89997142Y-46906666D02*
X90044761Y-46954285D01*
X90092380Y-47097142D01*
X90092380Y-47192380D01*
X90044761Y-47335238D01*
X89949523Y-47430476D01*
X89854285Y-47478095D01*
X89663809Y-47525714D01*
X89520952Y-47525714D01*
X89330476Y-47478095D01*
X89235238Y-47430476D01*
X89140000Y-47335238D01*
X89092380Y-47192380D01*
X89092380Y-47097142D01*
X89140000Y-46954285D01*
X89187619Y-46906666D01*
X89092380Y-46001904D02*
X89092380Y-46478095D01*
X89568571Y-46525714D01*
X89520952Y-46478095D01*
X89473333Y-46382857D01*
X89473333Y-46144761D01*
X89520952Y-46049523D01*
X89568571Y-46001904D01*
X89663809Y-45954285D01*
X89901904Y-45954285D01*
X89997142Y-46001904D01*
X90044761Y-46049523D01*
X90092380Y-46144761D01*
X90092380Y-46382857D01*
X90044761Y-46478095D01*
X89997142Y-46525714D01*
X83697142Y-59426666D02*
X83744761Y-59474285D01*
X83792380Y-59617142D01*
X83792380Y-59712380D01*
X83744761Y-59855238D01*
X83649523Y-59950476D01*
X83554285Y-59998095D01*
X83363809Y-60045714D01*
X83220952Y-60045714D01*
X83030476Y-59998095D01*
X82935238Y-59950476D01*
X82840000Y-59855238D01*
X82792380Y-59712380D01*
X82792380Y-59617142D01*
X82840000Y-59474285D01*
X82887619Y-59426666D01*
X82792380Y-58569523D02*
X82792380Y-58760000D01*
X82840000Y-58855238D01*
X82887619Y-58902857D01*
X83030476Y-58998095D01*
X83220952Y-59045714D01*
X83601904Y-59045714D01*
X83697142Y-58998095D01*
X83744761Y-58950476D01*
X83792380Y-58855238D01*
X83792380Y-58664761D01*
X83744761Y-58569523D01*
X83697142Y-58521904D01*
X83601904Y-58474285D01*
X83363809Y-58474285D01*
X83268571Y-58521904D01*
X83220952Y-58569523D01*
X83173333Y-58664761D01*
X83173333Y-58855238D01*
X83220952Y-58950476D01*
X83268571Y-58998095D01*
X83363809Y-59045714D01*
X79667142Y-63656666D02*
X79714761Y-63704285D01*
X79762380Y-63847142D01*
X79762380Y-63942380D01*
X79714761Y-64085238D01*
X79619523Y-64180476D01*
X79524285Y-64228095D01*
X79333809Y-64275714D01*
X79190952Y-64275714D01*
X79000476Y-64228095D01*
X78905238Y-64180476D01*
X78810000Y-64085238D01*
X78762380Y-63942380D01*
X78762380Y-63847142D01*
X78810000Y-63704285D01*
X78857619Y-63656666D01*
X78762380Y-63323333D02*
X78762380Y-62656666D01*
X79762380Y-63085238D01*
X75673333Y-52247142D02*
X75625714Y-52294761D01*
X75482857Y-52342380D01*
X75387619Y-52342380D01*
X75244761Y-52294761D01*
X75149523Y-52199523D01*
X75101904Y-52104285D01*
X75054285Y-51913809D01*
X75054285Y-51770952D01*
X75101904Y-51580476D01*
X75149523Y-51485238D01*
X75244761Y-51390000D01*
X75387619Y-51342380D01*
X75482857Y-51342380D01*
X75625714Y-51390000D01*
X75673333Y-51437619D01*
X76244761Y-51770952D02*
X76149523Y-51723333D01*
X76101904Y-51675714D01*
X76054285Y-51580476D01*
X76054285Y-51532857D01*
X76101904Y-51437619D01*
X76149523Y-51390000D01*
X76244761Y-51342380D01*
X76435238Y-51342380D01*
X76530476Y-51390000D01*
X76578095Y-51437619D01*
X76625714Y-51532857D01*
X76625714Y-51580476D01*
X76578095Y-51675714D01*
X76530476Y-51723333D01*
X76435238Y-51770952D01*
X76244761Y-51770952D01*
X76149523Y-51818571D01*
X76101904Y-51866190D01*
X76054285Y-51961428D01*
X76054285Y-52151904D01*
X76101904Y-52247142D01*
X76149523Y-52294761D01*
X76244761Y-52342380D01*
X76435238Y-52342380D01*
X76530476Y-52294761D01*
X76578095Y-52247142D01*
X76625714Y-52151904D01*
X76625714Y-51961428D01*
X76578095Y-51866190D01*
X76530476Y-51818571D01*
X76435238Y-51770952D01*
X84997142Y-59396666D02*
X85044761Y-59444285D01*
X85092380Y-59587142D01*
X85092380Y-59682380D01*
X85044761Y-59825238D01*
X84949523Y-59920476D01*
X84854285Y-59968095D01*
X84663809Y-60015714D01*
X84520952Y-60015714D01*
X84330476Y-59968095D01*
X84235238Y-59920476D01*
X84140000Y-59825238D01*
X84092380Y-59682380D01*
X84092380Y-59587142D01*
X84140000Y-59444285D01*
X84187619Y-59396666D01*
X85092380Y-58920476D02*
X85092380Y-58730000D01*
X85044761Y-58634761D01*
X84997142Y-58587142D01*
X84854285Y-58491904D01*
X84663809Y-58444285D01*
X84282857Y-58444285D01*
X84187619Y-58491904D01*
X84140000Y-58539523D01*
X84092380Y-58634761D01*
X84092380Y-58825238D01*
X84140000Y-58920476D01*
X84187619Y-58968095D01*
X84282857Y-59015714D01*
X84520952Y-59015714D01*
X84616190Y-58968095D01*
X84663809Y-58920476D01*
X84711428Y-58825238D01*
X84711428Y-58634761D01*
X84663809Y-58539523D01*
X84616190Y-58491904D01*
X84520952Y-58444285D01*
X72767142Y-62742857D02*
X72814761Y-62790476D01*
X72862380Y-62933333D01*
X72862380Y-63028571D01*
X72814761Y-63171428D01*
X72719523Y-63266666D01*
X72624285Y-63314285D01*
X72433809Y-63361904D01*
X72290952Y-63361904D01*
X72100476Y-63314285D01*
X72005238Y-63266666D01*
X71910000Y-63171428D01*
X71862380Y-63028571D01*
X71862380Y-62933333D01*
X71910000Y-62790476D01*
X71957619Y-62742857D01*
X72862380Y-61790476D02*
X72862380Y-62361904D01*
X72862380Y-62076190D02*
X71862380Y-62076190D01*
X72005238Y-62171428D01*
X72100476Y-62266666D01*
X72148095Y-62361904D01*
X71862380Y-61171428D02*
X71862380Y-61076190D01*
X71910000Y-60980952D01*
X71957619Y-60933333D01*
X72052857Y-60885714D01*
X72243333Y-60838095D01*
X72481428Y-60838095D01*
X72671904Y-60885714D01*
X72767142Y-60933333D01*
X72814761Y-60980952D01*
X72862380Y-61076190D01*
X72862380Y-61171428D01*
X72814761Y-61266666D01*
X72767142Y-61314285D01*
X72671904Y-61361904D01*
X72481428Y-61409523D01*
X72243333Y-61409523D01*
X72052857Y-61361904D01*
X71957619Y-61314285D01*
X71910000Y-61266666D01*
X71862380Y-61171428D01*
X68297142Y-56397142D02*
X68249523Y-56444761D01*
X68106666Y-56492380D01*
X68011428Y-56492380D01*
X67868571Y-56444761D01*
X67773333Y-56349523D01*
X67725714Y-56254285D01*
X67678095Y-56063809D01*
X67678095Y-55920952D01*
X67725714Y-55730476D01*
X67773333Y-55635238D01*
X67868571Y-55540000D01*
X68011428Y-55492380D01*
X68106666Y-55492380D01*
X68249523Y-55540000D01*
X68297142Y-55587619D01*
X69249523Y-56492380D02*
X68678095Y-56492380D01*
X68963809Y-56492380D02*
X68963809Y-55492380D01*
X68868571Y-55635238D01*
X68773333Y-55730476D01*
X68678095Y-55778095D01*
X69630476Y-55587619D02*
X69678095Y-55540000D01*
X69773333Y-55492380D01*
X70011428Y-55492380D01*
X70106666Y-55540000D01*
X70154285Y-55587619D01*
X70201904Y-55682857D01*
X70201904Y-55778095D01*
X70154285Y-55920952D01*
X69582857Y-56492380D01*
X70201904Y-56492380D01*
X72647142Y-52032857D02*
X72694761Y-52080476D01*
X72742380Y-52223333D01*
X72742380Y-52318571D01*
X72694761Y-52461428D01*
X72599523Y-52556666D01*
X72504285Y-52604285D01*
X72313809Y-52651904D01*
X72170952Y-52651904D01*
X71980476Y-52604285D01*
X71885238Y-52556666D01*
X71790000Y-52461428D01*
X71742380Y-52318571D01*
X71742380Y-52223333D01*
X71790000Y-52080476D01*
X71837619Y-52032857D01*
X72742380Y-51080476D02*
X72742380Y-51651904D01*
X72742380Y-51366190D02*
X71742380Y-51366190D01*
X71885238Y-51461428D01*
X71980476Y-51556666D01*
X72028095Y-51651904D01*
X72075714Y-50223333D02*
X72742380Y-50223333D01*
X71694761Y-50461428D02*
X72409047Y-50699523D01*
X72409047Y-50080476D01*
X73797142Y-51047142D02*
X73749523Y-51094761D01*
X73606666Y-51142380D01*
X73511428Y-51142380D01*
X73368571Y-51094761D01*
X73273333Y-50999523D01*
X73225714Y-50904285D01*
X73178095Y-50713809D01*
X73178095Y-50570952D01*
X73225714Y-50380476D01*
X73273333Y-50285238D01*
X73368571Y-50190000D01*
X73511428Y-50142380D01*
X73606666Y-50142380D01*
X73749523Y-50190000D01*
X73797142Y-50237619D01*
X74749523Y-51142380D02*
X74178095Y-51142380D01*
X74463809Y-51142380D02*
X74463809Y-50142380D01*
X74368571Y-50285238D01*
X74273333Y-50380476D01*
X74178095Y-50428095D01*
X75082857Y-50142380D02*
X75749523Y-50142380D01*
X75320952Y-51142380D01*
X82097142Y-52427142D02*
X82049523Y-52474761D01*
X81906666Y-52522380D01*
X81811428Y-52522380D01*
X81668571Y-52474761D01*
X81573333Y-52379523D01*
X81525714Y-52284285D01*
X81478095Y-52093809D01*
X81478095Y-51950952D01*
X81525714Y-51760476D01*
X81573333Y-51665238D01*
X81668571Y-51570000D01*
X81811428Y-51522380D01*
X81906666Y-51522380D01*
X82049523Y-51570000D01*
X82097142Y-51617619D01*
X83049523Y-52522380D02*
X82478095Y-52522380D01*
X82763809Y-52522380D02*
X82763809Y-51522380D01*
X82668571Y-51665238D01*
X82573333Y-51760476D01*
X82478095Y-51808095D01*
X83620952Y-51950952D02*
X83525714Y-51903333D01*
X83478095Y-51855714D01*
X83430476Y-51760476D01*
X83430476Y-51712857D01*
X83478095Y-51617619D01*
X83525714Y-51570000D01*
X83620952Y-51522380D01*
X83811428Y-51522380D01*
X83906666Y-51570000D01*
X83954285Y-51617619D01*
X84001904Y-51712857D01*
X84001904Y-51760476D01*
X83954285Y-51855714D01*
X83906666Y-51903333D01*
X83811428Y-51950952D01*
X83620952Y-51950952D01*
X83525714Y-51998571D01*
X83478095Y-52046190D01*
X83430476Y-52141428D01*
X83430476Y-52331904D01*
X83478095Y-52427142D01*
X83525714Y-52474761D01*
X83620952Y-52522380D01*
X83811428Y-52522380D01*
X83906666Y-52474761D01*
X83954285Y-52427142D01*
X84001904Y-52331904D01*
X84001904Y-52141428D01*
X83954285Y-52046190D01*
X83906666Y-51998571D01*
X83811428Y-51950952D01*
X107191904Y-55422380D02*
X107191904Y-54422380D01*
X107430000Y-54422380D01*
X107572857Y-54470000D01*
X107668095Y-54565238D01*
X107715714Y-54660476D01*
X107763333Y-54850952D01*
X107763333Y-54993809D01*
X107715714Y-55184285D01*
X107668095Y-55279523D01*
X107572857Y-55374761D01*
X107430000Y-55422380D01*
X107191904Y-55422380D01*
X108096666Y-54422380D02*
X108715714Y-54422380D01*
X108382380Y-54803333D01*
X108525238Y-54803333D01*
X108620476Y-54850952D01*
X108668095Y-54898571D01*
X108715714Y-54993809D01*
X108715714Y-55231904D01*
X108668095Y-55327142D01*
X108620476Y-55374761D01*
X108525238Y-55422380D01*
X108239523Y-55422380D01*
X108144285Y-55374761D01*
X108096666Y-55327142D01*
X60892380Y-58073333D02*
X61606666Y-58073333D01*
X61749523Y-58120952D01*
X61844761Y-58216190D01*
X61892380Y-58359047D01*
X61892380Y-58454285D01*
X60987619Y-57644761D02*
X60940000Y-57597142D01*
X60892380Y-57501904D01*
X60892380Y-57263809D01*
X60940000Y-57168571D01*
X60987619Y-57120952D01*
X61082857Y-57073333D01*
X61178095Y-57073333D01*
X61320952Y-57120952D01*
X61892380Y-57692380D01*
X61892380Y-57073333D01*
X73873333Y-59692380D02*
X73397142Y-59692380D01*
X73397142Y-58692380D01*
X74730476Y-59692380D02*
X74159047Y-59692380D01*
X74444761Y-59692380D02*
X74444761Y-58692380D01*
X74349523Y-58835238D01*
X74254285Y-58930476D01*
X74159047Y-58978095D01*
X70873333Y-59842380D02*
X70397142Y-59842380D01*
X70397142Y-58842380D01*
X71159047Y-58937619D02*
X71206666Y-58890000D01*
X71301904Y-58842380D01*
X71540000Y-58842380D01*
X71635238Y-58890000D01*
X71682857Y-58937619D01*
X71730476Y-59032857D01*
X71730476Y-59128095D01*
X71682857Y-59270952D01*
X71111428Y-59842380D01*
X71730476Y-59842380D01*
X70673333Y-54792380D02*
X70197142Y-54792380D01*
X70197142Y-53792380D01*
X70911428Y-53792380D02*
X71530476Y-53792380D01*
X71197142Y-54173333D01*
X71340000Y-54173333D01*
X71435238Y-54220952D01*
X71482857Y-54268571D01*
X71530476Y-54363809D01*
X71530476Y-54601904D01*
X71482857Y-54697142D01*
X71435238Y-54744761D01*
X71340000Y-54792380D01*
X71054285Y-54792380D01*
X70959047Y-54744761D01*
X70911428Y-54697142D01*
X99132380Y-65446666D02*
X99132380Y-65922857D01*
X98132380Y-65922857D01*
X98465714Y-64684761D02*
X99132380Y-64684761D01*
X98084761Y-64922857D02*
X98799047Y-65160952D01*
X98799047Y-64541904D01*
X105994761Y-51537619D02*
X105899523Y-51490000D01*
X105804285Y-51394761D01*
X105661428Y-51251904D01*
X105566190Y-51204285D01*
X105470952Y-51204285D01*
X105518571Y-51442380D02*
X105423333Y-51394761D01*
X105328095Y-51299523D01*
X105280476Y-51109047D01*
X105280476Y-50775714D01*
X105328095Y-50585238D01*
X105423333Y-50490000D01*
X105518571Y-50442380D01*
X105709047Y-50442380D01*
X105804285Y-50490000D01*
X105899523Y-50585238D01*
X105947142Y-50775714D01*
X105947142Y-51109047D01*
X105899523Y-51299523D01*
X105804285Y-51394761D01*
X105709047Y-51442380D01*
X105518571Y-51442380D01*
X106899523Y-51442380D02*
X106328095Y-51442380D01*
X106613809Y-51442380D02*
X106613809Y-50442380D01*
X106518571Y-50585238D01*
X106423333Y-50680476D01*
X106328095Y-50728095D01*
X78747142Y-52592380D02*
X78413809Y-52116190D01*
X78175714Y-52592380D02*
X78175714Y-51592380D01*
X78556666Y-51592380D01*
X78651904Y-51640000D01*
X78699523Y-51687619D01*
X78747142Y-51782857D01*
X78747142Y-51925714D01*
X78699523Y-52020952D01*
X78651904Y-52068571D01*
X78556666Y-52116190D01*
X78175714Y-52116190D01*
X79699523Y-52592380D02*
X79128095Y-52592380D01*
X79413809Y-52592380D02*
X79413809Y-51592380D01*
X79318571Y-51735238D01*
X79223333Y-51830476D01*
X79128095Y-51878095D01*
X80032857Y-51592380D02*
X80699523Y-51592380D01*
X80270952Y-52592380D01*
X84458095Y-46212380D02*
X84458095Y-47021904D01*
X84505714Y-47117142D01*
X84553333Y-47164761D01*
X84648571Y-47212380D01*
X84839047Y-47212380D01*
X84934285Y-47164761D01*
X84981904Y-47117142D01*
X85029523Y-47021904D01*
X85029523Y-46212380D01*
X85458095Y-46307619D02*
X85505714Y-46260000D01*
X85600952Y-46212380D01*
X85839047Y-46212380D01*
X85934285Y-46260000D01*
X85981904Y-46307619D01*
X86029523Y-46402857D01*
X86029523Y-46498095D01*
X85981904Y-46640952D01*
X85410476Y-47212380D01*
X86029523Y-47212380D01*
X79043809Y-45626190D02*
X79043809Y-46102380D01*
X78710476Y-45102380D02*
X79043809Y-45626190D01*
X79377142Y-45102380D01*
X80234285Y-46102380D02*
X79662857Y-46102380D01*
X79948571Y-46102380D02*
X79948571Y-45102380D01*
X79853333Y-45245238D01*
X79758095Y-45340476D01*
X79662857Y-45388095D01*
X109504285Y-85368571D02*
X109647142Y-85416190D01*
X109694761Y-85463809D01*
X109742380Y-85559047D01*
X109742380Y-85701904D01*
X109694761Y-85797142D01*
X109647142Y-85844761D01*
X109551904Y-85892380D01*
X109170952Y-85892380D01*
X109170952Y-84892380D01*
X109504285Y-84892380D01*
X109599523Y-84940000D01*
X109647142Y-84987619D01*
X109694761Y-85082857D01*
X109694761Y-85178095D01*
X109647142Y-85273333D01*
X109599523Y-85320952D01*
X109504285Y-85368571D01*
X109170952Y-85368571D01*
X110028095Y-84892380D02*
X110599523Y-84892380D01*
X110313809Y-85892380D02*
X110313809Y-84892380D01*
X111456666Y-85892380D02*
X110885238Y-85892380D01*
X111170952Y-85892380D02*
X111170952Y-84892380D01*
X111075714Y-85035238D01*
X110980476Y-85130476D01*
X110885238Y-85178095D01*
X69376666Y-90634761D02*
X69519523Y-90682380D01*
X69757619Y-90682380D01*
X69852857Y-90634761D01*
X69900476Y-90587142D01*
X69948095Y-90491904D01*
X69948095Y-90396666D01*
X69900476Y-90301428D01*
X69852857Y-90253809D01*
X69757619Y-90206190D01*
X69567142Y-90158571D01*
X69471904Y-90110952D01*
X69424285Y-90063333D01*
X69376666Y-89968095D01*
X69376666Y-89872857D01*
X69424285Y-89777619D01*
X69471904Y-89730000D01*
X69567142Y-89682380D01*
X69805238Y-89682380D01*
X69948095Y-89730000D01*
X70281428Y-89682380D02*
X70519523Y-90682380D01*
X70710000Y-89968095D01*
X70900476Y-90682380D01*
X71138571Y-89682380D01*
X72043333Y-90682380D02*
X71471904Y-90682380D01*
X71757619Y-90682380D02*
X71757619Y-89682380D01*
X71662380Y-89825238D01*
X71567142Y-89920476D01*
X71471904Y-89968095D01*
X92916666Y-90514761D02*
X93059523Y-90562380D01*
X93297619Y-90562380D01*
X93392857Y-90514761D01*
X93440476Y-90467142D01*
X93488095Y-90371904D01*
X93488095Y-90276666D01*
X93440476Y-90181428D01*
X93392857Y-90133809D01*
X93297619Y-90086190D01*
X93107142Y-90038571D01*
X93011904Y-89990952D01*
X92964285Y-89943333D01*
X92916666Y-89848095D01*
X92916666Y-89752857D01*
X92964285Y-89657619D01*
X93011904Y-89610000D01*
X93107142Y-89562380D01*
X93345238Y-89562380D01*
X93488095Y-89610000D01*
X93821428Y-89562380D02*
X94059523Y-90562380D01*
X94250000Y-89848095D01*
X94440476Y-90562380D01*
X94678571Y-89562380D01*
X95011904Y-89657619D02*
X95059523Y-89610000D01*
X95154761Y-89562380D01*
X95392857Y-89562380D01*
X95488095Y-89610000D01*
X95535714Y-89657619D01*
X95583333Y-89752857D01*
X95583333Y-89848095D01*
X95535714Y-89990952D01*
X94964285Y-90562380D01*
X95583333Y-90562380D01*
X70816666Y-70072380D02*
X70816666Y-70786666D01*
X70769047Y-70929523D01*
X70673809Y-71024761D01*
X70530952Y-71072380D01*
X70435714Y-71072380D01*
X71816666Y-71072380D02*
X71245238Y-71072380D01*
X71530952Y-71072380D02*
X71530952Y-70072380D01*
X71435714Y-70215238D01*
X71340476Y-70310476D01*
X71245238Y-70358095D01*
M02*
