G04 #@! TF.GenerationSoftware,KiCad,Pcbnew,5.1.5+dfsg1-2build2*
G04 #@! TF.CreationDate,2020-11-28T21:48:10+03:00*
G04 #@! TF.ProjectId,NRF_SENDER,4e52465f-5345-44e4-9445-522e6b696361,rev?*
G04 #@! TF.SameCoordinates,Original*
G04 #@! TF.FileFunction,Copper,L2,Bot*
G04 #@! TF.FilePolarity,Positive*
%FSLAX46Y46*%
G04 Gerber Fmt 4.6, Leading zero omitted, Abs format (unit mm)*
G04 Created by KiCad (PCBNEW 5.1.5+dfsg1-2build2) date 2020-11-28 21:48:10*
%MOMM*%
%LPD*%
G04 APERTURE LIST*
%ADD10C,2.500000*%
%ADD11R,2.500000X2.500000*%
%ADD12R,1.700000X1.700000*%
%ADD13O,1.700000X1.700000*%
%ADD14C,0.600000*%
%ADD15C,1.600000*%
%ADD16C,1.200000*%
%ADD17C,0.200000*%
%ADD18C,0.400000*%
%ADD19C,0.500000*%
%ADD20C,0.300000*%
G04 APERTURE END LIST*
D10*
X123640000Y-78240000D03*
D11*
X95840000Y-78240000D03*
D12*
X71150000Y-72950000D03*
D13*
X71150000Y-75490000D03*
X71150000Y-78030000D03*
X71150000Y-80570000D03*
X71150000Y-83110000D03*
X71150000Y-85650000D03*
D14*
X77240000Y-56190000D03*
X78220000Y-56190000D03*
X79440000Y-56190000D03*
X79440000Y-57310000D03*
X78220000Y-57310000D03*
X77240000Y-57310000D03*
X77240000Y-58520000D03*
X78220000Y-58520000D03*
X79440000Y-58520000D03*
X83820000Y-68326000D03*
X87070000Y-65930000D03*
X88900000Y-69088000D03*
X88870000Y-64220000D03*
X86160000Y-61550000D03*
X82530000Y-56470000D03*
X82241508Y-53598492D03*
X83509990Y-48205006D03*
X70866000Y-69342000D03*
X81534000Y-68580000D03*
X74010000Y-64550000D03*
X62640000Y-57940000D03*
X69140000Y-44240000D03*
X74140000Y-44240000D03*
X79140000Y-44240000D03*
X84140000Y-44240000D03*
X89140000Y-44240000D03*
X99140000Y-44240000D03*
X104140000Y-44240000D03*
X109140000Y-44240000D03*
X114140000Y-44240000D03*
X119140000Y-44240000D03*
X121640000Y-46740000D03*
X124140000Y-49240000D03*
X126640000Y-51740000D03*
X126640000Y-56740000D03*
X126640000Y-61740000D03*
X126640000Y-71740000D03*
X126640000Y-76740000D03*
X126640000Y-84240000D03*
X124140000Y-86740000D03*
X121640000Y-89240000D03*
X119140000Y-91740000D03*
X114140000Y-91740000D03*
X109140000Y-91740000D03*
X104140000Y-91740000D03*
X99140000Y-91740000D03*
X94140000Y-91740000D03*
X84140000Y-91740000D03*
X79140000Y-91740000D03*
X74140000Y-91740000D03*
X69140000Y-91740000D03*
X64140000Y-91740000D03*
X61640000Y-89240000D03*
X59140000Y-86740000D03*
X56640000Y-84240000D03*
X56640000Y-79240000D03*
X56640000Y-74240000D03*
X56640000Y-64240000D03*
X56640000Y-59240000D03*
X56640000Y-54240000D03*
X56640000Y-51740000D03*
X59140000Y-49240000D03*
X61640000Y-46740000D03*
X64140000Y-44240000D03*
X94140000Y-44240000D03*
X69140000Y-64240000D03*
X64140000Y-74240000D03*
X64140000Y-81740000D03*
X70440000Y-89140000D03*
X91640000Y-86740000D03*
X99140000Y-84240000D03*
X106640000Y-86740000D03*
X111640000Y-81740000D03*
X119140000Y-81740000D03*
X119140000Y-74240000D03*
X116640000Y-69240000D03*
X121640000Y-56740000D03*
X114140000Y-51740000D03*
X99140000Y-49240000D03*
X64140000Y-64240000D03*
X77040000Y-63540000D03*
X67240000Y-55040000D03*
X65040000Y-54740000D03*
X63240000Y-55940000D03*
X63140000Y-59940000D03*
X64440000Y-61240000D03*
X66440000Y-61340000D03*
X67740000Y-60040000D03*
X70840000Y-59240000D03*
X71340000Y-61340000D03*
X70840000Y-53240000D03*
X97140000Y-54740000D03*
X99140000Y-54740000D03*
X97140000Y-56740000D03*
X99140000Y-56740000D03*
X99140000Y-58740000D03*
X97140000Y-58740000D03*
X95140000Y-58740000D03*
X95140000Y-56740000D03*
X122140000Y-61740000D03*
X121140000Y-52740000D03*
X99140000Y-51340000D03*
X97140000Y-49140000D03*
X95640000Y-51340000D03*
X94240000Y-50140000D03*
X69640000Y-54740000D03*
X75340000Y-48340000D03*
X73540000Y-48340000D03*
X74440000Y-46440000D03*
X73340000Y-51940000D03*
X74820000Y-84970000D03*
X80010000Y-76454000D03*
X78740000Y-73822000D03*
X93472000Y-56388000D03*
X100584000Y-54610000D03*
X109474000Y-56642000D03*
X89020000Y-82050000D03*
X77080000Y-82949998D03*
X76190000Y-60899990D03*
X82470000Y-57510000D03*
X87020000Y-46970000D03*
X88265000Y-46970000D03*
X83820000Y-54610000D03*
X106760000Y-48500000D03*
D15*
X91186000Y-47244000D03*
D14*
X74840000Y-53740000D03*
D16*
X81856777Y-84239162D03*
D14*
X81026000Y-76454000D03*
X92740000Y-81740000D03*
X114990000Y-61840000D03*
X103680000Y-81740000D03*
X94234000Y-54610000D03*
X86490000Y-83330000D03*
X86614000Y-53340000D03*
X85344000Y-49784000D03*
X91694000Y-59436000D03*
X81788000Y-67017987D03*
X90170000Y-59944000D03*
X82925272Y-69463272D03*
X85090000Y-51054000D03*
X88646000Y-54610000D03*
X83920000Y-53220000D03*
X84110000Y-49990000D03*
X82296000Y-66040000D03*
X77470000Y-75438000D03*
X80772000Y-61976000D03*
X85182010Y-61976000D03*
X83312000Y-55372000D03*
X91140000Y-70840000D03*
D17*
X86770001Y-66229999D02*
X87070000Y-65930000D01*
X83820000Y-68326000D02*
X84674000Y-68326000D01*
X84674000Y-68326000D02*
X86770001Y-66229999D01*
X88900000Y-69088000D02*
X88900000Y-64250000D01*
X88900000Y-64250000D02*
X88870000Y-64220000D01*
X82530000Y-53886984D02*
X82241508Y-53598492D01*
X82241508Y-53598492D02*
X82241508Y-49473488D01*
X83209991Y-48505005D02*
X83509990Y-48205006D01*
X82241508Y-49473488D02*
X83209991Y-48505005D01*
X73406000Y-71882000D02*
X70866000Y-69342000D01*
X78740000Y-83820000D02*
X77450000Y-85110000D01*
X77450000Y-85110000D02*
X75814264Y-85110000D01*
X75814264Y-85110000D02*
X75390000Y-85110000D01*
D18*
X80010000Y-75092000D02*
X80010000Y-76454000D01*
X78740000Y-73822000D02*
X80010000Y-75092000D01*
X93472000Y-56388000D02*
X93472000Y-53594000D01*
X93472000Y-53594000D02*
X100584000Y-53594000D01*
X100584000Y-53594000D02*
X100584000Y-54610000D01*
D19*
X100584000Y-58184000D02*
X100584000Y-54610000D01*
X102797324Y-60397324D02*
X100584000Y-58184000D01*
X109474000Y-59436000D02*
X109474000Y-56642000D01*
X102797324Y-60397324D02*
X108982676Y-60397324D01*
X109474000Y-59906000D02*
X109474000Y-59436000D01*
X108982676Y-60397324D02*
X109474000Y-59906000D01*
D18*
X88930000Y-81960000D02*
X89020000Y-82050000D01*
X80010000Y-76878264D02*
X80010000Y-81980000D01*
X80010000Y-76454000D02*
X80010000Y-76878264D01*
X80010000Y-81980000D02*
X88930000Y-81960000D01*
X80010000Y-81980000D02*
X79040002Y-82949998D01*
X79040002Y-82949998D02*
X77504264Y-82949998D01*
D19*
X77079998Y-82950000D02*
X77080000Y-82949998D01*
D18*
X77504264Y-82949998D02*
X77080000Y-82949998D01*
X74977120Y-73000000D02*
X72780000Y-73000000D01*
X75294000Y-73316880D02*
X74977120Y-73000000D01*
X72780000Y-73000000D02*
X71530000Y-73000000D01*
X75294000Y-76454000D02*
X75294000Y-73316880D01*
X80010000Y-76454000D02*
X75294000Y-76454000D01*
D19*
X87020000Y-46970000D02*
X88265000Y-46970000D01*
X102108000Y-48514000D02*
X106680000Y-48514000D01*
X100838000Y-47244000D02*
X102108000Y-48514000D01*
X91186000Y-47244000D02*
X100838000Y-47244000D01*
D17*
X87020000Y-49060000D02*
X87020000Y-46970000D01*
X83782000Y-49060000D02*
X87020000Y-49060000D01*
X83312000Y-49530000D02*
X83782000Y-49060000D01*
X83312000Y-54102000D02*
X83312000Y-49530000D01*
X83820000Y-54610000D02*
X83312000Y-54102000D01*
X80340000Y-59740000D02*
X76630000Y-59740000D01*
X82370000Y-59740000D02*
X80240000Y-59740000D01*
X82370000Y-57610000D02*
X82370000Y-59740000D01*
X76240000Y-60140000D02*
X76240000Y-60979990D01*
X76640000Y-59740000D02*
X76260000Y-60120000D01*
X82270000Y-54610000D02*
X83820000Y-54610000D01*
X81740000Y-55140000D02*
X82270000Y-54610000D01*
X81740000Y-57204264D02*
X81740000Y-55140000D01*
X82045736Y-57510000D02*
X81740000Y-57204264D01*
X82470000Y-57510000D02*
X82045736Y-57510000D01*
X74840000Y-54164264D02*
X74840000Y-53740000D01*
X76190000Y-60899990D02*
X74840000Y-59549990D01*
X74840000Y-59549990D02*
X74840000Y-54164264D01*
D19*
X93840838Y-84239162D02*
X82705305Y-84239162D01*
X95840000Y-82240000D02*
X93840838Y-84239162D01*
X95840000Y-78240000D02*
X95840000Y-82240000D01*
X82705305Y-84239162D02*
X81856777Y-84239162D01*
D17*
X92440001Y-81440001D02*
X92740000Y-81740000D01*
X87454000Y-76454000D02*
X92440001Y-81440001D01*
X81026000Y-76454000D02*
X87454000Y-76454000D01*
X103680000Y-81740000D02*
X106690000Y-81740000D01*
X114990000Y-73440000D02*
X114990000Y-61840000D01*
X106690000Y-81740000D02*
X114990000Y-73440000D01*
X94234000Y-54610000D02*
X94234000Y-81946000D01*
X94234000Y-81946000D02*
X92850000Y-83330000D01*
X92850000Y-83330000D02*
X86914264Y-83330000D01*
X86914264Y-83330000D02*
X86490000Y-83330000D01*
X86614000Y-51054000D02*
X85344000Y-49784000D01*
X86614000Y-53340000D02*
X86614000Y-51054000D01*
X82212264Y-67017987D02*
X81788000Y-67017987D01*
X87120000Y-62110251D02*
X82212264Y-67017987D01*
X87120000Y-58930000D02*
X87120000Y-62110251D01*
X87122000Y-58928000D02*
X87120000Y-58930000D01*
X91186000Y-58928000D02*
X87122000Y-58928000D01*
X91694000Y-59436000D02*
X91186000Y-58928000D01*
X83225271Y-69763271D02*
X82925272Y-69463272D01*
X89494729Y-69763271D02*
X83225271Y-69763271D01*
X90170000Y-69088000D02*
X89494729Y-69763271D01*
X90170000Y-59944000D02*
X90170000Y-69088000D01*
X85090000Y-51054000D02*
X85090000Y-54102000D01*
X85090000Y-54102000D02*
X85598000Y-54610000D01*
X86232002Y-54610000D02*
X88646000Y-54610000D01*
X85598000Y-54610000D02*
X86232002Y-54610000D01*
X83920000Y-50180000D02*
X84110000Y-49990000D01*
X83920000Y-53220000D02*
X83920000Y-50180000D01*
X79502000Y-66040000D02*
X82296000Y-66040000D01*
X77470000Y-68072000D02*
X79502000Y-66040000D01*
X77470000Y-75438000D02*
X77470000Y-68072000D01*
X80772000Y-61976000D02*
X85182010Y-61976000D01*
X92964000Y-69016000D02*
X91439999Y-70540001D01*
X92964000Y-57150000D02*
X92964000Y-69016000D01*
X91186000Y-55372000D02*
X92964000Y-57150000D01*
X83312000Y-55372000D02*
X91186000Y-55372000D01*
X91439999Y-70540001D02*
X91140000Y-70840000D01*
D20*
G36*
X122533944Y-44504320D02*
G01*
X122545495Y-44552434D01*
X122555771Y-44600779D01*
X122561970Y-44621058D01*
X122878272Y-45609186D01*
X122896813Y-45655077D01*
X122914118Y-45701360D01*
X122923246Y-45720500D01*
X123382129Y-46651022D01*
X123407235Y-46693644D01*
X123431205Y-46736886D01*
X123443062Y-46754466D01*
X124034444Y-47606940D01*
X124065578Y-47645387D01*
X124095673Y-47684608D01*
X124109998Y-47700242D01*
X124820889Y-48455940D01*
X124857366Y-48489365D01*
X124892924Y-48523703D01*
X124909403Y-48537048D01*
X125724184Y-49179370D01*
X125765202Y-49207037D01*
X125805444Y-49235741D01*
X125823714Y-49246504D01*
X126724486Y-49761338D01*
X126769125Y-49782630D01*
X126813187Y-49805080D01*
X126832847Y-49813023D01*
X127799823Y-50189059D01*
X127847128Y-50203522D01*
X127894014Y-50219210D01*
X127914622Y-50224157D01*
X127914634Y-50224161D01*
X127914644Y-50224163D01*
X128926569Y-50453138D01*
X128975492Y-50460450D01*
X129024182Y-50469035D01*
X129045306Y-50470884D01*
X129330001Y-50492041D01*
X129330000Y-85985331D01*
X128560115Y-86088010D01*
X128541423Y-86091965D01*
X128522413Y-86093945D01*
X128439902Y-86113445D01*
X127425040Y-86410146D01*
X127407158Y-86416884D01*
X127388669Y-86421716D01*
X127310079Y-86453464D01*
X127310057Y-86453472D01*
X127310051Y-86453475D01*
X126351752Y-86900268D01*
X126335094Y-86909634D01*
X126317549Y-86917207D01*
X126244645Y-86960489D01*
X125364949Y-87547098D01*
X125349902Y-87558874D01*
X125333702Y-87569015D01*
X125268183Y-87622826D01*
X124487340Y-88335749D01*
X124474247Y-88349666D01*
X124459768Y-88362140D01*
X124403143Y-88425243D01*
X123739122Y-89248074D01*
X123728288Y-89263806D01*
X123715859Y-89278331D01*
X123669431Y-89349273D01*
X123137512Y-90263077D01*
X123129181Y-90280270D01*
X123119093Y-90296506D01*
X123083930Y-90373654D01*
X122696353Y-91357402D01*
X122690718Y-91375659D01*
X122683203Y-91393232D01*
X122660114Y-91474811D01*
X122425800Y-92505866D01*
X122422991Y-92524766D01*
X122418221Y-92543273D01*
X122407736Y-92627407D01*
X122386028Y-92930000D01*
X61906428Y-92930000D01*
X61746119Y-91945666D01*
X61734569Y-91897556D01*
X61724292Y-91849206D01*
X61718093Y-91828928D01*
X61401786Y-90840790D01*
X61383256Y-90794925D01*
X61365941Y-90748615D01*
X61356816Y-90729482D01*
X61356813Y-90729475D01*
X61356810Y-90729470D01*
X60897926Y-89798945D01*
X60872813Y-89756311D01*
X60848850Y-89713081D01*
X60836993Y-89695501D01*
X60245605Y-88843020D01*
X60214477Y-88804580D01*
X60184377Y-88765353D01*
X60170052Y-88749719D01*
X59459156Y-87994013D01*
X59422676Y-87960585D01*
X59387119Y-87926249D01*
X59370649Y-87912911D01*
X59370641Y-87912904D01*
X59370634Y-87912899D01*
X58555852Y-87270577D01*
X58514823Y-87242902D01*
X58474592Y-87214206D01*
X58456322Y-87203443D01*
X58456321Y-87203442D01*
X58456316Y-87203440D01*
X57555541Y-86688604D01*
X57510867Y-86667296D01*
X57466841Y-86644863D01*
X57447194Y-86636925D01*
X57447180Y-86636918D01*
X57447168Y-86636914D01*
X56480195Y-86260879D01*
X56432891Y-86246417D01*
X56386005Y-86230729D01*
X56365397Y-86225782D01*
X56365385Y-86225778D01*
X56365375Y-86225776D01*
X55353440Y-85996799D01*
X55304517Y-85989487D01*
X55255827Y-85980902D01*
X55234703Y-85979053D01*
X54950000Y-85957896D01*
X54950000Y-80412414D01*
X69550000Y-80412414D01*
X69550000Y-80727586D01*
X69611487Y-81036703D01*
X69732098Y-81327884D01*
X69907199Y-81589941D01*
X70130059Y-81812801D01*
X70170765Y-81840000D01*
X70130059Y-81867199D01*
X69907199Y-82090059D01*
X69732098Y-82352116D01*
X69611487Y-82643297D01*
X69550000Y-82952414D01*
X69550000Y-83267586D01*
X69611487Y-83576703D01*
X69732098Y-83867884D01*
X69907199Y-84129941D01*
X70130059Y-84352801D01*
X70170765Y-84380000D01*
X70130059Y-84407199D01*
X69907199Y-84630059D01*
X69732098Y-84892116D01*
X69611487Y-85183297D01*
X69550000Y-85492414D01*
X69550000Y-85807586D01*
X69611487Y-86116703D01*
X69732098Y-86407884D01*
X69907199Y-86669941D01*
X70130059Y-86892801D01*
X70392116Y-87067902D01*
X70683297Y-87188513D01*
X70992414Y-87250000D01*
X71307586Y-87250000D01*
X71616703Y-87188513D01*
X71907884Y-87067902D01*
X72169941Y-86892801D01*
X72392801Y-86669941D01*
X72567902Y-86407884D01*
X72688513Y-86116703D01*
X72750000Y-85807586D01*
X72750000Y-85492414D01*
X72688513Y-85183297D01*
X72567902Y-84892116D01*
X72392801Y-84630059D01*
X72169941Y-84407199D01*
X72129235Y-84380000D01*
X72169941Y-84352801D01*
X72392801Y-84129941D01*
X72567902Y-83867884D01*
X72688513Y-83576703D01*
X72750000Y-83267586D01*
X72750000Y-82952414D01*
X72688513Y-82643297D01*
X72567902Y-82352116D01*
X72392801Y-82090059D01*
X72169941Y-81867199D01*
X72129235Y-81840000D01*
X72169941Y-81812801D01*
X72392801Y-81589941D01*
X72567902Y-81327884D01*
X72688513Y-81036703D01*
X72750000Y-80727586D01*
X72750000Y-80412414D01*
X72688513Y-80103297D01*
X72567902Y-79812116D01*
X72392801Y-79550059D01*
X72169941Y-79327199D01*
X72043049Y-79242412D01*
X72247566Y-79064129D01*
X72428225Y-78830134D01*
X72559763Y-78565390D01*
X72619619Y-78368061D01*
X72489469Y-78134000D01*
X71254000Y-78134000D01*
X71254000Y-78154000D01*
X71046000Y-78154000D01*
X71046000Y-78134000D01*
X69810531Y-78134000D01*
X69680381Y-78368061D01*
X69740237Y-78565390D01*
X69871775Y-78830134D01*
X70052434Y-79064129D01*
X70256951Y-79242412D01*
X70130059Y-79327199D01*
X69907199Y-79550059D01*
X69732098Y-79812116D01*
X69611487Y-80103297D01*
X69550000Y-80412414D01*
X54950000Y-80412414D01*
X54950000Y-72100000D01*
X69546372Y-72100000D01*
X69546372Y-73800000D01*
X69560853Y-73947026D01*
X69603739Y-74088401D01*
X69673381Y-74218693D01*
X69767105Y-74332895D01*
X69881307Y-74426619D01*
X69926489Y-74450769D01*
X69907199Y-74470059D01*
X69732098Y-74732116D01*
X69611487Y-75023297D01*
X69550000Y-75332414D01*
X69550000Y-75647586D01*
X69611487Y-75956703D01*
X69732098Y-76247884D01*
X69907199Y-76509941D01*
X70130059Y-76732801D01*
X70256951Y-76817588D01*
X70052434Y-76995871D01*
X69871775Y-77229866D01*
X69740237Y-77494610D01*
X69680381Y-77691939D01*
X69810531Y-77926000D01*
X71046000Y-77926000D01*
X71046000Y-77906000D01*
X71254000Y-77906000D01*
X71254000Y-77926000D01*
X72489469Y-77926000D01*
X72619619Y-77691939D01*
X72559763Y-77494610D01*
X72428225Y-77229866D01*
X72247566Y-76995871D01*
X72043049Y-76817588D01*
X72169941Y-76732801D01*
X72392801Y-76509941D01*
X72567902Y-76247884D01*
X72688513Y-75956703D01*
X72750000Y-75647586D01*
X72750000Y-75332414D01*
X72688513Y-75023297D01*
X72567902Y-74732116D01*
X72392801Y-74470059D01*
X72373511Y-74450769D01*
X72418693Y-74426619D01*
X72532895Y-74332895D01*
X72626619Y-74218693D01*
X72696261Y-74088401D01*
X72738245Y-73950000D01*
X74344001Y-73950000D01*
X74344000Y-76407335D01*
X74339404Y-76454000D01*
X74357746Y-76640232D01*
X74412068Y-76819308D01*
X74470847Y-76929276D01*
X74500282Y-76984345D01*
X74618999Y-77129001D01*
X74763655Y-77247718D01*
X74928692Y-77335932D01*
X75107768Y-77390254D01*
X75294000Y-77408596D01*
X75340664Y-77404000D01*
X79060000Y-77404000D01*
X79060001Y-81586496D01*
X78646500Y-81999998D01*
X77530280Y-81999998D01*
X77386274Y-81940348D01*
X77183416Y-81899998D01*
X76976584Y-81899998D01*
X76773726Y-81940348D01*
X76582638Y-82019500D01*
X76410664Y-82134409D01*
X76264411Y-82280662D01*
X76149502Y-82452636D01*
X76070350Y-82643724D01*
X76030000Y-82846582D01*
X76030000Y-83053414D01*
X76070350Y-83256272D01*
X76149502Y-83447360D01*
X76264411Y-83619334D01*
X76410664Y-83765587D01*
X76582638Y-83880496D01*
X76773726Y-83959648D01*
X76976584Y-83999998D01*
X77183416Y-83999998D01*
X77386274Y-83959648D01*
X77530280Y-83899998D01*
X78993348Y-83899998D01*
X79040002Y-83904593D01*
X79086656Y-83899998D01*
X79086667Y-83899998D01*
X79226234Y-83886252D01*
X79405310Y-83831930D01*
X79570347Y-83743716D01*
X79715003Y-83624999D01*
X79744752Y-83588750D01*
X80404385Y-82929118D01*
X81535696Y-82926581D01*
X81462997Y-82941042D01*
X81217312Y-83042808D01*
X80996202Y-83190549D01*
X80808164Y-83378587D01*
X80660423Y-83599697D01*
X80558657Y-83845382D01*
X80506777Y-84106199D01*
X80506777Y-84372125D01*
X80558657Y-84632942D01*
X80660423Y-84878627D01*
X80808164Y-85099737D01*
X80996202Y-85287775D01*
X81217312Y-85435516D01*
X81462997Y-85537282D01*
X81723814Y-85589162D01*
X81989740Y-85589162D01*
X82250557Y-85537282D01*
X82496242Y-85435516D01*
X82717352Y-85287775D01*
X82765965Y-85239162D01*
X93791718Y-85239162D01*
X93840838Y-85244000D01*
X93889958Y-85239162D01*
X94036872Y-85224692D01*
X94225373Y-85167511D01*
X94399096Y-85074654D01*
X94551366Y-84949690D01*
X94582687Y-84911525D01*
X96512368Y-82981845D01*
X96550528Y-82950528D01*
X96675492Y-82798258D01*
X96768349Y-82624535D01*
X96786268Y-82565464D01*
X96825530Y-82436035D01*
X96844838Y-82240001D01*
X96840000Y-82190881D01*
X96840000Y-81636584D01*
X102630000Y-81636584D01*
X102630000Y-81843416D01*
X102670350Y-82046274D01*
X102749502Y-82237362D01*
X102864411Y-82409336D01*
X103010664Y-82555589D01*
X103182638Y-82670498D01*
X103373726Y-82749650D01*
X103576584Y-82790000D01*
X103783416Y-82790000D01*
X103986274Y-82749650D01*
X104177362Y-82670498D01*
X104297836Y-82590000D01*
X106648259Y-82590000D01*
X106690000Y-82594111D01*
X106731741Y-82590000D01*
X106731749Y-82590000D01*
X106856629Y-82577700D01*
X107016855Y-82529097D01*
X107164519Y-82450168D01*
X107293948Y-82343948D01*
X107320566Y-82311514D01*
X110081356Y-79550724D01*
X122476354Y-79550724D01*
X122598876Y-79849919D01*
X122932960Y-80022098D01*
X123294216Y-80125792D01*
X123668760Y-80157015D01*
X124042199Y-80114569D01*
X124400181Y-80000085D01*
X124681124Y-79849919D01*
X124803646Y-79550724D01*
X123640000Y-78387078D01*
X122476354Y-79550724D01*
X110081356Y-79550724D01*
X111363320Y-78268760D01*
X121722985Y-78268760D01*
X121765431Y-78642199D01*
X121879915Y-79000181D01*
X122030081Y-79281124D01*
X122329276Y-79403646D01*
X123492922Y-78240000D01*
X123787078Y-78240000D01*
X124950724Y-79403646D01*
X125249919Y-79281124D01*
X125422098Y-78947040D01*
X125525792Y-78585784D01*
X125557015Y-78211240D01*
X125514569Y-77837801D01*
X125400085Y-77479819D01*
X125249919Y-77198876D01*
X124950724Y-77076354D01*
X123787078Y-78240000D01*
X123492922Y-78240000D01*
X122329276Y-77076354D01*
X122030081Y-77198876D01*
X121857902Y-77532960D01*
X121754208Y-77894216D01*
X121722985Y-78268760D01*
X111363320Y-78268760D01*
X112702804Y-76929276D01*
X122476354Y-76929276D01*
X123640000Y-78092922D01*
X124803646Y-76929276D01*
X124681124Y-76630081D01*
X124347040Y-76457902D01*
X123985784Y-76354208D01*
X123611240Y-76322985D01*
X123237801Y-76365431D01*
X122879819Y-76479915D01*
X122598876Y-76630081D01*
X122476354Y-76929276D01*
X112702804Y-76929276D01*
X115561526Y-74070556D01*
X115593948Y-74043948D01*
X115620557Y-74011525D01*
X115620562Y-74011520D01*
X115700168Y-73914519D01*
X115779097Y-73766855D01*
X115827700Y-73606629D01*
X115827700Y-73606628D01*
X115840000Y-73481749D01*
X115840000Y-73481741D01*
X115844111Y-73440000D01*
X115840000Y-73398259D01*
X115840000Y-67511620D01*
X121321220Y-67511620D01*
X121321220Y-67968380D01*
X121410329Y-68416363D01*
X121585123Y-68838354D01*
X121838886Y-69218136D01*
X122161864Y-69541114D01*
X122541646Y-69794877D01*
X122963637Y-69969671D01*
X123411620Y-70058780D01*
X123868380Y-70058780D01*
X124316363Y-69969671D01*
X124738354Y-69794877D01*
X125118136Y-69541114D01*
X125441114Y-69218136D01*
X125694877Y-68838354D01*
X125869671Y-68416363D01*
X125958780Y-67968380D01*
X125958780Y-67511620D01*
X125869671Y-67063637D01*
X125694877Y-66641646D01*
X125441114Y-66261864D01*
X125118136Y-65938886D01*
X124738354Y-65685123D01*
X124316363Y-65510329D01*
X123868380Y-65421220D01*
X123411620Y-65421220D01*
X122963637Y-65510329D01*
X122541646Y-65685123D01*
X122161864Y-65938886D01*
X121838886Y-66261864D01*
X121585123Y-66641646D01*
X121410329Y-67063637D01*
X121321220Y-67511620D01*
X115840000Y-67511620D01*
X115840000Y-62457836D01*
X115920498Y-62337362D01*
X115999650Y-62146274D01*
X116040000Y-61943416D01*
X116040000Y-61736584D01*
X115999650Y-61533726D01*
X115920498Y-61342638D01*
X115805589Y-61170664D01*
X115659336Y-61024411D01*
X115487362Y-60909502D01*
X115296274Y-60830350D01*
X115093416Y-60790000D01*
X114886584Y-60790000D01*
X114683726Y-60830350D01*
X114492638Y-60909502D01*
X114320664Y-61024411D01*
X114174411Y-61170664D01*
X114059502Y-61342638D01*
X113980350Y-61533726D01*
X113940000Y-61736584D01*
X113940000Y-61943416D01*
X113980350Y-62146274D01*
X114059502Y-62337362D01*
X114140001Y-62457838D01*
X114140000Y-73087918D01*
X106337920Y-80890000D01*
X104297836Y-80890000D01*
X104177362Y-80809502D01*
X103986274Y-80730350D01*
X103783416Y-80690000D01*
X103576584Y-80690000D01*
X103373726Y-80730350D01*
X103182638Y-80809502D01*
X103010664Y-80924411D01*
X102864411Y-81070664D01*
X102749502Y-81242638D01*
X102670350Y-81433726D01*
X102630000Y-81636584D01*
X96840000Y-81636584D01*
X96840000Y-80243628D01*
X97090000Y-80243628D01*
X97237026Y-80229147D01*
X97378401Y-80186261D01*
X97508693Y-80116619D01*
X97622895Y-80022895D01*
X97716619Y-79908693D01*
X97786261Y-79778401D01*
X97829147Y-79637026D01*
X97843628Y-79490000D01*
X97843628Y-76990000D01*
X97829147Y-76842974D01*
X97786261Y-76701599D01*
X97716619Y-76571307D01*
X97622895Y-76457105D01*
X97508693Y-76363381D01*
X97378401Y-76293739D01*
X97237026Y-76250853D01*
X97090000Y-76236372D01*
X95084000Y-76236372D01*
X95084000Y-55227836D01*
X95164498Y-55107362D01*
X95243650Y-54916274D01*
X95284000Y-54713416D01*
X95284000Y-54544000D01*
X99534000Y-54544000D01*
X99534000Y-54713416D01*
X99574350Y-54916274D01*
X99584001Y-54939573D01*
X99584000Y-58134880D01*
X99579162Y-58184000D01*
X99598470Y-58380034D01*
X99637182Y-58507651D01*
X99655651Y-58568534D01*
X99748508Y-58742258D01*
X99873472Y-58894528D01*
X99911637Y-58925849D01*
X102055479Y-61069692D01*
X102086796Y-61107852D01*
X102183121Y-61186903D01*
X102239066Y-61232816D01*
X102412789Y-61325673D01*
X102601290Y-61382854D01*
X102797324Y-61402162D01*
X102846444Y-61397324D01*
X108933556Y-61397324D01*
X108982676Y-61402162D01*
X109031796Y-61397324D01*
X109178710Y-61382854D01*
X109367211Y-61325673D01*
X109540934Y-61232816D01*
X109693204Y-61107852D01*
X109724525Y-61069687D01*
X110146363Y-60647849D01*
X110184528Y-60616528D01*
X110309492Y-60464258D01*
X110402349Y-60290535D01*
X110425408Y-60214519D01*
X110459530Y-60102035D01*
X110478838Y-59906001D01*
X110474000Y-59856881D01*
X110474000Y-56971571D01*
X110483650Y-56948274D01*
X110524000Y-56745416D01*
X110524000Y-56538584D01*
X110483650Y-56335726D01*
X110404498Y-56144638D01*
X110289589Y-55972664D01*
X110143336Y-55826411D01*
X109971362Y-55711502D01*
X109780274Y-55632350D01*
X109577416Y-55592000D01*
X109370584Y-55592000D01*
X109167726Y-55632350D01*
X108976638Y-55711502D01*
X108804664Y-55826411D01*
X108658411Y-55972664D01*
X108543502Y-56144638D01*
X108464350Y-56335726D01*
X108424000Y-56538584D01*
X108424000Y-56745416D01*
X108464350Y-56948274D01*
X108474001Y-56971573D01*
X108474000Y-59386880D01*
X108474000Y-59397324D01*
X103211537Y-59397324D01*
X101584000Y-57769788D01*
X101584000Y-54939571D01*
X101593650Y-54916274D01*
X101634000Y-54713416D01*
X101634000Y-54506584D01*
X101593650Y-54303726D01*
X101534000Y-54159720D01*
X101534000Y-53640665D01*
X101538596Y-53594000D01*
X101520254Y-53407768D01*
X101465932Y-53228692D01*
X101377718Y-53063655D01*
X101259001Y-52918999D01*
X101114345Y-52800282D01*
X100949308Y-52712068D01*
X100770232Y-52657746D01*
X100630665Y-52644000D01*
X100630664Y-52644000D01*
X100584000Y-52639404D01*
X100537335Y-52644000D01*
X93518665Y-52644000D01*
X93472000Y-52639404D01*
X93425336Y-52644000D01*
X93425335Y-52644000D01*
X93285768Y-52657746D01*
X93106692Y-52712068D01*
X92941655Y-52800282D01*
X92796999Y-52918999D01*
X92678282Y-53063655D01*
X92590068Y-53228692D01*
X92535746Y-53407768D01*
X92517404Y-53594000D01*
X92522001Y-53640674D01*
X92522000Y-55505920D01*
X91816566Y-54800486D01*
X91789948Y-54768052D01*
X91660519Y-54661832D01*
X91512855Y-54582903D01*
X91352629Y-54534300D01*
X91227749Y-54522000D01*
X91227741Y-54522000D01*
X91186000Y-54517889D01*
X91144259Y-54522000D01*
X89696000Y-54522000D01*
X89696000Y-54506584D01*
X89655650Y-54303726D01*
X89576498Y-54112638D01*
X89461589Y-53940664D01*
X89315336Y-53794411D01*
X89143362Y-53679502D01*
X88952274Y-53600350D01*
X88749416Y-53560000D01*
X88542584Y-53560000D01*
X88339726Y-53600350D01*
X88148638Y-53679502D01*
X88028164Y-53760000D01*
X87576543Y-53760000D01*
X87623650Y-53646274D01*
X87664000Y-53443416D01*
X87664000Y-53236584D01*
X87623650Y-53033726D01*
X87544498Y-52842638D01*
X87464000Y-52722164D01*
X87464000Y-51095740D01*
X87468111Y-51053999D01*
X87464000Y-51012258D01*
X87464000Y-51012251D01*
X87451700Y-50887371D01*
X87435511Y-50834000D01*
X87403097Y-50727145D01*
X87366852Y-50659336D01*
X87324168Y-50579481D01*
X87217948Y-50450052D01*
X87185519Y-50423438D01*
X86672081Y-49910000D01*
X86978251Y-49910000D01*
X87020000Y-49914112D01*
X87061748Y-49910000D01*
X87061749Y-49910000D01*
X87186629Y-49897700D01*
X87346855Y-49849097D01*
X87494519Y-49770168D01*
X87623948Y-49663948D01*
X87730168Y-49534519D01*
X87809097Y-49386855D01*
X87857700Y-49226629D01*
X87874112Y-49060000D01*
X87870000Y-49018251D01*
X87870000Y-47970000D01*
X87935429Y-47970000D01*
X87958726Y-47979650D01*
X88161584Y-48020000D01*
X88368416Y-48020000D01*
X88571274Y-47979650D01*
X88762362Y-47900498D01*
X88934336Y-47785589D01*
X89080589Y-47639336D01*
X89195498Y-47467362D01*
X89274650Y-47276274D01*
X89311435Y-47091338D01*
X89636000Y-47091338D01*
X89636000Y-47396662D01*
X89695565Y-47696118D01*
X89812408Y-47978200D01*
X89982036Y-48232068D01*
X90197932Y-48447964D01*
X90451800Y-48617592D01*
X90733882Y-48734435D01*
X91033338Y-48794000D01*
X91338662Y-48794000D01*
X91638118Y-48734435D01*
X91920200Y-48617592D01*
X92174068Y-48447964D01*
X92378032Y-48244000D01*
X100423788Y-48244000D01*
X101366155Y-49186368D01*
X101397472Y-49224528D01*
X101549742Y-49349492D01*
X101723465Y-49442349D01*
X101911966Y-49499530D01*
X102058880Y-49514000D01*
X102058881Y-49514000D01*
X102107999Y-49518838D01*
X102157117Y-49514000D01*
X106475595Y-49514000D01*
X106656584Y-49550000D01*
X106863416Y-49550000D01*
X107066274Y-49509650D01*
X107257362Y-49430498D01*
X107429336Y-49315589D01*
X107575589Y-49169336D01*
X107690498Y-48997362D01*
X107769650Y-48806274D01*
X107810000Y-48603416D01*
X107810000Y-48396584D01*
X107769650Y-48193726D01*
X107690498Y-48002638D01*
X107575589Y-47830664D01*
X107429336Y-47684411D01*
X107257362Y-47569502D01*
X107066274Y-47490350D01*
X106863416Y-47450000D01*
X106656584Y-47450000D01*
X106453726Y-47490350D01*
X106396630Y-47514000D01*
X102522213Y-47514000D01*
X101579849Y-46571637D01*
X101548528Y-46533472D01*
X101396258Y-46408508D01*
X101222535Y-46315651D01*
X101034034Y-46258470D01*
X100887120Y-46244000D01*
X100838000Y-46239162D01*
X100788880Y-46244000D01*
X92378032Y-46244000D01*
X92174068Y-46040036D01*
X91920200Y-45870408D01*
X91638118Y-45753565D01*
X91338662Y-45694000D01*
X91033338Y-45694000D01*
X90733882Y-45753565D01*
X90451800Y-45870408D01*
X90197932Y-46040036D01*
X89982036Y-46255932D01*
X89812408Y-46509800D01*
X89695565Y-46791882D01*
X89636000Y-47091338D01*
X89311435Y-47091338D01*
X89315000Y-47073416D01*
X89315000Y-46866584D01*
X89274650Y-46663726D01*
X89195498Y-46472638D01*
X89080589Y-46300664D01*
X88934336Y-46154411D01*
X88762362Y-46039502D01*
X88571274Y-45960350D01*
X88368416Y-45920000D01*
X88161584Y-45920000D01*
X87958726Y-45960350D01*
X87935429Y-45970000D01*
X87349571Y-45970000D01*
X87326274Y-45960350D01*
X87123416Y-45920000D01*
X86916584Y-45920000D01*
X86713726Y-45960350D01*
X86522638Y-46039502D01*
X86350664Y-46154411D01*
X86204411Y-46300664D01*
X86089502Y-46472638D01*
X86010350Y-46663726D01*
X85970000Y-46866584D01*
X85970000Y-47073416D01*
X86010350Y-47276274D01*
X86089502Y-47467362D01*
X86170001Y-47587837D01*
X86170000Y-48210000D01*
X83823737Y-48210000D01*
X83781999Y-48205889D01*
X83740261Y-48210000D01*
X83740251Y-48210000D01*
X83615371Y-48222300D01*
X83455145Y-48270903D01*
X83307481Y-48349832D01*
X83178052Y-48456052D01*
X83151438Y-48488481D01*
X82740481Y-48899439D01*
X82708053Y-48926052D01*
X82601833Y-49055481D01*
X82577102Y-49101749D01*
X82522903Y-49203146D01*
X82474300Y-49363371D01*
X82457889Y-49530000D01*
X82462001Y-49571751D01*
X82462000Y-53760000D01*
X82311740Y-53760000D01*
X82269999Y-53755889D01*
X82228258Y-53760000D01*
X82228251Y-53760000D01*
X82119013Y-53770759D01*
X82103370Y-53772300D01*
X82030479Y-53794411D01*
X81943145Y-53820903D01*
X81795481Y-53899832D01*
X81666052Y-54006052D01*
X81639434Y-54038486D01*
X81168481Y-54509439D01*
X81136053Y-54536052D01*
X81029833Y-54665481D01*
X81025537Y-54673519D01*
X80950903Y-54813146D01*
X80902300Y-54973371D01*
X80885889Y-55140000D01*
X80890001Y-55181751D01*
X80890000Y-57162523D01*
X80885889Y-57204264D01*
X80890000Y-57246005D01*
X80890000Y-57246012D01*
X80899513Y-57342596D01*
X80902300Y-57370893D01*
X80944497Y-57510000D01*
X80950903Y-57531118D01*
X81029832Y-57678782D01*
X81136052Y-57808212D01*
X81168486Y-57834830D01*
X81415170Y-58081514D01*
X81441788Y-58113948D01*
X81520000Y-58178135D01*
X81520001Y-58890000D01*
X76681740Y-58890000D01*
X76639999Y-58885889D01*
X76598258Y-58890000D01*
X76588251Y-58890000D01*
X76463371Y-58902300D01*
X76303145Y-58950903D01*
X76155481Y-59029832D01*
X76026052Y-59136052D01*
X75953667Y-59224253D01*
X75835005Y-59342915D01*
X75690000Y-59197910D01*
X75690000Y-54357836D01*
X75770498Y-54237362D01*
X75849650Y-54046274D01*
X75890000Y-53843416D01*
X75890000Y-53636584D01*
X75849650Y-53433726D01*
X75770498Y-53242638D01*
X75655589Y-53070664D01*
X75509336Y-52924411D01*
X75337362Y-52809502D01*
X75146274Y-52730350D01*
X74943416Y-52690000D01*
X74736584Y-52690000D01*
X74533726Y-52730350D01*
X74342638Y-52809502D01*
X74170664Y-52924411D01*
X74024411Y-53070664D01*
X73909502Y-53242638D01*
X73830350Y-53433726D01*
X73790000Y-53636584D01*
X73790000Y-53843416D01*
X73830350Y-54046274D01*
X73909502Y-54237362D01*
X73990001Y-54357838D01*
X73990000Y-59508249D01*
X73985889Y-59549990D01*
X73990000Y-59591731D01*
X73990000Y-59591738D01*
X73999363Y-59686796D01*
X74002300Y-59716619D01*
X74031581Y-59813146D01*
X74050903Y-59876844D01*
X74129832Y-60024508D01*
X74236052Y-60153938D01*
X74268486Y-60180556D01*
X75152083Y-61064154D01*
X75180350Y-61206264D01*
X75259502Y-61397352D01*
X75374411Y-61569326D01*
X75520664Y-61715579D01*
X75692638Y-61830488D01*
X75883726Y-61909640D01*
X76086584Y-61949990D01*
X76293416Y-61949990D01*
X76496274Y-61909640D01*
X76687362Y-61830488D01*
X76859336Y-61715579D01*
X77005589Y-61569326D01*
X77120498Y-61397352D01*
X77199650Y-61206264D01*
X77240000Y-61003406D01*
X77240000Y-60796574D01*
X77199650Y-60593716D01*
X77198111Y-60590000D01*
X82328252Y-60590000D01*
X82370000Y-60594112D01*
X82536629Y-60577700D01*
X82696855Y-60529097D01*
X82844519Y-60450168D01*
X82973948Y-60343948D01*
X83080168Y-60214519D01*
X83159097Y-60066855D01*
X83207700Y-59906629D01*
X83220000Y-59781749D01*
X83224112Y-59740000D01*
X83220000Y-59698251D01*
X83220000Y-58244925D01*
X83285589Y-58179336D01*
X83400498Y-58007362D01*
X83479650Y-57816274D01*
X83520000Y-57613416D01*
X83520000Y-57406584D01*
X83479650Y-57203726D01*
X83400498Y-57012638D01*
X83285589Y-56840664D01*
X83139336Y-56694411D01*
X82967362Y-56579502D01*
X82776274Y-56500350D01*
X82590000Y-56463299D01*
X82590000Y-56134925D01*
X82642664Y-56187589D01*
X82814638Y-56302498D01*
X83005726Y-56381650D01*
X83208584Y-56422000D01*
X83415416Y-56422000D01*
X83618274Y-56381650D01*
X83809362Y-56302498D01*
X83929836Y-56222000D01*
X90833920Y-56222000D01*
X92114000Y-57502081D01*
X92114000Y-58473457D01*
X92000274Y-58426350D01*
X91858163Y-58398083D01*
X91816565Y-58356485D01*
X91789948Y-58324052D01*
X91660519Y-58217832D01*
X91512855Y-58138903D01*
X91352629Y-58090300D01*
X91227749Y-58078000D01*
X91227741Y-58078000D01*
X91186000Y-58073889D01*
X91144259Y-58078000D01*
X87163737Y-58078000D01*
X87121999Y-58073889D01*
X87080261Y-58078000D01*
X87080251Y-58078000D01*
X86955371Y-58090300D01*
X86795145Y-58138903D01*
X86647481Y-58217832D01*
X86518052Y-58324052D01*
X86517150Y-58325150D01*
X86516052Y-58326052D01*
X86409832Y-58455482D01*
X86349404Y-58568534D01*
X86330903Y-58603146D01*
X86282907Y-58761372D01*
X86282300Y-58763372D01*
X86270000Y-58888252D01*
X86270000Y-58888259D01*
X86265889Y-58930000D01*
X86270000Y-58971741D01*
X86270000Y-60501310D01*
X86263416Y-60500000D01*
X86056584Y-60500000D01*
X85853726Y-60540350D01*
X85662638Y-60619502D01*
X85490664Y-60734411D01*
X85344411Y-60880664D01*
X85310753Y-60931038D01*
X85285426Y-60926000D01*
X85078594Y-60926000D01*
X84875736Y-60966350D01*
X84684648Y-61045502D01*
X84564174Y-61126000D01*
X81389836Y-61126000D01*
X81269362Y-61045502D01*
X81078274Y-60966350D01*
X80875416Y-60926000D01*
X80668584Y-60926000D01*
X80465726Y-60966350D01*
X80274638Y-61045502D01*
X80102664Y-61160411D01*
X79956411Y-61306664D01*
X79841502Y-61478638D01*
X79762350Y-61669726D01*
X79722000Y-61872584D01*
X79722000Y-62079416D01*
X79762350Y-62282274D01*
X79841502Y-62473362D01*
X79956411Y-62645336D01*
X80102664Y-62791589D01*
X80274638Y-62906498D01*
X80465726Y-62985650D01*
X80668584Y-63026000D01*
X80875416Y-63026000D01*
X81078274Y-62985650D01*
X81269362Y-62906498D01*
X81389836Y-62826000D01*
X84564174Y-62826000D01*
X84684648Y-62906498D01*
X84875736Y-62985650D01*
X85014850Y-63013321D01*
X82868478Y-65159693D01*
X82793362Y-65109502D01*
X82602274Y-65030350D01*
X82399416Y-64990000D01*
X82192584Y-64990000D01*
X81989726Y-65030350D01*
X81798638Y-65109502D01*
X81678164Y-65190000D01*
X79543741Y-65190000D01*
X79502000Y-65185889D01*
X79460259Y-65190000D01*
X79460251Y-65190000D01*
X79335371Y-65202300D01*
X79175145Y-65250903D01*
X79027481Y-65329832D01*
X78898052Y-65436052D01*
X78871439Y-65468481D01*
X76898481Y-67441439D01*
X76866053Y-67468052D01*
X76759833Y-67597481D01*
X76750024Y-67615832D01*
X76680903Y-67745146D01*
X76632300Y-67905371D01*
X76615889Y-68072000D01*
X76620001Y-68113751D01*
X76620000Y-74820164D01*
X76539502Y-74940638D01*
X76460350Y-75131726D01*
X76420000Y-75334584D01*
X76420000Y-75504000D01*
X76244000Y-75504000D01*
X76244000Y-73363534D01*
X76248595Y-73316880D01*
X76244000Y-73270225D01*
X76244000Y-73270215D01*
X76230254Y-73130648D01*
X76175932Y-72951572D01*
X76087718Y-72786535D01*
X75969001Y-72641879D01*
X75932752Y-72612130D01*
X75681870Y-72361248D01*
X75652121Y-72324999D01*
X75507465Y-72206282D01*
X75342428Y-72118068D01*
X75163352Y-72063746D01*
X75023785Y-72050000D01*
X75023774Y-72050000D01*
X74977120Y-72045405D01*
X74930466Y-72050000D01*
X72748703Y-72050000D01*
X72739147Y-71952974D01*
X72696261Y-71811599D01*
X72626619Y-71681307D01*
X72532895Y-71567105D01*
X72418693Y-71473381D01*
X72288401Y-71403739D01*
X72147026Y-71360853D01*
X72000000Y-71346372D01*
X70300000Y-71346372D01*
X70152974Y-71360853D01*
X70011599Y-71403739D01*
X69881307Y-71473381D01*
X69767105Y-71567105D01*
X69673381Y-71681307D01*
X69603739Y-71811599D01*
X69560853Y-71952974D01*
X69546372Y-72100000D01*
X54950000Y-72100000D01*
X54950000Y-67511620D01*
X57321220Y-67511620D01*
X57321220Y-67968380D01*
X57410329Y-68416363D01*
X57585123Y-68838354D01*
X57838886Y-69218136D01*
X58161864Y-69541114D01*
X58541646Y-69794877D01*
X58963637Y-69969671D01*
X59411620Y-70058780D01*
X59868380Y-70058780D01*
X60316363Y-69969671D01*
X60738354Y-69794877D01*
X61118136Y-69541114D01*
X61441114Y-69218136D01*
X61694877Y-68838354D01*
X61869671Y-68416363D01*
X61958780Y-67968380D01*
X61958780Y-67511620D01*
X61869671Y-67063637D01*
X61694877Y-66641646D01*
X61441114Y-66261864D01*
X61118136Y-65938886D01*
X60738354Y-65685123D01*
X60316363Y-65510329D01*
X59868380Y-65421220D01*
X59411620Y-65421220D01*
X58963637Y-65510329D01*
X58541646Y-65685123D01*
X58161864Y-65938886D01*
X57838886Y-66261864D01*
X57585123Y-66641646D01*
X57410329Y-67063637D01*
X57321220Y-67511620D01*
X54950000Y-67511620D01*
X54950000Y-50501477D01*
X55904320Y-50346056D01*
X55952434Y-50334505D01*
X56000779Y-50324229D01*
X56021054Y-50318031D01*
X56021059Y-50318030D01*
X56021063Y-50318028D01*
X57009186Y-50001728D01*
X57055077Y-49983187D01*
X57101360Y-49965882D01*
X57120500Y-49956754D01*
X58051022Y-49497871D01*
X58093644Y-49472765D01*
X58136886Y-49448795D01*
X58154466Y-49436938D01*
X59006940Y-48845556D01*
X59045387Y-48814422D01*
X59084608Y-48784327D01*
X59100242Y-48770002D01*
X59855940Y-48059111D01*
X59889365Y-48022634D01*
X59923703Y-47987076D01*
X59937048Y-47970597D01*
X60579370Y-47155816D01*
X60607037Y-47114798D01*
X60635741Y-47074556D01*
X60646504Y-47056286D01*
X61161338Y-46155514D01*
X61182630Y-46110875D01*
X61205080Y-46066813D01*
X61213023Y-46047153D01*
X61589059Y-45080177D01*
X61603522Y-45032872D01*
X61619210Y-44985986D01*
X61624157Y-44965378D01*
X61624161Y-44965366D01*
X61624163Y-44965356D01*
X61853138Y-43953431D01*
X61860450Y-43904508D01*
X61869035Y-43855818D01*
X61870884Y-43834694D01*
X61892040Y-43550000D01*
X122378523Y-43550000D01*
X122533944Y-44504320D01*
G37*
X122533944Y-44504320D02*
X122545495Y-44552434D01*
X122555771Y-44600779D01*
X122561970Y-44621058D01*
X122878272Y-45609186D01*
X122896813Y-45655077D01*
X122914118Y-45701360D01*
X122923246Y-45720500D01*
X123382129Y-46651022D01*
X123407235Y-46693644D01*
X123431205Y-46736886D01*
X123443062Y-46754466D01*
X124034444Y-47606940D01*
X124065578Y-47645387D01*
X124095673Y-47684608D01*
X124109998Y-47700242D01*
X124820889Y-48455940D01*
X124857366Y-48489365D01*
X124892924Y-48523703D01*
X124909403Y-48537048D01*
X125724184Y-49179370D01*
X125765202Y-49207037D01*
X125805444Y-49235741D01*
X125823714Y-49246504D01*
X126724486Y-49761338D01*
X126769125Y-49782630D01*
X126813187Y-49805080D01*
X126832847Y-49813023D01*
X127799823Y-50189059D01*
X127847128Y-50203522D01*
X127894014Y-50219210D01*
X127914622Y-50224157D01*
X127914634Y-50224161D01*
X127914644Y-50224163D01*
X128926569Y-50453138D01*
X128975492Y-50460450D01*
X129024182Y-50469035D01*
X129045306Y-50470884D01*
X129330001Y-50492041D01*
X129330000Y-85985331D01*
X128560115Y-86088010D01*
X128541423Y-86091965D01*
X128522413Y-86093945D01*
X128439902Y-86113445D01*
X127425040Y-86410146D01*
X127407158Y-86416884D01*
X127388669Y-86421716D01*
X127310079Y-86453464D01*
X127310057Y-86453472D01*
X127310051Y-86453475D01*
X126351752Y-86900268D01*
X126335094Y-86909634D01*
X126317549Y-86917207D01*
X126244645Y-86960489D01*
X125364949Y-87547098D01*
X125349902Y-87558874D01*
X125333702Y-87569015D01*
X125268183Y-87622826D01*
X124487340Y-88335749D01*
X124474247Y-88349666D01*
X124459768Y-88362140D01*
X124403143Y-88425243D01*
X123739122Y-89248074D01*
X123728288Y-89263806D01*
X123715859Y-89278331D01*
X123669431Y-89349273D01*
X123137512Y-90263077D01*
X123129181Y-90280270D01*
X123119093Y-90296506D01*
X123083930Y-90373654D01*
X122696353Y-91357402D01*
X122690718Y-91375659D01*
X122683203Y-91393232D01*
X122660114Y-91474811D01*
X122425800Y-92505866D01*
X122422991Y-92524766D01*
X122418221Y-92543273D01*
X122407736Y-92627407D01*
X122386028Y-92930000D01*
X61906428Y-92930000D01*
X61746119Y-91945666D01*
X61734569Y-91897556D01*
X61724292Y-91849206D01*
X61718093Y-91828928D01*
X61401786Y-90840790D01*
X61383256Y-90794925D01*
X61365941Y-90748615D01*
X61356816Y-90729482D01*
X61356813Y-90729475D01*
X61356810Y-90729470D01*
X60897926Y-89798945D01*
X60872813Y-89756311D01*
X60848850Y-89713081D01*
X60836993Y-89695501D01*
X60245605Y-88843020D01*
X60214477Y-88804580D01*
X60184377Y-88765353D01*
X60170052Y-88749719D01*
X59459156Y-87994013D01*
X59422676Y-87960585D01*
X59387119Y-87926249D01*
X59370649Y-87912911D01*
X59370641Y-87912904D01*
X59370634Y-87912899D01*
X58555852Y-87270577D01*
X58514823Y-87242902D01*
X58474592Y-87214206D01*
X58456322Y-87203443D01*
X58456321Y-87203442D01*
X58456316Y-87203440D01*
X57555541Y-86688604D01*
X57510867Y-86667296D01*
X57466841Y-86644863D01*
X57447194Y-86636925D01*
X57447180Y-86636918D01*
X57447168Y-86636914D01*
X56480195Y-86260879D01*
X56432891Y-86246417D01*
X56386005Y-86230729D01*
X56365397Y-86225782D01*
X56365385Y-86225778D01*
X56365375Y-86225776D01*
X55353440Y-85996799D01*
X55304517Y-85989487D01*
X55255827Y-85980902D01*
X55234703Y-85979053D01*
X54950000Y-85957896D01*
X54950000Y-80412414D01*
X69550000Y-80412414D01*
X69550000Y-80727586D01*
X69611487Y-81036703D01*
X69732098Y-81327884D01*
X69907199Y-81589941D01*
X70130059Y-81812801D01*
X70170765Y-81840000D01*
X70130059Y-81867199D01*
X69907199Y-82090059D01*
X69732098Y-82352116D01*
X69611487Y-82643297D01*
X69550000Y-82952414D01*
X69550000Y-83267586D01*
X69611487Y-83576703D01*
X69732098Y-83867884D01*
X69907199Y-84129941D01*
X70130059Y-84352801D01*
X70170765Y-84380000D01*
X70130059Y-84407199D01*
X69907199Y-84630059D01*
X69732098Y-84892116D01*
X69611487Y-85183297D01*
X69550000Y-85492414D01*
X69550000Y-85807586D01*
X69611487Y-86116703D01*
X69732098Y-86407884D01*
X69907199Y-86669941D01*
X70130059Y-86892801D01*
X70392116Y-87067902D01*
X70683297Y-87188513D01*
X70992414Y-87250000D01*
X71307586Y-87250000D01*
X71616703Y-87188513D01*
X71907884Y-87067902D01*
X72169941Y-86892801D01*
X72392801Y-86669941D01*
X72567902Y-86407884D01*
X72688513Y-86116703D01*
X72750000Y-85807586D01*
X72750000Y-85492414D01*
X72688513Y-85183297D01*
X72567902Y-84892116D01*
X72392801Y-84630059D01*
X72169941Y-84407199D01*
X72129235Y-84380000D01*
X72169941Y-84352801D01*
X72392801Y-84129941D01*
X72567902Y-83867884D01*
X72688513Y-83576703D01*
X72750000Y-83267586D01*
X72750000Y-82952414D01*
X72688513Y-82643297D01*
X72567902Y-82352116D01*
X72392801Y-82090059D01*
X72169941Y-81867199D01*
X72129235Y-81840000D01*
X72169941Y-81812801D01*
X72392801Y-81589941D01*
X72567902Y-81327884D01*
X72688513Y-81036703D01*
X72750000Y-80727586D01*
X72750000Y-80412414D01*
X72688513Y-80103297D01*
X72567902Y-79812116D01*
X72392801Y-79550059D01*
X72169941Y-79327199D01*
X72043049Y-79242412D01*
X72247566Y-79064129D01*
X72428225Y-78830134D01*
X72559763Y-78565390D01*
X72619619Y-78368061D01*
X72489469Y-78134000D01*
X71254000Y-78134000D01*
X71254000Y-78154000D01*
X71046000Y-78154000D01*
X71046000Y-78134000D01*
X69810531Y-78134000D01*
X69680381Y-78368061D01*
X69740237Y-78565390D01*
X69871775Y-78830134D01*
X70052434Y-79064129D01*
X70256951Y-79242412D01*
X70130059Y-79327199D01*
X69907199Y-79550059D01*
X69732098Y-79812116D01*
X69611487Y-80103297D01*
X69550000Y-80412414D01*
X54950000Y-80412414D01*
X54950000Y-72100000D01*
X69546372Y-72100000D01*
X69546372Y-73800000D01*
X69560853Y-73947026D01*
X69603739Y-74088401D01*
X69673381Y-74218693D01*
X69767105Y-74332895D01*
X69881307Y-74426619D01*
X69926489Y-74450769D01*
X69907199Y-74470059D01*
X69732098Y-74732116D01*
X69611487Y-75023297D01*
X69550000Y-75332414D01*
X69550000Y-75647586D01*
X69611487Y-75956703D01*
X69732098Y-76247884D01*
X69907199Y-76509941D01*
X70130059Y-76732801D01*
X70256951Y-76817588D01*
X70052434Y-76995871D01*
X69871775Y-77229866D01*
X69740237Y-77494610D01*
X69680381Y-77691939D01*
X69810531Y-77926000D01*
X71046000Y-77926000D01*
X71046000Y-77906000D01*
X71254000Y-77906000D01*
X71254000Y-77926000D01*
X72489469Y-77926000D01*
X72619619Y-77691939D01*
X72559763Y-77494610D01*
X72428225Y-77229866D01*
X72247566Y-76995871D01*
X72043049Y-76817588D01*
X72169941Y-76732801D01*
X72392801Y-76509941D01*
X72567902Y-76247884D01*
X72688513Y-75956703D01*
X72750000Y-75647586D01*
X72750000Y-75332414D01*
X72688513Y-75023297D01*
X72567902Y-74732116D01*
X72392801Y-74470059D01*
X72373511Y-74450769D01*
X72418693Y-74426619D01*
X72532895Y-74332895D01*
X72626619Y-74218693D01*
X72696261Y-74088401D01*
X72738245Y-73950000D01*
X74344001Y-73950000D01*
X74344000Y-76407335D01*
X74339404Y-76454000D01*
X74357746Y-76640232D01*
X74412068Y-76819308D01*
X74470847Y-76929276D01*
X74500282Y-76984345D01*
X74618999Y-77129001D01*
X74763655Y-77247718D01*
X74928692Y-77335932D01*
X75107768Y-77390254D01*
X75294000Y-77408596D01*
X75340664Y-77404000D01*
X79060000Y-77404000D01*
X79060001Y-81586496D01*
X78646500Y-81999998D01*
X77530280Y-81999998D01*
X77386274Y-81940348D01*
X77183416Y-81899998D01*
X76976584Y-81899998D01*
X76773726Y-81940348D01*
X76582638Y-82019500D01*
X76410664Y-82134409D01*
X76264411Y-82280662D01*
X76149502Y-82452636D01*
X76070350Y-82643724D01*
X76030000Y-82846582D01*
X76030000Y-83053414D01*
X76070350Y-83256272D01*
X76149502Y-83447360D01*
X76264411Y-83619334D01*
X76410664Y-83765587D01*
X76582638Y-83880496D01*
X76773726Y-83959648D01*
X76976584Y-83999998D01*
X77183416Y-83999998D01*
X77386274Y-83959648D01*
X77530280Y-83899998D01*
X78993348Y-83899998D01*
X79040002Y-83904593D01*
X79086656Y-83899998D01*
X79086667Y-83899998D01*
X79226234Y-83886252D01*
X79405310Y-83831930D01*
X79570347Y-83743716D01*
X79715003Y-83624999D01*
X79744752Y-83588750D01*
X80404385Y-82929118D01*
X81535696Y-82926581D01*
X81462997Y-82941042D01*
X81217312Y-83042808D01*
X80996202Y-83190549D01*
X80808164Y-83378587D01*
X80660423Y-83599697D01*
X80558657Y-83845382D01*
X80506777Y-84106199D01*
X80506777Y-84372125D01*
X80558657Y-84632942D01*
X80660423Y-84878627D01*
X80808164Y-85099737D01*
X80996202Y-85287775D01*
X81217312Y-85435516D01*
X81462997Y-85537282D01*
X81723814Y-85589162D01*
X81989740Y-85589162D01*
X82250557Y-85537282D01*
X82496242Y-85435516D01*
X82717352Y-85287775D01*
X82765965Y-85239162D01*
X93791718Y-85239162D01*
X93840838Y-85244000D01*
X93889958Y-85239162D01*
X94036872Y-85224692D01*
X94225373Y-85167511D01*
X94399096Y-85074654D01*
X94551366Y-84949690D01*
X94582687Y-84911525D01*
X96512368Y-82981845D01*
X96550528Y-82950528D01*
X96675492Y-82798258D01*
X96768349Y-82624535D01*
X96786268Y-82565464D01*
X96825530Y-82436035D01*
X96844838Y-82240001D01*
X96840000Y-82190881D01*
X96840000Y-81636584D01*
X102630000Y-81636584D01*
X102630000Y-81843416D01*
X102670350Y-82046274D01*
X102749502Y-82237362D01*
X102864411Y-82409336D01*
X103010664Y-82555589D01*
X103182638Y-82670498D01*
X103373726Y-82749650D01*
X103576584Y-82790000D01*
X103783416Y-82790000D01*
X103986274Y-82749650D01*
X104177362Y-82670498D01*
X104297836Y-82590000D01*
X106648259Y-82590000D01*
X106690000Y-82594111D01*
X106731741Y-82590000D01*
X106731749Y-82590000D01*
X106856629Y-82577700D01*
X107016855Y-82529097D01*
X107164519Y-82450168D01*
X107293948Y-82343948D01*
X107320566Y-82311514D01*
X110081356Y-79550724D01*
X122476354Y-79550724D01*
X122598876Y-79849919D01*
X122932960Y-80022098D01*
X123294216Y-80125792D01*
X123668760Y-80157015D01*
X124042199Y-80114569D01*
X124400181Y-80000085D01*
X124681124Y-79849919D01*
X124803646Y-79550724D01*
X123640000Y-78387078D01*
X122476354Y-79550724D01*
X110081356Y-79550724D01*
X111363320Y-78268760D01*
X121722985Y-78268760D01*
X121765431Y-78642199D01*
X121879915Y-79000181D01*
X122030081Y-79281124D01*
X122329276Y-79403646D01*
X123492922Y-78240000D01*
X123787078Y-78240000D01*
X124950724Y-79403646D01*
X125249919Y-79281124D01*
X125422098Y-78947040D01*
X125525792Y-78585784D01*
X125557015Y-78211240D01*
X125514569Y-77837801D01*
X125400085Y-77479819D01*
X125249919Y-77198876D01*
X124950724Y-77076354D01*
X123787078Y-78240000D01*
X123492922Y-78240000D01*
X122329276Y-77076354D01*
X122030081Y-77198876D01*
X121857902Y-77532960D01*
X121754208Y-77894216D01*
X121722985Y-78268760D01*
X111363320Y-78268760D01*
X112702804Y-76929276D01*
X122476354Y-76929276D01*
X123640000Y-78092922D01*
X124803646Y-76929276D01*
X124681124Y-76630081D01*
X124347040Y-76457902D01*
X123985784Y-76354208D01*
X123611240Y-76322985D01*
X123237801Y-76365431D01*
X122879819Y-76479915D01*
X122598876Y-76630081D01*
X122476354Y-76929276D01*
X112702804Y-76929276D01*
X115561526Y-74070556D01*
X115593948Y-74043948D01*
X115620557Y-74011525D01*
X115620562Y-74011520D01*
X115700168Y-73914519D01*
X115779097Y-73766855D01*
X115827700Y-73606629D01*
X115827700Y-73606628D01*
X115840000Y-73481749D01*
X115840000Y-73481741D01*
X115844111Y-73440000D01*
X115840000Y-73398259D01*
X115840000Y-67511620D01*
X121321220Y-67511620D01*
X121321220Y-67968380D01*
X121410329Y-68416363D01*
X121585123Y-68838354D01*
X121838886Y-69218136D01*
X122161864Y-69541114D01*
X122541646Y-69794877D01*
X122963637Y-69969671D01*
X123411620Y-70058780D01*
X123868380Y-70058780D01*
X124316363Y-69969671D01*
X124738354Y-69794877D01*
X125118136Y-69541114D01*
X125441114Y-69218136D01*
X125694877Y-68838354D01*
X125869671Y-68416363D01*
X125958780Y-67968380D01*
X125958780Y-67511620D01*
X125869671Y-67063637D01*
X125694877Y-66641646D01*
X125441114Y-66261864D01*
X125118136Y-65938886D01*
X124738354Y-65685123D01*
X124316363Y-65510329D01*
X123868380Y-65421220D01*
X123411620Y-65421220D01*
X122963637Y-65510329D01*
X122541646Y-65685123D01*
X122161864Y-65938886D01*
X121838886Y-66261864D01*
X121585123Y-66641646D01*
X121410329Y-67063637D01*
X121321220Y-67511620D01*
X115840000Y-67511620D01*
X115840000Y-62457836D01*
X115920498Y-62337362D01*
X115999650Y-62146274D01*
X116040000Y-61943416D01*
X116040000Y-61736584D01*
X115999650Y-61533726D01*
X115920498Y-61342638D01*
X115805589Y-61170664D01*
X115659336Y-61024411D01*
X115487362Y-60909502D01*
X115296274Y-60830350D01*
X115093416Y-60790000D01*
X114886584Y-60790000D01*
X114683726Y-60830350D01*
X114492638Y-60909502D01*
X114320664Y-61024411D01*
X114174411Y-61170664D01*
X114059502Y-61342638D01*
X113980350Y-61533726D01*
X113940000Y-61736584D01*
X113940000Y-61943416D01*
X113980350Y-62146274D01*
X114059502Y-62337362D01*
X114140001Y-62457838D01*
X114140000Y-73087918D01*
X106337920Y-80890000D01*
X104297836Y-80890000D01*
X104177362Y-80809502D01*
X103986274Y-80730350D01*
X103783416Y-80690000D01*
X103576584Y-80690000D01*
X103373726Y-80730350D01*
X103182638Y-80809502D01*
X103010664Y-80924411D01*
X102864411Y-81070664D01*
X102749502Y-81242638D01*
X102670350Y-81433726D01*
X102630000Y-81636584D01*
X96840000Y-81636584D01*
X96840000Y-80243628D01*
X97090000Y-80243628D01*
X97237026Y-80229147D01*
X97378401Y-80186261D01*
X97508693Y-80116619D01*
X97622895Y-80022895D01*
X97716619Y-79908693D01*
X97786261Y-79778401D01*
X97829147Y-79637026D01*
X97843628Y-79490000D01*
X97843628Y-76990000D01*
X97829147Y-76842974D01*
X97786261Y-76701599D01*
X97716619Y-76571307D01*
X97622895Y-76457105D01*
X97508693Y-76363381D01*
X97378401Y-76293739D01*
X97237026Y-76250853D01*
X97090000Y-76236372D01*
X95084000Y-76236372D01*
X95084000Y-55227836D01*
X95164498Y-55107362D01*
X95243650Y-54916274D01*
X95284000Y-54713416D01*
X95284000Y-54544000D01*
X99534000Y-54544000D01*
X99534000Y-54713416D01*
X99574350Y-54916274D01*
X99584001Y-54939573D01*
X99584000Y-58134880D01*
X99579162Y-58184000D01*
X99598470Y-58380034D01*
X99637182Y-58507651D01*
X99655651Y-58568534D01*
X99748508Y-58742258D01*
X99873472Y-58894528D01*
X99911637Y-58925849D01*
X102055479Y-61069692D01*
X102086796Y-61107852D01*
X102183121Y-61186903D01*
X102239066Y-61232816D01*
X102412789Y-61325673D01*
X102601290Y-61382854D01*
X102797324Y-61402162D01*
X102846444Y-61397324D01*
X108933556Y-61397324D01*
X108982676Y-61402162D01*
X109031796Y-61397324D01*
X109178710Y-61382854D01*
X109367211Y-61325673D01*
X109540934Y-61232816D01*
X109693204Y-61107852D01*
X109724525Y-61069687D01*
X110146363Y-60647849D01*
X110184528Y-60616528D01*
X110309492Y-60464258D01*
X110402349Y-60290535D01*
X110425408Y-60214519D01*
X110459530Y-60102035D01*
X110478838Y-59906001D01*
X110474000Y-59856881D01*
X110474000Y-56971571D01*
X110483650Y-56948274D01*
X110524000Y-56745416D01*
X110524000Y-56538584D01*
X110483650Y-56335726D01*
X110404498Y-56144638D01*
X110289589Y-55972664D01*
X110143336Y-55826411D01*
X109971362Y-55711502D01*
X109780274Y-55632350D01*
X109577416Y-55592000D01*
X109370584Y-55592000D01*
X109167726Y-55632350D01*
X108976638Y-55711502D01*
X108804664Y-55826411D01*
X108658411Y-55972664D01*
X108543502Y-56144638D01*
X108464350Y-56335726D01*
X108424000Y-56538584D01*
X108424000Y-56745416D01*
X108464350Y-56948274D01*
X108474001Y-56971573D01*
X108474000Y-59386880D01*
X108474000Y-59397324D01*
X103211537Y-59397324D01*
X101584000Y-57769788D01*
X101584000Y-54939571D01*
X101593650Y-54916274D01*
X101634000Y-54713416D01*
X101634000Y-54506584D01*
X101593650Y-54303726D01*
X101534000Y-54159720D01*
X101534000Y-53640665D01*
X101538596Y-53594000D01*
X101520254Y-53407768D01*
X101465932Y-53228692D01*
X101377718Y-53063655D01*
X101259001Y-52918999D01*
X101114345Y-52800282D01*
X100949308Y-52712068D01*
X100770232Y-52657746D01*
X100630665Y-52644000D01*
X100630664Y-52644000D01*
X100584000Y-52639404D01*
X100537335Y-52644000D01*
X93518665Y-52644000D01*
X93472000Y-52639404D01*
X93425336Y-52644000D01*
X93425335Y-52644000D01*
X93285768Y-52657746D01*
X93106692Y-52712068D01*
X92941655Y-52800282D01*
X92796999Y-52918999D01*
X92678282Y-53063655D01*
X92590068Y-53228692D01*
X92535746Y-53407768D01*
X92517404Y-53594000D01*
X92522001Y-53640674D01*
X92522000Y-55505920D01*
X91816566Y-54800486D01*
X91789948Y-54768052D01*
X91660519Y-54661832D01*
X91512855Y-54582903D01*
X91352629Y-54534300D01*
X91227749Y-54522000D01*
X91227741Y-54522000D01*
X91186000Y-54517889D01*
X91144259Y-54522000D01*
X89696000Y-54522000D01*
X89696000Y-54506584D01*
X89655650Y-54303726D01*
X89576498Y-54112638D01*
X89461589Y-53940664D01*
X89315336Y-53794411D01*
X89143362Y-53679502D01*
X88952274Y-53600350D01*
X88749416Y-53560000D01*
X88542584Y-53560000D01*
X88339726Y-53600350D01*
X88148638Y-53679502D01*
X88028164Y-53760000D01*
X87576543Y-53760000D01*
X87623650Y-53646274D01*
X87664000Y-53443416D01*
X87664000Y-53236584D01*
X87623650Y-53033726D01*
X87544498Y-52842638D01*
X87464000Y-52722164D01*
X87464000Y-51095740D01*
X87468111Y-51053999D01*
X87464000Y-51012258D01*
X87464000Y-51012251D01*
X87451700Y-50887371D01*
X87435511Y-50834000D01*
X87403097Y-50727145D01*
X87366852Y-50659336D01*
X87324168Y-50579481D01*
X87217948Y-50450052D01*
X87185519Y-50423438D01*
X86672081Y-49910000D01*
X86978251Y-49910000D01*
X87020000Y-49914112D01*
X87061748Y-49910000D01*
X87061749Y-49910000D01*
X87186629Y-49897700D01*
X87346855Y-49849097D01*
X87494519Y-49770168D01*
X87623948Y-49663948D01*
X87730168Y-49534519D01*
X87809097Y-49386855D01*
X87857700Y-49226629D01*
X87874112Y-49060000D01*
X87870000Y-49018251D01*
X87870000Y-47970000D01*
X87935429Y-47970000D01*
X87958726Y-47979650D01*
X88161584Y-48020000D01*
X88368416Y-48020000D01*
X88571274Y-47979650D01*
X88762362Y-47900498D01*
X88934336Y-47785589D01*
X89080589Y-47639336D01*
X89195498Y-47467362D01*
X89274650Y-47276274D01*
X89311435Y-47091338D01*
X89636000Y-47091338D01*
X89636000Y-47396662D01*
X89695565Y-47696118D01*
X89812408Y-47978200D01*
X89982036Y-48232068D01*
X90197932Y-48447964D01*
X90451800Y-48617592D01*
X90733882Y-48734435D01*
X91033338Y-48794000D01*
X91338662Y-48794000D01*
X91638118Y-48734435D01*
X91920200Y-48617592D01*
X92174068Y-48447964D01*
X92378032Y-48244000D01*
X100423788Y-48244000D01*
X101366155Y-49186368D01*
X101397472Y-49224528D01*
X101549742Y-49349492D01*
X101723465Y-49442349D01*
X101911966Y-49499530D01*
X102058880Y-49514000D01*
X102058881Y-49514000D01*
X102107999Y-49518838D01*
X102157117Y-49514000D01*
X106475595Y-49514000D01*
X106656584Y-49550000D01*
X106863416Y-49550000D01*
X107066274Y-49509650D01*
X107257362Y-49430498D01*
X107429336Y-49315589D01*
X107575589Y-49169336D01*
X107690498Y-48997362D01*
X107769650Y-48806274D01*
X107810000Y-48603416D01*
X107810000Y-48396584D01*
X107769650Y-48193726D01*
X107690498Y-48002638D01*
X107575589Y-47830664D01*
X107429336Y-47684411D01*
X107257362Y-47569502D01*
X107066274Y-47490350D01*
X106863416Y-47450000D01*
X106656584Y-47450000D01*
X106453726Y-47490350D01*
X106396630Y-47514000D01*
X102522213Y-47514000D01*
X101579849Y-46571637D01*
X101548528Y-46533472D01*
X101396258Y-46408508D01*
X101222535Y-46315651D01*
X101034034Y-46258470D01*
X100887120Y-46244000D01*
X100838000Y-46239162D01*
X100788880Y-46244000D01*
X92378032Y-46244000D01*
X92174068Y-46040036D01*
X91920200Y-45870408D01*
X91638118Y-45753565D01*
X91338662Y-45694000D01*
X91033338Y-45694000D01*
X90733882Y-45753565D01*
X90451800Y-45870408D01*
X90197932Y-46040036D01*
X89982036Y-46255932D01*
X89812408Y-46509800D01*
X89695565Y-46791882D01*
X89636000Y-47091338D01*
X89311435Y-47091338D01*
X89315000Y-47073416D01*
X89315000Y-46866584D01*
X89274650Y-46663726D01*
X89195498Y-46472638D01*
X89080589Y-46300664D01*
X88934336Y-46154411D01*
X88762362Y-46039502D01*
X88571274Y-45960350D01*
X88368416Y-45920000D01*
X88161584Y-45920000D01*
X87958726Y-45960350D01*
X87935429Y-45970000D01*
X87349571Y-45970000D01*
X87326274Y-45960350D01*
X87123416Y-45920000D01*
X86916584Y-45920000D01*
X86713726Y-45960350D01*
X86522638Y-46039502D01*
X86350664Y-46154411D01*
X86204411Y-46300664D01*
X86089502Y-46472638D01*
X86010350Y-46663726D01*
X85970000Y-46866584D01*
X85970000Y-47073416D01*
X86010350Y-47276274D01*
X86089502Y-47467362D01*
X86170001Y-47587837D01*
X86170000Y-48210000D01*
X83823737Y-48210000D01*
X83781999Y-48205889D01*
X83740261Y-48210000D01*
X83740251Y-48210000D01*
X83615371Y-48222300D01*
X83455145Y-48270903D01*
X83307481Y-48349832D01*
X83178052Y-48456052D01*
X83151438Y-48488481D01*
X82740481Y-48899439D01*
X82708053Y-48926052D01*
X82601833Y-49055481D01*
X82577102Y-49101749D01*
X82522903Y-49203146D01*
X82474300Y-49363371D01*
X82457889Y-49530000D01*
X82462001Y-49571751D01*
X82462000Y-53760000D01*
X82311740Y-53760000D01*
X82269999Y-53755889D01*
X82228258Y-53760000D01*
X82228251Y-53760000D01*
X82119013Y-53770759D01*
X82103370Y-53772300D01*
X82030479Y-53794411D01*
X81943145Y-53820903D01*
X81795481Y-53899832D01*
X81666052Y-54006052D01*
X81639434Y-54038486D01*
X81168481Y-54509439D01*
X81136053Y-54536052D01*
X81029833Y-54665481D01*
X81025537Y-54673519D01*
X80950903Y-54813146D01*
X80902300Y-54973371D01*
X80885889Y-55140000D01*
X80890001Y-55181751D01*
X80890000Y-57162523D01*
X80885889Y-57204264D01*
X80890000Y-57246005D01*
X80890000Y-57246012D01*
X80899513Y-57342596D01*
X80902300Y-57370893D01*
X80944497Y-57510000D01*
X80950903Y-57531118D01*
X81029832Y-57678782D01*
X81136052Y-57808212D01*
X81168486Y-57834830D01*
X81415170Y-58081514D01*
X81441788Y-58113948D01*
X81520000Y-58178135D01*
X81520001Y-58890000D01*
X76681740Y-58890000D01*
X76639999Y-58885889D01*
X76598258Y-58890000D01*
X76588251Y-58890000D01*
X76463371Y-58902300D01*
X76303145Y-58950903D01*
X76155481Y-59029832D01*
X76026052Y-59136052D01*
X75953667Y-59224253D01*
X75835005Y-59342915D01*
X75690000Y-59197910D01*
X75690000Y-54357836D01*
X75770498Y-54237362D01*
X75849650Y-54046274D01*
X75890000Y-53843416D01*
X75890000Y-53636584D01*
X75849650Y-53433726D01*
X75770498Y-53242638D01*
X75655589Y-53070664D01*
X75509336Y-52924411D01*
X75337362Y-52809502D01*
X75146274Y-52730350D01*
X74943416Y-52690000D01*
X74736584Y-52690000D01*
X74533726Y-52730350D01*
X74342638Y-52809502D01*
X74170664Y-52924411D01*
X74024411Y-53070664D01*
X73909502Y-53242638D01*
X73830350Y-53433726D01*
X73790000Y-53636584D01*
X73790000Y-53843416D01*
X73830350Y-54046274D01*
X73909502Y-54237362D01*
X73990001Y-54357838D01*
X73990000Y-59508249D01*
X73985889Y-59549990D01*
X73990000Y-59591731D01*
X73990000Y-59591738D01*
X73999363Y-59686796D01*
X74002300Y-59716619D01*
X74031581Y-59813146D01*
X74050903Y-59876844D01*
X74129832Y-60024508D01*
X74236052Y-60153938D01*
X74268486Y-60180556D01*
X75152083Y-61064154D01*
X75180350Y-61206264D01*
X75259502Y-61397352D01*
X75374411Y-61569326D01*
X75520664Y-61715579D01*
X75692638Y-61830488D01*
X75883726Y-61909640D01*
X76086584Y-61949990D01*
X76293416Y-61949990D01*
X76496274Y-61909640D01*
X76687362Y-61830488D01*
X76859336Y-61715579D01*
X77005589Y-61569326D01*
X77120498Y-61397352D01*
X77199650Y-61206264D01*
X77240000Y-61003406D01*
X77240000Y-60796574D01*
X77199650Y-60593716D01*
X77198111Y-60590000D01*
X82328252Y-60590000D01*
X82370000Y-60594112D01*
X82536629Y-60577700D01*
X82696855Y-60529097D01*
X82844519Y-60450168D01*
X82973948Y-60343948D01*
X83080168Y-60214519D01*
X83159097Y-60066855D01*
X83207700Y-59906629D01*
X83220000Y-59781749D01*
X83224112Y-59740000D01*
X83220000Y-59698251D01*
X83220000Y-58244925D01*
X83285589Y-58179336D01*
X83400498Y-58007362D01*
X83479650Y-57816274D01*
X83520000Y-57613416D01*
X83520000Y-57406584D01*
X83479650Y-57203726D01*
X83400498Y-57012638D01*
X83285589Y-56840664D01*
X83139336Y-56694411D01*
X82967362Y-56579502D01*
X82776274Y-56500350D01*
X82590000Y-56463299D01*
X82590000Y-56134925D01*
X82642664Y-56187589D01*
X82814638Y-56302498D01*
X83005726Y-56381650D01*
X83208584Y-56422000D01*
X83415416Y-56422000D01*
X83618274Y-56381650D01*
X83809362Y-56302498D01*
X83929836Y-56222000D01*
X90833920Y-56222000D01*
X92114000Y-57502081D01*
X92114000Y-58473457D01*
X92000274Y-58426350D01*
X91858163Y-58398083D01*
X91816565Y-58356485D01*
X91789948Y-58324052D01*
X91660519Y-58217832D01*
X91512855Y-58138903D01*
X91352629Y-58090300D01*
X91227749Y-58078000D01*
X91227741Y-58078000D01*
X91186000Y-58073889D01*
X91144259Y-58078000D01*
X87163737Y-58078000D01*
X87121999Y-58073889D01*
X87080261Y-58078000D01*
X87080251Y-58078000D01*
X86955371Y-58090300D01*
X86795145Y-58138903D01*
X86647481Y-58217832D01*
X86518052Y-58324052D01*
X86517150Y-58325150D01*
X86516052Y-58326052D01*
X86409832Y-58455482D01*
X86349404Y-58568534D01*
X86330903Y-58603146D01*
X86282907Y-58761372D01*
X86282300Y-58763372D01*
X86270000Y-58888252D01*
X86270000Y-58888259D01*
X86265889Y-58930000D01*
X86270000Y-58971741D01*
X86270000Y-60501310D01*
X86263416Y-60500000D01*
X86056584Y-60500000D01*
X85853726Y-60540350D01*
X85662638Y-60619502D01*
X85490664Y-60734411D01*
X85344411Y-60880664D01*
X85310753Y-60931038D01*
X85285426Y-60926000D01*
X85078594Y-60926000D01*
X84875736Y-60966350D01*
X84684648Y-61045502D01*
X84564174Y-61126000D01*
X81389836Y-61126000D01*
X81269362Y-61045502D01*
X81078274Y-60966350D01*
X80875416Y-60926000D01*
X80668584Y-60926000D01*
X80465726Y-60966350D01*
X80274638Y-61045502D01*
X80102664Y-61160411D01*
X79956411Y-61306664D01*
X79841502Y-61478638D01*
X79762350Y-61669726D01*
X79722000Y-61872584D01*
X79722000Y-62079416D01*
X79762350Y-62282274D01*
X79841502Y-62473362D01*
X79956411Y-62645336D01*
X80102664Y-62791589D01*
X80274638Y-62906498D01*
X80465726Y-62985650D01*
X80668584Y-63026000D01*
X80875416Y-63026000D01*
X81078274Y-62985650D01*
X81269362Y-62906498D01*
X81389836Y-62826000D01*
X84564174Y-62826000D01*
X84684648Y-62906498D01*
X84875736Y-62985650D01*
X85014850Y-63013321D01*
X82868478Y-65159693D01*
X82793362Y-65109502D01*
X82602274Y-65030350D01*
X82399416Y-64990000D01*
X82192584Y-64990000D01*
X81989726Y-65030350D01*
X81798638Y-65109502D01*
X81678164Y-65190000D01*
X79543741Y-65190000D01*
X79502000Y-65185889D01*
X79460259Y-65190000D01*
X79460251Y-65190000D01*
X79335371Y-65202300D01*
X79175145Y-65250903D01*
X79027481Y-65329832D01*
X78898052Y-65436052D01*
X78871439Y-65468481D01*
X76898481Y-67441439D01*
X76866053Y-67468052D01*
X76759833Y-67597481D01*
X76750024Y-67615832D01*
X76680903Y-67745146D01*
X76632300Y-67905371D01*
X76615889Y-68072000D01*
X76620001Y-68113751D01*
X76620000Y-74820164D01*
X76539502Y-74940638D01*
X76460350Y-75131726D01*
X76420000Y-75334584D01*
X76420000Y-75504000D01*
X76244000Y-75504000D01*
X76244000Y-73363534D01*
X76248595Y-73316880D01*
X76244000Y-73270225D01*
X76244000Y-73270215D01*
X76230254Y-73130648D01*
X76175932Y-72951572D01*
X76087718Y-72786535D01*
X75969001Y-72641879D01*
X75932752Y-72612130D01*
X75681870Y-72361248D01*
X75652121Y-72324999D01*
X75507465Y-72206282D01*
X75342428Y-72118068D01*
X75163352Y-72063746D01*
X75023785Y-72050000D01*
X75023774Y-72050000D01*
X74977120Y-72045405D01*
X74930466Y-72050000D01*
X72748703Y-72050000D01*
X72739147Y-71952974D01*
X72696261Y-71811599D01*
X72626619Y-71681307D01*
X72532895Y-71567105D01*
X72418693Y-71473381D01*
X72288401Y-71403739D01*
X72147026Y-71360853D01*
X72000000Y-71346372D01*
X70300000Y-71346372D01*
X70152974Y-71360853D01*
X70011599Y-71403739D01*
X69881307Y-71473381D01*
X69767105Y-71567105D01*
X69673381Y-71681307D01*
X69603739Y-71811599D01*
X69560853Y-71952974D01*
X69546372Y-72100000D01*
X54950000Y-72100000D01*
X54950000Y-67511620D01*
X57321220Y-67511620D01*
X57321220Y-67968380D01*
X57410329Y-68416363D01*
X57585123Y-68838354D01*
X57838886Y-69218136D01*
X58161864Y-69541114D01*
X58541646Y-69794877D01*
X58963637Y-69969671D01*
X59411620Y-70058780D01*
X59868380Y-70058780D01*
X60316363Y-69969671D01*
X60738354Y-69794877D01*
X61118136Y-69541114D01*
X61441114Y-69218136D01*
X61694877Y-68838354D01*
X61869671Y-68416363D01*
X61958780Y-67968380D01*
X61958780Y-67511620D01*
X61869671Y-67063637D01*
X61694877Y-66641646D01*
X61441114Y-66261864D01*
X61118136Y-65938886D01*
X60738354Y-65685123D01*
X60316363Y-65510329D01*
X59868380Y-65421220D01*
X59411620Y-65421220D01*
X58963637Y-65510329D01*
X58541646Y-65685123D01*
X58161864Y-65938886D01*
X57838886Y-66261864D01*
X57585123Y-66641646D01*
X57410329Y-67063637D01*
X57321220Y-67511620D01*
X54950000Y-67511620D01*
X54950000Y-50501477D01*
X55904320Y-50346056D01*
X55952434Y-50334505D01*
X56000779Y-50324229D01*
X56021054Y-50318031D01*
X56021059Y-50318030D01*
X56021063Y-50318028D01*
X57009186Y-50001728D01*
X57055077Y-49983187D01*
X57101360Y-49965882D01*
X57120500Y-49956754D01*
X58051022Y-49497871D01*
X58093644Y-49472765D01*
X58136886Y-49448795D01*
X58154466Y-49436938D01*
X59006940Y-48845556D01*
X59045387Y-48814422D01*
X59084608Y-48784327D01*
X59100242Y-48770002D01*
X59855940Y-48059111D01*
X59889365Y-48022634D01*
X59923703Y-47987076D01*
X59937048Y-47970597D01*
X60579370Y-47155816D01*
X60607037Y-47114798D01*
X60635741Y-47074556D01*
X60646504Y-47056286D01*
X61161338Y-46155514D01*
X61182630Y-46110875D01*
X61205080Y-46066813D01*
X61213023Y-46047153D01*
X61589059Y-45080177D01*
X61603522Y-45032872D01*
X61619210Y-44985986D01*
X61624157Y-44965378D01*
X61624161Y-44965366D01*
X61624163Y-44965356D01*
X61853138Y-43953431D01*
X61860450Y-43904508D01*
X61869035Y-43855818D01*
X61870884Y-43834694D01*
X61892040Y-43550000D01*
X122378523Y-43550000D01*
X122533944Y-44504320D01*
G36*
X89120000Y-59840584D02*
G01*
X89120000Y-60047416D01*
X89160350Y-60250274D01*
X89239502Y-60441362D01*
X89320000Y-60561836D01*
X89320000Y-63269884D01*
X89176274Y-63210350D01*
X88973416Y-63170000D01*
X88766584Y-63170000D01*
X88563726Y-63210350D01*
X88372638Y-63289502D01*
X88200664Y-63404411D01*
X88054411Y-63550664D01*
X87939502Y-63722638D01*
X87860350Y-63913726D01*
X87820000Y-64116584D01*
X87820000Y-64323416D01*
X87860350Y-64526274D01*
X87939502Y-64717362D01*
X88050001Y-64882736D01*
X88050001Y-65552147D01*
X88000498Y-65432638D01*
X87885589Y-65260664D01*
X87739336Y-65114411D01*
X87567362Y-64999502D01*
X87376274Y-64920350D01*
X87173416Y-64880000D01*
X86966584Y-64880000D01*
X86763726Y-64920350D01*
X86572638Y-64999502D01*
X86400664Y-65114411D01*
X86254411Y-65260664D01*
X86139502Y-65432638D01*
X86060350Y-65623726D01*
X86032083Y-65765836D01*
X84368349Y-67429571D01*
X84317362Y-67395502D01*
X84126274Y-67316350D01*
X83923416Y-67276000D01*
X83716584Y-67276000D01*
X83513726Y-67316350D01*
X83322638Y-67395502D01*
X83150664Y-67510411D01*
X83004411Y-67656664D01*
X82889502Y-67828638D01*
X82810350Y-68019726D01*
X82770000Y-68222584D01*
X82770000Y-68423587D01*
X82618998Y-68453622D01*
X82427910Y-68532774D01*
X82255936Y-68647683D01*
X82109683Y-68793936D01*
X81994774Y-68965910D01*
X81915622Y-69156998D01*
X81875272Y-69359856D01*
X81875272Y-69566688D01*
X81915622Y-69769546D01*
X81994774Y-69960634D01*
X82109683Y-70132608D01*
X82255936Y-70278861D01*
X82427910Y-70393770D01*
X82618998Y-70472922D01*
X82821856Y-70513272D01*
X82825273Y-70513272D01*
X82898416Y-70552368D01*
X83058642Y-70600971D01*
X83183522Y-70613271D01*
X83183530Y-70613271D01*
X83225271Y-70617382D01*
X83267012Y-70613271D01*
X89452988Y-70613271D01*
X89494729Y-70617382D01*
X89536470Y-70613271D01*
X89536478Y-70613271D01*
X89661358Y-70600971D01*
X89821584Y-70552368D01*
X89969248Y-70473439D01*
X90098677Y-70367219D01*
X90125294Y-70334786D01*
X90741524Y-69718558D01*
X90773948Y-69691948D01*
X90800557Y-69659525D01*
X90800561Y-69659521D01*
X90864929Y-69581088D01*
X90880168Y-69562519D01*
X90959097Y-69414855D01*
X91007700Y-69254629D01*
X91020000Y-69129749D01*
X91020000Y-69129739D01*
X91024111Y-69088001D01*
X91020000Y-69046263D01*
X91020000Y-60561836D01*
X91100498Y-60441362D01*
X91145626Y-60332413D01*
X91196638Y-60366498D01*
X91387726Y-60445650D01*
X91590584Y-60486000D01*
X91797416Y-60486000D01*
X92000274Y-60445650D01*
X92114000Y-60398543D01*
X92114001Y-68663918D01*
X90975837Y-69802083D01*
X90833726Y-69830350D01*
X90642638Y-69909502D01*
X90470664Y-70024411D01*
X90324411Y-70170664D01*
X90209502Y-70342638D01*
X90130350Y-70533726D01*
X90090000Y-70736584D01*
X90090000Y-70943416D01*
X90130350Y-71146274D01*
X90209502Y-71337362D01*
X90324411Y-71509336D01*
X90470664Y-71655589D01*
X90642638Y-71770498D01*
X90833726Y-71849650D01*
X91036584Y-71890000D01*
X91243416Y-71890000D01*
X91446274Y-71849650D01*
X91637362Y-71770498D01*
X91809336Y-71655589D01*
X91955589Y-71509336D01*
X92070498Y-71337362D01*
X92149650Y-71146274D01*
X92177917Y-71004163D01*
X93384001Y-69798080D01*
X93384001Y-80907483D01*
X93237362Y-80809502D01*
X93046274Y-80730350D01*
X92904164Y-80702083D01*
X88084566Y-75882486D01*
X88057948Y-75850052D01*
X87928519Y-75743832D01*
X87780855Y-75664903D01*
X87620629Y-75616300D01*
X87495749Y-75604000D01*
X87495741Y-75604000D01*
X87454000Y-75599889D01*
X87412259Y-75604000D01*
X81643836Y-75604000D01*
X81523362Y-75523502D01*
X81332274Y-75444350D01*
X81129416Y-75404000D01*
X80960000Y-75404000D01*
X80960000Y-75138654D01*
X80964595Y-75091999D01*
X80960000Y-75045345D01*
X80960000Y-75045335D01*
X80946254Y-74905768D01*
X80891932Y-74726692D01*
X80803718Y-74561655D01*
X80778520Y-74530951D01*
X80714748Y-74453245D01*
X80714745Y-74453242D01*
X80685001Y-74416999D01*
X80648757Y-74387254D01*
X79730149Y-73468647D01*
X79670498Y-73324638D01*
X79555589Y-73152664D01*
X79409336Y-73006411D01*
X79237362Y-72891502D01*
X79046274Y-72812350D01*
X78843416Y-72772000D01*
X78636584Y-72772000D01*
X78433726Y-72812350D01*
X78320000Y-72859457D01*
X78320000Y-68424080D01*
X79854081Y-66890000D01*
X80742887Y-66890000D01*
X80738000Y-66914571D01*
X80738000Y-67121403D01*
X80778350Y-67324261D01*
X80857502Y-67515349D01*
X80972411Y-67687323D01*
X81118664Y-67833576D01*
X81290638Y-67948485D01*
X81481726Y-68027637D01*
X81684584Y-68067987D01*
X81891416Y-68067987D01*
X82094274Y-68027637D01*
X82285362Y-67948485D01*
X82457336Y-67833576D01*
X82459753Y-67831159D01*
X82539119Y-67807084D01*
X82686783Y-67728155D01*
X82816212Y-67621935D01*
X82842830Y-67589501D01*
X87691520Y-62740812D01*
X87723948Y-62714199D01*
X87830168Y-62584770D01*
X87909097Y-62437106D01*
X87957700Y-62276880D01*
X87970000Y-62152000D01*
X87970000Y-62151992D01*
X87974111Y-62110251D01*
X87970000Y-62068510D01*
X87970000Y-59778000D01*
X89132448Y-59778000D01*
X89120000Y-59840584D01*
G37*
X89120000Y-59840584D02*
X89120000Y-60047416D01*
X89160350Y-60250274D01*
X89239502Y-60441362D01*
X89320000Y-60561836D01*
X89320000Y-63269884D01*
X89176274Y-63210350D01*
X88973416Y-63170000D01*
X88766584Y-63170000D01*
X88563726Y-63210350D01*
X88372638Y-63289502D01*
X88200664Y-63404411D01*
X88054411Y-63550664D01*
X87939502Y-63722638D01*
X87860350Y-63913726D01*
X87820000Y-64116584D01*
X87820000Y-64323416D01*
X87860350Y-64526274D01*
X87939502Y-64717362D01*
X88050001Y-64882736D01*
X88050001Y-65552147D01*
X88000498Y-65432638D01*
X87885589Y-65260664D01*
X87739336Y-65114411D01*
X87567362Y-64999502D01*
X87376274Y-64920350D01*
X87173416Y-64880000D01*
X86966584Y-64880000D01*
X86763726Y-64920350D01*
X86572638Y-64999502D01*
X86400664Y-65114411D01*
X86254411Y-65260664D01*
X86139502Y-65432638D01*
X86060350Y-65623726D01*
X86032083Y-65765836D01*
X84368349Y-67429571D01*
X84317362Y-67395502D01*
X84126274Y-67316350D01*
X83923416Y-67276000D01*
X83716584Y-67276000D01*
X83513726Y-67316350D01*
X83322638Y-67395502D01*
X83150664Y-67510411D01*
X83004411Y-67656664D01*
X82889502Y-67828638D01*
X82810350Y-68019726D01*
X82770000Y-68222584D01*
X82770000Y-68423587D01*
X82618998Y-68453622D01*
X82427910Y-68532774D01*
X82255936Y-68647683D01*
X82109683Y-68793936D01*
X81994774Y-68965910D01*
X81915622Y-69156998D01*
X81875272Y-69359856D01*
X81875272Y-69566688D01*
X81915622Y-69769546D01*
X81994774Y-69960634D01*
X82109683Y-70132608D01*
X82255936Y-70278861D01*
X82427910Y-70393770D01*
X82618998Y-70472922D01*
X82821856Y-70513272D01*
X82825273Y-70513272D01*
X82898416Y-70552368D01*
X83058642Y-70600971D01*
X83183522Y-70613271D01*
X83183530Y-70613271D01*
X83225271Y-70617382D01*
X83267012Y-70613271D01*
X89452988Y-70613271D01*
X89494729Y-70617382D01*
X89536470Y-70613271D01*
X89536478Y-70613271D01*
X89661358Y-70600971D01*
X89821584Y-70552368D01*
X89969248Y-70473439D01*
X90098677Y-70367219D01*
X90125294Y-70334786D01*
X90741524Y-69718558D01*
X90773948Y-69691948D01*
X90800557Y-69659525D01*
X90800561Y-69659521D01*
X90864929Y-69581088D01*
X90880168Y-69562519D01*
X90959097Y-69414855D01*
X91007700Y-69254629D01*
X91020000Y-69129749D01*
X91020000Y-69129739D01*
X91024111Y-69088001D01*
X91020000Y-69046263D01*
X91020000Y-60561836D01*
X91100498Y-60441362D01*
X91145626Y-60332413D01*
X91196638Y-60366498D01*
X91387726Y-60445650D01*
X91590584Y-60486000D01*
X91797416Y-60486000D01*
X92000274Y-60445650D01*
X92114000Y-60398543D01*
X92114001Y-68663918D01*
X90975837Y-69802083D01*
X90833726Y-69830350D01*
X90642638Y-69909502D01*
X90470664Y-70024411D01*
X90324411Y-70170664D01*
X90209502Y-70342638D01*
X90130350Y-70533726D01*
X90090000Y-70736584D01*
X90090000Y-70943416D01*
X90130350Y-71146274D01*
X90209502Y-71337362D01*
X90324411Y-71509336D01*
X90470664Y-71655589D01*
X90642638Y-71770498D01*
X90833726Y-71849650D01*
X91036584Y-71890000D01*
X91243416Y-71890000D01*
X91446274Y-71849650D01*
X91637362Y-71770498D01*
X91809336Y-71655589D01*
X91955589Y-71509336D01*
X92070498Y-71337362D01*
X92149650Y-71146274D01*
X92177917Y-71004163D01*
X93384001Y-69798080D01*
X93384001Y-80907483D01*
X93237362Y-80809502D01*
X93046274Y-80730350D01*
X92904164Y-80702083D01*
X88084566Y-75882486D01*
X88057948Y-75850052D01*
X87928519Y-75743832D01*
X87780855Y-75664903D01*
X87620629Y-75616300D01*
X87495749Y-75604000D01*
X87495741Y-75604000D01*
X87454000Y-75599889D01*
X87412259Y-75604000D01*
X81643836Y-75604000D01*
X81523362Y-75523502D01*
X81332274Y-75444350D01*
X81129416Y-75404000D01*
X80960000Y-75404000D01*
X80960000Y-75138654D01*
X80964595Y-75091999D01*
X80960000Y-75045345D01*
X80960000Y-75045335D01*
X80946254Y-74905768D01*
X80891932Y-74726692D01*
X80803718Y-74561655D01*
X80778520Y-74530951D01*
X80714748Y-74453245D01*
X80714745Y-74453242D01*
X80685001Y-74416999D01*
X80648757Y-74387254D01*
X79730149Y-73468647D01*
X79670498Y-73324638D01*
X79555589Y-73152664D01*
X79409336Y-73006411D01*
X79237362Y-72891502D01*
X79046274Y-72812350D01*
X78843416Y-72772000D01*
X78636584Y-72772000D01*
X78433726Y-72812350D01*
X78320000Y-72859457D01*
X78320000Y-68424080D01*
X79854081Y-66890000D01*
X80742887Y-66890000D01*
X80738000Y-66914571D01*
X80738000Y-67121403D01*
X80778350Y-67324261D01*
X80857502Y-67515349D01*
X80972411Y-67687323D01*
X81118664Y-67833576D01*
X81290638Y-67948485D01*
X81481726Y-68027637D01*
X81684584Y-68067987D01*
X81891416Y-68067987D01*
X82094274Y-68027637D01*
X82285362Y-67948485D01*
X82457336Y-67833576D01*
X82459753Y-67831159D01*
X82539119Y-67807084D01*
X82686783Y-67728155D01*
X82816212Y-67621935D01*
X82842830Y-67589501D01*
X87691520Y-62740812D01*
X87723948Y-62714199D01*
X87830168Y-62584770D01*
X87909097Y-62437106D01*
X87957700Y-62276880D01*
X87970000Y-62152000D01*
X87970000Y-62151992D01*
X87974111Y-62110251D01*
X87970000Y-62068510D01*
X87970000Y-59778000D01*
X89132448Y-59778000D01*
X89120000Y-59840584D01*
M02*
