G04 #@! TF.GenerationSoftware,KiCad,Pcbnew,5.1.5+dfsg1-2build2*
G04 #@! TF.CreationDate,2020-09-18T15:20:15+03:00*
G04 #@! TF.ProjectId,NRF_SENDER,4e52465f-5345-44e4-9445-522e6b696361,rev?*
G04 #@! TF.SameCoordinates,Original*
G04 #@! TF.FileFunction,Soldermask,Bot*
G04 #@! TF.FilePolarity,Negative*
%FSLAX46Y46*%
G04 Gerber Fmt 4.6, Leading zero omitted, Abs format (unit mm)*
G04 Created by KiCad (PCBNEW 5.1.5+dfsg1-2build2) date 2020-09-18 15:20:15*
%MOMM*%
%LPD*%
G04 APERTURE LIST*
%ADD10C,0.100000*%
G04 APERTURE END LIST*
D10*
G36*
X71417000Y-73957000D02*
G01*
X71193782Y-73957000D01*
X71169396Y-73959402D01*
X71145947Y-73966515D01*
X71124336Y-73978066D01*
X71105394Y-73993611D01*
X71089849Y-74012553D01*
X71078298Y-74034164D01*
X71071185Y-74057613D01*
X71068783Y-74081999D01*
X71071185Y-74106385D01*
X71078298Y-74129834D01*
X71089849Y-74151445D01*
X71105394Y-74170387D01*
X71124336Y-74185932D01*
X71185816Y-74227012D01*
X71217242Y-74248010D01*
X71293990Y-74324758D01*
X71293991Y-74324760D01*
X71354291Y-74415005D01*
X71395826Y-74515279D01*
X71417000Y-74621730D01*
X71417000Y-74730270D01*
X71395826Y-74836721D01*
X71354291Y-74936995D01*
X71354290Y-74936996D01*
X71293990Y-75027242D01*
X71217242Y-75103990D01*
X71171812Y-75134345D01*
X71126995Y-75164291D01*
X71051611Y-75195516D01*
X71030000Y-75207067D01*
X71011059Y-75222612D01*
X70995513Y-75241554D01*
X70983962Y-75263165D01*
X70976849Y-75286614D01*
X70974447Y-75311000D01*
X70976849Y-75335386D01*
X70983962Y-75358835D01*
X70995513Y-75380446D01*
X71011058Y-75399387D01*
X71030000Y-75414933D01*
X71051611Y-75426484D01*
X71126995Y-75457709D01*
X71126996Y-75457710D01*
X71217242Y-75518010D01*
X71293990Y-75594758D01*
X71293991Y-75594760D01*
X71354291Y-75685005D01*
X71395826Y-75785279D01*
X71417000Y-75891730D01*
X71417000Y-76000270D01*
X71395826Y-76106721D01*
X71354291Y-76206995D01*
X71354290Y-76206996D01*
X71293990Y-76297242D01*
X71217242Y-76373990D01*
X71171812Y-76404345D01*
X71126995Y-76434291D01*
X71051611Y-76465516D01*
X71030000Y-76477067D01*
X71011059Y-76492612D01*
X70995513Y-76511554D01*
X70983962Y-76533165D01*
X70976849Y-76556614D01*
X70974447Y-76581000D01*
X70976849Y-76605386D01*
X70983962Y-76628835D01*
X70995513Y-76650446D01*
X71011058Y-76669387D01*
X71030000Y-76684933D01*
X71051611Y-76696484D01*
X71126995Y-76727709D01*
X71126996Y-76727710D01*
X71217242Y-76788010D01*
X71293990Y-76864758D01*
X71293991Y-76864760D01*
X71354291Y-76955005D01*
X71395826Y-77055279D01*
X71417000Y-77161730D01*
X71417000Y-77270270D01*
X71395826Y-77376721D01*
X71354291Y-77476995D01*
X71354290Y-77476996D01*
X71293990Y-77567242D01*
X71217242Y-77643990D01*
X71171812Y-77674345D01*
X71126995Y-77704291D01*
X71051611Y-77735516D01*
X71030000Y-77747067D01*
X71011059Y-77762612D01*
X70995513Y-77781554D01*
X70983962Y-77803165D01*
X70976849Y-77826614D01*
X70974447Y-77851000D01*
X70976849Y-77875386D01*
X70983962Y-77898835D01*
X70995513Y-77920446D01*
X71011058Y-77939387D01*
X71030000Y-77954933D01*
X71051611Y-77966484D01*
X71126995Y-77997709D01*
X71126996Y-77997710D01*
X71217242Y-78058010D01*
X71293990Y-78134758D01*
X71293991Y-78134760D01*
X71354291Y-78225005D01*
X71395826Y-78325279D01*
X71417000Y-78431730D01*
X71417000Y-78540270D01*
X71395826Y-78646721D01*
X71354291Y-78746995D01*
X71354290Y-78746996D01*
X71293990Y-78837242D01*
X71217242Y-78913990D01*
X71171812Y-78944345D01*
X71126995Y-78974291D01*
X71051611Y-79005516D01*
X71030000Y-79017067D01*
X71011059Y-79032612D01*
X70995513Y-79051554D01*
X70983962Y-79073165D01*
X70976849Y-79096614D01*
X70974447Y-79121000D01*
X70976849Y-79145386D01*
X70983962Y-79168835D01*
X70995513Y-79190446D01*
X71011058Y-79209387D01*
X71030000Y-79224933D01*
X71051611Y-79236484D01*
X71126995Y-79267709D01*
X71126996Y-79267710D01*
X71217242Y-79328010D01*
X71293990Y-79404758D01*
X71293991Y-79404760D01*
X71354291Y-79495005D01*
X71395826Y-79595279D01*
X71417000Y-79701730D01*
X71417000Y-79810270D01*
X71395826Y-79916721D01*
X71354291Y-80016995D01*
X71354290Y-80016996D01*
X71293990Y-80107242D01*
X71217242Y-80183990D01*
X71171812Y-80214345D01*
X71126995Y-80244291D01*
X71026721Y-80285826D01*
X70920270Y-80307000D01*
X70811730Y-80307000D01*
X70705279Y-80285826D01*
X70605005Y-80244291D01*
X70560188Y-80214345D01*
X70514758Y-80183990D01*
X70438010Y-80107242D01*
X70377710Y-80016996D01*
X70377709Y-80016995D01*
X70336174Y-79916721D01*
X70315000Y-79810270D01*
X70315000Y-79701730D01*
X70336174Y-79595279D01*
X70377709Y-79495005D01*
X70438009Y-79404760D01*
X70438010Y-79404758D01*
X70514758Y-79328010D01*
X70605004Y-79267710D01*
X70605005Y-79267709D01*
X70680389Y-79236484D01*
X70702000Y-79224933D01*
X70720941Y-79209388D01*
X70736487Y-79190446D01*
X70748038Y-79168835D01*
X70755151Y-79145386D01*
X70757553Y-79121000D01*
X70755151Y-79096614D01*
X70748038Y-79073165D01*
X70736487Y-79051554D01*
X70720942Y-79032613D01*
X70702000Y-79017067D01*
X70680389Y-79005516D01*
X70605005Y-78974291D01*
X70560188Y-78944345D01*
X70514758Y-78913990D01*
X70438010Y-78837242D01*
X70377710Y-78746996D01*
X70377709Y-78746995D01*
X70336174Y-78646721D01*
X70315000Y-78540270D01*
X70315000Y-78431730D01*
X70336174Y-78325279D01*
X70377709Y-78225005D01*
X70438009Y-78134760D01*
X70438010Y-78134758D01*
X70514758Y-78058010D01*
X70605004Y-77997710D01*
X70605005Y-77997709D01*
X70680389Y-77966484D01*
X70702000Y-77954933D01*
X70720941Y-77939388D01*
X70736487Y-77920446D01*
X70748038Y-77898835D01*
X70755151Y-77875386D01*
X70757553Y-77851000D01*
X70755151Y-77826614D01*
X70748038Y-77803165D01*
X70736487Y-77781554D01*
X70720942Y-77762613D01*
X70702000Y-77747067D01*
X70680389Y-77735516D01*
X70605005Y-77704291D01*
X70560188Y-77674345D01*
X70514758Y-77643990D01*
X70438010Y-77567242D01*
X70377710Y-77476996D01*
X70377709Y-77476995D01*
X70336174Y-77376721D01*
X70315000Y-77270270D01*
X70315000Y-77161730D01*
X70336174Y-77055279D01*
X70377709Y-76955005D01*
X70438009Y-76864760D01*
X70438010Y-76864758D01*
X70514758Y-76788010D01*
X70605004Y-76727710D01*
X70605005Y-76727709D01*
X70680389Y-76696484D01*
X70702000Y-76684933D01*
X70720941Y-76669388D01*
X70736487Y-76650446D01*
X70748038Y-76628835D01*
X70755151Y-76605386D01*
X70757553Y-76581000D01*
X70755151Y-76556614D01*
X70748038Y-76533165D01*
X70736487Y-76511554D01*
X70720942Y-76492613D01*
X70702000Y-76477067D01*
X70680389Y-76465516D01*
X70605005Y-76434291D01*
X70560188Y-76404345D01*
X70514758Y-76373990D01*
X70438010Y-76297242D01*
X70377710Y-76206996D01*
X70377709Y-76206995D01*
X70336174Y-76106721D01*
X70315000Y-76000270D01*
X70315000Y-75891730D01*
X70336174Y-75785279D01*
X70377709Y-75685005D01*
X70438009Y-75594760D01*
X70438010Y-75594758D01*
X70514758Y-75518010D01*
X70605004Y-75457710D01*
X70605005Y-75457709D01*
X70680389Y-75426484D01*
X70702000Y-75414933D01*
X70720941Y-75399388D01*
X70736487Y-75380446D01*
X70748038Y-75358835D01*
X70755151Y-75335386D01*
X70757553Y-75311000D01*
X70755151Y-75286614D01*
X70748038Y-75263165D01*
X70736487Y-75241554D01*
X70720942Y-75222613D01*
X70702000Y-75207067D01*
X70680389Y-75195516D01*
X70605005Y-75164291D01*
X70560188Y-75134345D01*
X70514758Y-75103990D01*
X70438010Y-75027242D01*
X70377710Y-74936996D01*
X70377709Y-74936995D01*
X70336174Y-74836721D01*
X70315000Y-74730270D01*
X70315000Y-74621730D01*
X70336174Y-74515279D01*
X70377709Y-74415005D01*
X70438009Y-74324760D01*
X70438010Y-74324758D01*
X70514758Y-74248010D01*
X70546184Y-74227012D01*
X70607664Y-74185932D01*
X70626606Y-74170386D01*
X70642151Y-74151444D01*
X70653702Y-74129833D01*
X70660815Y-74106385D01*
X70663217Y-74081998D01*
X70660815Y-74057612D01*
X70653702Y-74034163D01*
X70642151Y-74012553D01*
X70626605Y-73993611D01*
X70607663Y-73978066D01*
X70586052Y-73966515D01*
X70562604Y-73959402D01*
X70538218Y-73957000D01*
X70315000Y-73957000D01*
X70315000Y-72855000D01*
X71417000Y-72855000D01*
X71417000Y-73957000D01*
G37*
G36*
X124019487Y-76988996D02*
G01*
X124256253Y-77087068D01*
X124256255Y-77087069D01*
X124469339Y-77229447D01*
X124650553Y-77410661D01*
X124755176Y-77567240D01*
X124792932Y-77623747D01*
X124891004Y-77860513D01*
X124941000Y-78111861D01*
X124941000Y-78368139D01*
X124891004Y-78619487D01*
X124792932Y-78856253D01*
X124792931Y-78856255D01*
X124650553Y-79069339D01*
X124469339Y-79250553D01*
X124256255Y-79392931D01*
X124256254Y-79392932D01*
X124256253Y-79392932D01*
X124019487Y-79491004D01*
X123768139Y-79541000D01*
X123511861Y-79541000D01*
X123260513Y-79491004D01*
X123023747Y-79392932D01*
X123023746Y-79392932D01*
X123023745Y-79392931D01*
X122810661Y-79250553D01*
X122629447Y-79069339D01*
X122487069Y-78856255D01*
X122487068Y-78856253D01*
X122388996Y-78619487D01*
X122339000Y-78368139D01*
X122339000Y-78111861D01*
X122388996Y-77860513D01*
X122487068Y-77623747D01*
X122524825Y-77567240D01*
X122629447Y-77410661D01*
X122810661Y-77229447D01*
X123023745Y-77087069D01*
X123023747Y-77087068D01*
X123260513Y-76988996D01*
X123511861Y-76939000D01*
X123768139Y-76939000D01*
X124019487Y-76988996D01*
G37*
G36*
X97141000Y-79541000D02*
G01*
X94539000Y-79541000D01*
X94539000Y-76939000D01*
X97141000Y-76939000D01*
X97141000Y-79541000D01*
G37*
M02*
