G04 #@! TF.GenerationSoftware,KiCad,Pcbnew,5.1.5+dfsg1-2build2*
G04 #@! TF.CreationDate,2020-09-18T15:20:15+03:00*
G04 #@! TF.ProjectId,NRF_SENDER,4e52465f-5345-44e4-9445-522e6b696361,rev?*
G04 #@! TF.SameCoordinates,Original*
G04 #@! TF.FileFunction,Copper,L2,Bot*
G04 #@! TF.FilePolarity,Positive*
%FSLAX46Y46*%
G04 Gerber Fmt 4.6, Leading zero omitted, Abs format (unit mm)*
G04 Created by KiCad (PCBNEW 5.1.5+dfsg1-2build2) date 2020-09-18 15:20:15*
%MOMM*%
%LPD*%
G04 APERTURE LIST*
%ADD10O,1.000000X1.000000*%
%ADD11R,1.000000X1.000000*%
%ADD12C,2.500000*%
%ADD13R,2.500000X2.500000*%
%ADD14C,0.600000*%
%ADD15C,1.600000*%
%ADD16C,0.200000*%
%ADD17C,0.500000*%
%ADD18C,0.400000*%
%ADD19C,0.300000*%
G04 APERTURE END LIST*
D10*
X70866000Y-79756000D03*
X70866000Y-78486000D03*
X70866000Y-77216000D03*
X70866000Y-75946000D03*
X70866000Y-74676000D03*
D11*
X70866000Y-73406000D03*
D12*
X123640000Y-78240000D03*
D13*
X95840000Y-78240000D03*
D14*
X87122000Y-60198000D03*
X83820000Y-68326000D03*
X88646000Y-60198000D03*
X88900000Y-69088000D03*
X85598000Y-60198000D03*
X82530000Y-56470000D03*
X82241508Y-53598492D03*
X83509990Y-48205006D03*
X73406000Y-73406000D03*
X70866000Y-69342000D03*
X75184000Y-75692000D03*
X79340000Y-83940000D03*
X75438000Y-83820000D03*
X81534000Y-68580000D03*
X74040000Y-62340000D03*
X62640000Y-57940000D03*
X69140000Y-44240000D03*
X74140000Y-44240000D03*
X79140000Y-44240000D03*
X84140000Y-44240000D03*
X89140000Y-44240000D03*
X99140000Y-44240000D03*
X104140000Y-44240000D03*
X109140000Y-44240000D03*
X114140000Y-44240000D03*
X119140000Y-44240000D03*
X121640000Y-46740000D03*
X124140000Y-49240000D03*
X126640000Y-51740000D03*
X126640000Y-56740000D03*
X126640000Y-61740000D03*
X126640000Y-71740000D03*
X126640000Y-76740000D03*
X126640000Y-84240000D03*
X124140000Y-86740000D03*
X121640000Y-89240000D03*
X119140000Y-91740000D03*
X114140000Y-91740000D03*
X109140000Y-91740000D03*
X104140000Y-91740000D03*
X99140000Y-91740000D03*
X94140000Y-91740000D03*
X89140000Y-91740000D03*
X84140000Y-91740000D03*
X79140000Y-91740000D03*
X74140000Y-91740000D03*
X69140000Y-91740000D03*
X64140000Y-91740000D03*
X61640000Y-89240000D03*
X59140000Y-86740000D03*
X56640000Y-84240000D03*
X56640000Y-79240000D03*
X56640000Y-74240000D03*
X56640000Y-64240000D03*
X56640000Y-59240000D03*
X56640000Y-54240000D03*
X56640000Y-51740000D03*
X59140000Y-49240000D03*
X61640000Y-46740000D03*
X64140000Y-44240000D03*
X94140000Y-44240000D03*
X69140000Y-64240000D03*
X64140000Y-74240000D03*
X64140000Y-81740000D03*
X71640000Y-86740000D03*
X91640000Y-86740000D03*
X99140000Y-84240000D03*
X106640000Y-86740000D03*
X111640000Y-81740000D03*
X119140000Y-81740000D03*
X119140000Y-74240000D03*
X116640000Y-69240000D03*
X121640000Y-56740000D03*
X114140000Y-51740000D03*
X99140000Y-49240000D03*
X64140000Y-64240000D03*
X77040000Y-63540000D03*
X67240000Y-55040000D03*
X65040000Y-54740000D03*
X63240000Y-55940000D03*
X63140000Y-59940000D03*
X64440000Y-61240000D03*
X66440000Y-61340000D03*
X67740000Y-60040000D03*
X70840000Y-59240000D03*
X71340000Y-61340000D03*
X70840000Y-53240000D03*
X97140000Y-54740000D03*
X99140000Y-54740000D03*
X97140000Y-56740000D03*
X99140000Y-56740000D03*
X99140000Y-58740000D03*
X97140000Y-58740000D03*
X95140000Y-58740000D03*
X95140000Y-56740000D03*
X122140000Y-61740000D03*
X121140000Y-52740000D03*
X99140000Y-51340000D03*
X97140000Y-49140000D03*
X95640000Y-51340000D03*
X94240000Y-50140000D03*
X69640000Y-54740000D03*
X75340000Y-48340000D03*
X73540000Y-48340000D03*
X74440000Y-46440000D03*
X73340000Y-51940000D03*
X79140000Y-58240000D03*
X78140000Y-58240000D03*
X77140000Y-58240000D03*
X77140000Y-57240000D03*
X78140000Y-57240000D03*
X79140000Y-57240000D03*
X79140000Y-56240000D03*
X78140000Y-56240000D03*
X77140000Y-56240000D03*
X77470000Y-82550000D03*
X75184000Y-82550000D03*
X85344000Y-82296000D03*
X80010000Y-76454000D03*
X78740000Y-73822000D03*
X93472000Y-56388000D03*
X100584000Y-54610000D03*
X79480990Y-80772000D03*
X115310000Y-63230000D03*
X82040000Y-82340000D03*
X78994000Y-76200000D03*
X76190000Y-60899990D03*
X82470000Y-57510000D03*
X87020000Y-46970000D03*
X88265000Y-46970000D03*
X83820000Y-54610000D03*
X106760000Y-48500000D03*
D15*
X91186000Y-47244000D03*
D14*
X74840000Y-53740000D03*
D15*
X81857988Y-84209055D03*
D14*
X81026000Y-76454000D03*
X92740000Y-81740000D03*
X109474000Y-56642000D03*
X109474000Y-59436000D03*
X115945999Y-65146000D03*
X94234000Y-54610000D03*
X84328000Y-83069990D03*
X86614000Y-53340000D03*
X85344000Y-49784000D03*
X91694000Y-59436000D03*
X81788000Y-67017987D03*
X90170000Y-59944000D03*
X82804000Y-69342000D03*
X85090000Y-51054000D03*
X88646000Y-54610000D03*
X83920000Y-53220000D03*
X84110000Y-49990000D03*
X74043645Y-59330991D03*
X82296000Y-66040000D03*
X77470000Y-75438000D03*
X80772000Y-61976000D03*
X85182010Y-61976000D03*
X83312000Y-55372000D03*
X91140000Y-70840000D03*
D16*
X87122000Y-60198000D02*
X87122000Y-65024000D01*
X84119999Y-68026001D02*
X83820000Y-68326000D01*
X87122000Y-65024000D02*
X84119999Y-68026001D01*
X88900000Y-60452000D02*
X88646000Y-60198000D01*
X88900000Y-69088000D02*
X88900000Y-60452000D01*
X82530000Y-53886984D02*
X82241508Y-53598492D01*
X82241508Y-53598492D02*
X82241508Y-49473488D01*
X83209991Y-48505005D02*
X83509990Y-48205006D01*
X82241508Y-49473488D02*
X83209991Y-48505005D01*
X73406000Y-71882000D02*
X70866000Y-69342000D01*
X73406000Y-73406000D02*
X73406000Y-71882000D01*
X75184000Y-75692000D02*
X75184000Y-73914000D01*
X74676000Y-73406000D02*
X73406000Y-73406000D01*
X75184000Y-73914000D02*
X74676000Y-73406000D01*
X78740000Y-83820000D02*
X75438000Y-83820000D01*
D17*
X77470000Y-82550000D02*
X77978000Y-82042000D01*
X77978000Y-82042000D02*
X77978000Y-81026000D01*
X77978000Y-81026000D02*
X78232000Y-80772000D01*
X77470000Y-82550000D02*
X75184000Y-82550000D01*
D18*
X80010000Y-76454000D02*
X79248000Y-77216000D01*
X79248000Y-77216000D02*
X79248000Y-80518000D01*
X79248000Y-80518000D02*
X78994000Y-80772000D01*
D17*
X78232000Y-80772000D02*
X78994000Y-80772000D01*
D18*
X80010000Y-75092000D02*
X80010000Y-76454000D01*
X78740000Y-73822000D02*
X80010000Y-75092000D01*
X93472000Y-56388000D02*
X93472000Y-53594000D01*
X93472000Y-53594000D02*
X100584000Y-53594000D01*
X100584000Y-53594000D02*
X100584000Y-54610000D01*
D17*
X78994000Y-80772000D02*
X79480990Y-80772000D01*
X112477324Y-60397324D02*
X115010001Y-62930001D01*
X115010001Y-62930001D02*
X115310000Y-63230000D01*
X112477324Y-60397324D02*
X102797324Y-60397324D01*
X100584000Y-58184000D02*
X100584000Y-54610000D01*
X102797324Y-60397324D02*
X100584000Y-58184000D01*
X79480990Y-80772000D02*
X80472000Y-80772000D01*
X85344000Y-82296000D02*
X82084000Y-82296000D01*
X82084000Y-82296000D02*
X82040000Y-82340000D01*
X80472000Y-80772000D02*
X82040000Y-82340000D01*
D16*
X78994000Y-76200000D02*
X75692000Y-76200000D01*
X73406000Y-78486000D02*
X70866000Y-78486000D01*
X75692000Y-76200000D02*
X73406000Y-78486000D01*
D17*
X87020000Y-46970000D02*
X88265000Y-46970000D01*
X102108000Y-48514000D02*
X106680000Y-48514000D01*
X100838000Y-47244000D02*
X102108000Y-48514000D01*
X91186000Y-47244000D02*
X100838000Y-47244000D01*
D16*
X87020000Y-49060000D02*
X87020000Y-46970000D01*
X83782000Y-49060000D02*
X87020000Y-49060000D01*
X83312000Y-49530000D02*
X83782000Y-49060000D01*
X83312000Y-54102000D02*
X83312000Y-49530000D01*
X83820000Y-54610000D02*
X83312000Y-54102000D01*
X80340000Y-59740000D02*
X76630000Y-59740000D01*
X82370000Y-59740000D02*
X80240000Y-59740000D01*
X82370000Y-57610000D02*
X82370000Y-59740000D01*
X76240000Y-60140000D02*
X76240000Y-60979990D01*
X76640000Y-59740000D02*
X76260000Y-60120000D01*
X82270000Y-54610000D02*
X83820000Y-54610000D01*
X81740000Y-55140000D02*
X82270000Y-54610000D01*
X81740000Y-57204264D02*
X81740000Y-55140000D01*
X82045736Y-57510000D02*
X81740000Y-57204264D01*
X82470000Y-57510000D02*
X82045736Y-57510000D01*
X74840000Y-54164264D02*
X74840000Y-53740000D01*
X76190000Y-60899990D02*
X74840000Y-59549990D01*
X74840000Y-59549990D02*
X74840000Y-54164264D01*
D17*
X82989358Y-84209055D02*
X81857988Y-84209055D01*
X92570945Y-84209055D02*
X82989358Y-84209055D01*
X92570945Y-84209055D02*
X93870945Y-84209055D01*
X95840000Y-82240000D02*
X95840000Y-78240000D01*
X93870945Y-84209055D02*
X95840000Y-82240000D01*
D16*
X92440001Y-81440001D02*
X92740000Y-81740000D01*
X87454000Y-76454000D02*
X92440001Y-81440001D01*
X81026000Y-76454000D02*
X87454000Y-76454000D01*
D17*
X109474000Y-59436000D02*
X109474000Y-56642000D01*
X116245998Y-64846001D02*
X115945999Y-65146000D01*
X116245998Y-62651998D02*
X116245998Y-64846001D01*
X113030000Y-59436000D02*
X116245998Y-62651998D01*
X109474000Y-59436000D02*
X113030000Y-59436000D01*
D16*
X94234000Y-55034264D02*
X94234000Y-54610000D01*
X94234000Y-81946000D02*
X94234000Y-55034264D01*
X93110010Y-83069990D02*
X94234000Y-81946000D01*
X84328000Y-83069990D02*
X93110010Y-83069990D01*
X86614000Y-51054000D02*
X85344000Y-49784000D01*
X86614000Y-53340000D02*
X86614000Y-51054000D01*
X91694000Y-59436000D02*
X91186000Y-58928000D01*
X86360000Y-59690000D02*
X86360000Y-62870251D01*
X82212264Y-67017987D02*
X81788000Y-67017987D01*
X91186000Y-58928000D02*
X87122000Y-58928000D01*
X86360000Y-62870251D02*
X82212264Y-67017987D01*
X87122000Y-58928000D02*
X86360000Y-59690000D01*
X83103999Y-69641999D02*
X82804000Y-69342000D01*
X89362001Y-69895999D02*
X83357999Y-69895999D01*
X83357999Y-69895999D02*
X83103999Y-69641999D01*
X90170000Y-59944000D02*
X90170000Y-69088000D01*
X90170000Y-69088000D02*
X89362001Y-69895999D01*
X85090000Y-51054000D02*
X85090000Y-54102000D01*
X85090000Y-54102000D02*
X85598000Y-54610000D01*
X86232002Y-54610000D02*
X88646000Y-54610000D01*
X85598000Y-54610000D02*
X86232002Y-54610000D01*
X83920000Y-50180000D02*
X84110000Y-49990000D01*
X83920000Y-53220000D02*
X83920000Y-50180000D01*
X79502000Y-66040000D02*
X82296000Y-66040000D01*
X77470000Y-68072000D02*
X79502000Y-66040000D01*
X77470000Y-75438000D02*
X77470000Y-68072000D01*
X80772000Y-61976000D02*
X85182010Y-61976000D01*
X92964000Y-69016000D02*
X91439999Y-70540001D01*
X92964000Y-57150000D02*
X92964000Y-69016000D01*
X91186000Y-55372000D02*
X92964000Y-57150000D01*
X83312000Y-55372000D02*
X91186000Y-55372000D01*
X91439999Y-70540001D02*
X91140000Y-70840000D01*
D19*
G36*
X122533944Y-44504320D02*
G01*
X122545495Y-44552434D01*
X122555771Y-44600779D01*
X122561970Y-44621058D01*
X122878272Y-45609186D01*
X122896813Y-45655077D01*
X122914118Y-45701360D01*
X122923246Y-45720500D01*
X123382129Y-46651022D01*
X123407235Y-46693644D01*
X123431205Y-46736886D01*
X123443062Y-46754466D01*
X124034444Y-47606940D01*
X124065578Y-47645387D01*
X124095673Y-47684608D01*
X124109998Y-47700242D01*
X124820889Y-48455940D01*
X124857366Y-48489365D01*
X124892924Y-48523703D01*
X124909403Y-48537048D01*
X125724184Y-49179370D01*
X125765202Y-49207037D01*
X125805444Y-49235741D01*
X125823714Y-49246504D01*
X126724486Y-49761338D01*
X126769125Y-49782630D01*
X126813187Y-49805080D01*
X126832847Y-49813023D01*
X127799823Y-50189059D01*
X127847128Y-50203522D01*
X127894014Y-50219210D01*
X127914622Y-50224157D01*
X127914634Y-50224161D01*
X127914644Y-50224163D01*
X128926569Y-50453138D01*
X128975492Y-50460450D01*
X129024182Y-50469035D01*
X129045306Y-50470884D01*
X129330001Y-50492041D01*
X129330000Y-85985331D01*
X128560115Y-86088010D01*
X128541423Y-86091965D01*
X128522413Y-86093945D01*
X128439902Y-86113445D01*
X127425040Y-86410146D01*
X127407158Y-86416884D01*
X127388669Y-86421716D01*
X127310079Y-86453464D01*
X127310057Y-86453472D01*
X127310051Y-86453475D01*
X126351752Y-86900268D01*
X126335094Y-86909634D01*
X126317549Y-86917207D01*
X126244645Y-86960489D01*
X125364949Y-87547098D01*
X125349902Y-87558874D01*
X125333702Y-87569015D01*
X125268183Y-87622826D01*
X124487340Y-88335749D01*
X124474247Y-88349666D01*
X124459768Y-88362140D01*
X124403143Y-88425243D01*
X123739122Y-89248074D01*
X123728288Y-89263806D01*
X123715859Y-89278331D01*
X123669431Y-89349273D01*
X123137512Y-90263077D01*
X123129181Y-90280270D01*
X123119093Y-90296506D01*
X123083930Y-90373654D01*
X122696353Y-91357402D01*
X122690718Y-91375659D01*
X122683203Y-91393232D01*
X122660114Y-91474811D01*
X122425800Y-92505866D01*
X122422991Y-92524766D01*
X122418221Y-92543273D01*
X122407736Y-92627407D01*
X122386028Y-92930000D01*
X61906428Y-92930000D01*
X61746119Y-91945666D01*
X61734569Y-91897556D01*
X61724292Y-91849206D01*
X61718093Y-91828928D01*
X61401786Y-90840790D01*
X61383256Y-90794925D01*
X61365941Y-90748615D01*
X61356816Y-90729482D01*
X61356813Y-90729475D01*
X61356810Y-90729470D01*
X60897926Y-89798945D01*
X60872813Y-89756311D01*
X60848850Y-89713081D01*
X60836993Y-89695501D01*
X60245605Y-88843020D01*
X60214477Y-88804580D01*
X60184377Y-88765353D01*
X60170052Y-88749719D01*
X59459156Y-87994013D01*
X59422676Y-87960585D01*
X59387119Y-87926249D01*
X59370649Y-87912911D01*
X59370641Y-87912904D01*
X59370634Y-87912899D01*
X58555852Y-87270577D01*
X58514823Y-87242902D01*
X58474592Y-87214206D01*
X58456322Y-87203443D01*
X58456321Y-87203442D01*
X58456316Y-87203440D01*
X58120702Y-87011620D01*
X64321220Y-87011620D01*
X64321220Y-87468380D01*
X64410329Y-87916363D01*
X64585123Y-88338354D01*
X64838886Y-88718136D01*
X65161864Y-89041114D01*
X65541646Y-89294877D01*
X65963637Y-89469671D01*
X66411620Y-89558780D01*
X66868380Y-89558780D01*
X67316363Y-89469671D01*
X67738354Y-89294877D01*
X68118136Y-89041114D01*
X68441114Y-88718136D01*
X68694877Y-88338354D01*
X68869671Y-87916363D01*
X68958780Y-87468380D01*
X68958780Y-87011620D01*
X114321220Y-87011620D01*
X114321220Y-87468380D01*
X114410329Y-87916363D01*
X114585123Y-88338354D01*
X114838886Y-88718136D01*
X115161864Y-89041114D01*
X115541646Y-89294877D01*
X115963637Y-89469671D01*
X116411620Y-89558780D01*
X116868380Y-89558780D01*
X117316363Y-89469671D01*
X117738354Y-89294877D01*
X118118136Y-89041114D01*
X118441114Y-88718136D01*
X118694877Y-88338354D01*
X118869671Y-87916363D01*
X118958780Y-87468380D01*
X118958780Y-87011620D01*
X118869671Y-86563637D01*
X118694877Y-86141646D01*
X118441114Y-85761864D01*
X118118136Y-85438886D01*
X117738354Y-85185123D01*
X117316363Y-85010329D01*
X116868380Y-84921220D01*
X116411620Y-84921220D01*
X115963637Y-85010329D01*
X115541646Y-85185123D01*
X115161864Y-85438886D01*
X114838886Y-85761864D01*
X114585123Y-86141646D01*
X114410329Y-86563637D01*
X114321220Y-87011620D01*
X68958780Y-87011620D01*
X68869671Y-86563637D01*
X68694877Y-86141646D01*
X68441114Y-85761864D01*
X68118136Y-85438886D01*
X67738354Y-85185123D01*
X67316363Y-85010329D01*
X66868380Y-84921220D01*
X66411620Y-84921220D01*
X65963637Y-85010329D01*
X65541646Y-85185123D01*
X65161864Y-85438886D01*
X64838886Y-85761864D01*
X64585123Y-86141646D01*
X64410329Y-86563637D01*
X64321220Y-87011620D01*
X58120702Y-87011620D01*
X57555541Y-86688604D01*
X57510867Y-86667296D01*
X57466841Y-86644863D01*
X57447194Y-86636925D01*
X57447180Y-86636918D01*
X57447168Y-86636914D01*
X56480195Y-86260879D01*
X56432891Y-86246417D01*
X56386005Y-86230729D01*
X56365397Y-86225782D01*
X56365385Y-86225778D01*
X56365375Y-86225776D01*
X55353440Y-85996799D01*
X55304517Y-85989487D01*
X55255827Y-85980902D01*
X55234703Y-85979053D01*
X54950000Y-85957896D01*
X54950000Y-74552886D01*
X69616000Y-74552886D01*
X69616000Y-74799114D01*
X69664037Y-75040611D01*
X69758265Y-75268097D01*
X69786932Y-75311000D01*
X69758265Y-75353903D01*
X69664037Y-75581389D01*
X69616000Y-75822886D01*
X69616000Y-76069114D01*
X69664037Y-76310611D01*
X69758265Y-76538097D01*
X69786932Y-76581000D01*
X69758265Y-76623903D01*
X69664037Y-76851389D01*
X69616000Y-77092886D01*
X69616000Y-77339114D01*
X69664037Y-77580611D01*
X69758265Y-77808097D01*
X69786932Y-77851000D01*
X69758265Y-77893903D01*
X69664037Y-78121389D01*
X69616000Y-78362886D01*
X69616000Y-78609114D01*
X69664037Y-78850611D01*
X69758265Y-79078097D01*
X69786932Y-79121000D01*
X69758265Y-79163903D01*
X69664037Y-79391389D01*
X69616000Y-79632886D01*
X69616000Y-79879114D01*
X69664037Y-80120611D01*
X69758265Y-80348097D01*
X69895062Y-80552828D01*
X70069172Y-80726938D01*
X70273903Y-80863735D01*
X70501389Y-80957963D01*
X70742886Y-81006000D01*
X70989114Y-81006000D01*
X71230611Y-80957963D01*
X71458097Y-80863735D01*
X71662828Y-80726938D01*
X71836938Y-80552828D01*
X71973735Y-80348097D01*
X72067963Y-80120611D01*
X72116000Y-79879114D01*
X72116000Y-79632886D01*
X72067963Y-79391389D01*
X72045020Y-79336000D01*
X73364259Y-79336000D01*
X73406000Y-79340111D01*
X73447741Y-79336000D01*
X73447749Y-79336000D01*
X73572629Y-79323700D01*
X73732855Y-79275097D01*
X73880519Y-79196168D01*
X74009948Y-79089948D01*
X74036566Y-79057514D01*
X76044081Y-77050000D01*
X78309753Y-77050000D01*
X78298000Y-77169336D01*
X78298000Y-77169346D01*
X78293405Y-77216000D01*
X78298000Y-77262655D01*
X78298001Y-79772000D01*
X78281117Y-79772000D01*
X78231999Y-79767162D01*
X78182881Y-79772000D01*
X78182880Y-79772000D01*
X78035966Y-79786470D01*
X77847465Y-79843651D01*
X77673742Y-79936508D01*
X77521472Y-80061472D01*
X77490151Y-80099637D01*
X77305633Y-80284155D01*
X77267473Y-80315472D01*
X77142509Y-80467742D01*
X77115645Y-80518001D01*
X77049651Y-80641466D01*
X76992470Y-80829966D01*
X76973162Y-81026000D01*
X76978001Y-81075129D01*
X76978000Y-81550000D01*
X75513571Y-81550000D01*
X75490274Y-81540350D01*
X75287416Y-81500000D01*
X75080584Y-81500000D01*
X74877726Y-81540350D01*
X74686638Y-81619502D01*
X74514664Y-81734411D01*
X74368411Y-81880664D01*
X74253502Y-82052638D01*
X74174350Y-82243726D01*
X74134000Y-82446584D01*
X74134000Y-82653416D01*
X74174350Y-82856274D01*
X74253502Y-83047362D01*
X74368411Y-83219336D01*
X74514664Y-83365589D01*
X74686638Y-83480498D01*
X74877726Y-83559650D01*
X75080584Y-83600000D01*
X75287416Y-83600000D01*
X75490274Y-83559650D01*
X75513571Y-83550000D01*
X77140429Y-83550000D01*
X77163726Y-83559650D01*
X77366584Y-83600000D01*
X77573416Y-83600000D01*
X77776274Y-83559650D01*
X77967362Y-83480498D01*
X78139336Y-83365589D01*
X78285589Y-83219336D01*
X78400498Y-83047362D01*
X78410148Y-83024064D01*
X78650368Y-82783845D01*
X78688528Y-82752528D01*
X78813492Y-82600258D01*
X78906349Y-82426535D01*
X78963530Y-82238034D01*
X78978000Y-82091120D01*
X78978000Y-82091111D01*
X78982837Y-82042001D01*
X78978000Y-81992891D01*
X78978000Y-81772000D01*
X79151419Y-81772000D01*
X79174716Y-81781650D01*
X79377574Y-81822000D01*
X79584406Y-81822000D01*
X79787264Y-81781650D01*
X79810561Y-81772000D01*
X80057788Y-81772000D01*
X81099852Y-82814065D01*
X81109502Y-82837362D01*
X81113034Y-82842648D01*
X80869920Y-83005091D01*
X80654024Y-83220987D01*
X80484396Y-83474855D01*
X80367553Y-83756937D01*
X80307988Y-84056393D01*
X80307988Y-84361717D01*
X80367553Y-84661173D01*
X80484396Y-84943255D01*
X80654024Y-85197123D01*
X80869920Y-85413019D01*
X81123788Y-85582647D01*
X81405870Y-85699490D01*
X81705326Y-85759055D01*
X82010650Y-85759055D01*
X82310106Y-85699490D01*
X82592188Y-85582647D01*
X82846056Y-85413019D01*
X83050020Y-85209055D01*
X93821825Y-85209055D01*
X93870945Y-85213893D01*
X93920065Y-85209055D01*
X94066979Y-85194585D01*
X94255480Y-85137404D01*
X94429203Y-85044547D01*
X94581473Y-84919583D01*
X94612794Y-84881418D01*
X96512368Y-82981845D01*
X96550528Y-82950528D01*
X96675492Y-82798258D01*
X96768349Y-82624535D01*
X96825530Y-82436034D01*
X96840000Y-82289120D01*
X96840000Y-82289119D01*
X96844838Y-82240001D01*
X96840000Y-82190883D01*
X96840000Y-80243628D01*
X97090000Y-80243628D01*
X97237026Y-80229147D01*
X97378401Y-80186261D01*
X97508693Y-80116619D01*
X97622895Y-80022895D01*
X97716619Y-79908693D01*
X97786261Y-79778401D01*
X97829147Y-79637026D01*
X97837647Y-79550724D01*
X122476354Y-79550724D01*
X122598876Y-79849919D01*
X122932960Y-80022098D01*
X123294216Y-80125792D01*
X123668760Y-80157015D01*
X124042199Y-80114569D01*
X124400181Y-80000085D01*
X124681124Y-79849919D01*
X124803646Y-79550724D01*
X123640000Y-78387078D01*
X122476354Y-79550724D01*
X97837647Y-79550724D01*
X97843628Y-79490000D01*
X97843628Y-78268760D01*
X121722985Y-78268760D01*
X121765431Y-78642199D01*
X121879915Y-79000181D01*
X122030081Y-79281124D01*
X122329276Y-79403646D01*
X123492922Y-78240000D01*
X123787078Y-78240000D01*
X124950724Y-79403646D01*
X125249919Y-79281124D01*
X125422098Y-78947040D01*
X125525792Y-78585784D01*
X125557015Y-78211240D01*
X125514569Y-77837801D01*
X125400085Y-77479819D01*
X125249919Y-77198876D01*
X124950724Y-77076354D01*
X123787078Y-78240000D01*
X123492922Y-78240000D01*
X122329276Y-77076354D01*
X122030081Y-77198876D01*
X121857902Y-77532960D01*
X121754208Y-77894216D01*
X121722985Y-78268760D01*
X97843628Y-78268760D01*
X97843628Y-76990000D01*
X97837648Y-76929276D01*
X122476354Y-76929276D01*
X123640000Y-78092922D01*
X124803646Y-76929276D01*
X124681124Y-76630081D01*
X124347040Y-76457902D01*
X123985784Y-76354208D01*
X123611240Y-76322985D01*
X123237801Y-76365431D01*
X122879819Y-76479915D01*
X122598876Y-76630081D01*
X122476354Y-76929276D01*
X97837648Y-76929276D01*
X97829147Y-76842974D01*
X97786261Y-76701599D01*
X97716619Y-76571307D01*
X97622895Y-76457105D01*
X97508693Y-76363381D01*
X97378401Y-76293739D01*
X97237026Y-76250853D01*
X97090000Y-76236372D01*
X95084000Y-76236372D01*
X95084000Y-67511620D01*
X121321220Y-67511620D01*
X121321220Y-67968380D01*
X121410329Y-68416363D01*
X121585123Y-68838354D01*
X121838886Y-69218136D01*
X122161864Y-69541114D01*
X122541646Y-69794877D01*
X122963637Y-69969671D01*
X123411620Y-70058780D01*
X123868380Y-70058780D01*
X124316363Y-69969671D01*
X124738354Y-69794877D01*
X125118136Y-69541114D01*
X125441114Y-69218136D01*
X125694877Y-68838354D01*
X125869671Y-68416363D01*
X125958780Y-67968380D01*
X125958780Y-67511620D01*
X125869671Y-67063637D01*
X125694877Y-66641646D01*
X125441114Y-66261864D01*
X125118136Y-65938886D01*
X124738354Y-65685123D01*
X124316363Y-65510329D01*
X123868380Y-65421220D01*
X123411620Y-65421220D01*
X122963637Y-65510329D01*
X122541646Y-65685123D01*
X122161864Y-65938886D01*
X121838886Y-66261864D01*
X121585123Y-66641646D01*
X121410329Y-67063637D01*
X121321220Y-67511620D01*
X95084000Y-67511620D01*
X95084000Y-55227836D01*
X95164498Y-55107362D01*
X95243650Y-54916274D01*
X95284000Y-54713416D01*
X95284000Y-54544000D01*
X99534000Y-54544000D01*
X99534000Y-54713416D01*
X99574350Y-54916274D01*
X99584001Y-54939573D01*
X99584000Y-58134880D01*
X99579162Y-58184000D01*
X99598470Y-58380034D01*
X99637182Y-58507651D01*
X99655651Y-58568534D01*
X99748508Y-58742258D01*
X99873472Y-58894528D01*
X99911637Y-58925849D01*
X102055479Y-61069692D01*
X102086796Y-61107852D01*
X102183121Y-61186903D01*
X102239066Y-61232816D01*
X102412789Y-61325673D01*
X102601290Y-61382854D01*
X102797324Y-61402162D01*
X102846444Y-61397324D01*
X112063112Y-61397324D01*
X114337627Y-63671840D01*
X114337632Y-63671844D01*
X114369851Y-63704064D01*
X114379502Y-63727362D01*
X114494411Y-63899336D01*
X114640664Y-64045589D01*
X114812638Y-64160498D01*
X115003726Y-64239650D01*
X115206584Y-64280000D01*
X115245999Y-64280000D01*
X115245999Y-64361075D01*
X115130410Y-64476664D01*
X115015501Y-64648638D01*
X114936349Y-64839726D01*
X114895999Y-65042584D01*
X114895999Y-65249416D01*
X114936349Y-65452274D01*
X115015501Y-65643362D01*
X115130410Y-65815336D01*
X115276663Y-65961589D01*
X115448637Y-66076498D01*
X115639725Y-66155650D01*
X115842583Y-66196000D01*
X116049415Y-66196000D01*
X116252273Y-66155650D01*
X116443361Y-66076498D01*
X116615335Y-65961589D01*
X116761588Y-65815336D01*
X116876497Y-65643362D01*
X116886147Y-65620064D01*
X116918365Y-65587846D01*
X116956526Y-65556529D01*
X117081490Y-65404259D01*
X117174347Y-65230536D01*
X117231528Y-65042035D01*
X117245998Y-64895121D01*
X117250836Y-64846001D01*
X117245998Y-64796881D01*
X117245998Y-62701118D01*
X117250836Y-62651998D01*
X117231528Y-62455963D01*
X117174347Y-62267463D01*
X117173727Y-62266303D01*
X117081490Y-62093740D01*
X116956526Y-61941470D01*
X116918366Y-61910153D01*
X113771849Y-58763637D01*
X113740528Y-58725472D01*
X113588258Y-58600508D01*
X113414535Y-58507651D01*
X113226034Y-58450470D01*
X113079120Y-58436000D01*
X113030000Y-58431162D01*
X112980880Y-58436000D01*
X110474000Y-58436000D01*
X110474000Y-56971571D01*
X110483650Y-56948274D01*
X110524000Y-56745416D01*
X110524000Y-56538584D01*
X110483650Y-56335726D01*
X110404498Y-56144638D01*
X110289589Y-55972664D01*
X110143336Y-55826411D01*
X109971362Y-55711502D01*
X109780274Y-55632350D01*
X109577416Y-55592000D01*
X109370584Y-55592000D01*
X109167726Y-55632350D01*
X108976638Y-55711502D01*
X108804664Y-55826411D01*
X108658411Y-55972664D01*
X108543502Y-56144638D01*
X108464350Y-56335726D01*
X108424000Y-56538584D01*
X108424000Y-56745416D01*
X108464350Y-56948274D01*
X108474001Y-56971573D01*
X108474000Y-59106429D01*
X108464350Y-59129726D01*
X108424000Y-59332584D01*
X108424000Y-59397324D01*
X103211537Y-59397324D01*
X101584000Y-57769788D01*
X101584000Y-54939571D01*
X101593650Y-54916274D01*
X101634000Y-54713416D01*
X101634000Y-54506584D01*
X101593650Y-54303726D01*
X101534000Y-54159720D01*
X101534000Y-53640665D01*
X101538596Y-53594000D01*
X101520254Y-53407768D01*
X101465932Y-53228692D01*
X101377718Y-53063655D01*
X101259001Y-52918999D01*
X101114345Y-52800282D01*
X100949308Y-52712068D01*
X100770232Y-52657746D01*
X100630665Y-52644000D01*
X100630664Y-52644000D01*
X100584000Y-52639404D01*
X100537335Y-52644000D01*
X93518665Y-52644000D01*
X93472000Y-52639404D01*
X93425336Y-52644000D01*
X93425335Y-52644000D01*
X93285768Y-52657746D01*
X93106692Y-52712068D01*
X92941655Y-52800282D01*
X92796999Y-52918999D01*
X92678282Y-53063655D01*
X92590068Y-53228692D01*
X92535746Y-53407768D01*
X92517404Y-53594000D01*
X92522001Y-53640674D01*
X92522000Y-55505920D01*
X91816566Y-54800486D01*
X91789948Y-54768052D01*
X91660519Y-54661832D01*
X91512855Y-54582903D01*
X91352629Y-54534300D01*
X91227749Y-54522000D01*
X91227741Y-54522000D01*
X91186000Y-54517889D01*
X91144259Y-54522000D01*
X89696000Y-54522000D01*
X89696000Y-54506584D01*
X89655650Y-54303726D01*
X89576498Y-54112638D01*
X89461589Y-53940664D01*
X89315336Y-53794411D01*
X89143362Y-53679502D01*
X88952274Y-53600350D01*
X88749416Y-53560000D01*
X88542584Y-53560000D01*
X88339726Y-53600350D01*
X88148638Y-53679502D01*
X88028164Y-53760000D01*
X87576543Y-53760000D01*
X87623650Y-53646274D01*
X87664000Y-53443416D01*
X87664000Y-53236584D01*
X87623650Y-53033726D01*
X87544498Y-52842638D01*
X87464000Y-52722164D01*
X87464000Y-51095740D01*
X87468111Y-51053999D01*
X87464000Y-51012258D01*
X87464000Y-51012251D01*
X87451700Y-50887371D01*
X87435511Y-50834000D01*
X87403097Y-50727145D01*
X87366852Y-50659336D01*
X87324168Y-50579481D01*
X87217948Y-50450052D01*
X87185519Y-50423438D01*
X86672081Y-49910000D01*
X86978251Y-49910000D01*
X87020000Y-49914112D01*
X87061748Y-49910000D01*
X87061749Y-49910000D01*
X87186629Y-49897700D01*
X87346855Y-49849097D01*
X87494519Y-49770168D01*
X87623948Y-49663948D01*
X87730168Y-49534519D01*
X87809097Y-49386855D01*
X87857700Y-49226629D01*
X87874112Y-49060000D01*
X87870000Y-49018251D01*
X87870000Y-47970000D01*
X87935429Y-47970000D01*
X87958726Y-47979650D01*
X88161584Y-48020000D01*
X88368416Y-48020000D01*
X88571274Y-47979650D01*
X88762362Y-47900498D01*
X88934336Y-47785589D01*
X89080589Y-47639336D01*
X89195498Y-47467362D01*
X89274650Y-47276274D01*
X89311435Y-47091338D01*
X89636000Y-47091338D01*
X89636000Y-47396662D01*
X89695565Y-47696118D01*
X89812408Y-47978200D01*
X89982036Y-48232068D01*
X90197932Y-48447964D01*
X90451800Y-48617592D01*
X90733882Y-48734435D01*
X91033338Y-48794000D01*
X91338662Y-48794000D01*
X91638118Y-48734435D01*
X91920200Y-48617592D01*
X92174068Y-48447964D01*
X92378032Y-48244000D01*
X100423788Y-48244000D01*
X101366155Y-49186368D01*
X101397472Y-49224528D01*
X101549742Y-49349492D01*
X101723465Y-49442349D01*
X101911966Y-49499530D01*
X102058880Y-49514000D01*
X102058881Y-49514000D01*
X102107999Y-49518838D01*
X102157117Y-49514000D01*
X106475595Y-49514000D01*
X106656584Y-49550000D01*
X106863416Y-49550000D01*
X107066274Y-49509650D01*
X107257362Y-49430498D01*
X107429336Y-49315589D01*
X107575589Y-49169336D01*
X107690498Y-48997362D01*
X107769650Y-48806274D01*
X107810000Y-48603416D01*
X107810000Y-48396584D01*
X107769650Y-48193726D01*
X107694219Y-48011620D01*
X114321220Y-48011620D01*
X114321220Y-48468380D01*
X114410329Y-48916363D01*
X114585123Y-49338354D01*
X114838886Y-49718136D01*
X115161864Y-50041114D01*
X115541646Y-50294877D01*
X115963637Y-50469671D01*
X116411620Y-50558780D01*
X116868380Y-50558780D01*
X117316363Y-50469671D01*
X117738354Y-50294877D01*
X118118136Y-50041114D01*
X118441114Y-49718136D01*
X118694877Y-49338354D01*
X118869671Y-48916363D01*
X118958780Y-48468380D01*
X118958780Y-48011620D01*
X118869671Y-47563637D01*
X118694877Y-47141646D01*
X118441114Y-46761864D01*
X118118136Y-46438886D01*
X117738354Y-46185123D01*
X117316363Y-46010329D01*
X116868380Y-45921220D01*
X116411620Y-45921220D01*
X115963637Y-46010329D01*
X115541646Y-46185123D01*
X115161864Y-46438886D01*
X114838886Y-46761864D01*
X114585123Y-47141646D01*
X114410329Y-47563637D01*
X114321220Y-48011620D01*
X107694219Y-48011620D01*
X107690498Y-48002638D01*
X107575589Y-47830664D01*
X107429336Y-47684411D01*
X107257362Y-47569502D01*
X107066274Y-47490350D01*
X106863416Y-47450000D01*
X106656584Y-47450000D01*
X106453726Y-47490350D01*
X106396630Y-47514000D01*
X102522213Y-47514000D01*
X101579849Y-46571637D01*
X101548528Y-46533472D01*
X101396258Y-46408508D01*
X101222535Y-46315651D01*
X101034034Y-46258470D01*
X100887120Y-46244000D01*
X100838000Y-46239162D01*
X100788880Y-46244000D01*
X92378032Y-46244000D01*
X92174068Y-46040036D01*
X91920200Y-45870408D01*
X91638118Y-45753565D01*
X91338662Y-45694000D01*
X91033338Y-45694000D01*
X90733882Y-45753565D01*
X90451800Y-45870408D01*
X90197932Y-46040036D01*
X89982036Y-46255932D01*
X89812408Y-46509800D01*
X89695565Y-46791882D01*
X89636000Y-47091338D01*
X89311435Y-47091338D01*
X89315000Y-47073416D01*
X89315000Y-46866584D01*
X89274650Y-46663726D01*
X89195498Y-46472638D01*
X89080589Y-46300664D01*
X88934336Y-46154411D01*
X88762362Y-46039502D01*
X88571274Y-45960350D01*
X88368416Y-45920000D01*
X88161584Y-45920000D01*
X87958726Y-45960350D01*
X87935429Y-45970000D01*
X87349571Y-45970000D01*
X87326274Y-45960350D01*
X87123416Y-45920000D01*
X86916584Y-45920000D01*
X86713726Y-45960350D01*
X86522638Y-46039502D01*
X86350664Y-46154411D01*
X86204411Y-46300664D01*
X86089502Y-46472638D01*
X86010350Y-46663726D01*
X85970000Y-46866584D01*
X85970000Y-47073416D01*
X86010350Y-47276274D01*
X86089502Y-47467362D01*
X86170001Y-47587837D01*
X86170000Y-48210000D01*
X83823737Y-48210000D01*
X83781999Y-48205889D01*
X83740261Y-48210000D01*
X83740251Y-48210000D01*
X83615371Y-48222300D01*
X83455145Y-48270903D01*
X83307481Y-48349832D01*
X83178052Y-48456052D01*
X83151438Y-48488481D01*
X82740481Y-48899439D01*
X82708053Y-48926052D01*
X82601833Y-49055481D01*
X82577102Y-49101749D01*
X82522903Y-49203146D01*
X82474300Y-49363371D01*
X82457889Y-49530000D01*
X82462001Y-49571751D01*
X82462000Y-53760000D01*
X82311740Y-53760000D01*
X82269999Y-53755889D01*
X82228258Y-53760000D01*
X82228251Y-53760000D01*
X82119013Y-53770759D01*
X82103370Y-53772300D01*
X82030479Y-53794411D01*
X81943145Y-53820903D01*
X81795481Y-53899832D01*
X81666052Y-54006052D01*
X81639434Y-54038486D01*
X81168481Y-54509439D01*
X81136053Y-54536052D01*
X81029833Y-54665481D01*
X81025537Y-54673519D01*
X80950903Y-54813146D01*
X80902300Y-54973371D01*
X80885889Y-55140000D01*
X80890001Y-55181751D01*
X80890000Y-57162523D01*
X80885889Y-57204264D01*
X80890000Y-57246005D01*
X80890000Y-57246012D01*
X80899513Y-57342596D01*
X80902300Y-57370893D01*
X80944497Y-57510000D01*
X80950903Y-57531118D01*
X81029832Y-57678782D01*
X81136052Y-57808212D01*
X81168486Y-57834830D01*
X81415170Y-58081514D01*
X81441788Y-58113948D01*
X81520000Y-58178135D01*
X81520001Y-58890000D01*
X76681740Y-58890000D01*
X76639999Y-58885889D01*
X76598258Y-58890000D01*
X76588251Y-58890000D01*
X76463371Y-58902300D01*
X76303145Y-58950903D01*
X76155481Y-59029832D01*
X76026052Y-59136052D01*
X75953667Y-59224253D01*
X75835005Y-59342915D01*
X75690000Y-59197910D01*
X75690000Y-54357836D01*
X75770498Y-54237362D01*
X75849650Y-54046274D01*
X75890000Y-53843416D01*
X75890000Y-53636584D01*
X75849650Y-53433726D01*
X75770498Y-53242638D01*
X75655589Y-53070664D01*
X75509336Y-52924411D01*
X75337362Y-52809502D01*
X75146274Y-52730350D01*
X74943416Y-52690000D01*
X74736584Y-52690000D01*
X74533726Y-52730350D01*
X74342638Y-52809502D01*
X74170664Y-52924411D01*
X74024411Y-53070664D01*
X73909502Y-53242638D01*
X73830350Y-53433726D01*
X73790000Y-53636584D01*
X73790000Y-53843416D01*
X73830350Y-54046274D01*
X73909502Y-54237362D01*
X73990001Y-54357838D01*
X73990000Y-58280991D01*
X73940229Y-58280991D01*
X73737371Y-58321341D01*
X73546283Y-58400493D01*
X73374309Y-58515402D01*
X73228056Y-58661655D01*
X73113147Y-58833629D01*
X73033995Y-59024717D01*
X72993645Y-59227575D01*
X72993645Y-59434407D01*
X73033995Y-59637265D01*
X73113147Y-59828353D01*
X73228056Y-60000327D01*
X73374309Y-60146580D01*
X73546283Y-60261489D01*
X73737371Y-60340641D01*
X73940229Y-60380991D01*
X74147061Y-60380991D01*
X74349919Y-60340641D01*
X74405534Y-60317604D01*
X75152083Y-61064154D01*
X75180350Y-61206264D01*
X75259502Y-61397352D01*
X75374411Y-61569326D01*
X75520664Y-61715579D01*
X75692638Y-61830488D01*
X75883726Y-61909640D01*
X76086584Y-61949990D01*
X76293416Y-61949990D01*
X76496274Y-61909640D01*
X76687362Y-61830488D01*
X76859336Y-61715579D01*
X77005589Y-61569326D01*
X77120498Y-61397352D01*
X77199650Y-61206264D01*
X77240000Y-61003406D01*
X77240000Y-60796574D01*
X77199650Y-60593716D01*
X77198111Y-60590000D01*
X82328252Y-60590000D01*
X82370000Y-60594112D01*
X82536629Y-60577700D01*
X82696855Y-60529097D01*
X82844519Y-60450168D01*
X82973948Y-60343948D01*
X83080168Y-60214519D01*
X83159097Y-60066855D01*
X83207700Y-59906629D01*
X83220000Y-59781749D01*
X83224112Y-59740000D01*
X83220000Y-59698251D01*
X83220000Y-58244925D01*
X83285589Y-58179336D01*
X83400498Y-58007362D01*
X83479650Y-57816274D01*
X83520000Y-57613416D01*
X83520000Y-57406584D01*
X83479650Y-57203726D01*
X83400498Y-57012638D01*
X83285589Y-56840664D01*
X83139336Y-56694411D01*
X82967362Y-56579502D01*
X82776274Y-56500350D01*
X82590000Y-56463299D01*
X82590000Y-56134925D01*
X82642664Y-56187589D01*
X82814638Y-56302498D01*
X83005726Y-56381650D01*
X83208584Y-56422000D01*
X83415416Y-56422000D01*
X83618274Y-56381650D01*
X83809362Y-56302498D01*
X83929836Y-56222000D01*
X90833920Y-56222000D01*
X92114000Y-57502081D01*
X92114000Y-58473457D01*
X92000274Y-58426350D01*
X91858163Y-58398083D01*
X91816565Y-58356485D01*
X91789948Y-58324052D01*
X91660519Y-58217832D01*
X91512855Y-58138903D01*
X91352629Y-58090300D01*
X91227749Y-58078000D01*
X91227741Y-58078000D01*
X91186000Y-58073889D01*
X91144259Y-58078000D01*
X87163741Y-58078000D01*
X87122000Y-58073889D01*
X87080259Y-58078000D01*
X87080251Y-58078000D01*
X86955371Y-58090300D01*
X86795145Y-58138903D01*
X86647481Y-58217832D01*
X86518052Y-58324052D01*
X86491438Y-58356481D01*
X85788486Y-59059434D01*
X85756052Y-59086052D01*
X85704680Y-59148649D01*
X85701416Y-59148000D01*
X85494584Y-59148000D01*
X85291726Y-59188350D01*
X85100638Y-59267502D01*
X84928664Y-59382411D01*
X84782411Y-59528664D01*
X84667502Y-59700638D01*
X84588350Y-59891726D01*
X84548000Y-60094584D01*
X84548000Y-60301416D01*
X84588350Y-60504274D01*
X84667502Y-60695362D01*
X84782411Y-60867336D01*
X84880481Y-60965406D01*
X84875736Y-60966350D01*
X84684648Y-61045502D01*
X84564174Y-61126000D01*
X81389836Y-61126000D01*
X81269362Y-61045502D01*
X81078274Y-60966350D01*
X80875416Y-60926000D01*
X80668584Y-60926000D01*
X80465726Y-60966350D01*
X80274638Y-61045502D01*
X80102664Y-61160411D01*
X79956411Y-61306664D01*
X79841502Y-61478638D01*
X79762350Y-61669726D01*
X79722000Y-61872584D01*
X79722000Y-62079416D01*
X79762350Y-62282274D01*
X79841502Y-62473362D01*
X79956411Y-62645336D01*
X80102664Y-62791589D01*
X80274638Y-62906498D01*
X80465726Y-62985650D01*
X80668584Y-63026000D01*
X80875416Y-63026000D01*
X81078274Y-62985650D01*
X81269362Y-62906498D01*
X81389836Y-62826000D01*
X84564174Y-62826000D01*
X84684648Y-62906498D01*
X84875736Y-62985650D01*
X85014849Y-63013321D01*
X82868478Y-65159693D01*
X82793362Y-65109502D01*
X82602274Y-65030350D01*
X82399416Y-64990000D01*
X82192584Y-64990000D01*
X81989726Y-65030350D01*
X81798638Y-65109502D01*
X81678164Y-65190000D01*
X79543741Y-65190000D01*
X79502000Y-65185889D01*
X79460259Y-65190000D01*
X79460251Y-65190000D01*
X79335371Y-65202300D01*
X79175145Y-65250903D01*
X79027481Y-65329832D01*
X78898052Y-65436052D01*
X78871439Y-65468481D01*
X76898481Y-67441439D01*
X76866053Y-67468052D01*
X76759833Y-67597481D01*
X76746762Y-67621935D01*
X76680903Y-67745146D01*
X76632300Y-67905371D01*
X76615889Y-68072000D01*
X76620001Y-68113751D01*
X76620000Y-74820164D01*
X76539502Y-74940638D01*
X76460350Y-75131726D01*
X76420000Y-75334584D01*
X76420000Y-75350000D01*
X75733740Y-75350000D01*
X75691999Y-75345889D01*
X75650258Y-75350000D01*
X75650251Y-75350000D01*
X75541013Y-75360759D01*
X75525370Y-75362300D01*
X75365145Y-75410903D01*
X75217481Y-75489832D01*
X75088052Y-75596052D01*
X75061439Y-75628480D01*
X73053920Y-77636000D01*
X72045020Y-77636000D01*
X72067963Y-77580611D01*
X72116000Y-77339114D01*
X72116000Y-77092886D01*
X72067963Y-76851389D01*
X71973735Y-76623903D01*
X71945068Y-76581000D01*
X71973735Y-76538097D01*
X72067963Y-76310611D01*
X72116000Y-76069114D01*
X72116000Y-75822886D01*
X72067963Y-75581389D01*
X71973735Y-75353903D01*
X71945068Y-75311000D01*
X71973735Y-75268097D01*
X72067963Y-75040611D01*
X72116000Y-74799114D01*
X72116000Y-74552886D01*
X72067963Y-74311389D01*
X71988690Y-74120007D01*
X72014480Y-74034991D01*
X72027184Y-73906000D01*
X72024000Y-73674500D01*
X71859500Y-73510000D01*
X71317433Y-73510000D01*
X71230611Y-73474037D01*
X70989114Y-73426000D01*
X70742886Y-73426000D01*
X70501389Y-73474037D01*
X70414567Y-73510000D01*
X69872500Y-73510000D01*
X69708000Y-73674500D01*
X69704816Y-73906000D01*
X69717520Y-74034991D01*
X69743310Y-74120007D01*
X69664037Y-74311389D01*
X69616000Y-74552886D01*
X54950000Y-74552886D01*
X54950000Y-72906000D01*
X69704816Y-72906000D01*
X69708000Y-73137500D01*
X69872500Y-73302000D01*
X70762000Y-73302000D01*
X70762000Y-72412500D01*
X70970000Y-72412500D01*
X70970000Y-73302000D01*
X71859500Y-73302000D01*
X72024000Y-73137500D01*
X72027184Y-72906000D01*
X72014480Y-72777009D01*
X71976854Y-72652976D01*
X71915754Y-72538666D01*
X71833528Y-72438472D01*
X71733334Y-72356246D01*
X71619024Y-72295146D01*
X71494991Y-72257520D01*
X71366000Y-72244816D01*
X71134500Y-72248000D01*
X70970000Y-72412500D01*
X70762000Y-72412500D01*
X70597500Y-72248000D01*
X70366000Y-72244816D01*
X70237009Y-72257520D01*
X70112976Y-72295146D01*
X69998666Y-72356246D01*
X69898472Y-72438472D01*
X69816246Y-72538666D01*
X69755146Y-72652976D01*
X69717520Y-72777009D01*
X69704816Y-72906000D01*
X54950000Y-72906000D01*
X54950000Y-67511620D01*
X57321220Y-67511620D01*
X57321220Y-67968380D01*
X57410329Y-68416363D01*
X57585123Y-68838354D01*
X57838886Y-69218136D01*
X58161864Y-69541114D01*
X58541646Y-69794877D01*
X58963637Y-69969671D01*
X59411620Y-70058780D01*
X59868380Y-70058780D01*
X60316363Y-69969671D01*
X60738354Y-69794877D01*
X61118136Y-69541114D01*
X61441114Y-69218136D01*
X61694877Y-68838354D01*
X61869671Y-68416363D01*
X61958780Y-67968380D01*
X61958780Y-67511620D01*
X61869671Y-67063637D01*
X61694877Y-66641646D01*
X61441114Y-66261864D01*
X61118136Y-65938886D01*
X60738354Y-65685123D01*
X60316363Y-65510329D01*
X59868380Y-65421220D01*
X59411620Y-65421220D01*
X58963637Y-65510329D01*
X58541646Y-65685123D01*
X58161864Y-65938886D01*
X57838886Y-66261864D01*
X57585123Y-66641646D01*
X57410329Y-67063637D01*
X57321220Y-67511620D01*
X54950000Y-67511620D01*
X54950000Y-50501477D01*
X55904320Y-50346056D01*
X55952434Y-50334505D01*
X56000779Y-50324229D01*
X56021054Y-50318031D01*
X56021059Y-50318030D01*
X56021063Y-50318028D01*
X57009186Y-50001728D01*
X57055077Y-49983187D01*
X57101360Y-49965882D01*
X57120500Y-49956754D01*
X58051022Y-49497871D01*
X58093644Y-49472765D01*
X58136886Y-49448795D01*
X58154466Y-49436938D01*
X59006940Y-48845556D01*
X59045387Y-48814422D01*
X59084608Y-48784327D01*
X59100242Y-48770002D01*
X59855940Y-48059111D01*
X59889365Y-48022634D01*
X59900001Y-48011620D01*
X64321220Y-48011620D01*
X64321220Y-48468380D01*
X64410329Y-48916363D01*
X64585123Y-49338354D01*
X64838886Y-49718136D01*
X65161864Y-50041114D01*
X65541646Y-50294877D01*
X65963637Y-50469671D01*
X66411620Y-50558780D01*
X66868380Y-50558780D01*
X67316363Y-50469671D01*
X67738354Y-50294877D01*
X68118136Y-50041114D01*
X68441114Y-49718136D01*
X68694877Y-49338354D01*
X68869671Y-48916363D01*
X68958780Y-48468380D01*
X68958780Y-48011620D01*
X68869671Y-47563637D01*
X68694877Y-47141646D01*
X68441114Y-46761864D01*
X68118136Y-46438886D01*
X67738354Y-46185123D01*
X67316363Y-46010329D01*
X66868380Y-45921220D01*
X66411620Y-45921220D01*
X65963637Y-46010329D01*
X65541646Y-46185123D01*
X65161864Y-46438886D01*
X64838886Y-46761864D01*
X64585123Y-47141646D01*
X64410329Y-47563637D01*
X64321220Y-48011620D01*
X59900001Y-48011620D01*
X59923703Y-47987076D01*
X59937048Y-47970597D01*
X60579370Y-47155816D01*
X60607037Y-47114798D01*
X60635741Y-47074556D01*
X60646504Y-47056286D01*
X61161338Y-46155514D01*
X61182630Y-46110875D01*
X61205080Y-46066813D01*
X61213023Y-46047153D01*
X61589059Y-45080177D01*
X61603522Y-45032872D01*
X61619210Y-44985986D01*
X61624157Y-44965378D01*
X61624161Y-44965366D01*
X61624163Y-44965356D01*
X61853138Y-43953431D01*
X61860450Y-43904508D01*
X61869035Y-43855818D01*
X61870884Y-43834694D01*
X61892040Y-43550000D01*
X122378523Y-43550000D01*
X122533944Y-44504320D01*
G37*
X122533944Y-44504320D02*
X122545495Y-44552434D01*
X122555771Y-44600779D01*
X122561970Y-44621058D01*
X122878272Y-45609186D01*
X122896813Y-45655077D01*
X122914118Y-45701360D01*
X122923246Y-45720500D01*
X123382129Y-46651022D01*
X123407235Y-46693644D01*
X123431205Y-46736886D01*
X123443062Y-46754466D01*
X124034444Y-47606940D01*
X124065578Y-47645387D01*
X124095673Y-47684608D01*
X124109998Y-47700242D01*
X124820889Y-48455940D01*
X124857366Y-48489365D01*
X124892924Y-48523703D01*
X124909403Y-48537048D01*
X125724184Y-49179370D01*
X125765202Y-49207037D01*
X125805444Y-49235741D01*
X125823714Y-49246504D01*
X126724486Y-49761338D01*
X126769125Y-49782630D01*
X126813187Y-49805080D01*
X126832847Y-49813023D01*
X127799823Y-50189059D01*
X127847128Y-50203522D01*
X127894014Y-50219210D01*
X127914622Y-50224157D01*
X127914634Y-50224161D01*
X127914644Y-50224163D01*
X128926569Y-50453138D01*
X128975492Y-50460450D01*
X129024182Y-50469035D01*
X129045306Y-50470884D01*
X129330001Y-50492041D01*
X129330000Y-85985331D01*
X128560115Y-86088010D01*
X128541423Y-86091965D01*
X128522413Y-86093945D01*
X128439902Y-86113445D01*
X127425040Y-86410146D01*
X127407158Y-86416884D01*
X127388669Y-86421716D01*
X127310079Y-86453464D01*
X127310057Y-86453472D01*
X127310051Y-86453475D01*
X126351752Y-86900268D01*
X126335094Y-86909634D01*
X126317549Y-86917207D01*
X126244645Y-86960489D01*
X125364949Y-87547098D01*
X125349902Y-87558874D01*
X125333702Y-87569015D01*
X125268183Y-87622826D01*
X124487340Y-88335749D01*
X124474247Y-88349666D01*
X124459768Y-88362140D01*
X124403143Y-88425243D01*
X123739122Y-89248074D01*
X123728288Y-89263806D01*
X123715859Y-89278331D01*
X123669431Y-89349273D01*
X123137512Y-90263077D01*
X123129181Y-90280270D01*
X123119093Y-90296506D01*
X123083930Y-90373654D01*
X122696353Y-91357402D01*
X122690718Y-91375659D01*
X122683203Y-91393232D01*
X122660114Y-91474811D01*
X122425800Y-92505866D01*
X122422991Y-92524766D01*
X122418221Y-92543273D01*
X122407736Y-92627407D01*
X122386028Y-92930000D01*
X61906428Y-92930000D01*
X61746119Y-91945666D01*
X61734569Y-91897556D01*
X61724292Y-91849206D01*
X61718093Y-91828928D01*
X61401786Y-90840790D01*
X61383256Y-90794925D01*
X61365941Y-90748615D01*
X61356816Y-90729482D01*
X61356813Y-90729475D01*
X61356810Y-90729470D01*
X60897926Y-89798945D01*
X60872813Y-89756311D01*
X60848850Y-89713081D01*
X60836993Y-89695501D01*
X60245605Y-88843020D01*
X60214477Y-88804580D01*
X60184377Y-88765353D01*
X60170052Y-88749719D01*
X59459156Y-87994013D01*
X59422676Y-87960585D01*
X59387119Y-87926249D01*
X59370649Y-87912911D01*
X59370641Y-87912904D01*
X59370634Y-87912899D01*
X58555852Y-87270577D01*
X58514823Y-87242902D01*
X58474592Y-87214206D01*
X58456322Y-87203443D01*
X58456321Y-87203442D01*
X58456316Y-87203440D01*
X58120702Y-87011620D01*
X64321220Y-87011620D01*
X64321220Y-87468380D01*
X64410329Y-87916363D01*
X64585123Y-88338354D01*
X64838886Y-88718136D01*
X65161864Y-89041114D01*
X65541646Y-89294877D01*
X65963637Y-89469671D01*
X66411620Y-89558780D01*
X66868380Y-89558780D01*
X67316363Y-89469671D01*
X67738354Y-89294877D01*
X68118136Y-89041114D01*
X68441114Y-88718136D01*
X68694877Y-88338354D01*
X68869671Y-87916363D01*
X68958780Y-87468380D01*
X68958780Y-87011620D01*
X114321220Y-87011620D01*
X114321220Y-87468380D01*
X114410329Y-87916363D01*
X114585123Y-88338354D01*
X114838886Y-88718136D01*
X115161864Y-89041114D01*
X115541646Y-89294877D01*
X115963637Y-89469671D01*
X116411620Y-89558780D01*
X116868380Y-89558780D01*
X117316363Y-89469671D01*
X117738354Y-89294877D01*
X118118136Y-89041114D01*
X118441114Y-88718136D01*
X118694877Y-88338354D01*
X118869671Y-87916363D01*
X118958780Y-87468380D01*
X118958780Y-87011620D01*
X118869671Y-86563637D01*
X118694877Y-86141646D01*
X118441114Y-85761864D01*
X118118136Y-85438886D01*
X117738354Y-85185123D01*
X117316363Y-85010329D01*
X116868380Y-84921220D01*
X116411620Y-84921220D01*
X115963637Y-85010329D01*
X115541646Y-85185123D01*
X115161864Y-85438886D01*
X114838886Y-85761864D01*
X114585123Y-86141646D01*
X114410329Y-86563637D01*
X114321220Y-87011620D01*
X68958780Y-87011620D01*
X68869671Y-86563637D01*
X68694877Y-86141646D01*
X68441114Y-85761864D01*
X68118136Y-85438886D01*
X67738354Y-85185123D01*
X67316363Y-85010329D01*
X66868380Y-84921220D01*
X66411620Y-84921220D01*
X65963637Y-85010329D01*
X65541646Y-85185123D01*
X65161864Y-85438886D01*
X64838886Y-85761864D01*
X64585123Y-86141646D01*
X64410329Y-86563637D01*
X64321220Y-87011620D01*
X58120702Y-87011620D01*
X57555541Y-86688604D01*
X57510867Y-86667296D01*
X57466841Y-86644863D01*
X57447194Y-86636925D01*
X57447180Y-86636918D01*
X57447168Y-86636914D01*
X56480195Y-86260879D01*
X56432891Y-86246417D01*
X56386005Y-86230729D01*
X56365397Y-86225782D01*
X56365385Y-86225778D01*
X56365375Y-86225776D01*
X55353440Y-85996799D01*
X55304517Y-85989487D01*
X55255827Y-85980902D01*
X55234703Y-85979053D01*
X54950000Y-85957896D01*
X54950000Y-74552886D01*
X69616000Y-74552886D01*
X69616000Y-74799114D01*
X69664037Y-75040611D01*
X69758265Y-75268097D01*
X69786932Y-75311000D01*
X69758265Y-75353903D01*
X69664037Y-75581389D01*
X69616000Y-75822886D01*
X69616000Y-76069114D01*
X69664037Y-76310611D01*
X69758265Y-76538097D01*
X69786932Y-76581000D01*
X69758265Y-76623903D01*
X69664037Y-76851389D01*
X69616000Y-77092886D01*
X69616000Y-77339114D01*
X69664037Y-77580611D01*
X69758265Y-77808097D01*
X69786932Y-77851000D01*
X69758265Y-77893903D01*
X69664037Y-78121389D01*
X69616000Y-78362886D01*
X69616000Y-78609114D01*
X69664037Y-78850611D01*
X69758265Y-79078097D01*
X69786932Y-79121000D01*
X69758265Y-79163903D01*
X69664037Y-79391389D01*
X69616000Y-79632886D01*
X69616000Y-79879114D01*
X69664037Y-80120611D01*
X69758265Y-80348097D01*
X69895062Y-80552828D01*
X70069172Y-80726938D01*
X70273903Y-80863735D01*
X70501389Y-80957963D01*
X70742886Y-81006000D01*
X70989114Y-81006000D01*
X71230611Y-80957963D01*
X71458097Y-80863735D01*
X71662828Y-80726938D01*
X71836938Y-80552828D01*
X71973735Y-80348097D01*
X72067963Y-80120611D01*
X72116000Y-79879114D01*
X72116000Y-79632886D01*
X72067963Y-79391389D01*
X72045020Y-79336000D01*
X73364259Y-79336000D01*
X73406000Y-79340111D01*
X73447741Y-79336000D01*
X73447749Y-79336000D01*
X73572629Y-79323700D01*
X73732855Y-79275097D01*
X73880519Y-79196168D01*
X74009948Y-79089948D01*
X74036566Y-79057514D01*
X76044081Y-77050000D01*
X78309753Y-77050000D01*
X78298000Y-77169336D01*
X78298000Y-77169346D01*
X78293405Y-77216000D01*
X78298000Y-77262655D01*
X78298001Y-79772000D01*
X78281117Y-79772000D01*
X78231999Y-79767162D01*
X78182881Y-79772000D01*
X78182880Y-79772000D01*
X78035966Y-79786470D01*
X77847465Y-79843651D01*
X77673742Y-79936508D01*
X77521472Y-80061472D01*
X77490151Y-80099637D01*
X77305633Y-80284155D01*
X77267473Y-80315472D01*
X77142509Y-80467742D01*
X77115645Y-80518001D01*
X77049651Y-80641466D01*
X76992470Y-80829966D01*
X76973162Y-81026000D01*
X76978001Y-81075129D01*
X76978000Y-81550000D01*
X75513571Y-81550000D01*
X75490274Y-81540350D01*
X75287416Y-81500000D01*
X75080584Y-81500000D01*
X74877726Y-81540350D01*
X74686638Y-81619502D01*
X74514664Y-81734411D01*
X74368411Y-81880664D01*
X74253502Y-82052638D01*
X74174350Y-82243726D01*
X74134000Y-82446584D01*
X74134000Y-82653416D01*
X74174350Y-82856274D01*
X74253502Y-83047362D01*
X74368411Y-83219336D01*
X74514664Y-83365589D01*
X74686638Y-83480498D01*
X74877726Y-83559650D01*
X75080584Y-83600000D01*
X75287416Y-83600000D01*
X75490274Y-83559650D01*
X75513571Y-83550000D01*
X77140429Y-83550000D01*
X77163726Y-83559650D01*
X77366584Y-83600000D01*
X77573416Y-83600000D01*
X77776274Y-83559650D01*
X77967362Y-83480498D01*
X78139336Y-83365589D01*
X78285589Y-83219336D01*
X78400498Y-83047362D01*
X78410148Y-83024064D01*
X78650368Y-82783845D01*
X78688528Y-82752528D01*
X78813492Y-82600258D01*
X78906349Y-82426535D01*
X78963530Y-82238034D01*
X78978000Y-82091120D01*
X78978000Y-82091111D01*
X78982837Y-82042001D01*
X78978000Y-81992891D01*
X78978000Y-81772000D01*
X79151419Y-81772000D01*
X79174716Y-81781650D01*
X79377574Y-81822000D01*
X79584406Y-81822000D01*
X79787264Y-81781650D01*
X79810561Y-81772000D01*
X80057788Y-81772000D01*
X81099852Y-82814065D01*
X81109502Y-82837362D01*
X81113034Y-82842648D01*
X80869920Y-83005091D01*
X80654024Y-83220987D01*
X80484396Y-83474855D01*
X80367553Y-83756937D01*
X80307988Y-84056393D01*
X80307988Y-84361717D01*
X80367553Y-84661173D01*
X80484396Y-84943255D01*
X80654024Y-85197123D01*
X80869920Y-85413019D01*
X81123788Y-85582647D01*
X81405870Y-85699490D01*
X81705326Y-85759055D01*
X82010650Y-85759055D01*
X82310106Y-85699490D01*
X82592188Y-85582647D01*
X82846056Y-85413019D01*
X83050020Y-85209055D01*
X93821825Y-85209055D01*
X93870945Y-85213893D01*
X93920065Y-85209055D01*
X94066979Y-85194585D01*
X94255480Y-85137404D01*
X94429203Y-85044547D01*
X94581473Y-84919583D01*
X94612794Y-84881418D01*
X96512368Y-82981845D01*
X96550528Y-82950528D01*
X96675492Y-82798258D01*
X96768349Y-82624535D01*
X96825530Y-82436034D01*
X96840000Y-82289120D01*
X96840000Y-82289119D01*
X96844838Y-82240001D01*
X96840000Y-82190883D01*
X96840000Y-80243628D01*
X97090000Y-80243628D01*
X97237026Y-80229147D01*
X97378401Y-80186261D01*
X97508693Y-80116619D01*
X97622895Y-80022895D01*
X97716619Y-79908693D01*
X97786261Y-79778401D01*
X97829147Y-79637026D01*
X97837647Y-79550724D01*
X122476354Y-79550724D01*
X122598876Y-79849919D01*
X122932960Y-80022098D01*
X123294216Y-80125792D01*
X123668760Y-80157015D01*
X124042199Y-80114569D01*
X124400181Y-80000085D01*
X124681124Y-79849919D01*
X124803646Y-79550724D01*
X123640000Y-78387078D01*
X122476354Y-79550724D01*
X97837647Y-79550724D01*
X97843628Y-79490000D01*
X97843628Y-78268760D01*
X121722985Y-78268760D01*
X121765431Y-78642199D01*
X121879915Y-79000181D01*
X122030081Y-79281124D01*
X122329276Y-79403646D01*
X123492922Y-78240000D01*
X123787078Y-78240000D01*
X124950724Y-79403646D01*
X125249919Y-79281124D01*
X125422098Y-78947040D01*
X125525792Y-78585784D01*
X125557015Y-78211240D01*
X125514569Y-77837801D01*
X125400085Y-77479819D01*
X125249919Y-77198876D01*
X124950724Y-77076354D01*
X123787078Y-78240000D01*
X123492922Y-78240000D01*
X122329276Y-77076354D01*
X122030081Y-77198876D01*
X121857902Y-77532960D01*
X121754208Y-77894216D01*
X121722985Y-78268760D01*
X97843628Y-78268760D01*
X97843628Y-76990000D01*
X97837648Y-76929276D01*
X122476354Y-76929276D01*
X123640000Y-78092922D01*
X124803646Y-76929276D01*
X124681124Y-76630081D01*
X124347040Y-76457902D01*
X123985784Y-76354208D01*
X123611240Y-76322985D01*
X123237801Y-76365431D01*
X122879819Y-76479915D01*
X122598876Y-76630081D01*
X122476354Y-76929276D01*
X97837648Y-76929276D01*
X97829147Y-76842974D01*
X97786261Y-76701599D01*
X97716619Y-76571307D01*
X97622895Y-76457105D01*
X97508693Y-76363381D01*
X97378401Y-76293739D01*
X97237026Y-76250853D01*
X97090000Y-76236372D01*
X95084000Y-76236372D01*
X95084000Y-67511620D01*
X121321220Y-67511620D01*
X121321220Y-67968380D01*
X121410329Y-68416363D01*
X121585123Y-68838354D01*
X121838886Y-69218136D01*
X122161864Y-69541114D01*
X122541646Y-69794877D01*
X122963637Y-69969671D01*
X123411620Y-70058780D01*
X123868380Y-70058780D01*
X124316363Y-69969671D01*
X124738354Y-69794877D01*
X125118136Y-69541114D01*
X125441114Y-69218136D01*
X125694877Y-68838354D01*
X125869671Y-68416363D01*
X125958780Y-67968380D01*
X125958780Y-67511620D01*
X125869671Y-67063637D01*
X125694877Y-66641646D01*
X125441114Y-66261864D01*
X125118136Y-65938886D01*
X124738354Y-65685123D01*
X124316363Y-65510329D01*
X123868380Y-65421220D01*
X123411620Y-65421220D01*
X122963637Y-65510329D01*
X122541646Y-65685123D01*
X122161864Y-65938886D01*
X121838886Y-66261864D01*
X121585123Y-66641646D01*
X121410329Y-67063637D01*
X121321220Y-67511620D01*
X95084000Y-67511620D01*
X95084000Y-55227836D01*
X95164498Y-55107362D01*
X95243650Y-54916274D01*
X95284000Y-54713416D01*
X95284000Y-54544000D01*
X99534000Y-54544000D01*
X99534000Y-54713416D01*
X99574350Y-54916274D01*
X99584001Y-54939573D01*
X99584000Y-58134880D01*
X99579162Y-58184000D01*
X99598470Y-58380034D01*
X99637182Y-58507651D01*
X99655651Y-58568534D01*
X99748508Y-58742258D01*
X99873472Y-58894528D01*
X99911637Y-58925849D01*
X102055479Y-61069692D01*
X102086796Y-61107852D01*
X102183121Y-61186903D01*
X102239066Y-61232816D01*
X102412789Y-61325673D01*
X102601290Y-61382854D01*
X102797324Y-61402162D01*
X102846444Y-61397324D01*
X112063112Y-61397324D01*
X114337627Y-63671840D01*
X114337632Y-63671844D01*
X114369851Y-63704064D01*
X114379502Y-63727362D01*
X114494411Y-63899336D01*
X114640664Y-64045589D01*
X114812638Y-64160498D01*
X115003726Y-64239650D01*
X115206584Y-64280000D01*
X115245999Y-64280000D01*
X115245999Y-64361075D01*
X115130410Y-64476664D01*
X115015501Y-64648638D01*
X114936349Y-64839726D01*
X114895999Y-65042584D01*
X114895999Y-65249416D01*
X114936349Y-65452274D01*
X115015501Y-65643362D01*
X115130410Y-65815336D01*
X115276663Y-65961589D01*
X115448637Y-66076498D01*
X115639725Y-66155650D01*
X115842583Y-66196000D01*
X116049415Y-66196000D01*
X116252273Y-66155650D01*
X116443361Y-66076498D01*
X116615335Y-65961589D01*
X116761588Y-65815336D01*
X116876497Y-65643362D01*
X116886147Y-65620064D01*
X116918365Y-65587846D01*
X116956526Y-65556529D01*
X117081490Y-65404259D01*
X117174347Y-65230536D01*
X117231528Y-65042035D01*
X117245998Y-64895121D01*
X117250836Y-64846001D01*
X117245998Y-64796881D01*
X117245998Y-62701118D01*
X117250836Y-62651998D01*
X117231528Y-62455963D01*
X117174347Y-62267463D01*
X117173727Y-62266303D01*
X117081490Y-62093740D01*
X116956526Y-61941470D01*
X116918366Y-61910153D01*
X113771849Y-58763637D01*
X113740528Y-58725472D01*
X113588258Y-58600508D01*
X113414535Y-58507651D01*
X113226034Y-58450470D01*
X113079120Y-58436000D01*
X113030000Y-58431162D01*
X112980880Y-58436000D01*
X110474000Y-58436000D01*
X110474000Y-56971571D01*
X110483650Y-56948274D01*
X110524000Y-56745416D01*
X110524000Y-56538584D01*
X110483650Y-56335726D01*
X110404498Y-56144638D01*
X110289589Y-55972664D01*
X110143336Y-55826411D01*
X109971362Y-55711502D01*
X109780274Y-55632350D01*
X109577416Y-55592000D01*
X109370584Y-55592000D01*
X109167726Y-55632350D01*
X108976638Y-55711502D01*
X108804664Y-55826411D01*
X108658411Y-55972664D01*
X108543502Y-56144638D01*
X108464350Y-56335726D01*
X108424000Y-56538584D01*
X108424000Y-56745416D01*
X108464350Y-56948274D01*
X108474001Y-56971573D01*
X108474000Y-59106429D01*
X108464350Y-59129726D01*
X108424000Y-59332584D01*
X108424000Y-59397324D01*
X103211537Y-59397324D01*
X101584000Y-57769788D01*
X101584000Y-54939571D01*
X101593650Y-54916274D01*
X101634000Y-54713416D01*
X101634000Y-54506584D01*
X101593650Y-54303726D01*
X101534000Y-54159720D01*
X101534000Y-53640665D01*
X101538596Y-53594000D01*
X101520254Y-53407768D01*
X101465932Y-53228692D01*
X101377718Y-53063655D01*
X101259001Y-52918999D01*
X101114345Y-52800282D01*
X100949308Y-52712068D01*
X100770232Y-52657746D01*
X100630665Y-52644000D01*
X100630664Y-52644000D01*
X100584000Y-52639404D01*
X100537335Y-52644000D01*
X93518665Y-52644000D01*
X93472000Y-52639404D01*
X93425336Y-52644000D01*
X93425335Y-52644000D01*
X93285768Y-52657746D01*
X93106692Y-52712068D01*
X92941655Y-52800282D01*
X92796999Y-52918999D01*
X92678282Y-53063655D01*
X92590068Y-53228692D01*
X92535746Y-53407768D01*
X92517404Y-53594000D01*
X92522001Y-53640674D01*
X92522000Y-55505920D01*
X91816566Y-54800486D01*
X91789948Y-54768052D01*
X91660519Y-54661832D01*
X91512855Y-54582903D01*
X91352629Y-54534300D01*
X91227749Y-54522000D01*
X91227741Y-54522000D01*
X91186000Y-54517889D01*
X91144259Y-54522000D01*
X89696000Y-54522000D01*
X89696000Y-54506584D01*
X89655650Y-54303726D01*
X89576498Y-54112638D01*
X89461589Y-53940664D01*
X89315336Y-53794411D01*
X89143362Y-53679502D01*
X88952274Y-53600350D01*
X88749416Y-53560000D01*
X88542584Y-53560000D01*
X88339726Y-53600350D01*
X88148638Y-53679502D01*
X88028164Y-53760000D01*
X87576543Y-53760000D01*
X87623650Y-53646274D01*
X87664000Y-53443416D01*
X87664000Y-53236584D01*
X87623650Y-53033726D01*
X87544498Y-52842638D01*
X87464000Y-52722164D01*
X87464000Y-51095740D01*
X87468111Y-51053999D01*
X87464000Y-51012258D01*
X87464000Y-51012251D01*
X87451700Y-50887371D01*
X87435511Y-50834000D01*
X87403097Y-50727145D01*
X87366852Y-50659336D01*
X87324168Y-50579481D01*
X87217948Y-50450052D01*
X87185519Y-50423438D01*
X86672081Y-49910000D01*
X86978251Y-49910000D01*
X87020000Y-49914112D01*
X87061748Y-49910000D01*
X87061749Y-49910000D01*
X87186629Y-49897700D01*
X87346855Y-49849097D01*
X87494519Y-49770168D01*
X87623948Y-49663948D01*
X87730168Y-49534519D01*
X87809097Y-49386855D01*
X87857700Y-49226629D01*
X87874112Y-49060000D01*
X87870000Y-49018251D01*
X87870000Y-47970000D01*
X87935429Y-47970000D01*
X87958726Y-47979650D01*
X88161584Y-48020000D01*
X88368416Y-48020000D01*
X88571274Y-47979650D01*
X88762362Y-47900498D01*
X88934336Y-47785589D01*
X89080589Y-47639336D01*
X89195498Y-47467362D01*
X89274650Y-47276274D01*
X89311435Y-47091338D01*
X89636000Y-47091338D01*
X89636000Y-47396662D01*
X89695565Y-47696118D01*
X89812408Y-47978200D01*
X89982036Y-48232068D01*
X90197932Y-48447964D01*
X90451800Y-48617592D01*
X90733882Y-48734435D01*
X91033338Y-48794000D01*
X91338662Y-48794000D01*
X91638118Y-48734435D01*
X91920200Y-48617592D01*
X92174068Y-48447964D01*
X92378032Y-48244000D01*
X100423788Y-48244000D01*
X101366155Y-49186368D01*
X101397472Y-49224528D01*
X101549742Y-49349492D01*
X101723465Y-49442349D01*
X101911966Y-49499530D01*
X102058880Y-49514000D01*
X102058881Y-49514000D01*
X102107999Y-49518838D01*
X102157117Y-49514000D01*
X106475595Y-49514000D01*
X106656584Y-49550000D01*
X106863416Y-49550000D01*
X107066274Y-49509650D01*
X107257362Y-49430498D01*
X107429336Y-49315589D01*
X107575589Y-49169336D01*
X107690498Y-48997362D01*
X107769650Y-48806274D01*
X107810000Y-48603416D01*
X107810000Y-48396584D01*
X107769650Y-48193726D01*
X107694219Y-48011620D01*
X114321220Y-48011620D01*
X114321220Y-48468380D01*
X114410329Y-48916363D01*
X114585123Y-49338354D01*
X114838886Y-49718136D01*
X115161864Y-50041114D01*
X115541646Y-50294877D01*
X115963637Y-50469671D01*
X116411620Y-50558780D01*
X116868380Y-50558780D01*
X117316363Y-50469671D01*
X117738354Y-50294877D01*
X118118136Y-50041114D01*
X118441114Y-49718136D01*
X118694877Y-49338354D01*
X118869671Y-48916363D01*
X118958780Y-48468380D01*
X118958780Y-48011620D01*
X118869671Y-47563637D01*
X118694877Y-47141646D01*
X118441114Y-46761864D01*
X118118136Y-46438886D01*
X117738354Y-46185123D01*
X117316363Y-46010329D01*
X116868380Y-45921220D01*
X116411620Y-45921220D01*
X115963637Y-46010329D01*
X115541646Y-46185123D01*
X115161864Y-46438886D01*
X114838886Y-46761864D01*
X114585123Y-47141646D01*
X114410329Y-47563637D01*
X114321220Y-48011620D01*
X107694219Y-48011620D01*
X107690498Y-48002638D01*
X107575589Y-47830664D01*
X107429336Y-47684411D01*
X107257362Y-47569502D01*
X107066274Y-47490350D01*
X106863416Y-47450000D01*
X106656584Y-47450000D01*
X106453726Y-47490350D01*
X106396630Y-47514000D01*
X102522213Y-47514000D01*
X101579849Y-46571637D01*
X101548528Y-46533472D01*
X101396258Y-46408508D01*
X101222535Y-46315651D01*
X101034034Y-46258470D01*
X100887120Y-46244000D01*
X100838000Y-46239162D01*
X100788880Y-46244000D01*
X92378032Y-46244000D01*
X92174068Y-46040036D01*
X91920200Y-45870408D01*
X91638118Y-45753565D01*
X91338662Y-45694000D01*
X91033338Y-45694000D01*
X90733882Y-45753565D01*
X90451800Y-45870408D01*
X90197932Y-46040036D01*
X89982036Y-46255932D01*
X89812408Y-46509800D01*
X89695565Y-46791882D01*
X89636000Y-47091338D01*
X89311435Y-47091338D01*
X89315000Y-47073416D01*
X89315000Y-46866584D01*
X89274650Y-46663726D01*
X89195498Y-46472638D01*
X89080589Y-46300664D01*
X88934336Y-46154411D01*
X88762362Y-46039502D01*
X88571274Y-45960350D01*
X88368416Y-45920000D01*
X88161584Y-45920000D01*
X87958726Y-45960350D01*
X87935429Y-45970000D01*
X87349571Y-45970000D01*
X87326274Y-45960350D01*
X87123416Y-45920000D01*
X86916584Y-45920000D01*
X86713726Y-45960350D01*
X86522638Y-46039502D01*
X86350664Y-46154411D01*
X86204411Y-46300664D01*
X86089502Y-46472638D01*
X86010350Y-46663726D01*
X85970000Y-46866584D01*
X85970000Y-47073416D01*
X86010350Y-47276274D01*
X86089502Y-47467362D01*
X86170001Y-47587837D01*
X86170000Y-48210000D01*
X83823737Y-48210000D01*
X83781999Y-48205889D01*
X83740261Y-48210000D01*
X83740251Y-48210000D01*
X83615371Y-48222300D01*
X83455145Y-48270903D01*
X83307481Y-48349832D01*
X83178052Y-48456052D01*
X83151438Y-48488481D01*
X82740481Y-48899439D01*
X82708053Y-48926052D01*
X82601833Y-49055481D01*
X82577102Y-49101749D01*
X82522903Y-49203146D01*
X82474300Y-49363371D01*
X82457889Y-49530000D01*
X82462001Y-49571751D01*
X82462000Y-53760000D01*
X82311740Y-53760000D01*
X82269999Y-53755889D01*
X82228258Y-53760000D01*
X82228251Y-53760000D01*
X82119013Y-53770759D01*
X82103370Y-53772300D01*
X82030479Y-53794411D01*
X81943145Y-53820903D01*
X81795481Y-53899832D01*
X81666052Y-54006052D01*
X81639434Y-54038486D01*
X81168481Y-54509439D01*
X81136053Y-54536052D01*
X81029833Y-54665481D01*
X81025537Y-54673519D01*
X80950903Y-54813146D01*
X80902300Y-54973371D01*
X80885889Y-55140000D01*
X80890001Y-55181751D01*
X80890000Y-57162523D01*
X80885889Y-57204264D01*
X80890000Y-57246005D01*
X80890000Y-57246012D01*
X80899513Y-57342596D01*
X80902300Y-57370893D01*
X80944497Y-57510000D01*
X80950903Y-57531118D01*
X81029832Y-57678782D01*
X81136052Y-57808212D01*
X81168486Y-57834830D01*
X81415170Y-58081514D01*
X81441788Y-58113948D01*
X81520000Y-58178135D01*
X81520001Y-58890000D01*
X76681740Y-58890000D01*
X76639999Y-58885889D01*
X76598258Y-58890000D01*
X76588251Y-58890000D01*
X76463371Y-58902300D01*
X76303145Y-58950903D01*
X76155481Y-59029832D01*
X76026052Y-59136052D01*
X75953667Y-59224253D01*
X75835005Y-59342915D01*
X75690000Y-59197910D01*
X75690000Y-54357836D01*
X75770498Y-54237362D01*
X75849650Y-54046274D01*
X75890000Y-53843416D01*
X75890000Y-53636584D01*
X75849650Y-53433726D01*
X75770498Y-53242638D01*
X75655589Y-53070664D01*
X75509336Y-52924411D01*
X75337362Y-52809502D01*
X75146274Y-52730350D01*
X74943416Y-52690000D01*
X74736584Y-52690000D01*
X74533726Y-52730350D01*
X74342638Y-52809502D01*
X74170664Y-52924411D01*
X74024411Y-53070664D01*
X73909502Y-53242638D01*
X73830350Y-53433726D01*
X73790000Y-53636584D01*
X73790000Y-53843416D01*
X73830350Y-54046274D01*
X73909502Y-54237362D01*
X73990001Y-54357838D01*
X73990000Y-58280991D01*
X73940229Y-58280991D01*
X73737371Y-58321341D01*
X73546283Y-58400493D01*
X73374309Y-58515402D01*
X73228056Y-58661655D01*
X73113147Y-58833629D01*
X73033995Y-59024717D01*
X72993645Y-59227575D01*
X72993645Y-59434407D01*
X73033995Y-59637265D01*
X73113147Y-59828353D01*
X73228056Y-60000327D01*
X73374309Y-60146580D01*
X73546283Y-60261489D01*
X73737371Y-60340641D01*
X73940229Y-60380991D01*
X74147061Y-60380991D01*
X74349919Y-60340641D01*
X74405534Y-60317604D01*
X75152083Y-61064154D01*
X75180350Y-61206264D01*
X75259502Y-61397352D01*
X75374411Y-61569326D01*
X75520664Y-61715579D01*
X75692638Y-61830488D01*
X75883726Y-61909640D01*
X76086584Y-61949990D01*
X76293416Y-61949990D01*
X76496274Y-61909640D01*
X76687362Y-61830488D01*
X76859336Y-61715579D01*
X77005589Y-61569326D01*
X77120498Y-61397352D01*
X77199650Y-61206264D01*
X77240000Y-61003406D01*
X77240000Y-60796574D01*
X77199650Y-60593716D01*
X77198111Y-60590000D01*
X82328252Y-60590000D01*
X82370000Y-60594112D01*
X82536629Y-60577700D01*
X82696855Y-60529097D01*
X82844519Y-60450168D01*
X82973948Y-60343948D01*
X83080168Y-60214519D01*
X83159097Y-60066855D01*
X83207700Y-59906629D01*
X83220000Y-59781749D01*
X83224112Y-59740000D01*
X83220000Y-59698251D01*
X83220000Y-58244925D01*
X83285589Y-58179336D01*
X83400498Y-58007362D01*
X83479650Y-57816274D01*
X83520000Y-57613416D01*
X83520000Y-57406584D01*
X83479650Y-57203726D01*
X83400498Y-57012638D01*
X83285589Y-56840664D01*
X83139336Y-56694411D01*
X82967362Y-56579502D01*
X82776274Y-56500350D01*
X82590000Y-56463299D01*
X82590000Y-56134925D01*
X82642664Y-56187589D01*
X82814638Y-56302498D01*
X83005726Y-56381650D01*
X83208584Y-56422000D01*
X83415416Y-56422000D01*
X83618274Y-56381650D01*
X83809362Y-56302498D01*
X83929836Y-56222000D01*
X90833920Y-56222000D01*
X92114000Y-57502081D01*
X92114000Y-58473457D01*
X92000274Y-58426350D01*
X91858163Y-58398083D01*
X91816565Y-58356485D01*
X91789948Y-58324052D01*
X91660519Y-58217832D01*
X91512855Y-58138903D01*
X91352629Y-58090300D01*
X91227749Y-58078000D01*
X91227741Y-58078000D01*
X91186000Y-58073889D01*
X91144259Y-58078000D01*
X87163741Y-58078000D01*
X87122000Y-58073889D01*
X87080259Y-58078000D01*
X87080251Y-58078000D01*
X86955371Y-58090300D01*
X86795145Y-58138903D01*
X86647481Y-58217832D01*
X86518052Y-58324052D01*
X86491438Y-58356481D01*
X85788486Y-59059434D01*
X85756052Y-59086052D01*
X85704680Y-59148649D01*
X85701416Y-59148000D01*
X85494584Y-59148000D01*
X85291726Y-59188350D01*
X85100638Y-59267502D01*
X84928664Y-59382411D01*
X84782411Y-59528664D01*
X84667502Y-59700638D01*
X84588350Y-59891726D01*
X84548000Y-60094584D01*
X84548000Y-60301416D01*
X84588350Y-60504274D01*
X84667502Y-60695362D01*
X84782411Y-60867336D01*
X84880481Y-60965406D01*
X84875736Y-60966350D01*
X84684648Y-61045502D01*
X84564174Y-61126000D01*
X81389836Y-61126000D01*
X81269362Y-61045502D01*
X81078274Y-60966350D01*
X80875416Y-60926000D01*
X80668584Y-60926000D01*
X80465726Y-60966350D01*
X80274638Y-61045502D01*
X80102664Y-61160411D01*
X79956411Y-61306664D01*
X79841502Y-61478638D01*
X79762350Y-61669726D01*
X79722000Y-61872584D01*
X79722000Y-62079416D01*
X79762350Y-62282274D01*
X79841502Y-62473362D01*
X79956411Y-62645336D01*
X80102664Y-62791589D01*
X80274638Y-62906498D01*
X80465726Y-62985650D01*
X80668584Y-63026000D01*
X80875416Y-63026000D01*
X81078274Y-62985650D01*
X81269362Y-62906498D01*
X81389836Y-62826000D01*
X84564174Y-62826000D01*
X84684648Y-62906498D01*
X84875736Y-62985650D01*
X85014849Y-63013321D01*
X82868478Y-65159693D01*
X82793362Y-65109502D01*
X82602274Y-65030350D01*
X82399416Y-64990000D01*
X82192584Y-64990000D01*
X81989726Y-65030350D01*
X81798638Y-65109502D01*
X81678164Y-65190000D01*
X79543741Y-65190000D01*
X79502000Y-65185889D01*
X79460259Y-65190000D01*
X79460251Y-65190000D01*
X79335371Y-65202300D01*
X79175145Y-65250903D01*
X79027481Y-65329832D01*
X78898052Y-65436052D01*
X78871439Y-65468481D01*
X76898481Y-67441439D01*
X76866053Y-67468052D01*
X76759833Y-67597481D01*
X76746762Y-67621935D01*
X76680903Y-67745146D01*
X76632300Y-67905371D01*
X76615889Y-68072000D01*
X76620001Y-68113751D01*
X76620000Y-74820164D01*
X76539502Y-74940638D01*
X76460350Y-75131726D01*
X76420000Y-75334584D01*
X76420000Y-75350000D01*
X75733740Y-75350000D01*
X75691999Y-75345889D01*
X75650258Y-75350000D01*
X75650251Y-75350000D01*
X75541013Y-75360759D01*
X75525370Y-75362300D01*
X75365145Y-75410903D01*
X75217481Y-75489832D01*
X75088052Y-75596052D01*
X75061439Y-75628480D01*
X73053920Y-77636000D01*
X72045020Y-77636000D01*
X72067963Y-77580611D01*
X72116000Y-77339114D01*
X72116000Y-77092886D01*
X72067963Y-76851389D01*
X71973735Y-76623903D01*
X71945068Y-76581000D01*
X71973735Y-76538097D01*
X72067963Y-76310611D01*
X72116000Y-76069114D01*
X72116000Y-75822886D01*
X72067963Y-75581389D01*
X71973735Y-75353903D01*
X71945068Y-75311000D01*
X71973735Y-75268097D01*
X72067963Y-75040611D01*
X72116000Y-74799114D01*
X72116000Y-74552886D01*
X72067963Y-74311389D01*
X71988690Y-74120007D01*
X72014480Y-74034991D01*
X72027184Y-73906000D01*
X72024000Y-73674500D01*
X71859500Y-73510000D01*
X71317433Y-73510000D01*
X71230611Y-73474037D01*
X70989114Y-73426000D01*
X70742886Y-73426000D01*
X70501389Y-73474037D01*
X70414567Y-73510000D01*
X69872500Y-73510000D01*
X69708000Y-73674500D01*
X69704816Y-73906000D01*
X69717520Y-74034991D01*
X69743310Y-74120007D01*
X69664037Y-74311389D01*
X69616000Y-74552886D01*
X54950000Y-74552886D01*
X54950000Y-72906000D01*
X69704816Y-72906000D01*
X69708000Y-73137500D01*
X69872500Y-73302000D01*
X70762000Y-73302000D01*
X70762000Y-72412500D01*
X70970000Y-72412500D01*
X70970000Y-73302000D01*
X71859500Y-73302000D01*
X72024000Y-73137500D01*
X72027184Y-72906000D01*
X72014480Y-72777009D01*
X71976854Y-72652976D01*
X71915754Y-72538666D01*
X71833528Y-72438472D01*
X71733334Y-72356246D01*
X71619024Y-72295146D01*
X71494991Y-72257520D01*
X71366000Y-72244816D01*
X71134500Y-72248000D01*
X70970000Y-72412500D01*
X70762000Y-72412500D01*
X70597500Y-72248000D01*
X70366000Y-72244816D01*
X70237009Y-72257520D01*
X70112976Y-72295146D01*
X69998666Y-72356246D01*
X69898472Y-72438472D01*
X69816246Y-72538666D01*
X69755146Y-72652976D01*
X69717520Y-72777009D01*
X69704816Y-72906000D01*
X54950000Y-72906000D01*
X54950000Y-67511620D01*
X57321220Y-67511620D01*
X57321220Y-67968380D01*
X57410329Y-68416363D01*
X57585123Y-68838354D01*
X57838886Y-69218136D01*
X58161864Y-69541114D01*
X58541646Y-69794877D01*
X58963637Y-69969671D01*
X59411620Y-70058780D01*
X59868380Y-70058780D01*
X60316363Y-69969671D01*
X60738354Y-69794877D01*
X61118136Y-69541114D01*
X61441114Y-69218136D01*
X61694877Y-68838354D01*
X61869671Y-68416363D01*
X61958780Y-67968380D01*
X61958780Y-67511620D01*
X61869671Y-67063637D01*
X61694877Y-66641646D01*
X61441114Y-66261864D01*
X61118136Y-65938886D01*
X60738354Y-65685123D01*
X60316363Y-65510329D01*
X59868380Y-65421220D01*
X59411620Y-65421220D01*
X58963637Y-65510329D01*
X58541646Y-65685123D01*
X58161864Y-65938886D01*
X57838886Y-66261864D01*
X57585123Y-66641646D01*
X57410329Y-67063637D01*
X57321220Y-67511620D01*
X54950000Y-67511620D01*
X54950000Y-50501477D01*
X55904320Y-50346056D01*
X55952434Y-50334505D01*
X56000779Y-50324229D01*
X56021054Y-50318031D01*
X56021059Y-50318030D01*
X56021063Y-50318028D01*
X57009186Y-50001728D01*
X57055077Y-49983187D01*
X57101360Y-49965882D01*
X57120500Y-49956754D01*
X58051022Y-49497871D01*
X58093644Y-49472765D01*
X58136886Y-49448795D01*
X58154466Y-49436938D01*
X59006940Y-48845556D01*
X59045387Y-48814422D01*
X59084608Y-48784327D01*
X59100242Y-48770002D01*
X59855940Y-48059111D01*
X59889365Y-48022634D01*
X59900001Y-48011620D01*
X64321220Y-48011620D01*
X64321220Y-48468380D01*
X64410329Y-48916363D01*
X64585123Y-49338354D01*
X64838886Y-49718136D01*
X65161864Y-50041114D01*
X65541646Y-50294877D01*
X65963637Y-50469671D01*
X66411620Y-50558780D01*
X66868380Y-50558780D01*
X67316363Y-50469671D01*
X67738354Y-50294877D01*
X68118136Y-50041114D01*
X68441114Y-49718136D01*
X68694877Y-49338354D01*
X68869671Y-48916363D01*
X68958780Y-48468380D01*
X68958780Y-48011620D01*
X68869671Y-47563637D01*
X68694877Y-47141646D01*
X68441114Y-46761864D01*
X68118136Y-46438886D01*
X67738354Y-46185123D01*
X67316363Y-46010329D01*
X66868380Y-45921220D01*
X66411620Y-45921220D01*
X65963637Y-46010329D01*
X65541646Y-46185123D01*
X65161864Y-46438886D01*
X64838886Y-46761864D01*
X64585123Y-47141646D01*
X64410329Y-47563637D01*
X64321220Y-48011620D01*
X59900001Y-48011620D01*
X59923703Y-47987076D01*
X59937048Y-47970597D01*
X60579370Y-47155816D01*
X60607037Y-47114798D01*
X60635741Y-47074556D01*
X60646504Y-47056286D01*
X61161338Y-46155514D01*
X61182630Y-46110875D01*
X61205080Y-46066813D01*
X61213023Y-46047153D01*
X61589059Y-45080177D01*
X61603522Y-45032872D01*
X61619210Y-44985986D01*
X61624157Y-44965378D01*
X61624161Y-44965366D01*
X61624163Y-44965356D01*
X61853138Y-43953431D01*
X61860450Y-43904508D01*
X61869035Y-43855818D01*
X61870884Y-43834694D01*
X61892040Y-43550000D01*
X122378523Y-43550000D01*
X122533944Y-44504320D01*
G36*
X91196638Y-60366498D02*
G01*
X91387726Y-60445650D01*
X91590584Y-60486000D01*
X91797416Y-60486000D01*
X92000274Y-60445650D01*
X92114000Y-60398543D01*
X92114001Y-68663918D01*
X90975837Y-69802083D01*
X90833726Y-69830350D01*
X90642638Y-69909502D01*
X90470664Y-70024411D01*
X90324411Y-70170664D01*
X90209502Y-70342638D01*
X90130350Y-70533726D01*
X90090000Y-70736584D01*
X90090000Y-70943416D01*
X90130350Y-71146274D01*
X90209502Y-71337362D01*
X90324411Y-71509336D01*
X90470664Y-71655589D01*
X90642638Y-71770498D01*
X90833726Y-71849650D01*
X91036584Y-71890000D01*
X91243416Y-71890000D01*
X91446274Y-71849650D01*
X91637362Y-71770498D01*
X91809336Y-71655589D01*
X91955589Y-71509336D01*
X92070498Y-71337362D01*
X92149650Y-71146274D01*
X92177917Y-71004163D01*
X93384000Y-69798080D01*
X93384000Y-80907482D01*
X93237362Y-80809502D01*
X93046274Y-80730350D01*
X92904164Y-80702083D01*
X88084566Y-75882486D01*
X88057948Y-75850052D01*
X87928519Y-75743832D01*
X87780855Y-75664903D01*
X87620629Y-75616300D01*
X87495749Y-75604000D01*
X87495741Y-75604000D01*
X87454000Y-75599889D01*
X87412259Y-75604000D01*
X81643836Y-75604000D01*
X81523362Y-75523502D01*
X81332274Y-75444350D01*
X81129416Y-75404000D01*
X80960000Y-75404000D01*
X80960000Y-75138654D01*
X80964595Y-75091999D01*
X80960000Y-75045345D01*
X80960000Y-75045335D01*
X80946254Y-74905768D01*
X80891932Y-74726692D01*
X80803718Y-74561655D01*
X80778520Y-74530951D01*
X80714748Y-74453245D01*
X80714745Y-74453242D01*
X80685001Y-74416999D01*
X80648757Y-74387254D01*
X79730149Y-73468647D01*
X79670498Y-73324638D01*
X79555589Y-73152664D01*
X79409336Y-73006411D01*
X79237362Y-72891502D01*
X79046274Y-72812350D01*
X78843416Y-72772000D01*
X78636584Y-72772000D01*
X78433726Y-72812350D01*
X78320000Y-72859457D01*
X78320000Y-68424080D01*
X79854081Y-66890000D01*
X80742887Y-66890000D01*
X80738000Y-66914571D01*
X80738000Y-67121403D01*
X80778350Y-67324261D01*
X80857502Y-67515349D01*
X80972411Y-67687323D01*
X81118664Y-67833576D01*
X81290638Y-67948485D01*
X81481726Y-68027637D01*
X81684584Y-68067987D01*
X81891416Y-68067987D01*
X82094274Y-68027637D01*
X82285362Y-67948485D01*
X82457336Y-67833576D01*
X82459753Y-67831159D01*
X82539119Y-67807084D01*
X82686783Y-67728155D01*
X82816212Y-67621935D01*
X82842830Y-67589501D01*
X86272001Y-64160332D01*
X86272001Y-64671917D01*
X83655837Y-67288083D01*
X83513726Y-67316350D01*
X83322638Y-67395502D01*
X83150664Y-67510411D01*
X83004411Y-67656664D01*
X82889502Y-67828638D01*
X82810350Y-68019726D01*
X82770000Y-68222584D01*
X82770000Y-68292000D01*
X82700584Y-68292000D01*
X82497726Y-68332350D01*
X82306638Y-68411502D01*
X82134664Y-68526411D01*
X81988411Y-68672664D01*
X81873502Y-68844638D01*
X81794350Y-69035726D01*
X81754000Y-69238584D01*
X81754000Y-69445416D01*
X81794350Y-69648274D01*
X81873502Y-69839362D01*
X81988411Y-70011336D01*
X82134664Y-70157589D01*
X82306638Y-70272498D01*
X82497726Y-70351650D01*
X82639837Y-70379917D01*
X82727433Y-70467513D01*
X82754051Y-70499947D01*
X82883480Y-70606167D01*
X83031144Y-70685096D01*
X83102134Y-70706630D01*
X83191369Y-70733699D01*
X83207012Y-70735240D01*
X83316250Y-70745999D01*
X83316257Y-70745999D01*
X83357998Y-70750110D01*
X83399739Y-70745999D01*
X89320260Y-70745999D01*
X89362001Y-70750110D01*
X89403742Y-70745999D01*
X89403750Y-70745999D01*
X89528630Y-70733699D01*
X89688856Y-70685096D01*
X89836520Y-70606167D01*
X89965949Y-70499947D01*
X89992567Y-70467513D01*
X90741519Y-69718562D01*
X90773948Y-69691948D01*
X90880168Y-69562519D01*
X90959097Y-69414855D01*
X90983123Y-69335650D01*
X91007700Y-69254630D01*
X91014476Y-69185831D01*
X91020000Y-69129749D01*
X91020000Y-69129742D01*
X91024111Y-69088001D01*
X91020000Y-69046260D01*
X91020000Y-60561836D01*
X91100498Y-60441362D01*
X91145626Y-60332413D01*
X91196638Y-60366498D01*
G37*
X91196638Y-60366498D02*
X91387726Y-60445650D01*
X91590584Y-60486000D01*
X91797416Y-60486000D01*
X92000274Y-60445650D01*
X92114000Y-60398543D01*
X92114001Y-68663918D01*
X90975837Y-69802083D01*
X90833726Y-69830350D01*
X90642638Y-69909502D01*
X90470664Y-70024411D01*
X90324411Y-70170664D01*
X90209502Y-70342638D01*
X90130350Y-70533726D01*
X90090000Y-70736584D01*
X90090000Y-70943416D01*
X90130350Y-71146274D01*
X90209502Y-71337362D01*
X90324411Y-71509336D01*
X90470664Y-71655589D01*
X90642638Y-71770498D01*
X90833726Y-71849650D01*
X91036584Y-71890000D01*
X91243416Y-71890000D01*
X91446274Y-71849650D01*
X91637362Y-71770498D01*
X91809336Y-71655589D01*
X91955589Y-71509336D01*
X92070498Y-71337362D01*
X92149650Y-71146274D01*
X92177917Y-71004163D01*
X93384000Y-69798080D01*
X93384000Y-80907482D01*
X93237362Y-80809502D01*
X93046274Y-80730350D01*
X92904164Y-80702083D01*
X88084566Y-75882486D01*
X88057948Y-75850052D01*
X87928519Y-75743832D01*
X87780855Y-75664903D01*
X87620629Y-75616300D01*
X87495749Y-75604000D01*
X87495741Y-75604000D01*
X87454000Y-75599889D01*
X87412259Y-75604000D01*
X81643836Y-75604000D01*
X81523362Y-75523502D01*
X81332274Y-75444350D01*
X81129416Y-75404000D01*
X80960000Y-75404000D01*
X80960000Y-75138654D01*
X80964595Y-75091999D01*
X80960000Y-75045345D01*
X80960000Y-75045335D01*
X80946254Y-74905768D01*
X80891932Y-74726692D01*
X80803718Y-74561655D01*
X80778520Y-74530951D01*
X80714748Y-74453245D01*
X80714745Y-74453242D01*
X80685001Y-74416999D01*
X80648757Y-74387254D01*
X79730149Y-73468647D01*
X79670498Y-73324638D01*
X79555589Y-73152664D01*
X79409336Y-73006411D01*
X79237362Y-72891502D01*
X79046274Y-72812350D01*
X78843416Y-72772000D01*
X78636584Y-72772000D01*
X78433726Y-72812350D01*
X78320000Y-72859457D01*
X78320000Y-68424080D01*
X79854081Y-66890000D01*
X80742887Y-66890000D01*
X80738000Y-66914571D01*
X80738000Y-67121403D01*
X80778350Y-67324261D01*
X80857502Y-67515349D01*
X80972411Y-67687323D01*
X81118664Y-67833576D01*
X81290638Y-67948485D01*
X81481726Y-68027637D01*
X81684584Y-68067987D01*
X81891416Y-68067987D01*
X82094274Y-68027637D01*
X82285362Y-67948485D01*
X82457336Y-67833576D01*
X82459753Y-67831159D01*
X82539119Y-67807084D01*
X82686783Y-67728155D01*
X82816212Y-67621935D01*
X82842830Y-67589501D01*
X86272001Y-64160332D01*
X86272001Y-64671917D01*
X83655837Y-67288083D01*
X83513726Y-67316350D01*
X83322638Y-67395502D01*
X83150664Y-67510411D01*
X83004411Y-67656664D01*
X82889502Y-67828638D01*
X82810350Y-68019726D01*
X82770000Y-68222584D01*
X82770000Y-68292000D01*
X82700584Y-68292000D01*
X82497726Y-68332350D01*
X82306638Y-68411502D01*
X82134664Y-68526411D01*
X81988411Y-68672664D01*
X81873502Y-68844638D01*
X81794350Y-69035726D01*
X81754000Y-69238584D01*
X81754000Y-69445416D01*
X81794350Y-69648274D01*
X81873502Y-69839362D01*
X81988411Y-70011336D01*
X82134664Y-70157589D01*
X82306638Y-70272498D01*
X82497726Y-70351650D01*
X82639837Y-70379917D01*
X82727433Y-70467513D01*
X82754051Y-70499947D01*
X82883480Y-70606167D01*
X83031144Y-70685096D01*
X83102134Y-70706630D01*
X83191369Y-70733699D01*
X83207012Y-70735240D01*
X83316250Y-70745999D01*
X83316257Y-70745999D01*
X83357998Y-70750110D01*
X83399739Y-70745999D01*
X89320260Y-70745999D01*
X89362001Y-70750110D01*
X89403742Y-70745999D01*
X89403750Y-70745999D01*
X89528630Y-70733699D01*
X89688856Y-70685096D01*
X89836520Y-70606167D01*
X89965949Y-70499947D01*
X89992567Y-70467513D01*
X90741519Y-69718562D01*
X90773948Y-69691948D01*
X90880168Y-69562519D01*
X90959097Y-69414855D01*
X90983123Y-69335650D01*
X91007700Y-69254630D01*
X91014476Y-69185831D01*
X91020000Y-69129749D01*
X91020000Y-69129742D01*
X91024111Y-69088001D01*
X91020000Y-69046260D01*
X91020000Y-60561836D01*
X91100498Y-60441362D01*
X91145626Y-60332413D01*
X91196638Y-60366498D01*
M02*
